<svg width="82" height="76" viewBox="0 0 82 76" fill="none" xmlns="http://www.w3.org/2000/svg">
<path d="M61.9936 6.80786L59.3841 5.36905C56.068 3.47551 52.5308 1.99857 48.8528 0.971757L48.7591 0.946216C45.592 0.0948517 41.2586 -1.05023 37.138 1.92529C33.3579 4.65817 32.2554 10.2687 31.9361 13.3719C31.4849 17.7266 31.3657 22.4091 32.0936 33.4556L32.2937 36.4353C32.308 36.6598 32.4106 36.8694 32.5789 37.0185C32.7341 37.1554 32.9339 37.2314 33.1408 37.2314H33.2047L39.1642 36.8397C39.3908 36.8254 39.6023 36.7212 39.7517 36.5503C39.8979 36.379 39.9726 36.1579 39.9603 35.933L39.7644 32.9533C38.994 21.3492 39.2366 17.4414 39.5771 14.1594C39.8964 11.0987 40.8542 9.14486 41.646 8.56593C42.6633 7.8295 43.834 7.56132 46.8095 8.34883L46.9074 8.37437C49.9784 9.2452 52.9318 10.4874 55.702 12.0735L58.3114 13.5166C58.5095 13.6259 58.7429 13.6518 58.9601 13.5887C59.1774 13.5257 59.3606 13.3787 59.4693 13.1803L62.3511 7.96572C62.4588 7.76505 62.4816 7.52963 62.4144 7.31205C62.3472 7.09448 62.1956 6.91289 61.9936 6.80786Z" fill="#EAF3F3"/>
<path d="M68.8811 57.2044C68.7917 55.7272 68.7108 54.1394 68.6257 52.4835C68.332 46.7113 67.9957 40.1728 67.1614 35.0306C66.5271 31.1398 65.5438 28.8071 61.9425 26.849C58.818 25.1462 54.6122 25.1462 50.9088 25.3761C47.2773 25.6618 43.6638 26.1421 40.0837 26.8149L38.5129 27.0788C36.8102 27.3598 33.7921 28.143 29.4757 29.3988C25.4449 30.5668 22.6258 34.1989 22.4945 38.3935C22.3881 41.7564 22.2519 46.209 22.2093 48.3459C22.1242 52.4921 22.1582 65.122 22.2093 70.856C22.231 72.8434 23.7052 74.5151 25.6744 74.785C26.6097 74.9176 27.5522 74.993 28.4966 75.0107C29.8333 75.0404 31.1869 75.0915 32.5406 75.1384C34.9798 75.2235 37.4828 75.3129 39.9517 75.3129H41.1309C43.6594 75.2831 46.2391 75.1639 48.7378 75.0447C50.9173 74.9468 53.1692 74.8404 55.3827 74.7978C57.8219 74.7467 62.5725 74.5296 66.1269 74.3721C67.889 74.2962 69.2684 72.8279 69.2344 71.0646C69.1961 67.2675 69.0769 60.431 68.8811 57.2044Z" fill="#EAF3F3"/>
<path d="M44.1703 43.9063C43.9915 40.5817 41.8247 38.3511 38.7769 38.3511C37.6732 38.3332 36.6119 38.7759 35.8482 39.5728C34.6775 40.7818 34.1071 42.7739 34.1965 45.3323C34.3242 49.1294 34.5328 61.8062 34.5328 61.9339C34.5328 62.4041 34.914 62.7853 35.3842 62.7853H35.4055L43.6552 62.5895C44.117 62.5779 44.4854 62.2001 44.4853 61.7381C44.4853 61.5891 44.4214 48.559 44.1703 43.9063Z" fill="#3B3B3B"/>
<path d="M56.6598 72.8867C56.1896 72.8867 55.8084 72.5055 55.8084 72.0353C55.868 64.19 55.7318 57.2301 55.553 48.9505C55.4891 45.9708 55.3487 43.6295 55.2039 41.1691C55.1145 39.7005 55.0251 38.1893 54.94 36.4227C54.7272 31.8211 53.9311 29.6799 53.2969 28.6966C53.1326 28.4403 53.1176 28.1159 53.2574 27.8455C53.3972 27.5752 53.6706 27.3999 53.9746 27.3858C54.2787 27.3717 54.5672 27.5209 54.7314 27.7771C55.8127 29.4798 56.4554 32.3489 56.6427 36.3418C56.7236 38.0957 56.813 39.6068 56.9024 41.0669C57.0514 43.5444 57.1919 45.8856 57.2557 48.9122C57.4345 57.2088 57.5707 64.1815 57.5111 72.0481C57.5042 72.5133 57.125 72.8867 56.6598 72.8867Z" fill="#3B3B3B"/>
<path d="M71.8439 4.03246C71.5251 4.03258 71.233 3.85466 71.0869 3.57138C70.9408 3.28811 70.9651 2.94695 71.15 2.6873L72.7122 0.490783C72.8887 0.24289 73.1839 0.107944 73.4868 0.136777C73.7897 0.16561 74.0542 0.353842 74.1807 0.630568C74.3071 0.907294 74.2764 1.23047 74.1 1.47837L72.5377 3.67489C72.3779 3.89933 72.1194 4.03257 71.8439 4.03246Z" fill="#FCD400"/>
<path d="M77.6714 11.5627C77.2013 11.5945 76.7944 11.239 76.7626 10.7689C76.7309 10.2987 77.0863 9.89176 77.5565 9.86002L80.7491 9.43434C81.2193 9.37086 81.652 9.70057 81.7154 10.1708C81.7789 10.641 81.4492 11.0736 80.979 11.1371L77.7864 11.5627C77.7482 11.567 77.7096 11.567 77.6714 11.5627Z" fill="#FCD400"/>
<path d="M80.796 23.3287C80.6612 23.3285 80.5285 23.2964 80.4086 23.235L77.8332 21.9111C77.4147 21.696 77.2499 21.1824 77.465 20.7639C77.6801 20.3454 78.1937 20.1806 78.6122 20.3957L81.1876 21.7196C81.5382 21.8992 81.7198 22.2959 81.6266 22.6786C81.5335 23.0614 81.1899 23.3302 80.796 23.3287Z" fill="#FCD400"/>
<path d="M44.1788 44.136C44.1535 43.669 43.7563 43.3097 43.2891 43.3314C40.5009 43.4677 37.7552 43.5187 34.9457 43.5656C32.9322 43.5996 30.9571 43.7231 29.05 43.8423C27.143 43.9615 25.2572 44.0806 23.3672 44.1062C22.5669 44.1062 20.9791 44.1786 19.536 44.2339C19.2253 41.3307 17.8333 37.6443 15.2409 35.4521C13.5177 33.9493 11.2428 33.2389 8.97059 33.4939C4.58181 33.9622 1.06567 38.1764 0.414379 43.7103C-0.0538714 47.7287 -0.76476 53.8032 2.40657 58.4815C3.75216 60.5486 5.88315 61.9769 8.30653 62.4361C8.78293 62.5199 9.26586 62.5612 9.74959 62.5596H9.99223C11.7944 62.4901 13.5341 61.8806 14.9855 60.81C17.8248 58.7497 19.3615 55.4378 19.668 50.6957C21.5665 50.6191 22.8351 50.5766 23.4438 50.568C25.4913 50.5382 27.4963 50.4105 29.4374 50.2871H29.5012C31.3189 50.1764 33.1962 50.0572 35.0351 50.0274C37.8787 49.9806 40.6626 49.9253 43.5062 49.7933C43.9597 49.7706 44.3155 49.396 44.315 48.9419C44.2724 46.8135 44.2384 45.2044 44.1788 44.136ZM11.2097 55.5783C10.7131 55.9807 10.072 56.1594 9.43884 56.0721C8.73862 55.9136 8.13488 55.4731 7.77017 54.8547C6.06744 52.3729 6.37393 48.5205 6.84644 44.4595C7.14867 41.9054 8.54917 40.0367 9.66871 39.9175H9.84324H9.89858C10.3377 39.922 10.7589 40.0923 11.0777 40.3942C12.2611 41.3946 13.0614 43.6294 13.155 45.2087V45.2938C13.3551 48.678 13.6488 53.8117 11.2097 55.5783Z" fill="#FCD400"/>
<path d="M43.6339 62.5765C43.1637 62.5765 42.7825 62.1953 42.7825 61.7251C42.7825 61.5932 42.7187 48.6056 42.4718 43.9912C42.3398 41.5606 40.9223 40.0494 38.7769 40.0494C38.3067 40.0494 37.9255 39.6682 37.9255 39.198C37.9255 38.7278 38.3067 38.3467 38.7769 38.3467C41.8247 38.3467 43.9915 40.5773 44.1703 43.9018C44.4214 48.5545 44.4853 61.5847 44.4853 61.7166C44.4853 62.1868 44.1041 62.568 43.6339 62.568V62.5765Z" fill="#3B3B3B"/>
</svg>
