<svg width="99" height="107" viewBox="0 0 99 107" fill="none" xmlns="http://www.w3.org/2000/svg">
<path d="M97.388 65.9679C97.2305 65.3268 97.0729 64.6857 96.9396 64.1344C96.3639 61.6727 95.7276 59.2687 95.061 56.948C94.3944 54.6273 93.7399 52.1528 93.1703 49.6783C92.8855 48.4346 92.6007 47.114 92.3158 45.787C91.0008 39.7032 89.5101 32.8053 86.6558 27.5806C82.4139 19.7787 77.4568 20.7468 71.215 21.9776L70.9302 22.0353C65.143 23.17 39.1881 29.9205 32.104 32.3437C28.8256 33.472 25.3653 34.2669 22.0202 35.0555C17.9139 35.9209 13.8654 37.0687 9.90031 38.4916C5.47047 40.184 2.71925 42.1393 1.25273 44.6395C-1.05005 48.5628 0.24678 54.5632 1.75571 61.506C2.82227 66.4166 4.28272 71.4105 5.69469 76.2506C6.18555 77.9174 6.67034 79.5778 7.13696 81.2253C7.98536 84.2255 9.56095 89.4951 11.888 96.8931C13.706 102.663 18.5539 106.471 23.6807 106.471C24.3987 106.471 25.1151 106.398 25.8198 106.253C30.2012 105.336 33.1645 104.637 34.6128 104.176C36.9096 103.445 39.2851 102.752 41.7939 102.015C45.6602 100.874 49.6719 99.701 53.3563 98.406C57.4347 96.9764 61.6161 95.6622 65.6581 94.3993C72.0028 92.4056 78.5658 90.3478 84.9227 87.7899C85.7529 87.4501 86.7831 87.1488 87.8739 86.8091C91.7341 85.6423 96.5396 84.1935 98.2243 80.0137C99.909 75.8339 98.4849 70.3977 97.388 65.9679Z" fill="#ECF0F1"/>
<path d="M87.8801 71.0387C82.9412 66.0512 69.1427 60.2816 64.6219 58.4673C65.6824 56.7364 66.6884 54.9222 67.6519 53.1593C68.7488 51.1591 69.888 49.0949 71.1 47.1909C73.6998 43.0881 79.2931 33.5489 79.3476 33.4528C79.5761 33.0634 79.5908 32.5747 79.3862 32.1708C79.1817 31.7669 78.789 31.509 78.356 31.4945C77.9231 31.4799 77.5157 31.7107 77.2873 32.1001C77.2327 32.1963 71.6636 41.7162 69.0881 45.7613C67.8337 47.7358 66.6641 49.8385 65.5552 51.8643C64.3432 54.0632 63.0948 56.3518 61.7556 58.3776C59.6103 61.6534 56.3683 66.6089 53.1868 68.2116C41.5395 74.0774 20.1721 59.602 13.1486 54.8453C12.1972 54.2042 11.5063 53.7298 11.07 53.4734C8.97326 52.1912 5.29486 50.3321 5.1373 50.268C4.53153 49.96 3.80441 50.2298 3.51323 50.8706C3.22206 51.5115 3.47709 52.2807 4.08287 52.5887C4.11923 52.5887 7.84005 54.5119 9.86408 55.7171C10.2459 55.9479 10.9488 56.4223 11.8336 56.9993C15.3786 59.3969 22.4385 64.1793 30.2316 67.7244C26.6502 73.7697 22.2749 87.6488 21.3841 90.5273C21.1771 91.1999 21.5242 91.9228 22.1597 92.1428C22.281 92.1849 22.4078 92.2069 22.5355 92.2069C23.0597 92.2069 23.5243 91.8495 23.6869 91.3222C26.1108 83.3986 29.8438 72.9619 32.5162 68.7116C37.3642 70.7054 42.3273 72.1093 46.8662 72.1093C49.3986 72.1732 51.9123 71.6366 54.223 70.5387C57.7136 68.7757 60.8345 64.269 63.2039 60.6662C66.9187 62.1343 81.4444 68.077 86.2015 72.9042C86.4277 73.1349 86.7297 73.2636 87.0438 73.2632C87.5399 73.2639 87.9864 72.9446 88.1706 72.4573C88.3549 71.9699 88.2398 71.413 87.8801 71.0515V71.0387Z" fill="#7F8C8D"/>
<path d="M95.6307 6.22651C91.4493 1.23257 82.8624 -2.01765 76.2752 1.4313C73.0755 3.1045 69.6092 5.53415 68.3972 10.8935C67.6519 14.0989 66.9428 19.003 69.4638 24.1637C71.9605 29.2922 76.9418 32.286 82.8503 32.286H83.226C89.2072 32.1578 94.9641 27.8755 97.5457 21.6378C99.8182 16.1246 99.1031 10.3678 95.6307 6.22651Z" fill="#FC6E47"/>
<path d="M85.0196 23.997C84.4289 24.0078 83.9168 23.5663 83.8076 22.952C83.3652 20.4519 82.8623 15.7849 82.5532 12.6949C81.4887 14.0798 80.3149 15.3666 79.0445 16.5413C78.7024 16.8231 78.2443 16.8903 77.8426 16.7178C77.441 16.5452 77.1568 16.1591 77.0972 15.7049C77.0376 15.2506 77.2117 14.7973 77.5537 14.5156C78.9233 13.3873 81.5957 9.95755 82.5108 8.74593C82.8137 8.33733 83.3197 8.16235 83.7922 8.30278C84.2648 8.44321 84.6107 8.8713 84.6681 9.387C84.6681 9.48316 85.5287 18.7274 86.1953 22.4841C86.2555 22.8191 86.187 23.1657 86.0051 23.4472C85.8231 23.7287 85.5426 23.922 85.2257 23.9842L85.0196 23.997Z" fill="white"/>
</svg>
