<svg width="24" height="24" viewBox="0 0 24 24" fill="none" xmlns="http://www.w3.org/2000/svg">
<path fill-rule="evenodd" clip-rule="evenodd" d="M3.70784 0.983993C3.69968 0.997193 3.6485 1.00799 3.59414 1.00799C3.4667 1.00799 3.22802 1.08305 3.18968 1.13513C3.18188 1.14575 3.15218 1.15613 3.12368 1.15829C3.09518 1.16045 3.07184 1.17071 3.07184 1.18109C3.07184 1.19147 3.05564 1.19999 3.03584 1.19999C3.01604 1.19999 2.99984 1.21079 2.99984 1.22399C2.99984 1.23719 2.97542 1.24799 2.9456 1.24799C2.91578 1.24799 2.87792 1.26959 2.86142 1.29599C2.84492 1.32239 2.81468 1.34399 2.79422 1.34399C2.77376 1.34399 2.76368 1.35479 2.77184 1.36799C2.78 1.38119 2.76446 1.39199 2.73728 1.39199C2.7101 1.39199 2.68784 1.40051 2.68784 1.41089C2.68784 1.43927 2.45624 1.68041 2.44232 1.66649C2.43572 1.65989 2.41682 1.68707 2.40026 1.72691C2.38376 1.76675 2.35904 1.79243 2.34536 1.78397C2.33144 1.77539 2.32754 1.78013 2.3366 1.79471C2.34548 1.80911 2.32532 1.84835 2.29178 1.88189C2.25818 1.91543 2.231 1.94855 2.2313 1.95545C2.23358 2.00741 2.22878 2.01695 2.20724 2.00363C2.19374 1.99529 2.1842 1.99733 2.18606 2.00819C2.19536 2.06153 2.17952 2.10761 2.13584 2.15447C2.10944 2.18279 2.08766 2.22533 2.08748 2.24897C2.08712 2.29067 2.0417 2.43533 2.01362 2.48399C2.006 2.49719 1.99712 2.56199 1.99382 2.62799C1.99058 2.69399 1.97816 2.75153 1.96634 2.75585C1.95368 2.76041 1.9445 4.67573 1.94408 7.38053L1.94336 11.9974L2.6816 12.0049C3.42356 12.0124 3.47708 12.0159 3.50948 12.06C3.5204 12.0749 3.52724 12.0726 3.52748 12.054C3.52778 12.031 3.64274 12.024 4.02128 12.024C4.34408 12.024 4.50956 12.0323 4.49984 12.048C4.47602 12.0866 4.57502 12.0756 4.60784 12.036C4.63406 12.0044 4.96268 12 7.29878 12H9.95984V10.4789C9.95984 8.74961 9.94586 8.85731 10.1539 8.98367C10.2253 9.02711 10.3108 9.07829 10.3438 9.09731C10.3768 9.11639 10.4092 9.13739 10.4158 9.14399C10.4224 9.15059 10.4521 9.16949 10.4818 9.18599C10.5115 9.20249 10.5601 9.22949 10.5898 9.24599C10.6195 9.26249 10.6492 9.28139 10.6558 9.28799C10.6624 9.29459 10.6894 9.31181 10.7158 9.32627C10.83 9.38867 10.8846 9.42077 10.8958 9.43199C10.9196 9.45575 11.0527 9.53123 11.0938 9.54425C11.1169 9.55157 11.1358 9.56711 11.1358 9.57881C11.1358 9.59045 11.1474 9.59999 11.1615 9.59999C11.1756 9.59999 11.2343 9.63239 11.2918 9.67199C11.3494 9.71159 11.4037 9.74399 11.4124 9.74399C11.4212 9.74399 11.5254 9.80339 11.644 9.87599C11.7627 9.94859 11.865 10.008 11.8714 10.008C11.8779 10.008 11.9303 10.0404 11.9878 10.08C12.0454 10.1196 12.1041 10.152 12.1182 10.152C12.1323 10.152 12.1438 10.1615 12.1438 10.1732C12.1438 10.1849 12.1627 10.2004 12.1858 10.2077C12.2271 10.2208 12.3602 10.2963 12.3838 10.3201C12.3904 10.3267 12.4255 10.3474 12.4618 10.3661C12.4981 10.3848 12.5278 10.4091 12.5278 10.4201C12.5278 10.431 12.5445 10.44 12.5649 10.44C12.5852 10.44 12.625 10.4616 12.6534 10.488C12.6817 10.5144 12.7191 10.536 12.7363 10.536C12.7537 10.536 12.7678 10.5468 12.7678 10.56C12.7678 10.5732 12.7786 10.584 12.7918 10.584C12.8119 10.584 13.0156 10.702 13.5478 11.022C13.5874 11.0458 13.6387 11.0717 13.6618 11.0795C13.6849 11.0872 13.7038 11.1031 13.7038 11.1148C13.7038 11.1265 13.7154 11.136 13.7295 11.136C13.7436 11.136 13.8023 11.1684 13.8598 11.208C13.9174 11.2476 13.9714 11.28 13.9798 11.28C13.9883 11.28 14.0423 11.3124 14.0998 11.352C14.1574 11.3916 14.2161 11.424 14.2302 11.424C14.2443 11.424 14.2558 11.4348 14.2558 11.448C14.2558 11.4612 14.27 11.472 14.2873 11.472C14.3046 11.472 14.342 11.4936 14.3703 11.52C14.3986 11.5464 14.4385 11.568 14.4588 11.568C14.4792 11.568 14.4958 11.5775 14.4958 11.5892C14.4958 11.6009 14.5147 11.6164 14.5378 11.6237C14.5789 11.6368 14.7121 11.7122 14.7358 11.736C14.7424 11.7426 14.8018 11.7769 14.8678 11.8123C15.0093 11.8882 15.053 11.9425 14.9998 11.9763C14.9768 11.991 15.7552 11.9994 17.1641 11.9996C19.0926 11.9999 19.3689 12.0045 19.4006 12.0362C19.423 12.0586 19.4425 12.0632 19.4517 12.0482C19.461 12.0331 19.6659 12.024 19.9947 12.024C20.2851 12.024 20.5174 12.0325 20.511 12.0429C20.5045 12.0533 20.5282 12.064 20.5636 12.0667C20.6068 12.07 20.6173 12.0649 20.5958 12.0511C20.5321 12.0105 20.6782 12.0007 21.351 12.0003L22.0263 12L22.0407 11.946C22.0667 11.8489 22.0579 2.78813 22.0318 2.77199C22.0186 2.76383 22.0078 2.69903 22.0078 2.62799C22.0078 2.55695 21.997 2.49215 21.9838 2.48399C21.9706 2.47583 21.9598 2.43737 21.9598 2.39855C21.9598 2.35973 21.949 2.32799 21.9358 2.32799C21.9226 2.32799 21.9118 2.29649 21.9118 2.25797C21.9118 2.21951 21.9019 2.18441 21.8896 2.17997C21.8775 2.17559 21.864 2.15603 21.8596 2.13659C21.8554 2.11709 21.8382 2.08649 21.8216 2.06861C21.805 2.05073 21.7975 2.02619 21.805 2.01407C21.8125 2.00189 21.8073 1.99199 21.7933 1.99199C21.7793 1.99199 21.7678 1.97579 21.7678 1.95599C21.7678 1.93619 21.757 1.91999 21.7438 1.91999C21.7306 1.91999 21.7198 1.90379 21.7198 1.88399C21.7198 1.86419 21.709 1.84799 21.6958 1.84799C21.6826 1.84799 21.6718 1.83113 21.6718 1.81055C21.6718 1.78997 21.661 1.77983 21.6478 1.78799C21.6346 1.79615 21.6238 1.78601 21.6238 1.76543C21.6238 1.74485 21.613 1.72799 21.5998 1.72799C21.5866 1.72799 21.5758 1.71251 21.5758 1.69361C21.5758 1.67471 21.5541 1.65233 21.5275 1.64387C21.5009 1.63541 21.4854 1.61849 21.4929 1.60625C21.5005 1.59401 21.4892 1.58399 21.4678 1.58399C21.4465 1.58399 21.4357 1.57319 21.4438 1.55999C21.452 1.54679 21.4446 1.53593 21.4273 1.53593C21.41 1.53587 21.3742 1.50329 21.3478 1.46351C21.3214 1.42373 21.2701 1.37795 21.2338 1.36175C21.1975 1.34555 21.1678 1.32413 21.1678 1.31411C21.1678 1.30415 21.151 1.29599 21.1304 1.29599C21.1083 1.29599 21.1 1.28471 21.1101 1.26827C21.1203 1.25183 21.1168 1.24709 21.1015 1.25651C21.0873 1.26527 21.0594 1.25615 21.0395 1.23623C21.0196 1.21631 20.9938 1.19999 20.9823 1.19999C20.9462 1.19999 20.8322 1.14083 20.832 1.12199C20.8319 1.11209 20.8048 1.10399 20.7718 1.10399C20.7388 1.10399 20.7118 1.09319 20.7118 1.07999C20.7118 1.06679 20.6855 1.05599 20.6533 1.05599C20.6211 1.05599 20.588 1.04519 20.5798 1.03199C20.5717 1.01879 20.5246 1.00799 20.4752 1.00799C20.4258 1.00799 20.3709 0.994493 20.3531 0.977993C20.3269 0.953633 20.3244 0.954713 20.3398 0.983993C20.3553 1.01327 20.3528 1.01435 20.3266 0.989993C20.2849 0.951293 3.73172 0.945293 3.70784 0.983993ZM4.4879 3.04199C4.4879 3.05189 4.52786 3.06287 4.5767 3.06635C4.62554 3.06983 4.67138 3.08063 4.67864 3.09035C4.6859 3.10007 4.70798 3.11159 4.72778 3.11597C4.78064 3.12773 4.82522 3.17033 4.81016 3.19469C4.8029 3.20639 4.81418 3.21599 4.83518 3.21599C4.87346 3.21599 4.9235 3.30815 4.90358 3.34199C4.89776 3.35189 4.90442 3.35999 4.9184 3.35999C4.93568 3.35999 4.94384 3.57149 4.94384 4.01999C4.94384 4.43543 4.93514 4.67999 4.92032 4.67999C4.90736 4.67999 4.88996 4.70699 4.88168 4.73999C4.8734 4.77299 4.85162 4.79999 4.83326 4.79999C4.81484 4.79999 4.79984 4.81499 4.79984 4.83341C4.79984 4.85177 4.77284 4.87355 4.73984 4.88183C4.70684 4.89011 4.67984 4.90751 4.67984 4.92047C4.67984 4.93529 4.43528 4.94399 4.01984 4.94399C3.57134 4.94399 3.35984 4.93583 3.35984 4.91855C3.35984 4.90457 3.35174 4.89791 3.34184 4.90373C3.308 4.92365 3.21584 4.87361 3.21584 4.83533C3.21584 4.81433 3.20624 4.80305 3.19454 4.81031C3.17018 4.82537 3.12758 4.78079 3.11582 4.72793C3.11144 4.70813 3.09992 4.68605 3.0902 4.67879C3.08048 4.67153 3.06968 4.62569 3.0662 4.57685C3.06272 4.52801 3.05174 4.48805 3.04184 4.48805C3.01244 4.48793 3.01994 3.53321 3.04946 3.51497C3.06356 3.50627 3.06902 3.48329 3.06164 3.46397C3.00908 3.32699 3.32684 3.00923 3.46382 3.06179C3.48314 3.06917 3.50612 3.06371 3.51482 3.04961C3.53306 3.02009 4.48778 3.01259 4.4879 3.04199ZM20.482 3.04499C20.4891 3.05657 20.523 3.06599 20.5574 3.06599C20.6798 3.06599 20.8188 3.16817 20.892 3.31199C20.9803 3.48575 20.9803 3.48557 20.9536 3.46907C20.9394 3.46031 20.9278 3.46397 20.9278 3.47717C20.9278 3.49037 20.9386 3.50783 20.9518 3.51599C20.9666 3.52511 20.9758 3.72071 20.9758 4.02281C20.9758 4.36937 20.9682 4.51007 20.9499 4.49879C20.9344 4.48919 20.9259 4.50071 20.9287 4.52735C20.9452 4.68437 20.8807 4.78961 20.7002 4.89965C20.6114 4.95383 19.4502 4.96751 19.327 4.91585C19.2502 4.88357 19.1038 4.73213 19.1038 4.68485C19.1038 4.66739 19.0937 4.65941 19.0813 4.66709C19.0674 4.67567 19.0579 4.42649 19.0566 4.02053C19.0551 3.55985 19.0624 3.35999 19.0806 3.35999C19.095 3.35999 19.1005 3.35009 19.093 3.33791C19.0855 3.32579 19.0936 3.30149 19.111 3.28391C19.1283 3.26639 19.1497 3.23309 19.1584 3.20999C19.1672 3.18689 19.1909 3.16799 19.2111 3.16799C19.2313 3.16799 19.2478 3.15851 19.2478 3.14693C19.2478 3.11795 19.379 3.06599 19.4521 3.06599C19.485 3.06599 19.5118 3.05657 19.5118 3.04499C19.5118 3.03347 19.7272 3.02399 19.9904 3.02399C20.2536 3.02399 20.4748 3.03347 20.482 3.04499ZM4.4879 6.04199C4.4879 6.05189 4.52786 6.06287 4.5767 6.06635C4.62554 6.06983 4.67138 6.08063 4.67864 6.09035C4.6859 6.10007 4.70798 6.11159 4.72778 6.11597C4.78064 6.12773 4.82522 6.17033 4.81016 6.19469C4.8029 6.20639 4.81418 6.21599 4.83518 6.21599C4.87346 6.21599 4.9235 6.30815 4.90358 6.34199C4.89776 6.35189 4.90442 6.35999 4.9184 6.35999C4.93568 6.35999 4.94384 6.57149 4.94384 7.01999C4.94384 7.43543 4.93514 7.67999 4.92032 7.67999C4.90736 7.67999 4.88996 7.70699 4.88168 7.73999C4.8734 7.77299 4.85162 7.79999 4.83326 7.79999C4.81484 7.79999 4.79984 7.81499 4.79984 7.83341C4.79984 7.85177 4.77284 7.87355 4.73984 7.88183C4.70684 7.89011 4.67984 7.90751 4.67984 7.92047C4.67984 7.93529 4.43528 7.94399 4.01984 7.94399C3.57134 7.94399 3.35984 7.93583 3.35984 7.91855C3.35984 7.90457 3.35174 7.89791 3.34184 7.90373C3.308 7.92365 3.21584 7.87361 3.21584 7.83533C3.21584 7.81433 3.20624 7.80305 3.19454 7.81031C3.17018 7.82537 3.12758 7.78079 3.11582 7.72793C3.11144 7.70813 3.09992 7.68605 3.0902 7.67879C3.08048 7.67153 3.06968 7.62569 3.0662 7.57685C3.06272 7.52801 3.05174 7.48805 3.04184 7.48805C3.01244 7.48793 3.01994 6.53321 3.04946 6.51497C3.06356 6.50627 3.06902 6.48329 3.06164 6.46397C3.00908 6.32699 3.32684 6.00923 3.46382 6.06179C3.48314 6.06917 3.50612 6.06371 3.51482 6.04961C3.53306 6.02009 4.48778 6.01259 4.4879 6.04199ZM20.482 6.04499C20.4891 6.05651 20.523 6.06599 20.5574 6.06599C20.6798 6.06599 20.8188 6.16817 20.892 6.31199C20.9803 6.48575 20.9803 6.48557 20.9536 6.46907C20.9394 6.46031 20.9278 6.46397 20.9278 6.47717C20.9278 6.49037 20.9386 6.50783 20.9518 6.51599C20.9666 6.52511 20.9758 6.72071 20.9758 7.02281C20.9758 7.36937 20.9682 7.51007 20.9499 7.49879C20.9344 7.48919 20.9259 7.50071 20.9287 7.52735C20.9452 7.68437 20.8807 7.78961 20.7002 7.89965C20.6114 7.95383 19.4502 7.96751 19.327 7.91585C19.2502 7.88357 19.1038 7.73213 19.1038 7.68485C19.1038 7.66739 19.0937 7.65941 19.0813 7.66709C19.0674 7.67567 19.0579 7.42649 19.0566 7.02053C19.0551 6.55985 19.0624 6.35999 19.0806 6.35999C19.095 6.35999 19.1005 6.35009 19.093 6.33791C19.0855 6.32579 19.0936 6.30149 19.111 6.28391C19.1283 6.26639 19.1497 6.23309 19.1584 6.20999C19.1672 6.18689 19.1909 6.16799 19.2111 6.16799C19.2313 6.16799 19.2478 6.15851 19.2478 6.14693C19.2478 6.11795 19.379 6.06599 19.4521 6.06599C19.485 6.06599 19.5118 6.05651 19.5118 6.04499C19.5118 6.03347 19.7272 6.02399 19.9904 6.02399C20.2536 6.02399 20.4748 6.03347 20.482 6.04499ZM4.4879 9.04199C4.4879 9.05189 4.52786 9.06287 4.5767 9.06635C4.62554 9.06983 4.67138 9.08063 4.67864 9.09035C4.6859 9.10007 4.70798 9.11159 4.72778 9.11597C4.78064 9.12773 4.82522 9.17033 4.81016 9.19469C4.8029 9.20639 4.81418 9.21599 4.83518 9.21599C4.87346 9.21599 4.9235 9.30815 4.90358 9.34199C4.89776 9.35189 4.90442 9.35999 4.9184 9.35999C4.93568 9.35999 4.94384 9.57149 4.94384 10.02C4.94384 10.4354 4.93514 10.68 4.92032 10.68C4.90736 10.68 4.88996 10.707 4.88168 10.74C4.8734 10.773 4.85162 10.8 4.83326 10.8C4.81484 10.8 4.79984 10.815 4.79984 10.8334C4.79984 10.8518 4.77284 10.8736 4.73984 10.8818C4.70684 10.8901 4.67984 10.9075 4.67984 10.9205C4.67984 10.9353 4.43528 10.944 4.01984 10.944C3.57134 10.944 3.35984 10.9358 3.35984 10.9186C3.35984 10.9046 3.35174 10.8979 3.34184 10.9037C3.308 10.9237 3.21584 10.8736 3.21584 10.8353C3.21584 10.8143 3.20624 10.8031 3.19454 10.8103C3.17018 10.8254 3.12758 10.7808 3.11582 10.7279C3.11144 10.7081 3.09992 10.6861 3.0902 10.6788C3.08048 10.6715 3.06968 10.6257 3.0662 10.5769C3.06272 10.528 3.05174 10.4881 3.04184 10.4881C3.01244 10.4879 3.01994 9.53321 3.04946 9.51497C3.06356 9.50627 3.06902 9.48329 3.06164 9.46397C3.00908 9.32699 3.32684 9.00923 3.46382 9.06179C3.48314 9.06917 3.50612 9.06371 3.51482 9.04961C3.53306 9.02009 4.48778 9.01259 4.4879 9.04199ZM20.482 9.04499C20.4891 9.05651 20.523 9.06599 20.5574 9.06599C20.6798 9.06599 20.8188 9.16817 20.892 9.31199C20.9803 9.48575 20.9803 9.48557 20.9536 9.46907C20.9394 9.46031 20.9278 9.46397 20.9278 9.47717C20.9278 9.49037 20.9386 9.50783 20.9518 9.51599C20.9666 9.52511 20.9758 9.72071 20.9758 10.0228C20.9758 10.3694 20.9682 10.5101 20.9499 10.4988C20.9344 10.4892 20.9259 10.5007 20.9287 10.5274C20.9452 10.6844 20.8807 10.7896 20.7002 10.8997C20.6114 10.9538 19.4502 10.9675 19.327 10.9159C19.2502 10.8836 19.1038 10.7321 19.1038 10.6849C19.1038 10.6674 19.0937 10.6594 19.0813 10.6671C19.0674 10.6757 19.0579 10.4265 19.0566 10.0205C19.0551 9.55985 19.0624 9.35999 19.0806 9.35999C19.095 9.35999 19.1005 9.35009 19.093 9.33791C19.0855 9.32579 19.0936 9.30149 19.111 9.28391C19.1283 9.26639 19.1497 9.23309 19.1584 9.20999C19.1672 9.18689 19.1909 9.16799 19.2111 9.16799C19.2313 9.16799 19.2478 9.15851 19.2478 9.14693C19.2478 9.11795 19.379 9.06599 19.4521 9.06599C19.485 9.06599 19.5118 9.05651 19.5118 9.04499C19.5118 9.03347 19.7272 9.02399 19.9904 9.02399C20.2536 9.02399 20.4748 9.03347 20.482 9.04499Z" fill="#F1C40F"/>
<path fill-rule="evenodd" clip-rule="evenodd" d="M10.0316 11.9392C10.0316 15.2017 10.0169 14.9165 10.1793 14.8041C10.2144 14.7798 10.2549 14.76 10.2693 14.76C10.2838 14.76 10.2956 14.7504 10.2956 14.7388C10.2956 14.7271 10.3145 14.7116 10.3376 14.7042C10.3787 14.6912 10.5118 14.6157 10.5356 14.592C10.5422 14.5854 10.5746 14.5643 10.6076 14.5451C10.6406 14.5258 10.9956 14.3125 11.3964 14.0711C11.7973 13.8296 12.1302 13.632 12.1361 13.632C12.1421 13.632 12.1941 13.5996 12.2516 13.56C12.3091 13.5204 12.3669 13.488 12.3799 13.488C12.393 13.488 12.4072 13.4799 12.4116 13.47C12.4216 13.4474 12.5494 13.3695 12.6056 13.3517C12.6287 13.3444 12.6476 13.3289 12.6476 13.3172C12.6476 13.3055 12.6592 13.296 12.6733 13.296C12.6874 13.296 12.7461 13.2636 12.8036 13.224C12.8611 13.1844 12.9137 13.152 12.9203 13.152C12.9343 13.152 13.132 13.0345 13.3117 12.9194C13.3799 12.8757 13.4428 12.84 13.4514 12.84C13.4599 12.84 13.5141 12.8076 13.5716 12.768C13.6291 12.7284 13.6831 12.696 13.6916 12.696C13.7001 12.696 13.7541 12.6636 13.8116 12.624C13.8691 12.5844 13.9278 12.552 13.9419 12.552C13.956 12.552 13.9676 12.5424 13.9676 12.5308C13.9676 12.5191 13.9865 12.5034 14.0096 12.4958C14.0327 12.4883 14.0948 12.4558 14.1476 12.4236C14.2004 12.3915 14.3937 12.2747 14.577 12.1643C14.7604 12.0538 14.9106 11.9527 14.9109 11.9397C14.9112 11.9186 14.5629 11.6865 14.4716 11.6471C14.4518 11.6385 14.4302 11.6253 14.4236 11.6177C14.417 11.6102 14.3858 11.5895 14.3543 11.5717C14.3228 11.554 14.2634 11.5205 14.2223 11.4973C14.1812 11.4741 13.8841 11.297 13.5619 11.1036C13.2399 10.9102 12.9672 10.752 12.9559 10.752C12.9448 10.752 12.9356 10.7412 12.9356 10.728C12.9356 10.7148 12.924 10.704 12.9099 10.704C12.8958 10.704 12.8371 10.6716 12.7796 10.632C12.7221 10.5924 12.6681 10.56 12.6596 10.56C12.6511 10.56 12.5971 10.5276 12.5396 10.488C12.4821 10.4484 12.4281 10.416 12.4196 10.416C12.4111 10.416 12.3571 10.3836 12.2996 10.344C12.2421 10.3044 12.1881 10.272 12.1796 10.272C12.1711 10.272 12.1171 10.2396 12.0596 10.2C12.0021 10.1604 11.948 10.128 11.9395 10.128C11.931 10.128 11.8489 10.0794 11.7571 10.02C11.6652 9.9606 11.5843 9.912 11.5772 9.912C11.5701 9.912 11.5171 9.8796 11.4596 9.84C11.4021 9.8004 11.3481 9.768 11.3396 9.768C11.3311 9.768 11.2771 9.7356 11.2196 9.696C11.1621 9.6564 11.1081 9.624 11.0996 9.624C11.0911 9.624 11.0371 9.5916 10.9796 9.552C10.9221 9.5124 10.8634 9.48 10.8493 9.48C10.8352 9.48 10.8234 9.4719 10.8232 9.462C10.823 9.4521 10.769 9.4176 10.7032 9.38526C10.6374 9.35298 10.5836 9.31788 10.5836 9.30726C10.5836 9.2967 10.5733 9.288 10.5607 9.288C10.5481 9.288 10.4305 9.2232 10.2994 9.144C10.1683 9.0648 10.0545 9 10.0464 9C10.0383 9 10.0316 10.3226 10.0316 11.9392Z" fill="#EBF3F3"/>
<path fill-rule="evenodd" clip-rule="evenodd" d="M3.17831 3.19796L3.10781 3.27596L3.18581 3.20546C3.25853 3.13976 3.27485 3.11996 3.25631 3.11996C3.25217 3.11996 3.21707 3.15506 3.17831 3.19796ZM3.17831 6.19797L3.10781 6.27597L3.18581 6.20547C3.25853 6.13977 3.27485 6.11997 3.25631 6.11997C3.25217 6.11997 3.21707 6.15507 3.17831 6.19797ZM3.17831 9.19798L3.10781 9.27598L3.18581 9.20548C3.25853 9.13978 3.27485 9.11998 3.25631 9.11998C3.25217 9.11998 3.21707 9.15508 3.17831 9.19798ZM1.94585 16.5791C1.94513 19.5568 1.95293 21.1412 1.96829 21.1317C1.98125 21.1237 1.99181 21.1346 1.99181 21.156C1.99181 21.1774 1.98197 21.1888 1.96991 21.1813C1.94489 21.1658 1.94993 21.2015 1.98485 21.2876C1.99817 21.3204 2.00429 21.3825 1.99847 21.4256C1.99217 21.4723 1.99841 21.504 2.01383 21.504C2.02811 21.504 2.03981 21.5209 2.03981 21.5414C2.03981 21.562 2.04899 21.5732 2.06021 21.5662C2.07137 21.5593 2.08151 21.5882 2.08271 21.6304C2.08391 21.6725 2.09639 21.7109 2.11037 21.7155C2.12435 21.7202 2.13581 21.7619 2.13581 21.8083C2.13581 21.8683 2.14787 21.8956 2.17781 21.9035C2.21879 21.9142 2.28149 22.0163 2.27813 22.0668C2.27717 22.0807 2.26715 22.0704 2.25581 22.044C2.24207 22.012 2.23463 22.008 2.23355 22.032C2.23139 22.0789 2.33939 22.2044 2.36225 22.1816C2.37191 22.1719 2.37761 22.1748 2.37497 22.188C2.35973 22.2635 2.37761 22.2986 2.42381 22.284C2.45135 22.2752 2.47181 22.2797 2.47181 22.2944C2.47181 22.3085 2.46023 22.32 2.44607 22.32C2.43197 22.32 2.43659 22.3362 2.45639 22.356C2.47619 22.3758 2.50577 22.392 2.52209 22.392C2.53841 22.392 2.54513 22.3987 2.53697 22.4069C2.51873 22.4251 2.57855 22.488 2.61407 22.488C2.62823 22.488 2.63981 22.5042 2.63981 22.524C2.63981 22.5438 2.65061 22.56 2.66381 22.56C2.67701 22.56 2.68781 22.5484 2.68781 22.5343C2.68781 22.5202 2.70401 22.5248 2.72381 22.5446C2.74361 22.5644 2.75981 22.5997 2.75981 22.6231C2.75981 22.6557 2.76641 22.659 2.78801 22.6374C2.82437 22.601 2.87981 22.6431 2.87981 22.7069C2.87981 22.736 2.89685 22.752 2.92781 22.752C2.95421 22.752 2.97581 22.7628 2.97581 22.776C2.97581 22.7892 2.98391 22.7987 2.99381 22.7972C3.04661 22.7888 3.09221 22.805 3.13931 22.849C3.16817 22.8758 3.19181 22.8866 3.19181 22.873C3.19181 22.8269 3.25805 22.8474 3.27113 22.8975C3.27827 22.9247 3.29843 22.945 3.31595 22.9426C3.38507 22.9333 3.43391 22.9452 3.41981 22.968C3.41069 22.9828 3.45155 22.992 3.52637 22.992C3.59315 22.992 3.64781 23.0028 3.64781 23.016C3.64781 23.0292 3.65927 23.04 3.67325 23.04C3.68723 23.04 3.69197 23.0292 3.68381 23.016C3.67565 23.0028 3.68039 22.992 3.69437 22.992C3.70835 22.992 3.71981 23.0028 3.71981 23.016C3.71981 23.0292 3.74681 23.04 3.77981 23.04C3.81281 23.04 3.83981 23.0292 3.83981 23.016C3.83981 23.0028 3.86207 22.992 3.88925 22.992C3.91643 22.992 3.93203 23.0027 3.92387 23.0159C3.91415 23.0317 6.63132 23.0398 11.9625 23.0399C17.331 23.0401 20.0159 23.0321 20.0159 23.0161C20.0159 22.9871 20.1278 22.9836 20.1455 23.0121C20.1645 23.0429 20.3355 23.0425 20.3547 23.0115C20.364 22.9963 20.4206 22.9859 20.4818 22.9882C20.5794 22.9919 20.5919 22.9866 20.5919 22.9412C20.5919 22.8987 20.5979 22.8951 20.6276 22.9198C20.6711 22.9559 20.7359 22.935 20.7359 22.8848C20.7359 22.8644 20.7566 22.848 20.7824 22.848C20.808 22.848 20.836 22.8367 20.8446 22.8229C20.855 22.8059 20.8727 22.8079 20.8986 22.8289C20.9274 22.8522 20.9325 22.8525 20.919 22.83C20.903 22.8032 20.9433 22.7877 21.005 22.7969C21.0144 22.7983 21.0164 22.7845 21.0093 22.7662C21.0023 22.7479 21.0081 22.7257 21.0222 22.717C21.0363 22.7083 21.0479 22.7126 21.0479 22.7266C21.0479 22.7405 21.0645 22.752 21.0849 22.752C21.1069 22.752 21.1191 22.7349 21.1149 22.71C21.1096 22.6783 21.1271 22.6661 21.1863 22.6604C21.2295 22.6563 21.2585 22.6428 21.2509 22.6304C21.2433 22.6181 21.2484 22.608 21.2624 22.608C21.2764 22.608 21.2879 22.5864 21.2879 22.56C21.2879 22.5069 21.325 22.495 21.344 22.542C21.3512 22.5599 21.3569 22.5551 21.3579 22.53C21.359 22.5069 21.3742 22.488 21.3917 22.488C21.4092 22.488 21.4497 22.4593 21.4817 22.4241C21.5137 22.389 21.5264 22.3681 21.5099 22.3775C21.4719 22.3994 21.4724 22.3678 21.5106 22.3179C21.5267 22.297 21.5541 22.2846 21.5714 22.2904C21.5889 22.2963 21.6089 22.2785 21.6162 22.2508C21.6234 22.2232 21.6389 22.2065 21.6506 22.2137C21.6623 22.2209 21.6719 22.2146 21.6719 22.1997C21.6719 22.1848 21.6889 22.1555 21.7097 22.1347C21.7305 22.1139 21.7425 22.0772 21.7362 22.0532C21.7299 22.0292 21.7318 22.0106 21.7403 22.0117C21.7844 22.0174 21.8159 22.0052 21.8159 21.9826C21.8159 21.9686 21.8051 21.9638 21.7919 21.972C21.7787 21.9802 21.7679 21.9694 21.7679 21.948C21.7679 21.9266 21.7765 21.9145 21.787 21.921C21.8266 21.9455 21.8669 21.8924 21.8713 21.8101C21.8738 21.7632 21.884 21.7298 21.8939 21.7358C21.9038 21.7419 21.9119 21.7246 21.9119 21.6974C21.9119 21.6703 21.9254 21.6478 21.9419 21.6476C21.9618 21.6474 21.9599 21.6395 21.9359 21.624C21.9161 21.6112 21.9121 21.6005 21.927 21.6004C21.9801 21.5996 22.0174 21.4147 21.9752 21.3614C21.9542 21.3348 21.9548 21.331 21.9779 21.3448C21.998 21.3569 22.0079 21.3466 22.0079 21.3134C22.0079 21.2863 22.0185 21.264 22.0315 21.264C22.0469 21.264 22.0553 19.6777 22.0557 16.692C22.056 13.638 22.0482 12.12 22.032 12.12C22.0187 12.12 22.0079 12.0984 22.0079 12.072C22.0079 12.0251 21.9929 12.024 21.3299 12.0272C20.957 12.029 20.6745 12.035 20.7022 12.0404C20.7984 12.0594 20.919 12.1808 20.8838 12.2233C20.8578 12.2546 20.8603 12.2684 20.8986 12.3068C20.9304 12.3385 20.9413 12.3752 20.9339 12.4255C20.928 12.4655 20.9351 12.5056 20.9496 12.5145C20.9843 12.536 20.9865 13.488 20.9519 13.488C20.9387 13.488 20.9279 13.5197 20.9279 13.5583C20.9279 13.6566 20.8401 13.7794 20.7062 13.8684L20.5924 13.944H19.9802C19.5879 13.944 19.3679 13.9353 19.3679 13.92C19.3679 13.9068 19.3556 13.896 19.3407 13.896C19.3065 13.896 19.1039 13.695 19.1039 13.6611C19.1039 13.6473 19.0933 13.6324 19.0803 13.628C19.0659 13.623 19.0562 13.3819 19.055 13.0014C19.0536 12.5588 19.0457 12.3875 19.0268 12.3991C19.011 12.4089 19.0073 12.4043 19.0176 12.3877C19.027 12.3725 19.0503 12.36 19.0693 12.36C19.0883 12.36 19.1039 12.3485 19.1039 12.3345C19.1039 12.3206 19.0942 12.3151 19.0824 12.3224C19.0706 12.3297 19.0545 12.3189 19.0466 12.2985C19.0232 12.2374 19.2264 12.0469 19.2957 12.065C19.3344 12.0751 19.3461 12.0711 19.3342 12.0518C19.3214 12.0311 18.759 12.024 17.1238 12.024H14.9306L14.6592 12.1832C14.5099 12.2708 14.35 12.3639 14.3038 12.39C14.2576 12.4162 14.1912 12.458 14.1561 12.4828C14.1211 12.5076 14.0853 12.528 14.0764 12.528C14.0677 12.528 14.0134 12.5604 13.9558 12.6C13.8983 12.6396 13.8396 12.672 13.8255 12.672C13.8114 12.672 13.7998 12.6815 13.7998 12.6932C13.7998 12.7049 13.7809 12.7204 13.7578 12.7277C13.7167 12.7407 13.5836 12.8162 13.5598 12.84C13.5361 12.8637 13.4029 12.9392 13.3618 12.9522C13.3387 12.9596 13.3198 12.9751 13.3198 12.9868C13.3198 12.9984 13.3106 13.008 13.2993 13.008C13.281 13.008 12.7938 13.2902 12.7308 13.3373C12.6751 13.379 12.5613 13.4438 12.5218 13.4562C12.4987 13.4636 12.4798 13.4791 12.4798 13.4908C12.4798 13.5024 12.4582 13.512 12.4318 13.512C12.4054 13.512 12.3838 13.521 12.3838 13.5319C12.3838 13.5429 12.3541 13.5672 12.3178 13.5859C12.2815 13.6046 12.2464 13.6253 12.2398 13.6319C12.2162 13.6557 12.0831 13.7312 12.0418 13.7442C12.0187 13.7516 11.9998 13.7671 11.9998 13.7788C11.9998 13.7904 11.988 13.8 11.9736 13.8C11.9591 13.8 11.9186 13.8203 11.8836 13.8452C11.8485 13.87 11.782 13.9116 11.7358 13.9377C11.6896 13.9637 11.4601 14.1 11.2257 14.2405C10.9913 14.381 10.7897 14.496 10.7776 14.496C10.7656 14.496 10.7523 14.5041 10.7478 14.514C10.7378 14.5365 10.61 14.6145 10.5538 14.6322C10.5307 14.6396 10.5118 14.6551 10.5118 14.6668C10.5118 14.6784 10.5004 14.688 10.4865 14.688C10.4726 14.688 10.3997 14.7291 10.3245 14.7795C10.1182 14.9177 10.0067 14.9648 9.98119 14.9246C9.96985 14.9066 9.96037 14.2467 9.96019 13.458L9.95983 12.024L7.31382 12.0267C5.85852 12.0283 4.68917 12.035 4.71521 12.0416C4.79934 12.0629 4.97328 12.2585 4.94814 12.3035C4.91952 12.3546 4.94118 12.4508 4.97076 12.404C4.98462 12.3822 4.99122 12.3811 4.99146 12.4005C4.99164 12.4163 4.98102 12.4358 4.96782 12.444C4.95288 12.4532 4.94382 12.6802 4.94382 13.0454C4.94382 13.4205 4.93518 13.632 4.91982 13.632C4.90662 13.632 4.89582 13.6451 4.89582 13.6611C4.89582 13.6992 4.70231 13.896 4.66481 13.896C4.64885 13.896 4.63199 13.9074 4.62731 13.9215C4.62155 13.9388 4.42115 13.9458 4.00733 13.9431C3.28667 13.9386 3.33515 13.9404 3.34871 13.9185C3.35861 13.9025 3.28901 13.8639 3.26597 13.8726C3.26057 13.8746 3.24641 13.8589 3.23447 13.8376C3.22259 13.8164 3.20243 13.8054 3.18977 13.8132C3.17705 13.8211 3.16919 13.8186 3.17231 13.8078C3.17939 13.7831 3.12071 13.6733 3.08951 13.6529C3.07685 13.6446 3.06509 13.6041 3.06341 13.5629C3.06167 13.5217 3.05213 13.488 3.04205 13.488C3.03203 13.488 3.02381 13.2666 3.02381 12.996C3.02381 12.684 3.03257 12.504 3.04781 12.504C3.08237 12.504 3.07745 12.4383 3.04181 12.4238C3.01925 12.4146 3.02069 12.4053 3.04781 12.3862C3.06761 12.3722 3.07301 12.3602 3.05981 12.3596C3.04661 12.359 3.05549 12.3471 3.07949 12.3331C3.12173 12.3086 3.12173 12.3066 3.07949 12.2746C3.05177 12.2536 3.04679 12.2402 3.06581 12.2378C3.08231 12.2357 3.10661 12.2313 3.11981 12.228C3.13301 12.2247 3.15425 12.2207 3.16697 12.219C3.17969 12.2174 3.20279 12.1917 3.21821 12.162L3.24635 12.108L3.18557 12.1638C3.14981 12.1967 3.11873 12.2096 3.10991 12.1953C3.09065 12.1642 3.25361 12.0389 3.28679 12.0593C3.30053 12.0678 3.31181 12.0634 3.31181 12.0494C3.31181 11.9992 1.99217 12.0158 1.99013 12.066C1.98869 12.1019 1.98545 12.1011 1.96769 12.06C1.95593 12.0327 1.94645 13.9893 1.94585 16.5791ZM3.49697 15.054C3.50513 15.0313 3.62663 15.024 3.99299 15.024C4.34819 15.024 4.48673 15.032 4.51001 15.054C4.53551 15.078 4.54415 15.0775 4.55369 15.0513C4.56377 15.0236 4.56893 15.0236 4.58669 15.0513C4.60451 15.0788 4.61117 15.0788 4.62911 15.0509C4.64099 15.0324 4.66337 15.0258 4.67969 15.0359C4.70225 15.0498 4.70165 15.0585 4.67705 15.0737C4.65215 15.0891 4.65479 15.0971 4.68893 15.1102C4.71431 15.1199 4.74018 15.1148 4.75061 15.0979C4.78062 15.0494 4.97658 15.2526 4.94844 15.3029C4.91958 15.3544 4.94094 15.4511 4.97076 15.404C4.98462 15.3822 4.99122 15.3811 4.99146 15.4005C4.99164 15.4163 4.98102 15.4358 4.96782 15.444C4.95288 15.4532 4.94382 15.6802 4.94382 16.0454C4.94382 16.4205 4.93518 16.632 4.91982 16.632C4.90662 16.632 4.89582 16.6451 4.89582 16.6611C4.89582 16.6992 4.70231 16.896 4.66481 16.896C4.64885 16.896 4.63199 16.9075 4.62731 16.9215C4.62155 16.9388 4.42115 16.9458 4.00733 16.9432C3.28667 16.9386 3.33515 16.9405 3.34871 16.9185C3.35957 16.9009 3.29897 16.8687 3.27389 16.8787C3.26645 16.8816 3.24971 16.8649 3.23663 16.8415C3.22355 16.8181 3.20243 16.8054 3.18977 16.8133C3.17705 16.8211 3.16919 16.8187 3.17231 16.8078C3.17939 16.7831 3.12071 16.6733 3.08951 16.6529C3.07685 16.6447 3.06509 16.6042 3.06341 16.5629C3.06167 16.5217 3.05213 16.488 3.04205 16.488C3.03203 16.488 3.02381 16.2666 3.02381 15.996C3.02381 15.684 3.03257 15.504 3.04781 15.504C3.08237 15.504 3.07745 15.4383 3.04181 15.4238C3.01925 15.4146 3.02069 15.4054 3.04781 15.3862C3.06761 15.3722 3.07301 15.3602 3.05981 15.3596C3.04661 15.359 3.05549 15.3471 3.07949 15.3331C3.12173 15.3086 3.12173 15.3067 3.07949 15.2746C3.05549 15.2564 3.04661 15.2403 3.05981 15.2389C3.17243 15.2267 3.25577 15.1652 3.22565 15.1164C3.19757 15.071 3.24719 15.0408 3.27881 15.084C3.30761 15.1234 3.31187 15.1238 3.32567 15.0878C3.33401 15.066 3.35051 15.0542 3.36233 15.0615C3.37415 15.0689 3.38381 15.0633 3.38381 15.0492C3.38381 15.0324 3.40157 15.0341 3.43493 15.0538C3.47579 15.0779 3.48827 15.0779 3.49697 15.054ZM20.4722 15.053C20.4725 15.0773 20.477 15.0771 20.493 15.0518C20.5086 15.0272 20.5255 15.0257 20.5646 15.0458C20.7136 15.122 20.7119 15.1215 20.7119 15.0842C20.7119 15.0181 20.7598 15.0468 20.7618 15.114C20.7628 15.1503 20.7691 15.1665 20.7758 15.15C20.7922 15.1093 20.8435 15.1122 20.8799 15.156C20.903 15.1839 20.9033 15.1997 20.8812 15.2264C20.8586 15.2537 20.8622 15.2703 20.8986 15.3068C20.9304 15.3385 20.9413 15.3752 20.9339 15.4255C20.928 15.4655 20.9351 15.5056 20.9496 15.5146C20.9843 15.536 20.9865 16.488 20.9519 16.488C20.9387 16.488 20.9279 16.5197 20.9279 16.5583C20.9279 16.6566 20.8401 16.7794 20.7062 16.8684L20.5924 16.944H19.9802C19.5879 16.944 19.3679 16.9354 19.3679 16.92C19.3679 16.9068 19.3556 16.896 19.3407 16.896C19.3065 16.896 19.1039 16.6951 19.1039 16.6612C19.1039 16.6473 19.0933 16.6324 19.0803 16.628C19.0659 16.6231 19.0562 16.3819 19.055 16.0014C19.0536 15.5588 19.0457 15.3875 19.0268 15.3991C19.011 15.4089 19.0073 15.4043 19.0176 15.3877C19.027 15.3725 19.0503 15.36 19.0693 15.36C19.0883 15.36 19.1039 15.3485 19.1039 15.3345C19.1039 15.3206 19.0942 15.3151 19.0824 15.3224C19.01 15.3671 19.0439 15.2483 19.127 15.1661C19.2277 15.0663 19.2478 15.0575 19.2866 15.0963C19.3029 15.1127 19.326 15.1058 19.3574 15.0752C19.4168 15.0173 20.4716 14.9963 20.4722 15.053ZM3.17819 15.1698C3.15575 15.1946 3.12731 15.2087 3.11501 15.201C3.10277 15.1934 3.11105 15.167 3.13343 15.1422C3.15587 15.1174 3.18431 15.1033 3.19661 15.1109C3.20885 15.1185 3.20057 15.145 3.17819 15.1698ZM3.49697 18.054C3.50513 18.0313 3.62663 18.024 3.99299 18.024C4.34819 18.024 4.48673 18.032 4.51001 18.054C4.53551 18.0781 4.54415 18.0775 4.55369 18.0513C4.56377 18.0236 4.56893 18.0236 4.58669 18.0513C4.60451 18.0788 4.61117 18.0788 4.62911 18.0509C4.64099 18.0325 4.66337 18.0259 4.67969 18.0359C4.70225 18.0499 4.70165 18.0585 4.67705 18.0737C4.65215 18.0891 4.65479 18.0971 4.68893 18.1102C4.71431 18.1199 4.74018 18.1148 4.75061 18.0979C4.78062 18.0494 4.97658 18.2526 4.94844 18.3029C4.91958 18.3544 4.94094 18.4511 4.97076 18.404C4.98462 18.3822 4.99122 18.3811 4.99146 18.4006C4.99164 18.4163 4.98102 18.4358 4.96782 18.444C4.95288 18.4532 4.94382 18.6802 4.94382 19.0454C4.94382 19.4205 4.93518 19.632 4.91982 19.632C4.90662 19.632 4.89582 19.6451 4.89582 19.6611C4.89582 19.6992 4.70231 19.896 4.66481 19.896C4.64885 19.896 4.63199 19.9075 4.62731 19.9215C4.62155 19.9388 4.42115 19.9458 4.00733 19.9432C3.28667 19.9386 3.33515 19.9405 3.34871 19.9185C3.35957 19.9009 3.29897 19.8687 3.27389 19.8787C3.26645 19.8816 3.24971 19.8649 3.23663 19.8415C3.22355 19.8181 3.20243 19.8054 3.18977 19.8133C3.17705 19.8211 3.16919 19.8187 3.17231 19.8078C3.17939 19.7831 3.12071 19.6733 3.08951 19.6529C3.07685 19.6447 3.06509 19.6042 3.06341 19.5629C3.06167 19.5217 3.05213 19.488 3.04205 19.488C3.03203 19.488 3.02381 19.2666 3.02381 18.996C3.02381 18.684 3.03257 18.504 3.04781 18.504C3.08237 18.504 3.07745 18.4383 3.04181 18.4238C3.01925 18.4147 3.02069 18.4054 3.04781 18.3862C3.06761 18.3722 3.07301 18.3602 3.05981 18.3596C3.04661 18.359 3.05549 18.3471 3.07949 18.3331C3.12173 18.3086 3.12173 18.3067 3.07949 18.2746C3.05549 18.2564 3.04661 18.2404 3.05981 18.2389C3.17243 18.2267 3.25577 18.1652 3.22565 18.1165C3.19757 18.071 3.24719 18.0408 3.27881 18.0841C3.30761 18.1234 3.31187 18.1238 3.32567 18.0878C3.33401 18.0661 3.35051 18.0542 3.36233 18.0616C3.37415 18.0689 3.38381 18.0633 3.38381 18.0492C3.38381 18.0325 3.40157 18.0341 3.43493 18.0538C3.47579 18.0779 3.48827 18.0779 3.49697 18.054ZM20.4722 18.053C20.4725 18.0773 20.477 18.0771 20.493 18.0518C20.5086 18.0272 20.5255 18.0257 20.5646 18.0458C20.7136 18.122 20.7119 18.1216 20.7119 18.0842C20.7119 18.0181 20.7598 18.0468 20.7618 18.114C20.7628 18.1503 20.7691 18.1665 20.7758 18.15C20.7922 18.1093 20.8435 18.1122 20.8799 18.156C20.903 18.1839 20.9033 18.1997 20.8812 18.2264C20.8586 18.2537 20.8622 18.2703 20.8986 18.3068C20.9304 18.3385 20.9413 18.3752 20.9339 18.4255C20.928 18.4655 20.9351 18.5056 20.9496 18.5146C20.9843 18.536 20.9865 19.488 20.9519 19.488C20.9387 19.488 20.9279 19.5197 20.9279 19.5583C20.9279 19.6566 20.8401 19.7794 20.7062 19.8684L20.5924 19.944H19.9802C19.5879 19.944 19.3679 19.9354 19.3679 19.92C19.3679 19.9068 19.3556 19.896 19.3407 19.896C19.3065 19.896 19.1039 19.6951 19.1039 19.6612C19.1039 19.6473 19.0933 19.6324 19.0803 19.628C19.0659 19.6231 19.0562 19.3819 19.055 19.0014C19.0536 18.5588 19.0457 18.3875 19.0268 18.3991C19.011 18.4089 19.0073 18.4043 19.0176 18.3877C19.027 18.3725 19.0503 18.36 19.0693 18.36C19.0883 18.36 19.1039 18.3485 19.1039 18.3346C19.1039 18.3206 19.0942 18.3151 19.0824 18.3224C19.01 18.3671 19.0439 18.2483 19.127 18.1661C19.2277 18.0664 19.2478 18.0575 19.2866 18.0963C19.3029 18.1127 19.326 18.1058 19.3574 18.0752C19.4168 18.0173 20.4716 17.9963 20.4722 18.053ZM3.17819 18.1698C3.15575 18.1946 3.12731 18.2087 3.11501 18.2011C3.10277 18.1934 3.11105 18.167 3.13343 18.1422C3.15587 18.1174 3.18431 18.1033 3.19661 18.1109C3.20885 18.1186 3.20057 18.145 3.17819 18.1698Z" fill="#F39C12"/>
<path fill-rule="evenodd" clip-rule="evenodd" d="M9.99512 10.476C9.99512 11.3208 9.99818 11.6629 10.0018 11.2363C10.0055 10.8096 10.0055 10.1184 10.0018 9.70027C9.99812 9.28212 9.99512 9.6312 9.99512 10.476ZM10.1005 9.00138C10.1449 9.02844 10.1865 9.04542 10.1928 9.03906C10.2049 9.027 10.0722 8.95194 10.039 8.95206C10.0285 8.95212 10.0561 8.97432 10.1005 9.00138ZM10.3318 9.13176C10.3855 9.17634 10.5375 9.25854 10.4998 9.2226C10.4866 9.21 10.4326 9.17544 10.3798 9.1458C10.327 9.1161 10.3054 9.1098 10.3318 9.13176ZM10.5718 9.27642C10.5982 9.29796 10.6414 9.3261 10.6678 9.33906L10.7158 9.36264L10.6678 9.32358C10.6414 9.30204 10.5982 9.2739 10.5718 9.26094L10.5238 9.23736L10.5718 9.27642ZM10.7645 9.39234C10.879 9.47046 10.9438 9.50868 10.9438 9.49794C10.9438 9.4827 10.7581 9.36 10.735 9.36C10.7252 9.36 10.7385 9.37452 10.7645 9.39234ZM10.9918 9.5292C11.0751 9.58566 11.1225 9.6021 11.0639 9.55416C11.0308 9.52716 10.993 9.50502 10.9798 9.5049C10.9666 9.50478 10.972 9.51576 10.9918 9.5292ZM11.1479 9.6174C11.1611 9.63 11.2151 9.66456 11.2679 9.69421C11.3207 9.72391 11.3423 9.73021 11.3159 9.70824C11.2622 9.66366 11.1102 9.58146 11.1479 9.6174ZM11.6519 9.92467C11.6783 9.94615 11.7323 9.97957 11.7719 9.99901C11.8392 10.0321 11.8407 10.0318 11.7959 9.99535C11.7695 9.97387 11.7155 9.94045 11.6759 9.92101C11.6085 9.88795 11.607 9.88819 11.6519 9.92467ZM11.902 10.0735C11.934 10.0969 12.015 10.1459 12.082 10.1825C12.149 10.2192 12.1777 10.23 12.1457 10.2065C12.1137 10.1831 12.0327 10.1341 11.9657 10.0975C11.8987 10.0608 11.87 10.05 11.902 10.0735ZM12.2279 10.2654C12.2411 10.278 12.2951 10.3126 12.3479 10.3422C12.4007 10.3719 12.4223 10.3782 12.3959 10.3563C12.3422 10.3117 12.1902 10.2295 12.2279 10.2654ZM12.4691 10.4122C12.5067 10.4455 12.6719 10.5408 12.6719 10.5292C12.6719 10.5147 12.4855 10.392 12.4636 10.392C12.4541 10.392 12.4565 10.4011 12.4691 10.4122ZM13.4639 11.0139C13.4969 11.0409 13.5347 11.063 13.5479 11.0631C13.5736 11.0633 13.5302 11.0301 13.4519 10.9896C13.42 10.9731 13.424 10.9813 13.4639 11.0139ZM13.6919 11.1478C13.7455 11.1924 13.8976 11.2746 13.8599 11.2386C13.8467 11.226 13.7927 11.1915 13.7399 11.1618C13.6871 11.1321 13.6655 11.1258 13.6919 11.1478ZM13.9319 11.2924C13.9583 11.314 14.0015 11.3421 14.0279 11.3551L14.0759 11.3787L14.0279 11.3396C14.0015 11.3181 13.9583 11.2899 13.9319 11.277L13.8839 11.2534L13.9319 11.2924ZM14.1119 11.4012C14.1951 11.4577 14.2426 11.4741 14.1839 11.4262C14.1509 11.3992 14.1131 11.377 14.0999 11.3769C14.0867 11.3768 14.0921 11.3878 14.1119 11.4012ZM14.3519 11.5452C14.4351 11.6017 14.4826 11.6181 14.4239 11.5702C14.3909 11.5432 14.3531 11.521 14.3399 11.5209C14.3267 11.5208 14.3321 11.5318 14.3519 11.5452ZM14.5919 11.6892C14.6751 11.7457 14.7226 11.7621 14.6639 11.7142C14.6309 11.6872 14.5931 11.665 14.5799 11.6649C14.5667 11.6648 14.5721 11.6758 14.5919 11.6892ZM14.8079 11.8194C14.8079 11.8257 14.843 11.8479 14.8859 11.8689L14.9639 11.9069L14.9039 11.858C14.8461 11.8109 14.8079 11.7955 14.8079 11.8194Z" fill="#F1C40F"/>
<path fill-rule="evenodd" clip-rule="evenodd" d="M9.98911 13.4326C9.98605 14.2271 9.99169 14.8822 10.0016 14.8883C10.0179 14.8984 10.0177 13.8373 10.0011 12.504C9.99751 12.2202 9.99211 12.638 9.98911 13.4326ZM12.7556 13.272C12.716 13.2982 12.6944 13.3195 12.7076 13.3193C12.7317 13.3189 12.8622 13.2254 12.8396 13.2247C12.833 13.2245 12.7952 13.2458 12.7556 13.272ZM12.5156 13.416C12.476 13.4422 12.4544 13.4635 12.4676 13.4633C12.4917 13.4629 12.6222 13.3694 12.5996 13.3687C12.593 13.3685 12.5552 13.3898 12.5156 13.416ZM12.0716 13.6822C12.0318 13.7147 12.0277 13.7229 12.0596 13.7064C12.1379 13.666 12.1813 13.6327 12.1556 13.6329C12.1424 13.633 12.1046 13.6552 12.0716 13.6822Z" fill="#F1C40F"/>
<path fill-rule="evenodd" clip-rule="evenodd" d="M10.0078 11.9265C10.0078 14.8225 10.0104 14.9261 10.081 14.8761C10.1094 14.856 10.1081 14.8539 10.0738 14.865C10.034 14.8777 10.0318 14.7276 10.0318 11.9392C10.0318 10.3226 10.0385 8.99998 10.0466 8.99998C10.0547 8.99998 10.1694 9.06526 10.3015 9.14506C10.4336 9.22486 10.5459 9.28588 10.5511 9.28066C10.5636 9.26824 10.0674 8.97598 10.0338 8.97598C10.0153 8.97598 10.0078 9.82732 10.0078 11.9265ZM10.584 9.30766C10.5842 9.32788 10.78 9.43582 10.7929 9.42286C10.7981 9.4177 10.7531 9.38602 10.6931 9.35242C10.633 9.31882 10.5839 9.29872 10.584 9.30766ZM10.9438 9.5248C10.9768 9.55174 11.0308 9.5875 11.0638 9.60418C11.0968 9.62086 11.1689 9.66454 11.2241 9.70126C11.2793 9.73792 11.3314 9.76798 11.3398 9.76798C11.3483 9.76798 11.4023 9.80038 11.4598 9.83998C11.5174 9.87958 11.5703 9.91198 11.5774 9.91198C11.5845 9.91198 11.6671 9.9616 11.7608 10.0223C11.8546 10.0829 11.9363 10.1275 11.9425 10.1213C11.9516 10.1122 10.9904 9.52222 10.9078 9.48628C10.8946 9.48052 10.9108 9.49786 10.9438 9.5248ZM11.9758 10.1362C11.9758 10.1506 12.1643 10.2721 12.1853 10.2712C12.1955 10.2708 12.1822 10.2538 12.1558 10.2334C12.0985 10.1891 11.9758 10.1229 11.9758 10.1362ZM12.2158 10.2802C12.2158 10.2946 12.4043 10.4161 12.4253 10.4152C12.4355 10.4148 12.4222 10.3978 12.3958 10.3774C12.3385 10.3331 12.2158 10.2669 12.2158 10.2802ZM12.5038 10.4608C12.5368 10.4877 12.5908 10.5235 12.6238 10.5402C12.6568 10.5569 12.7289 10.6005 12.7841 10.6373C12.8393 10.6739 12.896 10.704 12.9101 10.704C12.9242 10.704 12.9358 10.7148 12.9358 10.728C12.9358 10.7412 12.9451 10.752 12.9565 10.752C12.9679 10.752 13.2559 10.9194 13.5964 11.1241C13.937 11.3287 14.2197 11.4921 14.2247 11.4871C14.2321 11.4796 12.5468 10.4586 12.4678 10.4227C12.4546 10.4167 12.4708 10.4339 12.5038 10.4608ZM14.3038 11.542C14.3616 11.5891 14.3998 11.6044 14.3998 11.5806C14.3998 11.5743 14.3647 11.5521 14.3218 11.5311L14.2438 11.4931L14.3038 11.542ZM14.4238 11.6136C14.4238 11.6281 14.4348 11.64 14.4482 11.64C14.4616 11.64 14.5291 11.676 14.5982 11.7201C14.6673 11.7642 14.7705 11.8296 14.8276 11.8656C14.9177 11.9224 14.9271 11.9359 14.8996 11.9694C14.8712 12.0037 14.8735 12.0048 14.9218 11.979C15.0013 11.9367 14.9931 11.9266 14.7772 11.8018C14.6687 11.7391 14.5447 11.6651 14.5018 11.6375C14.4589 11.6098 14.4238 11.5991 14.4238 11.6136ZM14.7718 12.048C14.7322 12.0742 14.7106 12.0955 14.7238 12.0952C14.7479 12.0949 14.8784 12.0013 14.8558 12.0007C14.8492 12.0004 14.8114 12.0217 14.7718 12.048ZM14.5978 12.1467C14.516 12.1991 14.4895 12.2343 14.5618 12.1945C14.6169 12.1643 14.7032 12.0976 14.6878 12.0971C14.6812 12.0969 14.6407 12.1192 14.5978 12.1467ZM14.3578 12.2907C14.276 12.3431 14.2495 12.3783 14.3218 12.3385C14.3769 12.3083 14.4632 12.2416 14.4478 12.2411C14.4412 12.2409 14.4007 12.2632 14.3578 12.2907ZM13.0378 13.0827C12.956 13.1351 12.9295 13.1703 13.0018 13.1305C13.0569 13.1003 13.1432 13.0336 13.1278 13.0331C13.1212 13.0329 13.0807 13.0552 13.0378 13.0827ZM12.8398 13.2021C12.8 13.2347 12.796 13.2429 12.8278 13.2264C12.9061 13.1859 12.9495 13.1527 12.9238 13.1529C12.9106 13.153 12.8728 13.1751 12.8398 13.2021ZM11.8978 13.7657C11.8081 13.8144 11.8136 13.8346 11.9038 13.788C11.9434 13.7675 11.9758 13.7456 11.9758 13.7394C11.9758 13.7239 11.9732 13.7248 11.8978 13.7657ZM11.6578 13.9097C11.5681 13.9584 11.5736 13.9786 11.6638 13.932C11.7034 13.9115 11.7358 13.8896 11.7358 13.8834C11.7358 13.8679 11.7332 13.8688 11.6578 13.9097ZM11.4656 14.025C11.3503 14.0958 11.3181 14.1293 11.4118 14.0808C11.4871 14.0419 11.5885 13.9695 11.5678 13.9695C11.5612 13.9695 11.5152 13.9944 11.4656 14.025ZM11.2378 14.1627C11.156 14.2151 11.1295 14.2503 11.2018 14.2105C11.2569 14.1803 11.3432 14.1136 11.3278 14.1131C11.3212 14.1129 11.2807 14.1352 11.2378 14.1627ZM11.0218 14.2935C10.9657 14.3272 10.9198 14.3604 10.9198 14.3673C10.9198 14.3802 11.0818 14.2882 11.1226 14.2521C11.1638 14.2156 11.1254 14.2314 11.0218 14.2935ZM10.8178 14.4137C10.7281 14.4624 10.7336 14.4826 10.8238 14.436C10.8634 14.4155 10.8958 14.3936 10.8958 14.3874C10.8958 14.3719 10.8932 14.3728 10.8178 14.4137Z" fill="#F1C40F"/>
<path fill-rule="evenodd" clip-rule="evenodd" d="M9.98657 8.93675C9.96695 8.96033 9.96125 9.38861 9.96587 10.4907L9.97223 12.012L9.97805 10.482C9.98465 8.75208 9.96635 8.88635 10.1772 9.01925C10.3281 9.11441 10.3653 9.13187 10.2959 9.07499C10.1669 8.96927 10.0157 8.90171 9.98657 8.93675ZM10.4639 9.19319C10.5471 9.24965 10.5946 9.26609 10.5359 9.21815C10.5029 9.19115 10.4651 9.16901 10.4519 9.16889C10.4387 9.16877 10.4441 9.17975 10.4639 9.19319ZM11.4419 9.77327C11.4716 9.78761 11.4959 9.80849 11.4959 9.81965C11.4959 9.83087 11.507 9.83999 11.5206 9.83999C11.5342 9.83999 11.6422 9.89903 11.7607 9.97114C12.0306 10.1356 12.1106 10.1768 12.0239 10.1067C11.9909 10.08 11.9369 10.0442 11.904 10.0271C11.871 10.01 11.7505 9.93928 11.6362 9.86999C11.5219 9.80069 11.4193 9.74471 11.4082 9.74561C11.397 9.74651 11.4122 9.75893 11.4419 9.77327ZM12.1679 10.2114C12.1679 10.2176 12.203 10.2399 12.2459 10.2608L12.3239 10.2989L12.2639 10.25C12.2061 10.2029 12.1679 10.1875 12.1679 10.2114ZM12.9359 10.678C12.9937 10.7251 13.0319 10.7405 13.0319 10.7166C13.0319 10.7103 12.9968 10.6881 12.9539 10.6671L12.8759 10.6291L12.9359 10.678ZM13.0559 10.7348C13.0559 10.7493 13.2423 10.872 13.2642 10.872C13.2737 10.872 13.2712 10.8629 13.2587 10.8518C13.221 10.8185 13.0559 10.7232 13.0559 10.7348ZM13.3319 10.9084C13.3583 10.9299 13.4015 10.9581 13.4279 10.971L13.4759 10.9946L13.4279 10.9556C13.4015 10.934 13.3583 10.9059 13.3319 10.8929L13.2839 10.8693L13.3319 10.9084ZM13.5011 11.0121C13.5613 11.0653 13.7039 11.1369 13.7039 11.114C13.7039 11.0997 13.6904 11.0877 13.6739 11.0874C13.6574 11.0871 13.6169 11.0658 13.5839 11.04C13.5255 10.9943 13.4536 10.9701 13.5011 11.0121ZM13.7411 11.1561C13.7788 11.1895 13.9439 11.2847 13.9439 11.2731C13.9439 11.2587 13.7576 11.136 13.7357 11.136C13.7261 11.136 13.7286 11.145 13.7411 11.1561ZM14.0159 11.328C14.0489 11.3538 14.0867 11.3749 14.0999 11.3749C14.1131 11.3749 14.0969 11.3538 14.0639 11.328C14.0309 11.3022 13.9931 11.2811 13.9799 11.2811C13.9667 11.2811 13.9829 11.3022 14.0159 11.328ZM14.7599 11.7682C14.7599 11.7757 14.795 11.7988 14.8379 11.8197C14.9793 11.8884 15.0111 11.9215 14.9761 11.9638C14.9499 11.9952 14.9513 11.9987 14.9845 11.9859C15.0506 11.9606 15.029 11.9077 14.9261 11.8428C14.8165 11.7736 14.7599 11.7483 14.7599 11.7682Z" fill="#F1C40F"/>
<path fill-rule="evenodd" clip-rule="evenodd" d="M22.0319 11.964C22.0319 11.9951 21.9385 12.0002 21.3419 12.0017C20.6675 12.0033 20.4827 12.018 20.6159 12.0596C20.6489 12.0699 20.7056 12.0992 20.7419 12.1248C20.7782 12.1503 20.8083 12.1624 20.8088 12.1516C20.8092 12.1408 20.8239 12.1577 20.8413 12.1892C20.8652 12.2322 20.8779 12.2386 20.8925 12.215C20.9152 12.1782 20.7821 12.0562 20.7023 12.0404C20.6745 12.035 20.957 12.029 21.3299 12.0272C21.993 12.024 22.0079 12.0251 22.0079 12.072C22.0079 12.0984 22.0187 12.12 22.0319 12.12C22.0451 12.12 22.0559 12.0768 22.0559 12.024C22.0559 11.9712 22.0505 11.928 22.0439 11.928C22.0373 11.928 22.0319 11.9442 22.0319 11.964ZM1.96287 12.0527C1.97499 12.097 1.97967 12.0996 1.98669 12.066C1.99713 12.0158 3.31191 11.9993 3.31191 12.0494C3.31191 12.0634 3.30063 12.0678 3.28689 12.0593C3.25479 12.0395 3.09039 12.1637 3.10899 12.1937C3.11667 12.2061 3.10611 12.2228 3.08559 12.2307C3.06501 12.2385 3.05415 12.2547 3.06147 12.2665C3.08157 12.299 3.11991 12.2922 3.11991 12.2562C3.11991 12.1877 3.29985 12.072 3.40617 12.072C3.47757 12.072 3.52665 12.0377 3.47283 12.0254C3.45693 12.0217 3.10725 12.014 2.69583 12.0081L1.94775 11.9975L1.96287 12.0527ZM4.62057 12.023C4.61277 12.0356 4.58781 12.0406 4.56513 12.0342C4.54245 12.0278 4.55091 12.0348 4.58391 12.0498C4.77549 12.1371 4.89285 12.2327 4.89507 12.3034C4.89669 12.3562 4.95765 12.356 4.95777 12.3033C4.95789 12.243 4.77723 12.0506 4.71255 12.0422C4.68801 12.0389 5.86131 12.0308 7.31991 12.024L9.97191 12.0117L7.30335 12.0058C5.62479 12.0021 4.62951 12.0085 4.62057 12.023ZM17.1119 12.0176C18.725 12.0219 19.2978 12.0307 19.3379 12.0517C19.3985 12.0835 19.4462 12.0578 19.3912 12.023C19.37 12.0096 18.4787 12.0029 17.1479 12.0062L14.9399 12.0117L17.1119 12.0176ZM19.1328 12.1571C19.0569 12.2362 19.0353 12.2743 19.0507 12.3017C19.0675 12.3318 19.0841 12.3201 19.1367 12.2405C19.1726 12.1864 19.2287 12.1298 19.2616 12.1149C19.305 12.0951 19.3129 12.0824 19.2906 12.0682C19.2458 12.0398 19.2452 12.0402 19.1328 12.1571ZM19.3919 15.048C19.3919 15.0612 19.4142 15.072 19.4414 15.072C19.4685 15.072 19.4841 15.0612 19.4759 15.048C19.4678 15.0348 19.4455 15.024 19.4265 15.024C19.4075 15.024 19.3919 15.0348 19.3919 15.048ZM3.21813 15.0895C3.20451 15.1128 3.19305 15.1222 3.19263 15.1103C3.19221 15.0983 3.17055 15.1079 3.14445 15.1314C3.11841 15.1551 3.10287 15.1838 3.11001 15.1953C3.11715 15.2069 3.10611 15.2228 3.08559 15.2307C3.06501 15.2385 3.05415 15.2547 3.06147 15.2665C3.08157 15.299 3.11991 15.2922 3.11991 15.2562C3.11991 15.2175 3.21987 15.12 3.25947 15.12C3.29337 15.12 3.29733 15.0806 3.26541 15.0609C3.25299 15.0533 3.23175 15.0661 3.21813 15.0895ZM20.7119 15.084C20.7119 15.1038 20.7227 15.12 20.7359 15.12C20.7491 15.12 20.7599 15.1038 20.7599 15.084C20.7599 15.0642 20.7491 15.048 20.7359 15.048C20.7227 15.048 20.7119 15.0642 20.7119 15.084ZM4.75191 15.0945C4.75191 15.1069 4.78431 15.1525 4.82391 15.1958C4.86351 15.2392 4.89591 15.2873 4.89591 15.3027C4.89591 15.3182 4.90977 15.3362 4.92675 15.3427C4.99497 15.3689 4.95357 15.2475 4.86507 15.162C4.76691 15.0671 4.75191 15.0581 4.75191 15.0945ZM19.1255 15.1675C19.0567 15.2357 19.0347 15.2733 19.049 15.2988C19.0647 15.3268 19.0876 15.31 19.1544 15.2213C19.2014 15.159 19.2533 15.1109 19.2697 15.1146C19.2861 15.1182 19.2926 15.1101 19.2843 15.0966C19.2581 15.0542 19.2251 15.069 19.1255 15.1675ZM20.7839 15.1454C20.7839 15.1594 20.7939 15.1646 20.8062 15.1571C20.8184 15.1495 20.8357 15.1661 20.8446 15.194C20.8559 15.2298 20.8682 15.2373 20.8861 15.2194C20.904 15.2015 20.9024 15.183 20.8808 15.157C20.8457 15.1148 20.7839 15.1074 20.7839 15.1454ZM19.3919 18.048C19.3919 18.0612 19.4142 18.072 19.4414 18.072C19.4685 18.072 19.4841 18.0612 19.4759 18.048C19.4678 18.0348 19.4455 18.024 19.4265 18.024C19.4075 18.024 19.3919 18.0348 19.3919 18.048ZM3.21813 18.0895C3.20451 18.1128 3.19305 18.1222 3.19263 18.1103C3.19221 18.0983 3.17055 18.1079 3.14445 18.1314C3.11841 18.1551 3.10287 18.1838 3.11001 18.1953C3.11715 18.2069 3.10611 18.2228 3.08559 18.2307C3.06501 18.2385 3.05415 18.2547 3.06147 18.2665C3.08157 18.299 3.11991 18.2922 3.11991 18.2562C3.11991 18.2175 3.21987 18.12 3.25947 18.12C3.29337 18.12 3.29733 18.0806 3.26541 18.0609C3.25299 18.0533 3.23175 18.0661 3.21813 18.0895ZM20.7119 18.084C20.7119 18.1038 20.7227 18.12 20.7359 18.12C20.7491 18.12 20.7599 18.1038 20.7599 18.084C20.7599 18.0642 20.7491 18.048 20.7359 18.048C20.7227 18.048 20.7119 18.0642 20.7119 18.084ZM4.75191 18.0945C4.75191 18.1069 4.78431 18.1525 4.82391 18.1958C4.86351 18.2392 4.89591 18.2873 4.89591 18.3027C4.89591 18.3182 4.90977 18.3362 4.92675 18.3427C4.99497 18.3689 4.95357 18.2475 4.86507 18.162C4.76691 18.0671 4.75191 18.0581 4.75191 18.0945ZM19.1255 18.1675C19.0567 18.2357 19.0347 18.2733 19.049 18.2988C19.0647 18.3268 19.0876 18.31 19.1544 18.2213C19.2014 18.159 19.2533 18.1109 19.2697 18.1146C19.2861 18.1182 19.2926 18.1101 19.2843 18.0966C19.2581 18.0542 19.2251 18.069 19.1255 18.1675ZM20.7839 18.1454C20.7839 18.1594 20.7939 18.1646 20.8062 18.1571C20.8184 18.1495 20.8357 18.1661 20.8446 18.194C20.8559 18.2298 20.8682 18.2373 20.8861 18.2194C20.904 18.2015 20.9024 18.183 20.8808 18.157C20.8457 18.1148 20.7839 18.1074 20.7839 18.1454ZM2.04795 21.5896C2.04003 21.6103 2.04441 21.6381 2.05773 21.6514C2.07399 21.6677 2.08191 21.6553 2.08191 21.6138C2.08191 21.5436 2.06913 21.5345 2.04795 21.5896ZM2.18391 21.9488C2.18391 21.9689 2.20011 21.9917 2.21991 21.9993C2.23971 22.0069 2.25591 22.0299 2.25591 22.0505C2.25591 22.0712 2.26251 22.0814 2.27055 22.0734C2.28837 22.0555 2.22747 21.912 2.20203 21.912C2.19207 21.912 2.18391 21.9285 2.18391 21.9488ZM2.42391 22.2902C2.42391 22.3002 2.44551 22.3219 2.47191 22.3384C2.52771 22.3733 2.53515 22.3558 2.48565 22.3062C2.44779 22.2684 2.42391 22.2622 2.42391 22.2902ZM21.5279 22.2911C21.5279 22.3031 21.5003 22.3427 21.4666 22.3791C21.4329 22.4156 21.4095 22.4496 21.4146 22.4547C21.4199 22.4599 21.458 22.4268 21.4995 22.3812C21.5411 22.3356 21.5644 22.2917 21.5514 22.2837C21.5385 22.2757 21.5279 22.279 21.5279 22.2911ZM2.79627 22.6314C2.78751 22.6456 2.79465 22.6542 2.81211 22.6506C2.82963 22.6469 2.84121 22.6575 2.83791 22.674C2.83461 22.6905 2.84271 22.704 2.85591 22.704C2.89065 22.704 2.88537 22.6664 2.84607 22.6338C2.82231 22.614 2.80743 22.6133 2.79627 22.6314ZM21.01 22.7364C21.0017 22.758 20.9835 22.7687 20.9697 22.7601C20.9543 22.7506 20.9517 22.7562 20.9631 22.7746C20.9774 22.7978 20.9901 22.7961 21.0194 22.7669C21.0401 22.7461 21.0498 22.7219 21.0411 22.7131C21.0323 22.7043 21.0183 22.7148 21.01 22.7364ZM20.8415 22.828C20.8346 22.839 20.8081 22.848 20.7825 22.848C20.7569 22.848 20.7359 22.8588 20.7359 22.872C20.7359 22.9051 20.7647 22.902 20.8206 22.8628C20.8466 22.8446 20.8769 22.8293 20.8879 22.8288C20.9253 22.8272 20.9281 22.808 20.8908 22.808C20.8705 22.808 20.8482 22.817 20.8415 22.828ZM3.83991 23.016C3.83991 23.0292 3.85545 23.04 3.87447 23.04C3.89349 23.04 3.91575 23.0292 3.92391 23.016C3.93207 23.0028 3.91653 22.992 3.88935 22.992C3.86217 22.992 3.83991 23.0028 3.83991 23.016ZM20.0159 23.012C20.0159 23.023 20.0478 23.032 20.0868 23.032C20.1259 23.032 20.1522 23.023 20.1455 23.012C20.1386 23.001 20.1067 22.992 20.0745 22.992C20.0423 22.992 20.0159 23.001 20.0159 23.012Z" fill="#F1C40F"/>
<path fill-rule="evenodd" clip-rule="evenodd" d="M9.96542 13.432C9.95972 14.844 9.96314 14.952 10.0131 14.952C10.0284 14.952 10.0275 14.94 10.0107 14.9198C9.99188 14.897 9.9821 14.4597 9.9776 13.4378L9.97124 11.988L9.96542 13.432ZM14.8063 12.0661C14.7476 12.1025 14.6726 12.1462 14.6396 12.1632C14.5627 12.2029 14.4387 12.3014 14.5077 12.2679C14.5615 12.2419 14.934 12.0239 14.9496 12.0093C14.9865 11.9749 14.8948 12.0113 14.8063 12.0661ZM14.3516 12.336C14.3186 12.3618 14.3024 12.3829 14.3156 12.3829C14.3288 12.3829 14.3666 12.3618 14.3996 12.336C14.4326 12.3102 14.4488 12.2891 14.4356 12.2891C14.4224 12.2891 14.3846 12.3102 14.3516 12.336ZM13.6496 12.7577C13.6133 12.7774 13.5836 12.7986 13.5836 12.8048C13.5836 12.8279 13.6215 12.8134 13.6796 12.768C13.7509 12.7122 13.7403 12.7085 13.6496 12.7577ZM13.4096 12.9017C13.3733 12.9214 13.3436 12.9426 13.3436 12.9488C13.3436 12.9719 13.3815 12.9574 13.4396 12.912C13.5109 12.8562 13.5003 12.8525 13.4096 12.9017ZM12.9996 13.1509C12.7708 13.2877 12.6691 13.3585 12.7916 13.2958C12.8977 13.2414 13.2476 13.0282 13.2476 13.0179C13.2476 13.0025 13.249 13.0017 12.9996 13.1509ZM12.5696 13.4057C12.5333 13.4254 12.5036 13.4466 12.5036 13.4528C12.5036 13.4759 12.5415 13.4614 12.5996 13.416C12.6709 13.3602 12.6603 13.3565 12.5696 13.4057ZM12.2982 13.5712C12.2725 13.5906 12.2624 13.6065 12.2756 13.6065C12.2888 13.6065 12.3205 13.5906 12.3462 13.5712C12.3718 13.5518 12.382 13.536 12.3688 13.536C12.3556 13.536 12.3238 13.5518 12.2982 13.5712ZM12.0896 13.6937C12.0533 13.7134 12.0236 13.7346 12.0236 13.7408C12.0236 13.7639 12.0615 13.7494 12.1196 13.704C12.1909 13.6482 12.1803 13.6445 12.0896 13.6937ZM11.5316 14.0311C11.3204 14.1575 11.1368 14.2719 11.1236 14.2854C11.0883 14.3213 11.1841 14.2691 11.457 14.1034C11.5904 14.0223 11.7266 13.942 11.7596 13.9249C11.8245 13.8913 11.9472 13.801 11.9276 13.8012C11.921 13.8013 11.7428 13.9048 11.5316 14.0311ZM10.9736 14.3656C10.8603 14.4335 10.8342 14.4689 10.9376 14.4145C11.0101 14.3762 11.1066 14.3059 11.0876 14.305C11.081 14.3047 11.0297 14.332 10.9736 14.3656ZM10.2519 14.7986C10.1949 14.8327 10.1535 14.8658 10.1598 14.8721C10.1708 14.8832 10.3676 14.7626 10.3676 14.7448C10.3676 14.7303 10.3599 14.7339 10.2519 14.7986Z" fill="#F1C40F"/>
</svg>
