<svg width="480" height="460" viewBox="0 0 480 460" fill="none" xmlns="http://www.w3.org/2000/svg">
<path opacity="0.5" d="M234.526 427.806C363.709 427.806 468.433 424.014 468.433 419.337C468.433 414.66 363.709 410.869 234.526 410.869C105.344 410.869 0.620117 414.66 0.620117 419.337C0.620117 424.014 105.344 427.806 234.526 427.806Z" fill="#D5ECFF"/>
<path d="M441.859 411.102L441.859 187.563C441.859 184.74 439.571 182.452 436.749 182.452L32.304 182.452C29.4817 182.452 27.1938 184.74 27.1938 187.563L27.1938 411.102C27.1938 413.925 29.4817 416.213 32.304 416.213L436.749 416.213C439.571 416.213 441.859 413.925 441.859 411.102Z" fill="#EECCDC"/>
<path d="M431.638 403.568L431.638 194.484C431.638 193.032 430.462 191.856 429.01 191.856L40.0426 191.856C38.5911 191.856 37.4144 193.032 37.4144 194.484L37.4144 403.568C37.4144 405.02 38.5911 406.197 40.0426 406.197L429.01 406.197C430.462 406.197 431.638 405.02 431.638 403.568Z" fill="#DDB0C8"/>
<path d="M234.526 345.238C260.048 345.238 280.738 324.548 280.738 299.026C280.738 273.504 260.048 252.814 234.526 252.814C209.004 252.814 188.315 273.504 188.315 299.026C188.315 324.548 209.004 345.238 234.526 345.238Z" fill="#EECCDC" stroke="#979797"/>
<path fill-rule="evenodd" clip-rule="evenodd" d="M265.042 299.026L218.611 322.242V275.811L265.042 299.026Z" fill="white"/>
<path d="M407.547 382.835L61.3599 382.835V392.472L407.547 392.472V382.835Z" fill="#EECCDC"/>
<path d="M62.3819 395.538C66.7364 395.538 70.2664 392.008 70.2664 387.654C70.2664 383.299 66.7364 379.769 62.3819 379.769C58.0274 379.769 54.4974 383.299 54.4974 387.654C54.4974 392.008 58.0274 395.538 62.3819 395.538Z" fill="white"/>
<path fill-rule="evenodd" clip-rule="evenodd" d="M400.1 354.948L394.844 404.182C394.844 404.182 445.994 416.483 464.642 400.395L466.534 357.052C466.534 357.052 444.39 356.35 400.1 354.948Z" fill="#D60000"/>
<path fill-rule="evenodd" clip-rule="evenodd" d="M422.433 290.85C422.433 290.85 421.894 302.699 414.982 306.881C408.711 310.676 421.997 332.697 436.29 331.384C444.114 330.665 445.947 309.27 445.947 309.27C445.947 309.27 439.63 308.049 441.964 298.416L422.433 290.85Z" fill="#F6CBC3"/>
<path fill-rule="evenodd" clip-rule="evenodd" d="M433.878 302.898C424.612 301.777 417.925 295.685 416.989 285.578C414.295 286.007 413.66 278.989 414.41 276.734C415.161 274.476 417.612 275.796 417.612 275.796C417.747 275.439 417.863 275.066 417.958 274.676C422.005 258.073 433.342 258.731 433.342 258.731C454.174 259.816 449.293 281.085 448.103 286.727C446.912 292.37 442.835 303.98 433.878 302.898Z" fill="#F6CBC3"/>
<path fill-rule="evenodd" clip-rule="evenodd" d="M464.683 370.735C461.61 369.483 457.649 365.522 452.91 358.961C449.397 354.095 446.74 349.533 446.713 349.487L447.218 349.194C447.323 349.375 457.793 367.298 464.903 370.194L464.683 370.735Z" fill="#864A56"/>
<mask id="mask0" mask-type="alpha" maskUnits="userSpaceOnUse" x="381" y="306" width="89" height="91">
<path fill-rule="evenodd" clip-rule="evenodd" d="M381.703 306.268H469.882V396.314H381.703V306.268Z" fill="white"/>
</mask>
<g mask="url(#mask0)">
<path fill-rule="evenodd" clip-rule="evenodd" d="M415.574 306.268C415.574 306.268 389.627 308.725 384.276 335.676C378.925 362.628 378.285 394.418 419.516 396.064C460.747 397.71 464.254 390.773 464.224 389.257C464.195 387.741 464.925 362.774 468.283 343.793C471.641 324.811 471.933 314.591 446.235 308.312C446.235 308.312 434.847 323.497 415.574 306.268Z" fill="#D60000"/>
</g>
<path fill-rule="evenodd" clip-rule="evenodd" d="M435.285 317.365L438.351 303.348C438.351 303.348 438.205 301.012 441.856 301.158C445.506 301.304 471.349 300.866 471.349 300.866C471.349 300.866 473.393 300.574 473.977 302.472C474.562 304.37 466.969 336.2 466.969 336.2C466.969 336.2 467.115 338.39 464.633 338.39C462.151 338.39 431.635 339.558 431.635 339.558L435.285 317.365Z" fill="#204EB2"/>
<mask id="mask1" mask-type="alpha" maskUnits="userSpaceOnUse" x="431" y="300" width="44" height="40">
<path fill-rule="evenodd" clip-rule="evenodd" d="M431.548 300.778H474.08V339.635H431.548V300.778Z" fill="white"/>
</mask>
<g mask="url(#mask1)">
<path fill-rule="evenodd" clip-rule="evenodd" d="M435.357 317.378L431.722 339.481C433.552 339.411 462.244 338.317 464.633 338.317C465.396 338.317 465.981 338.106 466.37 337.69C466.946 337.076 466.897 336.213 466.896 336.204L466.895 336.193L466.898 336.183C466.974 335.864 474.479 304.351 473.908 302.493C473.349 300.678 471.44 300.926 471.36 300.938C471.092 300.943 445.463 301.375 441.853 301.23C440.515 301.177 439.545 301.449 438.966 302.039C438.389 302.628 438.424 303.336 438.424 303.343L438.425 303.353L438.423 303.363L435.357 317.378ZM431.548 339.634L435.214 317.349L438.278 303.341C438.274 303.243 438.27 302.542 438.859 301.939C439.468 301.317 440.48 301.031 441.858 301.084C445.465 301.229 471.09 300.797 471.348 300.792C471.36 300.79 473.452 300.515 474.047 302.45C474.629 304.341 467.387 334.763 467.043 336.206C467.048 336.319 467.066 337.16 466.478 337.789C466.06 338.236 465.439 338.463 464.633 338.463C462.181 338.463 431.943 339.619 431.638 339.631L431.548 339.634Z" fill="black"/>
</g>
<path fill-rule="evenodd" clip-rule="evenodd" d="M436.307 318.387L439.373 304.37C439.373 304.37 439.227 302.034 442.878 302.18C446.528 302.326 472.371 301.888 472.371 301.888C472.371 301.888 474.416 301.596 475 303.494C475.584 305.392 467.991 337.222 467.991 337.222C467.991 337.222 468.137 339.412 465.655 339.412C463.173 339.412 432.657 340.58 432.657 340.58L436.307 318.387Z" fill="#56ACF6"/>
<path fill-rule="evenodd" clip-rule="evenodd" d="M420.422 340.365C420.422 340.365 428.913 330.688 431.229 326.541C433.545 322.393 433.545 319.974 433.352 318.073C433.159 316.172 433.159 313.926 434.703 313.58C436.247 313.234 436.44 314.099 436.632 316.172C436.826 318.246 436.632 320.32 440.106 319.11C443.58 317.9 452.072 314.963 453.036 317.382C454.001 319.801 451.878 320.147 451.878 320.147C451.878 320.147 453.422 320.32 453.808 321.529C454.194 322.739 453.808 323.603 452.65 324.121C451.492 324.64 450.914 324.813 450.914 324.813C450.914 324.813 453.229 324.467 453.808 326.195C454.387 327.923 453.422 328.787 452.457 329.133C452.457 329.133 453.699 329.333 454.001 330.688C454.194 331.552 453.036 332.071 451.685 332.589C449.859 333.29 444.352 333.453 439.72 336.391C435.089 339.329 423.895 358.51 418.299 364.386C412.702 370.261 407.105 355.054 407.105 355.054C407.105 355.054 414.053 346.241 420.422 340.365Z" fill="#F6CBC3"/>
<path fill-rule="evenodd" clip-rule="evenodd" d="M442.286 322.95L442.172 322.528L451.822 319.935L451.935 320.358L442.286 322.95Z" fill="black"/>
<path fill-rule="evenodd" clip-rule="evenodd" d="M442.286 327.444L442.172 327.021L451.822 324.428L451.935 324.851L442.286 327.444Z" fill="black"/>
<path fill-rule="evenodd" clip-rule="evenodd" d="M443.444 331.936L443.33 331.514L452.98 328.921L453.093 329.344L443.444 331.936Z" fill="black"/>
<mask id="mask2" mask-type="alpha" maskUnits="userSpaceOnUse" x="460" y="313" width="20" height="58">
<path fill-rule="evenodd" clip-rule="evenodd" d="M460.592 313.134H479.38V370.804H460.592V313.134Z" fill="white"/>
</mask>
<g mask="url(#mask2)">
<path fill-rule="evenodd" clip-rule="evenodd" d="M465.479 362.565C465.479 362.565 466.83 355.653 467.409 347.012C467.988 338.372 467.795 334.57 467.023 333.879C466.251 333.188 460.847 333.361 460.847 330.596C460.847 327.831 464.707 328.695 464.707 328.695C464.707 328.695 460.654 328.004 461.04 325.93C461.426 323.856 463.742 324.202 463.742 324.202C463.742 324.202 460.075 323.511 460.654 321.264C461.233 319.018 464.707 319.882 464.707 319.882C464.707 319.882 461.426 319.363 462.777 317.117C464.128 314.87 466.444 316.253 469.146 316.944C471.847 317.635 472.041 317.808 472.234 316.771C472.426 315.734 472.041 312.969 474.163 313.142C476.286 313.315 476.672 314.006 476.672 317.808C476.672 321.61 477.251 325.066 477.83 328.522C478.409 331.978 478.602 335.953 478.216 342.347C477.83 348.741 483.234 367.577 473.584 370.342C463.935 373.107 465.479 362.565 465.479 362.565Z" fill="#F6CBC3"/>
</g>
<path fill-rule="evenodd" clip-rule="evenodd" d="M469.56 329.881L463.884 328.662L463.977 328.234L469.652 329.452L469.56 329.881Z" fill="black"/>
<path fill-rule="evenodd" clip-rule="evenodd" d="M469.424 325.635L463.748 324.416L463.84 323.988L469.516 325.207L469.424 325.635Z" fill="black"/>
<path fill-rule="evenodd" clip-rule="evenodd" d="M469.672 321.068L463.997 319.849L464.089 319.421L469.764 320.64L469.672 321.068Z" fill="black"/>
<path fill-rule="evenodd" clip-rule="evenodd" d="M474.897 318.281L472.098 317.676L472.191 317.248L474.989 317.853L474.897 318.281Z" fill="black"/>
<path fill-rule="evenodd" clip-rule="evenodd" d="M230.249 425.259L234.337 440.277L226.891 442.78L222.218 428.034L230.249 425.259Z" fill="#F8D8B8"/>
<path fill-rule="evenodd" clip-rule="evenodd" d="M222.657 427.012L227.913 443.657L220.32 446.139L214.772 429.932L222.657 427.012Z" fill="#E4F9FF"/>
<path fill-rule="evenodd" clip-rule="evenodd" d="M214.188 428.18C214.188 428.18 215.356 428.18 216.816 428.91C218.276 429.64 225.869 439.714 221.488 445.993C221.488 445.993 220.758 446.431 219.882 446.577C219.006 446.723 217.4 449.351 214.626 450.811C214.626 450.811 215.21 448.913 213.02 443.219C210.83 437.524 198.273 407.3 192.287 407.008C192.287 407.008 194.623 405.11 201.777 413.287C208.536 421.011 214.188 428.18 214.188 428.18Z" fill="#2E2C36"/>
<path fill-rule="evenodd" clip-rule="evenodd" d="M214.626 450.811C214.626 450.811 212.144 455.045 208.202 454.315C204.259 453.585 203.115 449.974 201.789 446.961C200.463 443.949 187.043 410.805 187.043 410.805C187.043 410.805 188.521 406.033 192.566 406.958C197.251 408.03 201.631 417.959 201.631 417.959L214.334 444.241C214.334 444.241 215.648 448.037 214.626 450.811Z" fill="#E4F9FF"/>
<mask id="mask3" mask-type="alpha" maskUnits="userSpaceOnUse" x="186" y="409" width="26" height="44">
<path fill-rule="evenodd" clip-rule="evenodd" d="M211.122 409.631H186.552V452.49H211.122V409.631Z" fill="white"/>
</mask>
<g mask="url(#mask3)">
<path fill-rule="evenodd" clip-rule="evenodd" d="M211.122 449.351L194.915 414.601C194.915 414.601 191.557 408.614 188.198 409.782C184.84 410.951 187.468 416.353 188.636 420.587C189.805 424.821 201.485 449.643 204.551 451.979C206.693 453.611 210.976 450.957 211.122 449.351Z" fill="#2E2C36"/>
</g>
<path fill-rule="evenodd" clip-rule="evenodd" d="M219.882 446.577C219.882 446.577 221.488 442.342 219.59 437.232C217.692 432.122 214.188 428.18 214.188 428.18C214.188 428.18 217.882 427.022 220.999 434.463C224.117 441.904 223.533 445.847 219.882 446.869" fill="#3B3D4A"/>
<path d="M211.555 429.136L210.104 428.975L210.088 429.139L210.07 429.342C210.065 429.413 210.059 429.489 210.054 429.568C209.997 430.392 209.983 431.251 210.04 432.063C210.08 432.636 210.153 433.156 210.268 433.613C210.453 434.355 210.974 434.937 211.784 435.445L211.87 435.498C212.374 435.805 212.93 436.06 213.85 436.432L214.795 436.81C215.628 437.145 216.139 437.375 216.609 437.638C217.207 437.974 217.615 438.691 217.832 439.712C217.993 440.473 218.031 441.292 217.992 442.031L217.986 442.147C217.982 442.199 217.979 442.247 217.975 442.289L217.968 442.37L219.419 442.531L219.43 442.414C219.433 442.375 219.437 442.329 219.44 442.279L219.443 442.239C219.499 441.349 219.462 440.36 219.26 439.408C218.964 438.016 218.355 436.943 217.323 436.364C216.786 436.063 216.231 435.814 215.347 435.458L214.637 435.175C212.628 434.373 211.839 433.879 211.684 433.259C211.593 432.894 211.531 432.456 211.496 431.962C211.445 431.226 211.458 430.431 211.51 429.668L211.521 429.526C211.524 429.481 211.528 429.437 211.531 429.395L211.553 429.158L211.555 429.136Z" fill="white"/>
<path fill-rule="evenodd" clip-rule="evenodd" d="M399.602 445.515C399.602 445.515 397.998 451.922 397.26 453.072C396.521 454.222 382.802 460.402 378.424 459.979C374.045 459.557 366.685 456.77 365.719 454.673C364.754 452.575 366.054 446.099 367.44 444.907C368.827 443.715 399.602 445.515 399.602 445.515Z" fill="#E4F9FF"/>
<path fill-rule="evenodd" clip-rule="evenodd" d="M465.34 389.853C465.34 389.853 476.128 430.37 451.598 436.648C427.069 442.927 399.658 437.251 369.541 427.45C344.866 419.419 345.888 410.221 314.496 419.273C292.034 425.751 234.191 441.904 234.191 441.904L228.205 424.383C228.205 424.383 314.496 379.851 348.808 380.873C361.659 381.255 402.128 389.486 402.128 389.486L465.34 389.853Z" fill="#204EB2"/>
<path fill-rule="evenodd" clip-rule="evenodd" d="M462.158 394.849C462.158 394.849 435.245 339.114 425.025 334.15C414.804 329.185 410.862 335.172 409.986 341.742C409.11 348.313 390.129 410.804 390.129 410.804L412.76 416.791L462.158 394.849Z" fill="#204EB2"/>
<path d="M426.448 385.68L412.504 414.859L413.163 415.174L427.106 385.994L426.448 385.68Z" fill="black"/>
<path fill-rule="evenodd" clip-rule="evenodd" d="M393.407 410.865L391.696 416.466C398.495 416.459 403.881 419.554 405.352 420.291L406.888 414.8L393.407 410.865Z" fill="#F7C8A9"/>
<path fill-rule="evenodd" clip-rule="evenodd" d="M387.941 427.052L402.812 430.747L405.898 419.565C405.898 419.565 405.857 419.546 405.606 419.419C404.134 418.682 398.287 415.957 391.488 415.963" fill="#E4F9FF"/>
<path fill-rule="evenodd" clip-rule="evenodd" d="M392.848 449.25C392.848 449.25 382.43 453.542 375.374 450.824C368.318 448.106 366.693 446.295 366.733 446.116C366.774 445.937 378.451 435.861 380.75 434.874C383.049 433.888 388.972 429.582 391.328 433.309C393.683 437.036 397.193 439.895 396.74 442.614C396.288 445.332 392.848 449.25 392.848 449.25Z" fill="#353644"/>
<path fill-rule="evenodd" clip-rule="evenodd" d="M402.464 432.81C402.464 432.81 401.89 442.45 399.281 446.939L392.464 449.54C392.464 449.54 394.432 444.35 392.818 442.294C391.204 440.238 390.279 437.962 390.258 436.641C390.236 435.319 384.346 433.804 384.346 433.804C384.346 433.804 383.366 436.028 381.613 436.009C379.859 435.99 370.83 442.549 370.83 442.549C370.83 442.549 373.04 440.218 375.358 437.732C377.675 435.246 385.798 427.363 385.798 427.363L402.464 432.81Z" fill="#2C262B"/>
<path fill-rule="evenodd" clip-rule="evenodd" d="M403.241 428.898C403.241 428.898 404.693 430.423 403.771 431.861C402.848 433.3 399.746 432.451 396.787 431.635C393.828 430.818 386.738 429.071 386.219 428.056C385.699 427.041 386.64 424.858 388.542 424.389C388.542 424.389 387.982 426.208 388.772 426.686C389.563 427.163 401.937 430.7 402.461 430.369C402.984 430.038 403.241 428.898 403.241 428.898Z" fill="#3E454F"/>
<path fill-rule="evenodd" clip-rule="evenodd" d="M392.655 436.691C392.655 436.691 388.803 432.53 384.508 433.657C384.508 433.657 383.097 433.938 383.607 433.006C384.116 432.073 384.861 432.091 384.861 432.091C384.861 432.091 384.768 431.172 385.545 431.047C385.545 431.047 385.31 430.096 386.371 430.036C386.371 430.036 386.71 427.868 389.003 428.983C391.296 430.098 395.744 430.951 395.17 432.169C394.597 433.386 394.265 432.863 394.265 432.863C394.265 432.863 394.532 433.671 393.913 434.43C393.293 435.188 393.389 434.761 393.389 434.761C393.389 434.761 394.097 436.267 392.655 436.691Z" fill="white"/>
<path d="M394.803 433.133C394.803 433.133 393.934 432.339 392.51 432.018" stroke="black" stroke-width="4"/>
<path d="M385.834 429.765C385.834 429.765 387.433 429.976 388.365 430.486" stroke="black" stroke-width="4"/>
<path d="M384.179 432.053C384.179 432.053 386.381 431.984 387.346 432.351" stroke="black" stroke-width="4"/>
<path d="M394.037 435.206C394.037 435.206 392.663 433.998 390.701 433.406" stroke="black" stroke-width="4"/>
<path fill-rule="evenodd" clip-rule="evenodd" d="M430.895 292.594C430.895 292.594 430.536 294.896 433.714 295.763C436.891 296.631 438.395 296.421 438.534 294.931C438.534 294.931 438.245 293.241 437.497 293.066C436.75 292.891 435.9 293.192 435.9 293.192C435.9 293.192 435.283 292.088 434.477 292.08C433.671 292.072 431.957 292.779 430.895 292.594Z" fill="#CE4129"/>
<path fill-rule="evenodd" clip-rule="evenodd" d="M436.41 294.643C434.095 293.997 431.333 293.182 430.51 292.615C429.909 292.201 429.66 292.249 429.657 292.25C429.657 292.25 429.969 291.534 430.841 292.134C431.689 292.719 435.361 293.744 436.567 294.08C438.678 294.669 438.887 294.586 439.153 294.48L439.369 295.022C439.112 295.125 438.875 295.177 438.367 295.105C437.95 295.047 437.352 294.906 436.41 294.643Z" fill="black"/>
<path fill-rule="evenodd" clip-rule="evenodd" d="M434.626 303.432C432.603 303.432 430.512 302.842 429.012 302.297C427.091 301.599 425.697 300.822 425.683 300.814L425.897 300.432C425.952 300.462 431.368 303.463 435.697 302.931L435.75 303.366C435.381 303.411 435.004 303.432 434.626 303.432Z" fill="black"/>
<path d="M440.098 278.514L440.654 278.693L440.6 278.867C440.556 279.009 440.507 279.172 440.455 279.352C440.305 279.867 440.154 280.421 440.014 280.991C439.859 281.624 439.725 282.239 439.621 282.819L439.591 282.991C439.337 284.466 439.301 285.592 439.528 286.198L439.541 286.232C440.837 289.439 439.077 291.065 435.382 289.927L435.27 289.891L435.448 289.335C438.776 290.4 440.111 289.2 439 286.451C438.694 285.695 438.741 284.411 439.046 282.715C439.153 282.122 439.289 281.496 439.447 280.852C439.574 280.337 439.708 279.837 439.843 279.364L439.894 279.189C439.925 279.084 439.954 278.985 439.982 278.892L440.053 278.658L440.098 278.514Z" fill="black"/>
<path d="M425.679 300.856L425.965 300.347L426.069 300.404L426.165 300.455C426.31 300.531 426.474 300.615 426.658 300.705L426.737 300.744C427.354 301.044 428.035 301.345 428.762 301.625C430.434 302.269 432.085 302.709 433.622 302.852C434.318 302.917 434.978 302.918 435.596 302.852L435.719 302.838L435.791 303.417C435.093 303.503 434.35 303.506 433.568 303.433C431.971 303.285 430.27 302.832 428.552 302.17C427.809 301.883 427.112 301.576 426.482 301.269L426.243 301.151C426.142 301.1 426.047 301.052 425.958 301.005L425.793 300.918L425.679 300.856Z" fill="black"/>
<path fill-rule="evenodd" clip-rule="evenodd" d="M437.453 290.29C436.863 290.29 436.126 290.174 435.207 289.88L435.385 289.324C437.097 289.872 438.361 289.827 438.946 289.198C439.442 288.662 439.439 287.683 438.937 286.44C438.596 285.597 438.68 283.998 439.187 281.687C439.558 279.996 440.031 278.518 440.035 278.503L440.591 278.682C440.079 280.278 438.881 284.745 439.478 286.221C440.237 288.099 439.84 289.092 439.373 289.595C439.041 289.954 438.46 290.29 437.453 290.29Z" fill="black"/>
<path fill-rule="evenodd" clip-rule="evenodd" d="M433.483 282.4C433.378 282.4 433.272 282.362 433.187 282.285C433.182 282.28 432.46 281.638 431.417 281.677C430.338 281.717 429.622 282.245 429.615 282.25C429.422 282.395 429.147 282.357 429.002 282.165C428.857 281.972 428.893 281.699 429.084 281.553C429.122 281.524 430.016 280.852 431.385 280.802C432.793 280.751 433.74 281.603 433.78 281.639C433.958 281.803 433.97 282.08 433.806 282.258C433.72 282.352 433.602 282.4 433.483 282.4Z" fill="black"/>
<path fill-rule="evenodd" clip-rule="evenodd" d="M426.042 280.217C426.042 280.217 427.711 278.22 429.218 277.378C430.149 276.858 435.892 275.745 436.102 276.922C436.307 278.068 435.716 278.108 433.426 278.481C431.136 278.854 430.063 278.946 428.86 279.511C427.657 280.077 426.297 280.847 426.042 280.217Z" fill="black"/>
<path fill-rule="evenodd" clip-rule="evenodd" d="M448.196 281.622C448.196 281.622 448.407 280.412 448.116 279.621C447.825 278.831 444.219 275.541 443.161 275.827C441.48 276.282 442.086 277.087 444.213 278.519C445.925 279.67 446.607 280.113 447.252 280.924C448.134 282.031 448.068 281.801 448.196 281.622Z" fill="black"/>
<path fill-rule="evenodd" clip-rule="evenodd" d="M445.765 283.735C445.659 283.735 445.553 283.697 445.469 283.62C445.464 283.615 444.742 282.972 443.699 283.012C442.623 283.052 441.905 283.579 441.898 283.584C441.706 283.731 441.431 283.694 441.284 283.502C441.137 283.31 441.174 283.035 441.366 282.888C441.404 282.859 442.298 282.187 443.666 282.137C445.075 282.086 446.022 282.938 446.062 282.974C446.24 283.138 446.252 283.415 446.088 283.593C446.002 283.687 445.884 283.735 445.765 283.735Z" fill="black"/>
<path fill-rule="evenodd" clip-rule="evenodd" d="M417.515 276.056C417.515 276.056 418.829 270.945 429.269 266.054C437.867 262.026 447.666 268.244 448.688 269.85C449.442 271.035 450.148 255.979 434.233 252.475C420.738 249.504 409.777 264.083 414.303 277.078C414.303 277.078 414.887 275.618 417.515 276.056Z" fill="#711515"/>
<mask id="mask4" mask-type="alpha" maskUnits="userSpaceOnUse" x="408" y="240" width="26" height="23">
<path fill-rule="evenodd" clip-rule="evenodd" d="M408.861 240.039H433.149V262.539H408.861V240.039Z" fill="white"/>
</mask>
<g mask="url(#mask4)">
<path fill-rule="evenodd" clip-rule="evenodd" d="M431.582 243.669C434.875 248.24 432.809 255.357 426.968 259.565C421.127 263.774 413.722 263.48 410.428 258.908C407.135 254.337 409.201 247.22 415.042 243.012C420.883 238.803 428.288 239.098 431.582 243.669Z" fill="#711515"/>
</g>
<mask id="mask5" mask-type="alpha" maskUnits="userSpaceOnUse" x="416" y="265" width="14" height="42">
<path fill-rule="evenodd" clip-rule="evenodd" d="M416.831 265.032H429.561V306.476H416.831V265.032Z" fill="white"/>
</mask>
<g mask="url(#mask5)">
<path fill-rule="evenodd" clip-rule="evenodd" d="M419.486 267.806C419.486 267.806 415.44 277.295 418.656 283.359C421.871 289.423 414.418 300.937 417.675 306.477C417.675 306.477 417.468 301.91 420.408 296.091C423.348 290.271 424.677 287.858 422.839 283.365C421.002 278.873 426.444 266.938 429.561 265.032L419.486 267.806Z" fill="#711515"/>
</g>
<path fill-rule="evenodd" clip-rule="evenodd" d="M418.425 285.301C418.425 286.148 417.738 286.834 416.891 286.834C416.045 286.834 415.358 286.148 415.358 285.301C415.358 284.454 416.045 283.768 416.891 283.768C417.738 283.768 418.425 284.454 418.425 285.301Z" fill="white"/>
<path fill-rule="evenodd" clip-rule="evenodd" d="M161.255 290.261L171.563 300.047L187.279 298.772L186.018 294.622L166.768 288.286L161.255 290.261Z" fill="#56ACF6"/>
<path fill-rule="evenodd" clip-rule="evenodd" d="M155.001 232.026C154.901 233.431 158.824 261.617 158.824 261.617C158.824 261.617 163.789 262.075 173.719 262.992L177.37 230.462L155.001 232.026Z" fill="#F6CBC3"/>
<path fill-rule="evenodd" clip-rule="evenodd" d="M156.718 277.091C156.753 276.612 158.364 260.838 158.364 260.838C158.364 260.838 157.932 260.133 158.063 258.313C158.193 256.493 159.371 254.843 167.083 256.07C174.795 257.296 175.205 258.288 175.151 259.055C175.096 259.821 174.103 261.58 174.014 262.825C173.925 264.071 173.731 276.19 173.731 276.19L156.718 277.091Z" fill="#E4F9FF"/>
<path fill-rule="evenodd" clip-rule="evenodd" d="M156.537 276.468L155.128 289.081L165.326 287.149L174.955 291.093L189.588 296.43L201.809 295.16L201.294 292.017C201.294 292.017 190.315 286.275 187.692 284.682C185.07 283.089 184.019 280.315 184.019 280.315L179.895 274.355C179.895 274.355 175.492 267.997 171.976 267.449C168.46 266.9 165.454 267.515 166.123 268.925C166.793 270.336 168.451 272.825 168.451 272.825L162.026 271.535L158.387 276.015L157.423 277.071L157.811 277.816" fill="#F4F0F1"/>
<path fill-rule="evenodd" clip-rule="evenodd" d="M157.522 278.308C157.522 278.308 157.389 279.437 160.981 280.574C164.572 281.71 168.429 283.487 168.98 281.56C169.532 279.634 168.636 277.707 168.636 277.707L171.929 280.116C171.929 280.116 173.447 282.76 171.711 285.325C169.976 287.891 165.623 287.993 165.623 287.993L163.778 286.309C163.778 286.309 158.01 283.051 156.775 280.79C155.54 278.529 157.522 278.308 157.522 278.308Z" fill="#F9C818"/>
<mask id="mask6" mask-type="alpha" maskUnits="userSpaceOnUse" x="146" y="269" width="59" height="40">
<path fill-rule="evenodd" clip-rule="evenodd" d="M146.76 273.452L202.466 269.557L204.905 304.433L149.199 308.328L146.76 273.452Z" fill="white"/>
</mask>
<g mask="url(#mask6)">
<path fill-rule="evenodd" clip-rule="evenodd" d="M156.278 273.705C156.278 273.705 152.062 283.692 152.432 283.549C152.802 283.406 155.173 278.521 155.272 280.39C155.371 282.26 154.142 284.652 154.396 286.731C154.396 286.731 156.321 291.75 157.479 291.833C158.638 291.915 164.16 290.475 164.16 290.475C164.16 290.475 166.678 287.207 171.896 290.626C177.115 294.044 183.852 297.527 183.852 297.527C183.852 297.527 183.032 298.215 183 298.855C182.969 299.495 183.378 300.366 183.378 300.366L162.962 297.422L151.971 289.982L150.611 290.125C150.611 290.125 149.35 290.903 149.237 293.161C149.123 295.419 149.226 296.005 148.887 296.704C148.547 297.403 147.677 298.787 150.329 299.459C152.981 300.131 172.891 304.883 181.662 305.608C190.433 306.332 199.435 303.843 201.871 301.462C204.308 299.081 204.685 297.179 204.141 295.356C203.596 293.533 202.519 291.336 200.003 291.753C197.486 292.17 196.049 292.588 191.923 291.271C187.796 289.954 186.166 290.107 186.311 291.043C186.456 291.978 189.495 292.87 189.495 292.87C189.495 292.87 193.574 293.779 193.545 294.182C193.516 294.585 193.375 294.941 189.676 294.657C185.976 294.372 181.544 293.564 175.728 290.025C169.912 286.487 168.187 285.1 164.368 285.528C160.548 285.956 157.125 287.711 156.161 285.011C155.196 282.311 157.831 278.731 157.811 277.816C157.791 276.901 156.537 276.468 156.537 276.468L156.288 272.786" fill="#15023F"/>
<path fill-rule="evenodd" clip-rule="evenodd" d="M156.803 271.413C156.803 271.413 156.664 271.597 156.288 272.786C155.912 273.976 155.782 277.642 157.06 277.522C158.338 277.402 159.338 274.882 160.471 273.456C161.605 272.03 163.035 271.63 164.256 272.299C165.478 272.968 170.196 272.676 170.196 272.676C170.196 272.676 168.932 270.529 164.741 270.488C164.741 270.488 161.778 269.507 160.048 272.199C158.317 274.891 157.264 277.566 157.137 275.302C157.027 273.352 157.641 272.158 157.511 271.47C157.38 270.782 156.803 271.413 156.803 271.413Z" fill="#451989"/>
<path fill-rule="evenodd" clip-rule="evenodd" d="M188.928 285.213C188.928 285.213 186.694 285.543 180.203 284.932C173.713 284.319 175.152 281.376 172.505 280.597C169.859 279.819 169.573 279.699 168.127 277.237C166.683 274.775 163.034 277.02 161.296 276.602C159.556 276.181 164.763 271.396 164.763 271.396C164.763 271.396 167.579 270.639 170.196 272.676C170.932 273.25 172.419 275.305 172.869 275.786C173.317 276.268 176.047 277.258 178.474 280.301C180.901 283.345 184.316 282.483 184.995 282.67C185.673 282.857 179.824 274.728 179.824 274.728L179.835 273.92C179.835 273.92 183.488 279.293 185.275 281.687C187.064 284.081 188.536 284.677 188.803 284.817C189.068 284.959 188.928 285.213 188.928 285.213Z" fill="#E263AB"/>
<path fill-rule="evenodd" clip-rule="evenodd" d="M154.14 278.648C154.14 278.648 149.96 288.17 150.194 290.354C150.428 292.538 155.112 291.133 157.086 295.325C159.06 299.516 162.009 301.353 174.498 303.53C186.988 305.707 197.525 301.025 197.577 300.295C197.629 299.566 197.547 298.155 197.547 298.155C197.547 298.155 179.561 301.082 172.103 296.028C164.646 290.973 164.39 289.428 161.59 290.144C158.789 290.859 157.144 289.948 155.009 287.351C155.009 287.351 154.796 286.053 155.587 282.689C156.378 279.324 155.684 274.523 154.14 278.648Z" fill="white"/>
<path fill-rule="evenodd" clip-rule="evenodd" d="M164.916 270.903C164.916 270.903 163.39 269.243 165.915 267.45C168.44 265.658 172.949 266.991 174.303 268.427C174.303 268.427 171.715 267.161 168.496 267.494C165.277 267.828 166.033 268.751 167.514 271.042L164.603 270.67" fill="#451989"/>
<path fill-rule="evenodd" clip-rule="evenodd" d="M169.22 272.761C169.566 273.312 169.271 274.119 168.561 274.564C167.852 275.01 166.997 274.925 166.651 274.374C166.306 273.824 166.6 273.016 167.31 272.571C168.019 272.126 168.874 272.211 169.22 272.761Z" fill="#1F003C"/>
<path fill-rule="evenodd" clip-rule="evenodd" d="M167.076 273.781C167.076 273.781 167.243 272.602 169.512 271.825C171.781 271.048 176.068 269.789 178.343 271.56C180.617 273.33 180.413 274.13 180.413 274.13C180.413 274.13 178.752 273.134 177.467 272.708C176.182 272.282 174.44 272.116 172.704 272.451C170.968 272.786 169.236 273.351 168.677 273.582C168.117 273.813 167.598 274.945 167.076 273.781Z" fill="#E8D9F3"/>
<path fill-rule="evenodd" clip-rule="evenodd" d="M172.263 275.297C172.609 275.847 172.314 276.655 171.604 277.1C170.895 277.545 170.04 277.46 169.694 276.91C169.349 276.359 169.643 275.552 170.353 275.107C171.062 274.661 171.917 274.746 172.263 275.297Z" fill="#1F003C"/>
<path fill-rule="evenodd" clip-rule="evenodd" d="M170.119 276.316C170.119 276.316 170.283 275.138 172.466 274.355C174.649 273.571 178.773 272.301 180.954 274.065C183.136 275.828 182.938 276.629 182.938 276.629C182.938 276.629 181.343 275.638 180.109 275.215C178.876 274.793 177.202 274.631 175.532 274.971C173.863 275.311 172.197 275.88 171.658 276.113C171.12 276.346 170.617 277.479 170.119 276.316Z" fill="#E8D9F3"/>
<path fill-rule="evenodd" clip-rule="evenodd" d="M175.625 277.603C175.97 278.154 175.676 278.961 174.966 279.407C174.257 279.852 173.402 279.767 173.056 279.216C172.71 278.666 173.005 277.858 173.714 277.413C174.424 276.968 175.279 277.053 175.625 277.603Z" fill="#1F003C"/>
<path fill-rule="evenodd" clip-rule="evenodd" d="M173.477 278.671C173.477 278.671 173.617 277.612 175.356 276.893C177.095 276.173 181.492 275.222 183.211 276.789C184.929 278.356 183.869 279.436 183.869 279.436C183.869 279.436 182.396 277.978 181.419 277.608C180.442 277.238 179.114 277.106 177.786 277.423C176.458 277.741 175.13 278.265 174.701 278.478C174.272 278.691 173.864 279.712 173.477 278.671Z" fill="#E8D9F3"/>
</g>
<path fill-rule="evenodd" clip-rule="evenodd" d="M44.1571 146.009C44.1571 146.009 43.2547 173.394 48.1347 171.771C48.1347 171.771 74.7081 174.408 81.1994 175.422C84.4652 175.933 90.7111 179.841 110.258 183.102C129.805 186.363 148.442 189.725 148.442 191.035C148.442 193.673 152.7 212.91 153.714 236.441C153.714 236.441 159.8 243.743 178.056 237.252C178.056 237.252 179.379 191.245 170.251 173.394C152.821 150.269 97.5706 146.009 97.5706 146.009H44.1571Z" fill="#165C5D"/>
<path fill-rule="evenodd" clip-rule="evenodd" d="M96.7433 229.162C96.7433 230.57 98.4877 266.597 98.4877 266.597L112.714 267.905L120.577 227.19L96.7433 229.162Z" fill="#F6CBC3"/>
<path fill-rule="evenodd" clip-rule="evenodd" d="M101.323 274.503L110.924 284.984L126.69 284.808L125.721 280.58L106.96 272.917L101.323 274.503Z" fill="#56ACF6"/>
<path fill-rule="evenodd" clip-rule="evenodd" d="M101.362 291.042L110.963 301.524L126.729 301.348L125.76 297.12L106.999 289.457L101.362 291.042Z" fill="#56ACF6"/>
<path fill-rule="evenodd" clip-rule="evenodd" d="M97.1528 279.796C97.1528 279.315 97.6331 263.467 97.6331 263.467C97.6331 263.467 97.1528 262.795 97.1528 260.97C97.1528 259.145 98.2094 257.416 105.989 258.088C113.77 258.761 114.25 259.721 114.25 260.489C114.25 261.258 113.386 263.083 113.386 264.331C113.386 265.58 114.058 277.682 114.058 277.682L97.1528 279.796Z" fill="#E4F9FF"/>
<path fill-rule="evenodd" clip-rule="evenodd" d="M96.9271 279.188L96.4232 291.869L106.457 289.213L116.343 292.459L131.319 296.738L143.419 294.599L142.681 291.5C142.681 291.5 131.319 286.557 128.59 285.156C125.86 283.754 124.614 281.062 124.614 281.062L120.075 275.412C120.075 275.412 115.229 269.384 111.683 269.089C108.137 268.793 105.182 269.62 105.95 270.98C106.719 272.339 108.551 274.703 108.551 274.703L102.05 273.875L98.7405 278.603L97.8541 279.726L98.294 280.441" fill="#F4F0F1"/>
<path fill-rule="evenodd" clip-rule="evenodd" d="M98.041 280.953C98.041 280.953 97.9893 282.088 101.653 282.965C105.317 283.843 109.29 285.339 109.703 283.378C110.116 281.417 109.084 279.56 109.084 279.56L112.541 281.727C112.541 281.727 114.244 284.255 112.696 286.939C111.148 289.622 106.813 290.035 106.813 290.035L104.852 288.487C104.852 288.487 98.8665 285.649 97.4733 283.481C96.0801 281.314 98.041 280.953 98.041 280.953Z" fill="#F9C818"/>
<path fill-rule="evenodd" clip-rule="evenodd" d="M96.4719 276.45C96.4719 276.45 92.9794 286.712 93.3383 286.544C93.6972 286.375 95.7137 281.332 95.9457 283.19C96.178 285.048 95.1233 287.522 95.5252 289.577C95.5252 289.577 97.8033 294.446 98.9646 294.446C100.126 294.446 105.531 292.614 105.531 292.614C105.531 292.614 107.809 289.175 113.259 292.212C118.708 295.25 125.676 298.242 125.676 298.242C125.676 298.242 124.907 298.987 124.922 299.627C124.936 300.268 125.406 301.108 125.406 301.108L104.832 299.629L93.3384 292.993L91.992 293.233C91.992 293.233 90.7897 294.099 90.8378 296.359C90.8858 298.619 91.03 299.197 90.7415 299.918C90.453 300.639 89.6836 302.082 92.3767 302.563C95.0697 303.044 115.268 306.362 124.069 306.458C132.87 306.555 141.671 303.429 143.931 300.88C146.191 298.331 146.432 296.407 145.758 294.628C145.085 292.848 143.854 290.734 141.374 291.329C138.894 291.925 137.49 292.444 133.28 291.425C129.07 290.407 127.455 290.676 127.666 291.599C127.878 292.521 130.973 293.194 130.973 293.194C130.973 293.194 135.106 293.809 135.106 294.213C135.106 294.617 134.991 294.982 131.28 294.963C127.57 294.944 123.091 294.454 117.038 291.34C110.984 288.225 109.164 286.966 105.385 287.665C101.606 288.365 98.3169 290.36 97.1623 287.736C96.0073 285.111 98.3794 281.352 98.294 280.441C98.2087 279.53 96.9271 279.188 96.9271 279.188L96.416 275.533" fill="#15023F"/>
<path fill-rule="evenodd" clip-rule="evenodd" d="M96.8319 274.126C96.8319 274.126 96.7062 274.32 96.4159 275.533C96.1258 276.746 96.2577 280.413 97.5238 280.201C98.7899 279.991 99.6077 277.406 100.636 275.902C101.665 274.399 103.063 273.898 104.329 274.478C105.595 275.058 110.28 274.43 110.28 274.43C110.28 274.43 108.866 272.378 104.683 272.637C104.683 272.637 101.658 271.87 100.124 274.679C98.5904 277.488 97.7307 280.231 97.4424 277.982C97.194 276.045 97.721 274.81 97.5417 274.133C97.3625 273.455 96.8319 274.126 96.8319 274.126Z" fill="#451989"/>
<path fill-rule="evenodd" clip-rule="evenodd" d="M129.86 285.597C129.86 285.597 127.655 286.086 121.138 285.94C114.62 285.792 115.845 282.754 113.15 282.165C110.454 281.579 110.161 281.479 108.543 279.127C106.927 276.775 103.447 279.275 101.684 278.981C99.9183 278.686 104.77 273.541 104.77 273.541C104.77 273.541 107.525 272.585 110.28 274.43C111.056 274.95 112.685 276.893 113.169 277.341C113.65 277.79 116.443 278.582 119.082 281.444C121.72 284.307 125.065 283.204 125.756 283.341C126.445 283.48 120.031 275.789 120.031 275.789L119.984 274.982C119.984 274.982 124.011 280.081 125.965 282.341C127.92 284.601 129.431 285.09 129.707 285.211C129.981 285.334 129.86 285.597 129.86 285.597Z" fill="#E263AB"/>
<path fill-rule="evenodd" clip-rule="evenodd" d="M94.6923 281.533C94.6923 281.533 91.2026 291.33 91.5924 293.491C91.9821 295.653 96.5536 293.917 98.8216 297.957C101.09 301.997 104.162 303.618 116.776 304.898C129.389 306.177 139.564 300.754 139.564 300.023C139.564 299.292 139.382 297.89 139.382 297.89C139.382 297.89 121.65 302.095 113.851 297.586C106.051 293.077 105.686 291.553 102.944 292.467C100.202 293.381 98.4957 292.589 96.1801 290.152C96.1801 290.152 95.8756 288.872 96.4238 285.46C96.9722 282.048 95.9381 277.308 94.6923 281.533Z" fill="white"/>
<path fill-rule="evenodd" clip-rule="evenodd" d="M104.887 273.039C104.887 273.039 103.247 271.492 105.637 269.523C108.027 267.555 112.621 268.562 114.074 269.898C114.074 269.898 111.402 268.82 108.215 269.383C105.028 269.945 105.848 270.812 107.488 272.992L104.559 272.828" fill="#451989"/>
<path fill-rule="evenodd" clip-rule="evenodd" d="M109.313 274.585C109.697 275.109 109.461 275.935 108.785 276.43C108.11 276.925 107.25 276.901 106.866 276.377C106.482 275.853 106.719 275.026 107.394 274.531C108.07 274.036 108.929 274.06 109.313 274.585Z" fill="#1F003C"/>
<path fill-rule="evenodd" clip-rule="evenodd" d="M107.247 275.754C107.247 275.754 107.33 274.567 109.538 273.63C111.746 272.693 115.932 271.131 118.327 272.735C120.722 274.338 120.576 275.15 120.576 275.15C120.576 275.15 118.847 274.276 117.535 273.943C116.223 273.609 114.474 273.568 112.766 274.026C111.058 274.484 109.371 275.171 108.83 275.442C108.288 275.713 107.851 276.879 107.247 275.754Z" fill="#E8D9F3"/>
<path fill-rule="evenodd" clip-rule="evenodd" d="M112.529 276.896C112.913 277.421 112.677 278.247 112.001 278.742C111.326 279.237 110.467 279.213 110.083 278.688C109.699 278.164 109.935 277.338 110.61 276.843C111.286 276.348 112.145 276.372 112.529 276.896Z" fill="#1F003C"/>
<path fill-rule="evenodd" clip-rule="evenodd" d="M110.463 278.066C110.463 278.066 110.544 276.879 112.665 275.942C114.786 275.005 118.809 273.443 121.111 275.046C123.412 276.65 123.272 277.462 123.272 277.462C123.272 277.462 121.611 276.587 120.35 276.254C119.089 275.921 117.408 275.879 115.767 276.338C114.126 276.796 112.505 277.483 111.984 277.754C111.464 278.024 111.044 279.191 110.463 278.066Z" fill="#E8D9F3"/>
<path fill-rule="evenodd" clip-rule="evenodd" d="M116.047 278.957C116.431 279.481 116.195 280.307 115.519 280.802C114.844 281.297 113.985 281.273 113.6 280.749C113.216 280.225 113.453 279.398 114.128 278.904C114.804 278.409 115.663 278.432 116.047 278.957Z" fill="#1F003C"/>
<path fill-rule="evenodd" clip-rule="evenodd" d="M113.981 280.176C113.981 280.176 114.045 279.109 115.728 278.267C117.412 277.426 121.729 276.162 123.556 277.603C125.382 279.043 124.401 280.196 124.401 280.196C124.401 280.196 122.828 278.847 121.827 278.548C120.827 278.249 119.493 278.211 118.19 278.623C116.888 279.034 115.601 279.652 115.189 279.895C114.775 280.138 114.442 281.186 113.981 280.176Z" fill="#E8D9F3"/>
<path fill-rule="evenodd" clip-rule="evenodd" d="M58.162 183.102C77.7088 186.363 96.3459 189.725 96.3459 191.035C96.3459 193.672 94.7633 212.91 95.7775 236.441C95.7775 236.441 101.863 243.743 120.12 237.252C120.12 237.252 127.283 191.245 118.155 173.394C100.725 150.269 45.4746 146.009 45.4746 146.009C40.9016 168.564 45.1307 180.928 58.162 183.102Z" fill="#165C5D"/>
<path d="M102.611 159.528C114.978 164.149 121.36 172.667 121.725 185.05L121.734 185.427L121.296 185.435C121.056 173.155 114.91 164.714 102.826 160.078L102.458 159.939L102.611 159.528Z" fill="black"/>
<path fill-rule="evenodd" clip-rule="evenodd" d="M70.2596 38.9843C70.2596 38.9843 69.7207 50.8334 62.8087 55.016C56.5375 58.811 69.8237 80.832 84.1164 79.5183C91.9402 78.7992 93.7737 57.4045 93.7737 57.4045C93.7737 57.4045 87.4565 56.1837 89.79 46.5504L70.2596 38.9843Z" fill="#F6CBC3"/>
<path fill-rule="evenodd" clip-rule="evenodd" d="M81.7043 51.0323C72.4385 49.9117 65.7514 43.8195 64.8151 33.7131C62.1214 34.1419 61.4861 27.1232 62.2363 24.8686C62.9872 22.6107 65.4383 23.9309 65.4383 23.9309C65.574 23.5741 65.6893 23.2006 65.7844 22.8103C69.832 6.20741 81.1688 6.86589 81.1688 6.86589C102.001 7.95115 97.1195 29.2192 95.9293 34.8615C94.739 40.5043 90.6614 52.1145 81.7043 51.0323Z" fill="#F6CBC3"/>
<path fill-rule="evenodd" clip-rule="evenodd" d="M19.3425 90.9635C2.84456 117.099 -2.36016 132.957 3.72835 138.536C9.81685 144.115 21.4317 137.328 38.5729 118.176C37.6895 113.9 35.4089 109.234 31.731 104.179C28.0532 99.1241 23.9237 94.7188 19.3425 90.9635Z" fill="#F6CBC3"/>
<path fill-rule="evenodd" clip-rule="evenodd" d="M123.314 109.533L111.273 108.131C111.273 108.131 114.353 149.58 113.196 149.58C112.574 149.58 98.1095 157.422 77.8397 157.422C62.2677 157.422 43.1668 152.273 42.3594 152.229C42.2601 152.223 42.1638 152.156 42.0718 152.032C42.3317 149.173 42.5376 144.118 42.7463 138.536C42.8924 134.62 43.0413 130.446 43.2121 126.59C43.3713 123.002 43.5494 119.691 43.764 117.118C44.6985 105.897 44.0517 95.6576 44.0517 95.6576L39.4407 108.171L10.2097 97.5207C10.2097 97.5207 19.9704 83.295 31.6073 70.9224C43.1522 58.6458 61.6691 55.5315 61.9582 55.4847C61.9597 55.4833 61.9611 55.4833 61.9611 55.4833C61.9611 55.4833 60.9215 72.4203 78.4382 73.7212C93.0026 74.8032 93.7575 57.3463 93.7575 57.3463C93.7575 57.3463 110.782 61.7909 115.666 65.9565C120.55 70.1221 142.097 98.5632 142.097 99.2816C142.097 99.9999 123.314 109.533 123.314 109.533Z" fill="#F9C818"/>
<path fill-rule="evenodd" clip-rule="evenodd" d="M43.2121 126.59C43.0413 130.446 42.8923 134.62 42.7463 138.536C42.7128 135.883 42.8179 132.068 43.2121 126.59Z" fill="#F9C818"/>
<path fill-rule="evenodd" clip-rule="evenodd" d="M103.742 114.408L88.4287 115.653C87.5058 115.728 86.6966 115.04 86.6216 114.117L84.1742 84.005C84.0993 83.082 84.7867 82.2728 85.7097 82.1979L101.023 80.9533C101.946 80.8782 102.755 81.5657 102.83 82.4889L105.277 112.601C105.352 113.524 104.665 114.333 103.742 114.408Z" fill="#204EB2"/>
<path fill-rule="evenodd" clip-rule="evenodd" d="M105.303 113.574L89.9344 114.823C89.0267 114.897 88.2309 114.221 88.157 113.313L85.7943 84.2422C85.7206 83.3346 86.3968 82.5387 87.3045 82.465L102.673 81.216C103.58 81.1421 104.376 81.8183 104.45 82.7262L106.813 111.796C106.886 112.704 106.21 113.5 105.303 113.574Z" fill="#1F9BEB"/>
<path fill-rule="evenodd" clip-rule="evenodd" d="M102.718 84.5303C102.788 85.4022 102.139 86.1664 101.267 86.2373C100.395 86.3082 99.631 85.6588 99.5602 84.7868C99.4894 83.915 100.139 83.1508 101.011 83.0798C101.882 83.009 102.647 83.6583 102.718 84.5303Z" fill="#204EB2"/>
<path fill-rule="evenodd" clip-rule="evenodd" d="M99.6859 112.512C99.6859 112.512 92.0062 114.186 91.957 111.527C91.957 111.527 97.1753 109.361 98.3568 109.46C99.5383 109.558 105.003 110.198 105.003 110.198L98.2582 106.851L91.5631 108.918C91.5631 108.918 90.037 109.017 89.3479 107.934C88.6587 106.851 89.4463 106.211 89.4463 106.211L98.209 103.306C98.209 103.306 98.5044 102.371 96.2891 102.272C94.0737 102.174 89.2001 101.829 89.2001 101.829C89.2001 101.829 88.1172 100.894 88.6094 99.22C89.1017 97.5463 91.8585 98.1371 91.8585 98.1371C91.8585 98.1371 90.3324 96.6602 92.6462 95.0357C92.6462 95.0357 99.7351 95.2325 102.344 96.857C104.953 98.4816 122.813 109.448 122.813 109.448L136.714 102.146C154.308 123.682 158.975 136.442 150.717 140.424C142.459 144.406 125.449 135.102 99.6859 112.512Z" fill="#F6CBC3"/>
<path fill-rule="evenodd" clip-rule="evenodd" d="M107.397 102.83L100.418 98.8746L91.7264 97.9434L91.7886 97.3628L100.54 98.3005C100.58 98.3046 100.618 98.317 100.653 98.3367L107.685 102.322L107.397 102.83Z" fill="black"/>
<path fill-rule="evenodd" clip-rule="evenodd" d="M135.413 117.43L118.731 106.947L119.042 106.453L135.724 116.936L135.413 117.43Z" fill="black"/>
<path fill-rule="evenodd" clip-rule="evenodd" d="M30.8133 105.441L14.0785 115.84L13.7702 115.344L30.505 104.945L30.8133 105.441Z" fill="black"/>
<path fill-rule="evenodd" clip-rule="evenodd" d="M106.832 106.037C106.788 106.007 102.414 103.046 101.274 102.571C100.404 102.209 98.6642 102.87 98.0674 103.156L97.8154 102.628C97.9127 102.582 100.211 101.495 101.498 102.032C102.693 102.53 106.978 105.43 107.159 105.553L106.832 106.037Z" fill="black"/>
<path fill-rule="evenodd" clip-rule="evenodd" d="M105.329 94.4858L109.638 101.077L105.54 98.4994L105.329 94.4858Z" fill="#F6CBC3"/>
<path fill-rule="evenodd" clip-rule="evenodd" d="M109.483 101.324L105.385 98.7468L105.696 98.2522L109.794 100.829L109.483 101.324Z" fill="black"/>
<path fill-rule="evenodd" clip-rule="evenodd" d="M52.2634 117.393L47.1319 117.293C41.7289 117.187 37.4346 112.72 37.5406 107.317L37.8614 90.9635L61.1973 91.4213L60.8498 109.137C60.7587 113.788 56.9144 117.484 52.2634 117.393Z" fill="white"/>
<path fill-rule="evenodd" clip-rule="evenodd" d="M37.3503 96.6156C37.3503 96.6156 35.2444 97.9694 34.5675 98.7967C33.8906 99.624 34.4923 99.7745 32.9881 101.354C31.4839 102.933 28.7763 106.919 33.5145 113.012C38.2529 119.104 39.8323 118.577 41.7878 117.524C43.7431 116.471 43.9688 115.719 47.6541 115.343C51.3394 114.967 54.8742 111.357 54.7991 110.454L54.7239 109.552C54.7239 109.552 58.1082 108.273 57.8828 106.844C57.657 105.415 56.6794 105.566 56.6794 105.566C56.6794 105.566 57.3563 104.889 56.8297 103.685C56.3032 102.482 53.8214 102.708 50.9633 103.084C48.1054 103.46 40.7347 104.964 40.2834 104.663C39.8323 104.362 39.9827 103.911 41.7124 103.685C43.4423 103.46 50.4369 103.385 50.4369 101.429C50.4369 99.4736 48.331 99.0976 44.2696 99.1728C40.2082 99.248 39.4561 99.0223 38.4785 99.3986L37.5006 99.7745L37.3503 96.6156Z" fill="#F6CBC3"/>
<path fill-rule="evenodd" clip-rule="evenodd" d="M56.7385 105.557C56.7385 105.557 56.9546 105.401 55.3452 106.016C54.7591 106.24 53.9327 106.473 52.7684 106.694C48.4061 107.521 41.5621 109.025 39.4562 109.326C37.3501 109.627 39.0801 110.078 43.8935 109.101C48.707 108.123 54.4371 106.811 54.6944 106.725C55.1324 106.579 56.4465 106.141 56.7385 105.557Z" fill="black"/>
<path fill-rule="evenodd" clip-rule="evenodd" d="M53.1444 110.003C53.1444 110.003 49.5841 111.252 47.832 111.69C45.9717 112.155 44.5704 112.786 44.1944 112.184C43.8183 111.582 43.367 111.432 43.367 111.432L42.7655 112.109C42.7655 112.109 42.8677 112.858 42.5397 112.936C41.9547 113.077 40.8098 113.312 40.8098 113.312C40.8098 113.312 40.8235 113.734 44.3278 113.004C45.1972 112.823 46.8099 112.566 47.832 112.274C48.7721 112.005 52.1667 111.131 52.618 110.755C53.0692 110.379 53.1444 110.003 53.1444 110.003Z" fill="black"/>
<path fill-rule="evenodd" clip-rule="evenodd" d="M42.0885 109.627C42.0885 109.627 42.033 112.656 42.888 112.608C43.7432 112.56 44.044 112.56 44.1944 112.335C44.3449 112.109 43.9688 111.357 43.9688 110.53C43.9688 109.702 43.9688 109.326 43.2919 109.401C42.615 109.477 42.1637 109.477 42.0885 109.627Z" fill="#F9C818"/>
<path d="M87.9244 26.6488L88.4805 26.8272L88.4261 27.0014C88.3825 27.1436 88.3337 27.3062 88.2812 27.4865C88.1311 28.002 87.9809 28.5557 87.8408 29.1256C87.6851 29.7591 87.5516 30.3734 87.4472 30.9534L87.4169 31.1252C87.1633 32.6004 87.1274 33.7269 87.3541 34.3327L87.3675 34.367C88.6637 37.5738 86.9035 39.2001 83.2089 38.0613L83.0963 38.0259L83.2743 37.4697C86.6024 38.5347 87.9371 37.3347 86.826 34.5859C86.5201 33.8293 86.5672 32.5452 86.8724 30.85C86.9791 30.2569 87.1152 29.6308 87.2737 28.9862C87.4001 28.472 87.5344 27.9712 87.6697 27.4989L87.7205 27.3232C87.7509 27.2185 87.7802 27.1197 87.808 27.0271L87.8793 26.7929L87.9244 26.6488Z" fill="black"/>
<path d="M73.5055 48.9908L73.7912 48.4815L73.8955 48.5383L73.9912 48.5891C74.136 48.6654 74.3008 48.7495 74.4841 48.8396L74.5637 48.8785C75.18 49.1788 75.8616 49.4791 76.5885 49.7594C78.26 50.4039 79.9116 50.8438 81.4483 50.9865C82.1446 51.0512 82.8046 51.0528 83.4226 50.9865L83.5457 50.9723L83.617 51.5519C82.9198 51.6378 82.1769 51.6407 81.3943 51.568C79.7972 51.4197 78.096 50.9666 76.3784 50.3043C75.6351 50.0177 74.9385 49.7108 74.308 49.4036L74.0695 49.2858C73.9681 49.235 73.8729 49.1863 73.7843 49.1401L73.619 49.0528L73.5055 48.9908Z" fill="black"/>
<path fill-rule="evenodd" clip-rule="evenodd" d="M84.1425 42.6338C81.3872 42.6338 79.3098 41.3717 79.2122 41.3114C79.0065 41.1844 78.9428 40.9144 79.07 40.7085C79.1969 40.5029 79.4669 40.439 79.6727 40.5662C79.7139 40.5913 82.1542 42.0575 85.0961 41.7005C85.3345 41.6716 85.5544 41.8424 85.5838 42.0826C85.613 42.3226 85.4418 42.5411 85.2017 42.5701C84.84 42.6142 84.4858 42.6338 84.1425 42.6338Z" fill="black"/>
<path fill-rule="evenodd" clip-rule="evenodd" d="M85.2796 38.4245C84.6893 38.4245 83.9528 38.309 83.0337 38.015L83.2115 37.4587C84.9233 38.0064 86.1878 37.9617 86.772 37.3325C87.2688 36.7971 87.2658 35.8178 86.7633 34.575C86.4224 33.7318 86.5067 32.1326 87.0137 29.8215C87.3848 28.1303 87.8569 26.6526 87.8618 26.6378L88.4178 26.8162C87.9057 28.4126 86.7077 32.8793 87.3047 34.3561C88.0637 36.2335 87.6667 37.227 87.1999 37.7298C86.867 38.0887 86.286 38.4245 85.2796 38.4245Z" fill="black"/>
<path fill-rule="evenodd" clip-rule="evenodd" d="M83.5068 24.7823C83.4221 24.8051 83.332 24.8141 83.2396 24.8072C82.3396 24.7406 79.7577 24.6144 78.6341 24.8281C77.576 25.0292 76.1305 25.9658 75.6628 26.3099C75.3056 26.5725 74.8031 26.4963 74.5403 26.1394C74.2773 25.7823 74.3533 25.2801 74.71 25.0168C74.7903 24.9577 76.698 23.5612 78.334 23.2503C79.8953 22.9534 83.2176 23.1951 83.3583 23.2057C83.8006 23.2384 84.1325 23.6236 84.0998 24.0658C84.0738 24.4156 83.8275 24.6964 83.5068 24.7823Z" fill="black"/>
<path fill-rule="evenodd" clip-rule="evenodd" d="M95.4782 29.6882C95.329 29.6279 95.1969 29.5213 95.1058 29.374C94.8142 28.9034 93.8674 27.5655 93.0008 27.0346C92.0761 26.4682 89.7191 25.7339 88.8888 25.4984C88.4727 25.3799 88.2304 24.947 88.3484 24.5306C88.4663 24.114 88.8997 23.872 89.3161 23.99C89.4464 24.0269 92.5221 24.9029 93.8197 25.6977C95.184 26.5334 96.3888 28.4677 96.4394 28.5497C96.6668 28.9179 96.5528 29.401 96.1845 29.6285C95.9637 29.7649 95.7017 29.7785 95.4782 29.6882Z" fill="black"/>
<path fill-rule="evenodd" clip-rule="evenodd" d="M80.8551 29.8819C80.8551 30.356 80.4707 30.7404 79.9966 30.7404C79.5225 30.7404 79.1381 30.356 79.1381 29.8819C79.1381 29.4076 79.5225 29.0233 79.9966 29.0233C80.4707 29.0233 80.8551 29.4076 80.8551 29.8819Z" fill="black"/>
<path fill-rule="evenodd" clip-rule="evenodd" d="M91.8408 30.8572C91.8408 31.3314 91.4564 31.7157 90.9823 31.7157C90.5082 31.7157 90.1238 31.3314 90.1238 30.8572C90.1238 30.3831 90.5082 29.9987 90.9823 29.9987C91.4564 29.9987 91.8408 30.3831 91.8408 30.8572Z" fill="black"/>
<mask id="mask7" mask-type="alpha" maskUnits="userSpaceOnUse" x="64" y="0" width="38" height="28">
<path fill-rule="evenodd" clip-rule="evenodd" d="M64.1339 0H101.582V27.4284H64.1339V0Z" fill="white"/>
</mask>
<g mask="url(#mask7)">
<path fill-rule="evenodd" clip-rule="evenodd" d="M65.4578 24.4826C65.4578 24.4826 65.9129 24.7539 65.7509 27.4284C65.7509 27.4284 66.9665 26.2128 67.2907 24.7539C67.6148 23.2951 69.8031 19.0807 71.6671 17.9459C73.5312 16.8114 76.4489 16.8924 78.1508 14.299L79.8528 11.7055C79.8528 11.7055 90.713 12.4348 95.4136 15.9199C95.4136 15.9199 97.6018 16.8924 97.1156 26.3748C97.1156 26.3748 98.0072 21.2689 98.1692 18.6755C98.3313 16.0819 99.4659 20.2153 98.9797 22.4846C98.9797 22.4846 101.755 20.1163 101.573 15.0283C101.326 8.10826 97.9635 6.10866 95.7379 4.49249C93.1147 2.58751 85.3753 -1.61389 80.5127 0.655378C75.6498 2.92465 75.8816 3.43875 73.6123 4.33028C71.343 5.22181 68.5063 4.81663 66.075 6.59955C63.6437 8.38261 64.1851 23.5255 64.1851 23.5255C64.1851 23.5255 65.1467 23.9153 65.4578 24.4826Z" fill="#FFC943"/>
</g>
<path d="M78.4769 23.2856C75.3968 23.2856 72.8998 25.7826 72.8998 28.8626C72.8998 31.9426 75.3968 34.4395 78.4769 34.4395C81.557 34.4395 84.0538 31.9427 84.0538 28.8626C84.0538 25.7826 81.5569 23.2856 78.4769 23.2856ZM78.4769 24.5997C80.8312 24.5997 82.7398 26.5083 82.7398 28.8626C82.7398 31.2169 80.8312 33.1254 78.4769 33.1254C76.1225 33.1254 74.2139 31.2169 74.2139 28.8626C74.2139 26.5083 76.1225 24.5997 78.4769 24.5997Z" fill="#E93737"/>
<path d="M92.19 24.6154C89.1099 24.6154 86.6129 27.1123 86.6129 30.1923C86.6129 33.2724 89.1099 35.7693 92.19 35.7693C95.2701 35.7693 97.767 33.2724 97.767 30.1923C97.767 27.1122 95.2701 24.6154 92.19 24.6154ZM92.19 25.9295C94.5444 25.9295 96.4529 27.838 96.4529 30.1923C96.4529 32.5467 94.5444 34.4552 92.19 34.4552C89.8356 34.4552 87.927 32.5467 87.927 30.1923C87.927 27.838 89.8356 25.9295 92.19 25.9295Z" fill="#E93737"/>
<path d="M65.5003 24.8667C65.6311 24.5396 65.9952 24.3757 66.3245 24.4895L66.3544 24.5006L73.6548 27.4208C73.9917 27.5556 74.1556 27.938 74.0208 28.2749C73.89 28.6019 73.526 28.7659 73.1966 28.652L73.1668 28.6409L65.8663 25.7207C65.5294 25.586 65.3655 25.2036 65.5003 24.8667Z" fill="#E93737"/>
<path d="M82.6542 29.1382C82.6932 28.7879 83.0009 28.5327 83.3491 28.5552L83.3799 28.5579L87.2083 28.9839C87.5689 29.0241 87.8287 29.349 87.7886 29.7096C87.7496 30.06 87.4419 30.3152 87.0937 30.2927L87.0629 30.29L83.2346 29.8639C82.8739 29.8238 82.6141 29.4989 82.6542 29.1382Z" fill="#E93737"/>
</svg>
