<svg width="577" height="422" viewBox="0 0 577 422" fill="none" xmlns="http://www.w3.org/2000/svg">
<path d="M64.0158 352.753C64.0158 352.753 57.4606 340.054 70.6018 320.029C98.4264 277.629 53.4282 298.08 43.474 269.124C35.3575 245.515 48.8707 221.661 35.3014 215.341C13.0895 204.996 -10.0647 189.746 4.80765 172.491C15.243 160.384 51.1905 161.476 65.2858 198.734C74.1059 222.049 108.862 206.496 139.698 243.432C148.882 254.432 169.05 300.985 158.467 352.753H64.0158Z" fill="#141414"/>
<path d="M100.863 352.753C100.863 352.753 85.8512 334.149 93.1322 313.746C99.0051 297.288 114.764 292.786 115.292 278.923C115.958 261.442 98.4188 263.846 95.6437 242.262C93.4875 225.49 103.747 210.064 103.071 201.144C102.05 187.648 78.983 180.644 71.0627 160.348C61.0206 134.616 92.2841 128.738 106.21 137.44C123.689 148.363 124.28 164.661 131.942 174.47C140.645 185.61 167.885 188.112 171.796 215.579C174.276 232.999 164.103 248.136 168.898 262.884C172.459 273.839 193.722 278.676 198.197 302.884C203.014 328.943 183.587 352.753 183.587 352.753H100.863Z" fill="#FFB500"/>
<path d="M144.394 352.753H146.228C146.887 348.5 152.658 308.308 144.131 260.437C136.788 219.21 114.532 180.669 96.1535 158.348C95.8354 157.961 95.265 157.906 94.878 158.224C94.4916 158.542 94.4363 159.113 94.7543 159.5C104.819 171.724 114.786 187.359 122.819 203.527C132.338 222.685 139.091 242.474 142.347 260.754C151.097 309.877 144.703 350.841 144.394 352.753Z" fill="#070707"/>
<path fill-rule="evenodd" clip-rule="evenodd" d="M576.902 41.2992C576.902 58.7743 562.735 72.9412 545.259 72.9412C527.784 72.9412 513.617 58.7743 513.617 41.2992C513.617 23.8236 527.784 9.65662 545.259 9.65662C562.735 9.65662 576.902 23.8236 576.902 41.2992Z" fill="#FF4B33"/>
<path fill-rule="evenodd" clip-rule="evenodd" d="M534.366 41.2992V27.0436L546.712 34.1711L559.058 41.2992L546.712 48.4267L534.366 55.5543V41.2992Z" fill="white"/>
<path fill-rule="evenodd" clip-rule="evenodd" d="M17.5559 42.7942C17.5559 42.7942 27.042 35.9709 36.0016 17.3642C44.962 -1.24339 55.1831 -0.0923579 58.6512 0.980517C62.1177 2.05339 67.3147 14.3887 71.6978 25.5027C76.0809 36.6175 81.6126 32.2202 84.7989 22.4049C87.9843 12.5887 94.9852 18.8523 95.9476 22.7254C96.9099 26.5985 98.5725 33.7431 105.164 31.4623C111.754 29.18 114.018 30.7739 114.703 34.3383C115.387 37.9027 119.392 39.8866 133.731 40.9706C148.071 42.0553 154.21 47.977 144.119 49.7715C134.029 51.5667 -14.9114 50.7022 17.5559 42.7942Z" fill="white"/>
<path d="M49.1955 1.38108C52.7087 -0.246977 56.0019 -0.31334 58.7852 0.547685C60.5256 1.08635 62.5648 3.93635 65.058 8.91589L65.2369 9.27518C67.081 13.0008 69.023 17.5432 71.5074 23.7911L72.1193 25.3365C74.1106 30.3862 76.3395 32.2626 78.5281 31.3822C80.6084 30.5454 82.7132 27.2831 84.309 22.4449L84.3679 22.265C85.8726 17.6283 88.4418 15.9466 91.3614 17.0057C93.6389 17.8319 95.8324 20.3826 96.3873 22.6161L96.6745 23.7578C96.925 24.7341 97.0853 25.2817 97.3323 26.0077C98.8342 30.4239 101.072 32.3444 104.899 31.0737L105.015 31.0342C111.269 28.8686 114.266 29.9586 115.122 34.1257L115.148 34.2529C115.819 37.7488 120.353 39.4771 133.368 40.4883L133.765 40.5188C140.574 41.0338 146.058 42.6912 148.388 44.7665C149.593 45.8402 149.906 47.0332 149.132 48.064C148.399 49.0394 146.73 49.7674 144.198 50.2175C138.916 51.1574 99.3235 51.3032 66.8447 50.4292L64.8655 50.3744C46.0278 49.8383 31.0844 49.0109 22.1605 47.9228L21.7598 47.8733C16.9361 47.2689 13.9978 46.5981 12.9781 45.7938C12.2039 45.1833 12.354 44.3994 13.2723 43.8135C14.0055 43.3457 15.3271 42.8791 17.2752 42.3966L17.3591 42.3758L17.3798 42.3604C17.4418 42.3134 17.513 42.2582 17.5934 42.1945L17.6553 42.1451C17.9608 41.9007 18.3163 41.6003 18.7176 41.242C19.8689 40.2141 21.1537 38.9298 22.539 37.3725C26.5054 32.9136 30.4751 27.1651 34.1827 19.9946C34.5645 19.2562 34.9419 18.5055 35.3147 17.7423L35.5934 17.1676C39.6597 8.72332 44.2763 3.66069 49.1955 1.38108ZM58.5173 1.41335C55.9358 0.614762 52.8711 0.676523 49.5765 2.20326C44.9125 4.36463 40.4807 9.19502 36.5294 17.3137L36.4098 17.5607C35.943 18.5303 35.4688 19.4802 34.9876 20.4108C31.245 27.649 27.2322 33.4599 23.2161 37.9747C21.8687 39.4894 20.6121 40.7528 19.4754 41.7794L19.3211 41.9179C18.9535 42.2461 18.622 42.5282 18.3294 42.7657L18.0936 42.954C18.0331 43.0015 17.9776 43.0443 17.9274 43.0824L17.8205 43.162L17.5557 42.7939L17.6631 43.2344L17.3348 43.3157C15.6173 43.7483 14.4436 44.1618 13.8168 44.5419L13.7597 44.5775L13.6657 44.6382C13.32 44.8657 13.3289 44.9165 13.5392 45.0824C14.3963 45.7583 17.411 46.4308 22.2702 47.0233L22.8107 47.088C31.6657 48.1293 46.1568 48.9275 64.3281 49.4525L64.8913 49.4686C97.6312 50.4005 138.74 50.2683 144.039 49.3254L144.304 49.2768C148.556 48.4712 149.574 47.0371 147.785 45.4432C145.659 43.5494 140.441 41.9587 133.913 41.4391L133.697 41.4224C120.105 40.3949 115.148 38.5814 114.283 34.5468L114.258 34.4239C113.57 30.8454 111.256 29.9025 105.659 31.7725L105.312 31.8905C102.888 32.7293 100.908 32.4145 99.353 31.1019C98.1482 30.0851 97.258 28.54 96.5392 26.4875L96.4744 26.2995C96.134 25.2986 95.9548 24.6332 95.5079 22.8346C95.0239 20.8869 93.0385 18.5781 91.0524 17.8576C88.695 17.0024 86.635 18.3247 85.2744 22.4091L85.2298 22.5447C83.5509 27.7167 81.2939 31.2464 78.8662 32.2229C76.0692 33.348 73.4276 31.1242 71.2763 25.6689L70.547 23.8285C68.1673 17.8545 66.2886 13.4624 64.5134 9.8568L64.2547 9.33552C61.8832 4.59971 59.9188 1.8471 58.5173 1.41335Z" fill="#141414"/>
<path fill-rule="evenodd" clip-rule="evenodd" d="M481.672 223.803C467.068 225.722 455.493 252.1 505.07 278.738C506.55 241.001 499.595 221.446 481.672 223.803Z" fill="#FFC81A"/>
<path fill-rule="evenodd" clip-rule="evenodd" d="M459.308 274.941C448.406 279.737 455.22 303.086 493.799 313.374C494.996 282.86 472.453 269.159 459.308 274.941Z" fill="#FFC81A"/>
<path fill-rule="evenodd" clip-rule="evenodd" d="M550.17 293.367C553.903 282.057 535.068 267.514 501.604 289.295C523.476 310.606 545.67 307.003 550.17 293.367Z" fill="#FFC81A"/>
<path fill-rule="evenodd" clip-rule="evenodd" d="M564.1 208.828C556.11 195.575 525.832 201.833 518.978 253.257C558.499 249.734 573.733 224.806 564.1 208.828Z" fill="#FFC81A"/>
<path fill-rule="evenodd" clip-rule="evenodd" d="M489.514 352.751H489.52C489.853 352.748 490.121 352.475 490.118 352.141C490.116 351.951 490.006 332.852 496.028 308.323C499.563 293.928 504.487 280.505 510.664 268.43C518.379 253.349 528.081 240.337 539.502 229.757C539.746 229.53 539.761 229.148 539.534 228.903C539.307 228.659 538.925 228.644 538.68 228.871C527.151 239.552 517.36 252.683 509.579 267.898C503.359 280.061 498.402 293.576 494.847 308.068C488.794 332.738 488.908 351.961 488.909 352.153C488.913 352.484 489.183 352.751 489.514 352.751Z" fill="#141414"/>
<path d="M443.967 101.808C452.975 101.808 460.278 109.11 460.278 118.119V336.806C460.278 345.814 452.975 353.117 443.967 353.117H159.432C150.424 353.117 143.121 345.814 143.121 336.806V118.119C143.121 109.11 150.424 101.808 159.432 101.808H443.967ZM443.967 103.318H159.432C151.34 103.318 144.764 109.813 144.631 117.874V118.119V336.806C144.631 344.898 151.126 351.474 159.187 351.606H159.432H443.967C452.059 351.606 458.635 345.112 458.767 337.05V336.806V118.119C458.767 110.026 452.273 103.451 444.212 103.318H443.967Z" fill="#141414"/>
<path d="M443.967 101.808C452.975 101.808 460.278 109.11 460.278 118.119V139.866H143.121V118.119C143.121 109.11 150.424 101.808 159.432 101.808H443.967ZM443.967 103.318H159.432C151.34 103.318 144.764 109.813 144.631 117.874V118.119V138.356H458.767V118.119C458.767 110.026 452.273 103.451 444.212 103.32L443.967 103.318Z" fill="#141414"/>
<path d="M168.796 127.482C172.132 127.482 174.837 124.778 174.837 121.441C174.837 118.105 172.132 115.4 168.796 115.4C165.459 115.4 162.755 118.105 162.755 121.441C162.755 124.778 165.459 127.482 168.796 127.482Z" fill="#FF4B33"/>
<path d="M168.796 115.4C172.132 115.4 174.837 118.105 174.837 121.441C174.837 124.778 172.132 127.482 168.796 127.482C165.459 127.482 162.755 124.778 162.755 121.441C162.755 118.105 165.459 115.4 168.796 115.4ZM168.796 116.608C166.127 116.608 163.963 118.772 163.963 121.441C163.963 124.11 166.127 126.274 168.796 126.274C171.465 126.274 173.629 124.11 173.629 121.441C173.629 118.772 171.465 116.608 168.796 116.608Z" fill="#141414"/>
<path d="M188.127 115.4C191.464 115.4 194.168 118.105 194.168 121.441C194.168 124.778 191.464 127.482 188.127 127.482C184.791 127.482 182.086 124.778 182.086 121.441C182.086 118.105 184.791 115.4 188.127 115.4ZM188.127 116.608C185.458 116.608 183.294 118.772 183.294 121.441C183.294 124.11 185.458 126.274 188.127 126.274C190.796 126.274 192.96 124.11 192.96 121.441C192.96 118.772 190.796 116.608 188.127 116.608Z" fill="#141414"/>
<path d="M207.459 115.4C210.795 115.4 213.5 118.105 213.5 121.441C213.5 124.778 210.795 127.482 207.459 127.482C204.122 127.482 201.418 124.778 201.418 121.441C201.418 118.105 204.122 115.4 207.459 115.4ZM207.459 116.608C204.79 116.608 202.626 118.772 202.626 121.441C202.626 124.11 204.79 126.274 207.459 126.274C210.128 126.274 212.292 124.11 212.292 121.441C212.292 118.772 210.128 116.608 207.459 116.608Z" fill="#141414"/>
<path d="M319.061 214.19C302.58 214.19 289.164 225.531 289.164 239.603C289.164 253.674 302.58 265.015 319.061 265.015L319.452 265.012C321.276 264.992 323.086 264.829 324.873 264.528L324.975 264.51L324.991 264.539C325.825 266.018 327 267.403 328.58 268.521C331.036 270.261 334.174 271.122 338.039 270.853C338.958 270.789 339.198 269.563 338.4 269.148L338.296 269.098C336.825 268.365 336.001 265.362 335.871 260.933L335.863 260.621L335.888 260.607C343.983 255.916 348.958 248.13 348.958 239.603C348.958 225.531 335.542 214.19 319.061 214.19ZM319.061 216.002C334.603 216.002 347.146 226.605 347.146 239.603C347.146 247.611 342.349 254.954 334.509 259.305C334.219 259.467 334.04 259.774 334.043 260.106L334.045 260.287C334.094 264.116 334.57 267.091 335.674 268.95L335.742 269.062L335.68 269.059C333.261 268.908 331.261 268.199 329.627 267.042C328.092 265.955 327 264.565 326.281 263.101C326.101 262.735 325.699 262.534 325.298 262.611C323.247 263.002 321.163 263.202 319.061 263.202C303.52 263.202 290.977 252.6 290.977 239.603C290.977 226.605 303.52 216.002 319.061 216.002Z" fill="#141414"/>
<path fill-rule="evenodd" clip-rule="evenodd" d="M310.061 240.241C310.061 241.956 308.671 243.346 306.957 243.346C305.242 243.346 303.852 241.956 303.852 240.241C303.852 238.526 305.242 237.136 306.957 237.136C308.671 237.136 310.061 238.526 310.061 240.241Z" fill="#141414"/>
<path fill-rule="evenodd" clip-rule="evenodd" d="M322.246 240.241C322.246 241.956 320.856 243.346 319.141 243.346C317.426 243.346 316.036 241.956 316.036 240.241C316.036 238.526 317.426 237.136 319.141 237.136C320.856 237.136 322.246 238.526 322.246 240.241Z" fill="#141414"/>
<path fill-rule="evenodd" clip-rule="evenodd" d="M334.431 240.241C334.431 241.956 333.04 243.346 331.326 243.346C329.611 243.346 328.221 241.956 328.221 240.241C328.221 238.526 329.611 237.136 331.326 237.136C333.04 237.136 334.431 238.526 334.431 240.241Z" fill="#141414"/>
<path fill-rule="evenodd" clip-rule="evenodd" d="M245.82 230.306C245.82 216.772 258.799 205.8 274.81 205.8C290.822 205.8 303.801 216.772 303.801 230.306C303.801 243.841 290.822 254.812 274.81 254.812C272.608 254.812 270.466 254.598 268.404 254.204C267.296 256.461 263.985 261.215 255.896 260.653C258.261 259.577 258.883 255.028 258.923 250.801C251.033 246.422 245.82 238.881 245.82 230.306Z" fill="#FF4B33"/>
<path fill-rule="evenodd" clip-rule="evenodd" d="M265.468 231.443C265.468 233.158 264.078 234.548 262.363 234.548C260.648 234.548 259.258 233.158 259.258 231.443C259.258 229.728 260.648 228.338 262.363 228.338C264.078 228.338 265.468 229.728 265.468 231.443Z" fill="white"/>
<path fill-rule="evenodd" clip-rule="evenodd" d="M277.653 231.443C277.653 233.158 276.263 234.548 274.548 234.548C272.833 234.548 271.443 233.158 271.443 231.443C271.443 229.728 272.833 228.338 274.548 228.338C276.263 228.338 277.653 229.728 277.653 231.443Z" fill="white"/>
<path fill-rule="evenodd" clip-rule="evenodd" d="M289.837 231.443C289.837 233.158 288.447 234.548 286.733 234.548C285.018 234.548 283.628 233.158 283.628 231.443C283.628 229.728 285.018 228.338 286.733 228.338C288.447 228.338 289.837 229.728 289.837 231.443Z" fill="white"/>
<path d="M343.652 204.112C343.828 203.643 344.351 203.406 344.819 203.582C345.271 203.752 345.508 204.244 345.366 204.699L345.349 204.749L342.383 212.642C342.207 213.111 341.685 213.348 341.216 213.172C340.764 213.002 340.528 212.51 340.669 212.055L340.687 212.005L343.652 204.112Z" fill="#141414"/>
<path d="M353.157 211.122C353.544 210.805 354.115 210.861 354.432 211.248C354.737 211.62 354.697 212.163 354.349 212.486L354.306 212.524L347.945 217.741C347.559 218.058 346.988 218.002 346.67 217.615C346.365 217.243 346.405 216.701 346.753 216.377L346.796 216.34L353.157 211.122Z" fill="#141414"/>
<path d="M357.967 221.74C358.463 221.669 358.921 222.014 358.992 222.509C359.06 222.987 358.743 223.431 358.276 223.525L358.223 223.534L350.914 224.578C350.419 224.648 349.96 224.304 349.889 223.809C349.821 223.331 350.138 222.887 350.605 222.792L350.658 222.783L357.967 221.74Z" fill="#141414"/>
<path fill-rule="evenodd" clip-rule="evenodd" d="M374.07 392.094L371.63 408.761L347.658 411.238L351.375 394.065L374.07 392.094Z" fill="white"/>
<path fill-rule="evenodd" clip-rule="evenodd" d="M347.579 411.842L371.75 409.469C372.043 409.44 372.28 409.214 372.322 408.922L374.79 392.061C374.841 391.71 374.598 391.384 374.247 391.333C373.895 391.283 373.57 391.525 373.518 391.876L371.124 408.239L348.337 410.477L351.973 394.232C352.051 393.886 351.833 393.543 351.487 393.465C351.139 393.388 350.797 393.606 350.72 393.952L346.89 411.062C346.845 411.263 346.899 411.474 347.035 411.628C347.158 411.766 347.334 411.845 347.517 411.845C347.537 411.845 347.559 411.844 347.579 411.842Z" fill="#141414"/>
<path fill-rule="evenodd" clip-rule="evenodd" d="M372.715 406.806C372.637 406.499 372.335 406.305 372.023 406.361C371.726 406.414 371.35 406.486 370.908 406.572C368.195 407.094 362.55 408.18 357.2 408.184H357.186C354.035 408.184 351.263 407.322 349.382 405.756C349.232 405.632 349.032 405.588 348.843 405.636C339.661 408.026 333.027 409.754 328.111 413.032C327.247 413.609 324.131 416.125 324.67 417.904C324.919 418.726 325.807 419.144 327.308 419.144C332.788 419.144 344.596 419.174 355.014 419.201C363.443 419.223 370.723 419.242 373.463 419.242C373.753 419.242 374.014 419.111 374.199 418.873C375.279 417.484 373.521 409.972 372.715 406.806Z" fill="#FFC81A"/>
<path fill-rule="evenodd" clip-rule="evenodd" d="M373.353 421.902H325.98C325.193 421.902 324.554 421.264 324.554 420.477V420.006C324.554 419.219 325.193 418.58 325.98 418.58H373.353C374.14 418.58 374.779 419.219 374.779 420.006V420.477C374.779 421.264 374.14 421.902 373.353 421.902Z" fill="#141414"/>
<path fill-rule="evenodd" clip-rule="evenodd" d="M339.434 411.328C339.194 411.328 338.963 411.193 338.853 410.961C337.846 408.844 335.909 409.362 335.691 409.429C335.354 409.532 334.994 409.343 334.889 409.006C334.785 408.668 334.97 408.31 335.307 408.203C336.405 407.855 338.803 407.867 340.013 410.409C340.166 410.729 340.03 411.112 339.709 411.265C339.62 411.308 339.526 411.328 339.434 411.328Z" fill="#141414"/>
<path fill-rule="evenodd" clip-rule="evenodd" d="M345.107 409.78C344.867 409.78 344.636 409.645 344.526 409.414C343.518 407.297 341.582 407.815 341.364 407.882C341.026 407.985 340.667 407.796 340.562 407.459C340.458 407.121 340.643 406.763 340.98 406.656C342.079 406.308 344.476 406.321 345.686 408.862C345.839 409.182 345.703 409.565 345.382 409.718C345.293 409.76 345.199 409.78 345.107 409.78Z" fill="#141414"/>
<path fill-rule="evenodd" clip-rule="evenodd" d="M417.092 392.05L417.81 408.891L438.923 410.701L438.6 393.791L417.092 392.05Z" fill="white"/>
<path fill-rule="evenodd" clip-rule="evenodd" d="M438.972 411.34C439.135 411.34 439.292 411.279 439.411 411.167C439.544 411.042 439.617 410.868 439.614 410.686L439.306 393.771C439.3 393.417 438.997 393.132 438.652 393.141C438.298 393.148 438.015 393.44 438.022 393.795L438.317 409.999L418.429 408.334L417.719 391.941C417.704 391.587 417.405 391.311 417.05 391.327C416.696 391.342 416.421 391.642 416.436 391.997L417.169 408.955C417.183 409.278 417.436 409.54 417.758 409.567L438.919 411.338C438.936 411.339 438.954 411.34 438.972 411.34Z" fill="#141414"/>
<path fill-rule="evenodd" clip-rule="evenodd" d="M416.346 406.904C416.424 406.597 416.726 406.403 417.038 406.458C417.335 406.512 417.711 406.584 418.153 406.669C420.866 407.191 426.511 408.278 431.861 408.282H431.875C435.026 408.282 437.798 407.42 439.679 405.854C439.829 405.729 440.029 405.685 440.218 405.734C449.399 408.124 456.033 409.851 460.95 413.13C461.814 413.707 464.93 416.222 464.391 418.001C464.141 418.824 463.254 419.241 461.753 419.241C456.272 419.241 444.465 419.272 434.047 419.299C425.618 419.321 418.338 419.34 415.597 419.34C415.308 419.34 415.047 419.209 414.861 418.97C413.782 417.582 415.54 410.069 416.346 406.904Z" fill="#FFC81A"/>
<path fill-rule="evenodd" clip-rule="evenodd" d="M415.708 422H463.081C463.868 422 464.506 421.362 464.506 420.575V420.104C464.506 419.316 463.868 418.678 463.081 418.678H415.708C414.921 418.678 414.282 419.316 414.282 420.104V420.575C414.282 421.362 414.921 422 415.708 422Z" fill="#141414"/>
<path fill-rule="evenodd" clip-rule="evenodd" d="M449.627 411.425C449.867 411.425 450.097 411.29 450.207 411.059C451.215 408.942 453.152 409.46 453.369 409.527C453.707 409.629 454.066 409.44 454.171 409.103C454.276 408.766 454.091 408.408 453.754 408.301C452.656 407.952 450.258 407.965 449.048 410.507C448.895 410.827 449.031 411.21 449.351 411.363C449.44 411.405 449.534 411.425 449.627 411.425Z" fill="#141414"/>
<path fill-rule="evenodd" clip-rule="evenodd" d="M443.954 409.878C444.194 409.878 444.424 409.743 444.534 409.512C445.543 407.395 447.479 407.913 447.696 407.98C448.034 408.082 448.394 407.893 448.499 407.556C448.603 407.218 448.418 406.861 448.081 406.754C446.982 406.405 444.585 406.418 443.375 408.959C443.222 409.28 443.358 409.663 443.678 409.816C443.768 409.858 443.861 409.878 443.954 409.878Z" fill="#141414"/>
<path fill-rule="evenodd" clip-rule="evenodd" d="M445.093 202.225L460.882 401.322C445.314 402.595 428.762 402.411 411.599 401.322C411.599 401.322 408.879 234.912 407.385 234.743C404.588 234.428 390.85 401.322 390.85 401.322C375.322 403.837 360.092 403.071 344.952 401.322C344.952 401.322 356.474 253.887 376.197 201.481C407.369 202.867 445.093 202.225 445.093 202.225Z" fill="#0B379B"/>
<path fill-rule="evenodd" clip-rule="evenodd" d="M427.867 208.714C428.238 208.523 428.694 208.667 428.885 209.037C433.891 218.692 444.697 217.779 445.167 217.733C445.585 217.693 445.952 217.996 445.993 218.411C446.033 218.826 445.73 219.196 445.315 219.236C445.294 219.239 444.919 219.272 444.285 219.272C441.22 219.272 432.09 218.5 427.545 209.732C427.353 209.362 427.497 208.907 427.867 208.714Z" fill="white"/>
<path fill-rule="evenodd" clip-rule="evenodd" d="M372.432 216.311C372.876 216.355 383.362 217.275 388.218 207.615C388.404 207.244 388.846 207.1 389.204 207.292C389.564 207.484 389.704 207.939 389.518 208.31C385.11 217.078 376.259 217.849 373.287 217.849C372.673 217.849 372.31 217.816 372.289 217.814C371.887 217.773 371.594 217.404 371.632 216.989C371.672 216.575 372.031 216.271 372.432 216.311Z" fill="white"/>
<path fill-rule="evenodd" clip-rule="evenodd" d="M443.006 164.62C443.005 164.721 443.002 164.818 443.001 164.921C442.984 166.644 443.091 169.4 443.278 172.71C446.005 172.692 448.532 172.504 449.793 171.96C448.223 169.762 445.64 167.102 443.006 164.62ZM369.121 204.914C369.466 176.554 368.265 146.118 379.847 127.548C392.665 106.993 433.062 110.538 447.337 122.766C454.439 127.7 465.285 137.096 474.664 153.049C481.607 164.859 485.881 187.767 475.332 195.158C466.022 199.788 453.8 200.6 444.534 200.106C444.714 201.951 444.883 203.586 445.033 204.914H369.121Z" fill="#FFC81A"/>
<path fill-rule="evenodd" clip-rule="evenodd" d="M448.741 171.623C447.424 169.929 445.59 168.005 443.648 166.126C443.672 167.672 443.757 169.708 443.883 172.055C445.823 172.025 447.569 171.901 448.741 171.623ZM444.013 204.272C443.899 203.23 443.775 202.031 443.645 200.717C435.462 200.207 430.663 198.739 430.152 198.612C429.844 198.533 429.639 198.243 429.669 197.926L432.188 172.158C432.224 171.804 432.532 171.545 432.889 171.581C434.925 171.771 438.939 172.052 442.597 172.064C442.434 169.047 442.343 166.534 442.358 164.915V164.896C437.981 160.791 433.511 157.203 433.438 157.146C433.161 156.925 433.118 156.52 433.339 156.243C433.559 155.965 433.964 155.919 434.242 156.143C434.517 156.363 438.359 159.444 442.388 163.16C442.811 163.546 443.234 163.942 443.654 164.341C446.098 166.66 448.484 169.122 450.054 171.234C453.335 170.373 455.899 168.654 455.929 168.636C456.222 168.436 456.621 168.515 456.82 168.808C457.02 169.101 456.941 169.5 456.648 169.699C456.521 169.787 453.673 171.702 449.988 172.575C448.744 173.088 446.46 173.297 443.953 173.345C443.53 173.351 443.101 173.354 442.669 173.354C438.894 173.348 434.934 173.046 433.405 172.916L431.004 197.497C434.375 198.301 438.015 199.086 443.518 199.412C443.947 199.436 444.379 199.46 444.817 199.479C454.111 199.898 466.235 198.95 475.004 194.603C481.066 190.317 481.311 180.993 480.918 175.81C480.332 168.119 477.723 159.523 474.11 153.376C466.707 140.783 458.331 132.281 451.661 126.862C450.024 125.527 448.49 124.382 447.097 123.409C444.995 121.573 442.261 119.918 439.09 118.51C431.807 115.272 422.208 113.336 412.603 113.511C397.66 113.786 385.919 119.027 380.392 127.889C370.158 144.296 369.995 170.412 369.838 195.67C369.823 198.497 369.805 201.412 369.772 204.272H444.013ZM379.301 127.209C385.062 117.969 397.192 112.511 412.579 112.227C420.477 112.082 428.69 113.345 435.701 115.782C440.609 117.489 444.705 119.7 447.668 122.207C448.919 123.08 450.29 124.089 451.752 125.252C458.011 130.221 467.163 139.022 475.219 152.724C482.568 165.229 486.413 188.179 475.702 195.685C475.675 195.703 475.647 195.718 475.617 195.733C467.595 199.723 458.361 200.889 450.317 200.889C448.886 200.889 446.285 200.853 444.944 200.786C445.095 202.327 445.24 203.698 445.37 204.843C445.391 205.024 445.333 205.206 445.21 205.341C445.089 205.477 444.913 205.556 444.732 205.556H369.122C368.95 205.556 368.784 205.486 368.663 205.366C368.545 205.242 368.476 205.079 368.478 204.906C368.515 201.844 368.536 198.699 368.554 195.661C368.711 170.228 368.874 143.925 379.301 127.209Z" fill="#141414"/>
<path fill-rule="evenodd" clip-rule="evenodd" d="M412.002 126.458L408.307 132.206L412.823 165.668L402.354 178.601L393.732 166.9L404.612 132.206L402.148 126.253L408.5 122.737L412.002 126.458Z" fill="#FFC81A"/>
<path fill-rule="evenodd" clip-rule="evenodd" d="M402.001 104.598L401.359 111.918C401.254 116.253 407.953 123.828 407.953 123.828C407.953 123.828 420.942 115.631 421.043 111.426L420.287 103.507" fill="white"/>
<path fill-rule="evenodd" clip-rule="evenodd" d="M407.953 124.47C408.071 124.47 408.19 124.438 408.296 124.371C409.655 123.513 421.579 115.862 421.686 111.442C421.686 111.416 421.685 111.391 421.683 111.365L420.926 103.446C420.892 103.093 420.578 102.836 420.226 102.868C419.872 102.901 419.614 103.215 419.647 103.568L420.4 111.446C420.357 112.335 419.458 114.436 414.07 118.694C411.588 120.654 409.086 122.325 408.076 122.984C407.499 122.299 406.309 120.841 405.139 119.126C403.055 116.068 401.97 113.589 402 111.954L402.641 104.654C402.672 104.3 402.41 103.989 402.057 103.958C401.704 103.928 401.392 104.188 401.361 104.542L400.719 111.862C400.717 111.876 400.717 111.89 400.717 111.903C400.607 116.438 407.191 123.936 407.472 124.253C407.597 124.396 407.774 124.47 407.953 124.47Z" fill="#141414"/>
<path fill-rule="evenodd" clip-rule="evenodd" d="M401.63 111.712C402.811 115.944 404.753 120.034 407.884 123.205C413.422 119.575 418.105 115.733 421.259 111.508C429.006 114.776 417.703 131.837 417.703 131.837C417.703 131.837 408.728 124.117 407.884 123.353C407.04 124.117 396.59 129.065 396.59 129.065C396.59 129.065 396.807 112.302 401.63 111.712Z" fill="white"/>
<path fill-rule="evenodd" clip-rule="evenodd" d="M406.976 123.185C405.536 124.019 401.317 126.103 397.256 128.037C397.445 122.14 398.613 113.796 401.191 112.508C402.484 116.85 404.428 120.436 406.976 123.185ZM421.451 112.316C422.27 112.779 422.81 113.469 423.095 114.414C423.773 116.659 422.976 120.305 420.789 124.96C419.562 127.572 418.211 129.825 417.56 130.867C415.831 129.379 410.607 124.881 408.843 123.341C414.49 119.58 418.625 115.965 421.451 112.316ZM417.703 132.48C417.732 132.48 417.762 132.478 417.791 132.474C417.974 132.448 418.136 132.346 418.239 132.192C418.563 131.703 426.163 120.129 424.325 114.042C423.88 112.569 422.932 111.517 421.509 110.916C421.236 110.802 420.921 110.887 420.744 111.124C417.978 114.83 413.798 118.513 407.977 122.374C405.418 119.639 403.492 115.997 402.248 111.539C402.163 111.233 401.865 111.035 401.552 111.074C396.323 111.714 395.97 127.283 395.947 129.057C395.945 129.278 396.056 129.486 396.242 129.605C396.43 129.725 396.665 129.74 396.865 129.646C398.448 128.896 405.749 125.424 407.829 124.162C409.708 125.807 416.949 132.036 417.284 132.324C417.401 132.425 417.55 132.48 417.703 132.48Z" fill="#141414"/>
<path fill-rule="evenodd" clip-rule="evenodd" d="M360.059 189.835H424.344C426.179 189.835 427.667 188.009 427.667 185.757C427.667 183.505 426.179 181.68 424.344 181.68H360.059C358.224 181.68 356.736 183.505 356.736 185.757C356.736 188.009 358.224 189.835 360.059 189.835Z" fill="#141414"/>
<path fill-rule="evenodd" clip-rule="evenodd" d="M319.551 189.835H383.186C385.491 189.835 387.359 187.967 387.359 185.662V139.57C387.359 137.265 385.491 135.396 383.186 135.396H319.551C317.246 135.396 315.378 137.265 315.378 139.57V185.662C315.378 187.967 317.246 189.835 319.551 189.835Z" fill="#13D6C3"/>
<path fill-rule="evenodd" clip-rule="evenodd" d="M343.543 163.062C343.543 166.665 346.294 168.94 350.024 168.94C353.753 168.94 356.776 166.019 356.776 162.416C356.776 158.813 352.776 152.716 349.813 157.194C347.755 160.305 343.543 159.459 343.543 163.062Z" fill="white"/>
<path fill-rule="evenodd" clip-rule="evenodd" d="M352.155 156.251C352.361 156.251 352.519 156.298 352.615 156.327C354.427 156.872 356.134 160.22 356.134 162.416C356.134 165.659 353.393 168.297 350.023 168.297C346.531 168.297 344.185 166.193 344.185 163.062C344.185 161.514 345.043 161.047 346.686 160.288C347.935 159.711 349.35 159.058 350.349 157.549C351.064 156.468 351.717 156.251 352.155 156.251ZM350.023 169.582C354.101 169.582 357.419 166.368 357.419 162.416C357.419 159.705 355.441 155.835 352.985 155.097C352.19 154.857 350.65 154.765 349.278 156.84C348.48 158.045 347.294 158.592 346.148 159.122C344.551 159.858 342.9 160.62 342.9 163.062C342.9 166.901 345.83 169.582 350.023 169.582Z" fill="#141414"/>
<path fill-rule="evenodd" clip-rule="evenodd" d="M432.76 173.16C427.926 172.182 416.565 170.694 406.465 169.454C387.603 167.136 386.214 179.48 391.099 177.822C394.353 176.717 396.437 176.975 398.92 176.832C396.185 177.267 394.942 179.056 395.657 180.192C396.659 181.785 403.465 178.922 410.914 182.785C417.527 186.214 425.822 191.496 430.788 192.276L432.76 173.16Z" fill="white"/>
<path fill-rule="evenodd" clip-rule="evenodd" d="M432.061 173.678L430.221 191.514C426.655 190.716 421.539 187.88 416.582 185.131C414.699 184.087 412.92 183.101 411.21 182.215C406.481 179.762 402.028 179.934 399.081 180.046C397.882 180.092 396.389 180.149 396.201 179.85C396.068 179.639 396.066 179.385 396.197 179.097C396.463 178.51 397.363 177.73 399.021 177.467C399.359 177.413 399.596 177.104 399.559 176.763C399.522 176.423 399.225 176.169 398.883 176.191C398.332 176.222 397.788 176.234 397.262 176.246C395.414 176.286 393.503 176.327 390.892 177.214C390.55 177.33 389.926 177.465 389.587 177.063C389.255 176.671 389.193 175.773 389.799 174.653C391.418 171.661 396.625 168.892 406.387 170.091C419.229 171.669 427.858 172.874 432.061 173.678ZM430.787 192.919C430.928 192.919 431.066 192.872 431.18 192.785C431.319 192.678 431.409 192.518 431.426 192.342L433.399 173.226C433.433 172.897 433.212 172.596 432.887 172.531C428.896 171.723 420.032 170.473 406.543 168.816C401.659 168.215 397.518 168.524 394.237 169.733C391.63 170.693 389.653 172.223 388.669 174.041C387.87 175.517 387.846 176.993 388.605 177.892C389.212 178.61 390.195 178.807 391.305 178.43C393.043 177.84 394.424 177.654 395.741 177.581C395.432 177.876 395.19 178.208 395.027 178.567C394.72 179.243 394.752 179.96 395.113 180.534C395.697 181.462 397.063 181.409 399.131 181.33C401.942 181.223 406.191 181.059 410.618 183.355C412.313 184.234 414.084 185.215 415.959 186.255C421.332 189.234 426.888 192.314 430.688 192.911C430.721 192.916 430.754 192.919 430.787 192.919Z" fill="#141414"/>
<path fill-rule="evenodd" clip-rule="evenodd" d="M341.358 188.456C341.551 187.745 342.101 186.616 343.246 186.369C344.782 186.039 345.488 187.299 345.558 188.665C345.625 188.412 345.709 188.148 345.813 187.869C346.672 185.57 349.389 185.928 349.756 187.627C349.898 188.284 349.931 188.925 349.884 189.511C350.351 188.03 351.571 186.834 352.938 187.209C353.961 187.489 354.534 188.488 354.497 189.846C354.848 189.136 355.498 188.585 356.255 188.496C357.439 188.356 358.653 189.661 357.93 191.928C357.401 193.592 355.366 193.358 354.603 192.239C354.406 191.949 354.293 191.635 354.247 191.317C354.173 191.567 354.084 191.822 353.974 192.083C353.28 193.729 350.42 193.585 349.849 191.868C349.717 191.471 349.668 191.046 349.686 190.618C349.473 191.367 349.124 191.941 348.734 192.21C347.446 193.098 345.438 192.525 345.356 190.237C345.153 190.856 344.806 191.353 344.338 191.531C342.327 192.298 340.676 190.978 341.358 188.456Z" fill="white"/>
<path fill-rule="evenodd" clip-rule="evenodd" d="M342.347 190.846C342.768 191.207 343.399 191.243 344.079 190.943C344.515 190.751 345.049 189.048 344.636 187.772C344.425 187.12 344.068 186.958 343.719 186.957C343.604 186.957 343.49 186.974 343.382 186.997C342.409 187.207 342.042 188.389 341.978 188.624C341.717 189.591 341.855 190.422 342.347 190.846ZM346.621 191.683C347.103 192.059 347.822 192.059 348.369 191.681C348.622 191.507 348.88 191.089 349.054 190.514C349.077 190.141 349.142 189.764 349.25 189.399C349.284 188.897 349.253 188.343 349.128 187.763C349 187.171 348.46 186.926 348.037 186.895C348.012 186.893 347.981 186.891 347.945 186.891C347.602 186.891 346.818 187.015 346.414 188.094C345.793 189.756 345.87 191.098 346.621 191.683ZM350.458 191.665C350.676 192.318 351.384 192.576 351.924 192.596C352.442 192.617 353.131 192.429 353.382 191.834C353.915 190.569 354.007 189.349 353.628 188.57C353.44 188.182 353.151 187.933 352.768 187.828C352.112 187.649 351.585 188.024 351.256 188.37C350.923 188.723 350.674 189.177 350.516 189.659C350.482 190.023 350.419 190.369 350.333 190.691C350.322 191.032 350.358 191.365 350.458 191.665ZM355.199 192C355.332 192.333 355.751 192.551 356.229 192.537C356.483 192.528 357.096 192.431 357.318 191.733C357.616 190.799 357.556 189.983 357.154 189.496C356.959 189.259 356.7 189.129 356.431 189.128C356.398 189.128 356.364 189.13 356.331 189.134C355.866 189.189 355.569 189.534 355.403 189.814C355.03 190.443 354.944 191.362 355.199 192ZM340.738 188.288V188.288C340.876 187.781 341.453 186.098 343.111 185.741C344.218 185.503 345.126 185.914 345.632 186.848C346.223 186.011 347.138 185.543 348.13 185.613C349.236 185.694 350.127 186.428 350.369 187.444C351.156 186.64 352.15 186.327 353.107 186.589C353.852 186.793 354.432 187.284 354.784 188.008C354.844 188.133 354.894 188.266 354.94 188.401C355.3 188.101 355.722 187.912 356.181 187.858C356.914 187.772 357.649 188.078 358.145 188.678C358.83 189.509 358.975 190.765 358.542 192.123C358.221 193.132 357.353 193.782 356.276 193.821C356.241 193.822 356.207 193.823 356.172 193.823C355.367 193.821 354.647 193.458 354.234 192.879C353.733 193.506 352.921 193.885 352.001 193.883C351.959 193.883 351.917 193.882 351.874 193.88C350.787 193.838 349.865 193.295 349.413 192.465C349.311 192.57 349.207 192.664 349.098 192.739C348.598 193.084 348.026 193.256 347.463 193.255C346.881 193.253 346.307 193.067 345.831 192.696C345.618 192.53 345.319 192.235 345.084 191.776C344.936 191.922 344.775 192.041 344.597 192.119C344.126 192.326 343.651 192.428 343.2 192.428C342.565 192.426 341.976 192.221 341.51 191.82C340.632 191.065 340.344 189.745 340.738 188.288Z" fill="#141414"/>
<path fill-rule="evenodd" clip-rule="evenodd" d="M392.799 90.0622C392.92 87.9877 394.002 87.058 395.118 87.0108C395.216 86.3684 395.323 85.7253 395.444 85.0822C398.443 69.1667 408.365 67.0254 416.662 69.0857C422.155 70.4501 429.574 74.3119 428.04 88.7328C431.349 87.9088 432.899 89.723 432.785 92.2596C432.683 94.5371 430.966 96.1981 427.59 96.379C426.608 104.102 419.378 116.103 405.397 113.356C397.237 111.753 394.188 102.98 394.558 92.8341C393.05 92.5816 392.723 91.3625 392.799 90.0622Z" fill="white"/>
<path fill-rule="evenodd" clip-rule="evenodd" d="M393.995 92.1083C394.068 90.6433 394.207 89.1762 394.403 87.7318C394.004 87.8131 393.513 88.2045 393.403 90.0975C393.343 91.1169 393.522 91.7319 393.995 92.1083ZM405.513 112.763C410.568 113.757 415.065 112.865 418.878 110.113C424.043 106.386 426.477 100.344 426.991 96.3029C427.028 96.0132 427.267 95.7915 427.558 95.7758C430.402 95.6236 432.087 94.332 432.181 92.2327C432.232 91.1009 431.911 90.192 431.277 89.6731C430.841 89.3164 430.253 89.1367 429.543 89.1367C429.13 89.1367 428.676 89.1971 428.186 89.3191C427.994 89.3662 427.792 89.3182 427.643 89.1883C427.495 89.059 427.419 88.8651 427.439 88.6691C428.575 77.9936 425.002 71.7794 416.516 69.672C416.265 69.6098 416.004 69.55 415.737 69.4932C415.785 69.53 415.825 69.5793 415.844 69.6542C415.939 70.0393 415.341 70.1873 415.246 69.8019C415.198 69.6089 415.325 69.4757 415.475 69.4391C412.161 68.7773 407.763 68.6731 403.899 71.1533C399.962 73.68 397.317 78.4041 396.038 85.194C392.59 103.491 398.987 111.481 405.513 112.763ZM416.807 68.4994C413.186 67.6002 407.894 67.1541 403.246 70.1366C399.019 72.8499 396.194 77.8408 394.85 84.9704L394.757 85.4801C394.696 85.821 394.638 86.164 394.584 86.5085C392.402 86.5928 392.246 89.1693 392.196 90.0271C392.131 91.1447 392.234 92.7145 393.879 93.4415C393.901 93.4515 393.925 93.4566 393.947 93.4636C393.747 103.064 396.563 112.236 405.28 113.949C406.698 114.227 408.076 114.366 409.411 114.366C413.157 114.366 416.566 113.272 419.585 111.093C424.859 107.287 427.448 101.212 428.12 96.9442C431.313 96.6231 433.27 94.9068 433.388 92.2868C433.457 90.7647 432.979 89.5046 432.042 88.7383C431.441 88.2459 430.397 87.7575 428.719 87.9864C429.638 77.2454 425.633 70.6914 416.807 68.4994ZM429.266 90.5959C429.647 90.5959 429.956 91.1387 429.956 91.8081C429.956 92.4774 429.647 93.0202 429.266 93.0202C428.885 93.0202 428.576 92.4774 428.576 91.8081C428.576 91.1387 428.885 90.5959 429.266 90.5959ZM420.991 79.0998C421.435 79.307 421.114 79.9975 420.669 79.79C420.225 79.5828 420.546 78.8923 420.991 79.0998ZM426.105 79.1164C426.323 79.1182 426.319 79.4556 426.102 79.4538C425.885 79.4517 425.888 79.1146 426.105 79.1164ZM410.762 79.3049C410.743 79.3082 410.724 79.3112 410.705 79.3146C410.574 79.3369 410.493 79.1865 410.539 79.0784C410.547 79.0596 410.554 79.0406 410.562 79.0219C410.715 78.6555 411.206 79.2297 410.762 79.3049ZM424.122 77.2495C424.121 77.2746 424.12 77.3 424.118 77.3254C424.112 77.471 423.941 77.5969 423.805 77.5015C423.786 77.4882 423.766 77.4743 423.747 77.4607C423.288 77.1384 424.147 76.756 424.122 77.2495ZM400.961 76.3882C401.293 76.5432 401.053 77.0594 400.72 76.9041C400.388 76.7495 400.628 76.2333 400.961 76.3882ZM416.773 75.9947C417.291 76.2367 416.916 77.0432 416.397 76.8009C415.878 76.559 416.253 75.7525 416.773 75.9947ZM413.216 76.0105C413.433 76.0123 413.43 76.3497 413.213 76.3479C412.995 76.3461 412.998 76.0087 413.216 76.0105ZM405.936 75.5517C405.933 75.6009 405.931 75.6501 405.929 75.6994C405.915 75.9836 405.582 76.2286 405.318 76.0431C405.28 76.0165 405.242 75.9899 405.205 75.9634C404.31 75.3348 405.983 74.5896 405.936 75.5517ZM420.467 75.5447C420.654 75.6317 420.519 75.922 420.332 75.8347C420.146 75.7477 420.281 75.4574 420.467 75.5447ZM409.928 74.2318C410.023 74.6166 409.425 74.7649 409.33 74.3795C409.235 73.9947 409.833 73.8464 409.928 74.2318ZM422.604 74.2456C422.821 74.2475 422.818 74.5849 422.601 74.583C422.384 74.5812 422.387 74.2438 422.604 74.2456ZM414.83 72.2973C415.447 72.3025 415.438 73.2597 414.823 73.2542C414.206 73.2491 414.214 72.2922 414.83 72.2973ZM403.462 72.5965C403.461 72.6149 403.46 72.6333 403.459 72.6517C403.454 72.7581 403.329 72.8499 403.23 72.7804C403.217 72.7704 403.202 72.7605 403.188 72.7505C402.853 72.5152 403.48 72.2364 403.462 72.5965ZM407.458 71.8283C407.91 71.8323 407.903 72.5339 407.452 72.53C406.999 72.5264 407.006 71.8244 407.458 71.8283ZM418.598 71.6061C419.042 71.8133 418.72 72.5032 418.276 72.296C417.832 72.0891 418.153 71.3989 418.598 71.6061ZM411.438 70.5583C411.656 70.5601 411.652 70.8975 411.435 70.8957C411.218 70.8939 411.221 70.5565 411.438 70.5583Z" fill="#141414"/>
<path fill-rule="evenodd" clip-rule="evenodd" d="M411.102 104.975C409.676 104.722 408.232 104.82 406.839 105.218C405.894 105.51 406.335 106.948 407.28 106.663C408.807 106.125 410.557 105.988 412.109 106.502C412.424 106.597 412.756 106.418 412.851 106.103C413.027 105.192 411.71 105.162 411.102 104.975ZM409.186 92.6138C409.004 92.6184 408.856 92.7585 408.838 92.9352C408.683 94.0277 408.654 95.2523 408.235 96.2481C407.772 96.7441 406.803 97.1833 406.512 98.062C405.83 99.8078 408.143 100.874 409.532 100.542C409.863 100.358 409.853 99.8568 409.528 99.6734C408.52 99.4599 406.54 99.1149 408.211 97.8285C408.644 97.5379 409.433 96.8145 409.433 96.0757C409.579 95.0375 409.575 93.9909 409.554 92.9633C409.549 92.7652 409.384 92.6084 409.186 92.6138ZM405.011 95.6203C404.898 95.566 404.78 95.5943 404.68 95.6514C403.661 96.3803 402.483 96.9246 401.195 96.7467C400.912 96.7298 400.669 96.9463 400.652 97.23C400.676 98.0201 401.739 97.7845 402.274 97.7598C402.946 97.816 405.898 96.4032 405.011 95.6203ZM414.998 94.5347C414.82 94.4015 414.568 94.4371 414.435 94.6144C414.132 95.1651 414.96 95.5798 415.318 95.8852C415.896 96.3987 419.139 97.351 418.858 95.8809C418.787 95.7224 418.636 95.648 418.483 95.6067C417.263 95.4964 415.963 95.4206 414.998 94.5347ZM404.462 91.8814C402.935 90.3799 400.238 90.7949 398.878 92.3055C397.085 94.7962 402.303 96.0501 403.91 94.9053C404.992 94.3676 405.356 92.7522 404.462 91.8814ZM399.556 93.8432C398.125 92.6855 401.229 91.5238 402.165 91.7808C401.344 92.3656 401.514 93.9662 402.222 94.5359C401.309 94.6476 400.292 94.4093 399.556 93.8432ZM420.534 91.9318C420.02 89.1919 415.917 89.4284 414.423 91.1915C412.641 93.749 417.827 94.9203 419.474 93.8873C420.18 93.5853 420.641 92.6749 420.534 91.9318ZM415.099 92.7619C413.686 91.489 416.8 90.4484 417.786 90.7094C417.032 91.3374 417.148 92.9419 418.01 93.4315C417.017 93.5907 415.897 93.3965 415.099 92.7619ZM419.354 86.3902C418.621 85.81 414.233 84.9805 414.481 86.5624C414.554 86.8608 414.834 87.0544 415.131 87.0279C416.942 86.8197 418.921 87.3003 420.234 88.6269C420.723 89.061 421.08 89.6159 421.475 90.1438C421.62 90.3278 421.887 90.3592 422.071 90.2142C422.489 89.8089 421.906 89.1582 421.749 88.7284C421.195 87.7458 420.372 86.9116 419.354 86.3902ZM403.428 86.0521C400.939 85.7455 398.14 87.0202 397.318 89.5009C397.134 89.9268 397.748 90.2751 398.022 89.915C398.423 89.4245 398.797 88.934 399.27 88.5739C399.705 88.2033 400.213 87.91 400.746 87.7085C401.84 87.2905 403.122 87.2165 404.279 87.3581C404.591 87.3917 404.872 87.1654 404.906 86.8528C404.948 86.0904 403.933 86.1454 403.428 86.0521Z" fill="#141414"/>
<path fill-rule="evenodd" clip-rule="evenodd" d="M402.523 95.9983C405.337 95.9983 407.459 93.8075 407.459 90.9024C407.459 88.005 405.197 85.6478 402.417 85.6478C399.531 85.6478 397.27 87.8646 397.27 90.6945C397.27 93.5695 399.676 95.9983 402.523 95.9983ZM418.224 98.0181C421.044 98.0181 423.427 95.2885 423.427 92.058C423.427 89.084 420.931 86.6648 417.862 86.6648C414.942 86.6648 412.567 89.2652 412.567 92.4619C412.567 95.4736 415.158 98.0181 418.224 98.0181ZM402.417 84.4396C405.066 84.4396 407.328 86.1544 408.237 88.5642C409.359 88.4814 411.365 88.7424 412.239 88.9499C413.366 86.8633 415.464 85.4566 417.862 85.4566C421.597 85.4566 424.635 88.418 424.635 92.058C424.635 96.0107 421.759 99.2264 418.224 99.2264C414.503 99.2264 411.359 96.1285 411.359 92.4619C411.359 91.62 411.497 90.8126 411.751 90.0642C411.004 89.9149 409.386 89.7455 408.561 89.7458C408.627 90.1215 408.667 90.507 408.667 90.9024C408.667 94.4376 405.968 97.2065 402.523 97.2065C399.021 97.2065 396.062 94.2243 396.062 90.6945C396.062 87.1871 398.854 84.4396 402.417 84.4396Z" fill="#FFC81A"/>
<path fill-rule="evenodd" clip-rule="evenodd" d="M406.422 107.878C407.333 108.077 407.86 109.177 410.409 109.341C413.186 109.519 414.627 108.709 414.668 107.698C414.759 105.408 410.528 103.853 406.512 103.771C401.361 103.963 400.629 104.236 400.258 105.58C399.785 107.296 400.502 108.222 401.593 108.491C404.545 109.219 405.06 107.581 406.422 107.878ZM398.115 103.72C398.56 102.871 400.093 100.95 403.332 100.444C405.399 100.121 406.621 101.236 407.282 101.248C407.877 101.258 410.302 99.8014 414.366 101.959C416.226 102.946 416.782 104.677 417.386 106.49C417.848 106.278 418.193 106.891 421.011 105.583C423.829 104.276 426.729 99.2825 427.551 98.5865C428.178 98.0564 428.316 103.301 426.146 109.208C424.494 113.704 421.171 117.694 417.447 119.448C410.097 122.911 399.284 121.354 396.185 116.469C392.374 110.46 394.193 98.334 395.218 96.5217C396.242 94.7094 395.568 103.316 398.115 103.72Z" fill="#141414"/>
<path fill-rule="evenodd" clip-rule="evenodd" d="M250.171 392.094L252.611 408.761L276.583 411.238L272.866 394.065L250.171 392.094Z" fill="white"/>
<path fill-rule="evenodd" clip-rule="evenodd" d="M276.661 411.842L252.491 409.469C252.197 409.44 251.961 409.214 251.918 408.922L249.451 392.061C249.399 391.71 249.643 391.384 249.994 391.333C250.345 391.283 250.671 391.525 250.722 391.876L253.117 408.239L275.903 410.477L272.267 394.232C272.19 393.886 272.408 393.543 272.754 393.465C273.101 393.388 273.444 393.606 273.521 393.952L277.351 411.062C277.396 411.263 277.342 411.474 277.205 411.628C277.082 411.766 276.907 411.845 276.724 411.845C276.703 411.845 276.682 411.844 276.661 411.842Z" fill="#141414"/>
<path fill-rule="evenodd" clip-rule="evenodd" d="M251.525 406.806C251.603 406.499 251.905 406.305 252.217 406.361C252.514 406.414 252.89 406.486 253.333 406.572C256.046 407.094 261.691 408.18 267.041 408.184H267.054C270.206 408.184 272.978 407.322 274.859 405.756C275.008 405.632 275.208 405.588 275.397 405.636C284.579 408.026 291.213 409.754 296.129 413.032C296.993 413.609 300.11 416.125 299.571 417.904C299.321 418.726 298.434 419.144 296.933 419.144C291.452 419.144 279.645 419.174 269.227 419.201C260.798 419.223 253.518 419.242 250.777 419.242C250.488 419.242 250.226 419.111 250.041 418.873C248.962 417.484 250.72 409.972 251.525 406.806Z" fill="#FF4B33"/>
<path fill-rule="evenodd" clip-rule="evenodd" d="M250.888 421.902H298.261C299.048 421.902 299.686 421.264 299.686 420.477V420.006C299.686 419.219 299.048 418.58 298.261 418.58H250.888C250.1 418.58 249.462 419.219 249.462 420.006V420.477C249.462 421.264 250.1 421.902 250.888 421.902Z" fill="#141414"/>
<path fill-rule="evenodd" clip-rule="evenodd" d="M284.807 411.328C285.047 411.328 285.277 411.193 285.387 410.961C286.395 408.844 288.331 409.362 288.549 409.429C288.887 409.532 289.246 409.343 289.351 409.006C289.456 408.668 289.27 408.31 288.934 408.203C287.835 407.855 285.438 407.867 284.227 410.409C284.075 410.729 284.211 411.112 284.531 411.265C284.62 411.308 284.714 411.328 284.807 411.328Z" fill="#141414"/>
<path fill-rule="evenodd" clip-rule="evenodd" d="M279.134 409.78C279.374 409.78 279.604 409.645 279.714 409.414C280.722 407.297 282.659 407.815 282.876 407.882C283.214 407.985 283.573 407.796 283.678 407.459C283.783 407.121 283.597 406.763 283.261 406.656C282.161 406.308 279.764 406.321 278.555 408.862C278.402 409.182 278.538 409.565 278.858 409.718C278.947 409.76 279.041 409.78 279.134 409.78Z" fill="#141414"/>
<path fill-rule="evenodd" clip-rule="evenodd" d="M207.148 392.05L206.43 408.891L185.318 410.701L185.64 393.791L207.148 392.05Z" fill="white"/>
<path fill-rule="evenodd" clip-rule="evenodd" d="M185.268 411.34C185.106 411.34 184.949 411.279 184.829 411.167C184.697 411.042 184.623 410.868 184.626 410.686L184.934 393.771C184.941 393.417 185.244 393.132 185.588 393.141C185.943 393.148 186.225 393.44 186.219 393.795L185.924 409.999L205.812 408.334L206.521 391.941C206.536 391.587 206.835 391.311 207.19 391.327C207.545 391.342 207.82 391.642 207.804 391.997L207.071 408.955C207.057 409.278 206.805 409.54 206.483 409.567L185.322 411.338C185.304 411.339 185.286 411.34 185.268 411.34Z" fill="#141414"/>
<path fill-rule="evenodd" clip-rule="evenodd" d="M207.895 406.904C207.817 406.597 207.515 406.403 207.203 406.458C206.906 406.512 206.53 406.584 206.087 406.669C203.374 407.191 197.729 408.278 192.38 408.282H192.366C189.214 408.282 186.443 407.42 184.561 405.854C184.412 405.729 184.212 405.685 184.023 405.734C174.841 408.124 168.207 409.851 163.291 413.13C162.427 413.707 159.311 416.222 159.85 418.001C160.099 418.824 160.987 419.241 162.488 419.241C167.968 419.241 179.776 419.272 190.193 419.299C198.623 419.321 205.902 419.34 208.643 419.34C208.933 419.34 209.194 419.209 209.379 418.97C210.458 417.582 208.701 410.069 207.895 406.904Z" fill="#FF4B33"/>
<path fill-rule="evenodd" clip-rule="evenodd" d="M208.533 422H161.16C160.372 422 159.734 421.362 159.734 420.575V420.104C159.734 419.316 160.372 418.678 161.16 418.678H208.533C209.32 418.678 209.958 419.316 209.958 420.104V420.575C209.958 421.362 209.32 422 208.533 422Z" fill="#141414"/>
<path fill-rule="evenodd" clip-rule="evenodd" d="M174.613 411.425C174.373 411.425 174.143 411.29 174.033 411.059C173.025 408.942 171.089 409.46 170.871 409.527C170.533 409.629 170.174 409.44 170.069 409.103C169.964 408.766 170.15 408.408 170.486 408.301C171.585 407.952 173.982 407.965 175.193 410.507C175.345 410.827 175.209 411.21 174.889 411.363C174.8 411.405 174.706 411.425 174.613 411.425Z" fill="#141414"/>
<path fill-rule="evenodd" clip-rule="evenodd" d="M180.286 409.878C180.046 409.878 179.816 409.743 179.706 409.512C178.698 407.395 176.761 407.913 176.544 407.98C176.206 408.082 175.847 407.893 175.742 407.556C175.637 407.218 175.823 406.861 176.159 406.754C177.259 406.405 179.656 406.418 180.866 408.959C181.018 409.28 180.882 409.663 180.562 409.816C180.473 409.858 180.379 409.878 180.286 409.878Z" fill="#141414"/>
<path fill-rule="evenodd" clip-rule="evenodd" d="M179.148 202.225L163.359 401.322C178.926 402.595 195.478 402.411 212.641 401.322C212.641 401.322 215.361 234.912 216.855 234.743C219.652 234.428 233.39 401.322 233.39 401.322C248.918 403.837 264.148 403.071 279.288 401.322C279.288 401.322 267.766 253.887 248.044 201.481C216.872 202.867 179.148 202.225 179.148 202.225Z" fill="black"/>
<path fill-rule="evenodd" clip-rule="evenodd" d="M196.373 208.714C196.003 208.523 195.547 208.667 195.355 209.037C190.35 218.692 179.544 217.779 179.073 217.733C178.655 217.693 178.289 217.996 178.248 218.411C178.207 218.826 178.511 219.196 178.926 219.236C178.947 219.239 179.321 219.272 179.955 219.272C183.02 219.272 192.15 218.5 196.696 209.732C196.888 209.362 196.743 208.907 196.373 208.714Z" fill="white"/>
<path fill-rule="evenodd" clip-rule="evenodd" d="M251.809 216.311C251.364 216.355 240.879 217.275 236.023 207.615C235.836 207.244 235.394 207.1 235.036 207.292C234.677 207.484 234.537 207.939 234.723 208.31C239.13 217.078 247.982 217.849 250.953 217.849C251.567 217.849 251.93 217.816 251.951 217.814C252.353 217.773 252.647 217.404 252.608 216.989C252.569 216.575 252.21 216.271 251.809 216.311Z" fill="white"/>
<path fill-rule="evenodd" clip-rule="evenodd" d="M263.682 220.639C265.171 225.484 269.962 242.265 268.782 247.253C267.292 253.552 266.562 257.958 268.677 258.652C271.036 259.426 272.479 256.127 273.467 255.596C273.832 255.399 274.377 256.201 275.764 257.919C278.585 261.417 281.165 263.982 283.047 262.783C284.45 261.888 283.336 260.02 283.336 260.02C283.336 260.02 286.016 263.753 288.33 262.806C289.436 262.354 290.14 261.549 288.557 259.038C289.798 260.902 292.073 261.657 293.118 260.236C293.434 259.805 293.993 258.868 292.524 256.227C294.34 257.972 295.826 255.163 295.191 253.182C293.71 248.561 290.04 246.145 287.075 241.575C284.376 237.416 281.029 217.915 281.029 217.915" fill="white"/>
<path fill-rule="evenodd" clip-rule="evenodd" d="M295.529 253.005C294.101 248.047 289.306 245.132 287.009 240.722C284.952 236.772 282.678 223.24 281.662 217.807C281.523 217.002 280.256 217.182 280.396 218.024C281.708 225.358 282.986 232.711 285.441 239.774C286.067 241.601 287.267 243.177 288.472 244.655C290.699 247.41 293.351 249.802 294.509 253.193C295.022 254.14 294.478 257.021 293.032 255.892C292.39 255.03 288.346 249.385 287.34 250.746C287.204 250.991 287.292 251.3 287.537 251.435C289.442 252.696 290.757 254.832 292.094 256.659C294.322 260.226 291.433 261.924 289.023 258.731C288.475 258.043 284.619 252.121 283.879 253.215C283.697 253.412 283.711 253.721 283.91 253.901C285.53 255.497 286.825 257.458 288.091 259.345C288.48 259.965 288.933 260.759 288.924 261.454C288.92 261.814 288.623 262.066 288.277 262.222C287.324 262.688 286.373 262.16 285.514 261.494C284.307 260.878 280.167 254.348 279.26 255.404C279.075 255.601 279.087 255.914 279.288 256.096C280.612 257.365 281.781 258.903 282.889 260.38C283.26 261.098 283.408 262.05 282.577 262.386C280.546 263.062 278.124 259.682 276.861 258.312C276.279 257.611 275.646 256.797 275.069 256.078C274.627 255.576 274.004 254.624 273.149 255.069C271.834 255.945 271.122 257.921 269.477 258.127C268.351 258.197 268.073 257.186 268.055 256.149C268.06 253.215 268.993 250.302 269.653 247.448C269.99 245.911 269.872 244.324 269.732 242.873C268.807 235.19 266.645 227.78 264.297 220.45C264.053 219.7 262.836 220.01 263.069 220.828C265.016 228.131 267.507 235.434 268.37 242.944C268.504 244.502 268.526 246.153 268.165 247.593C267.739 250.247 264.992 258.388 268.644 259.302C270.88 259.931 272.334 257.653 273.598 256.271C275.849 258.62 278.419 263.105 281.851 263.643C282.924 263.713 284.101 263.023 284.273 261.901C285.186 262.727 286.248 263.505 287.562 263.515C288.833 263.521 290.263 262.502 290.014 261.104C292.77 262.594 294.753 259.907 293.699 257.363C295.75 257.024 295.936 254.601 295.529 253.005Z" fill="#141414"/>
<path fill-rule="evenodd" clip-rule="evenodd" d="M115.406 111.022C113.545 110.025 112.998 114.29 115.116 117.591C112.339 115.362 105.669 109.929 103.37 111.226C101.046 112.537 104.501 116.29 104.501 116.29C102.13 115.203 99.293 113.664 98.6037 115.515C97.8609 117.51 101.9 119.936 101.9 119.936C98.8979 118.98 98.0132 119.244 97.6181 120.463C96.9853 122.414 101.01 124.382 101.01 124.382C99.1102 124.163 97.5275 126.141 102.175 129.199C107.302 132.572 117.928 139.994 126.37 150.613C127.576 152.13 141.565 148.907 150.187 141.273C133.304 129.44 117.815 112.312 115.406 111.022Z" fill="white"/>
<path fill-rule="evenodd" clip-rule="evenodd" d="M146.558 137.83C134.502 128.847 122.96 116.869 115.71 110.455C113.007 109.47 112.734 112.874 113.454 115.458C109.119 112.1 105.073 109.527 103.054 110.667C101.495 111.51 101.793 113.366 102.58 114.709C98.68 112.636 96.1431 115.657 99.298 118.718C98.1539 118.68 97.3848 119.101 97.007 120.265C96.4962 121.84 98.0421 123.263 99.3053 124.124C97.8418 125.417 98.0373 127.103 101.822 129.736C110.981 135.76 118.604 142.349 124.479 149.318C130.713 150.525 105.74 129.963 102.529 128.663C99.7403 126.785 98.8181 125.058 100.865 125.016L104.907 126.657C105.436 126.88 105.803 126.07 105.287 125.82C105.283 125.817 101.297 123.809 101.293 123.805C100.143 123.241 97.882 121.731 98.2291 120.661C98.4043 120.121 98.5864 119.564 101.643 120.528L106.984 123.571C107.533 123.894 108.043 123.042 107.5 122.71C105.706 121.264 98.88 118.315 99.2056 115.74C99.9324 114.446 102.651 116.272 104.204 116.86C104.204 116.86 109.426 119.923 109.426 119.923C109.649 120.054 109.94 119.989 110.084 119.769C110.233 119.543 110.169 119.239 109.943 119.09L104.925 115.8C104.125 114.775 102.361 112.716 103.685 111.785C105.552 110.733 112.296 116.151 114.513 117.931C114.862 118.436 115.136 119.233 115.106 119.839C114.446 122.217 114.714 125.397 116.894 126.926C117.234 127.157 117.624 126.639 117.293 126.379C117.173 126.282 117.014 126.204 116.962 126.061C116.9 125.888 114.977 123.42 115.932 121.128C116.185 120.518 116.561 119.835 116.39 119.192C116.274 118.482 116.008 117.862 115.657 117.245C114.185 115.046 113.959 111.339 115.103 111.588C122.204 118.085 133.76 129.834 145.781 138.853C146.422 139.361 147.241 138.329 146.558 137.83Z" fill="#141414"/>
<path fill-rule="evenodd" clip-rule="evenodd" d="M235.138 118.383C235.026 118.874 234.863 119.393 234.622 119.925C234.52 120.148 234.301 120.28 234.071 120.28C233.988 120.28 233.903 120.262 233.822 120.226C233.518 120.088 233.383 119.73 233.521 119.426C233.896 118.598 234.055 117.796 234.113 117.13C234.3 105.22 193.679 101.951 192.405 118.749C192.588 119.478 192.897 120.323 193.415 120.911C193.635 121.161 193.611 121.543 193.361 121.763C193.246 121.864 193.103 121.914 192.962 121.914C192.794 121.914 192.627 121.845 192.508 121.709C192.044 121.182 191.719 120.523 191.487 119.876C187.522 120.787 182.306 122.541 178.611 125.215C170.266 131.252 162.418 141.906 160.11 145.175C160.925 145.923 161.717 146.692 162.477 147.489C163.359 148.413 164.207 149.355 165.027 150.345C165.173 150.52 165.148 150.78 164.973 150.925C164.803 151.065 164.554 151.047 164.407 150.887L164.401 150.88C163.56 149.964 162.669 149.069 161.76 148.21C161.007 147.495 159.428 146.158 159.428 146.158L132.305 125.857L112.46 147.954C112.46 147.954 144.657 179.743 159.489 180.591C166.783 181.007 174.108 174.23 180.033 169.432C178.213 190.36 178.671 206.706 178.671 206.706L249.681 206.329C249.681 206.329 246.3 185.295 244.727 165.076C244.604 163.491 248.655 180.324 248.655 180.324L260 234.69L287.636 226.745C287.636 226.745 271.661 161.074 269.574 153.821C260.904 123.692 240.122 120.307 240.054 120.146C240.054 120.146 237.432 119.025 235.138 118.383Z" fill="#FF4B33"/>
<path fill-rule="evenodd" clip-rule="evenodd" d="M206.446 98.9462C206.446 98.9462 206.421 109.141 206.421 114.304C206.421 118.104 203.138 117.192 198.512 118.742C199.584 124.105 202.784 127.601 216.506 127.803C225.184 127.931 228.629 125.251 230.299 119.686C225.599 117.462 222.591 118.104 222.591 114.304C222.591 109.141 222.566 98.9462 222.566 98.9462" fill="white"/>
<path fill-rule="evenodd" clip-rule="evenodd" d="M230.419 119.431C229.449 118.961 228.444 118.563 227.433 118.21C226.428 117.85 225.39 117.556 224.504 117.094C224.068 116.858 223.688 116.568 223.436 116.194C223.183 115.818 223.082 115.348 223.023 114.868C223.019 114.614 222.995 114.386 223.003 114.112L223.012 113.314L223.03 111.717L223.17 98.9448C223.17 98.9406 223.17 98.9327 223.17 98.9285C223.164 98.595 222.89 98.3286 222.556 98.334C222.223 98.3392 221.956 98.6141 221.962 98.9478L222.144 111.717L222.167 113.314L222.178 114.112C222.175 114.37 222.207 114.673 222.222 114.951C222.304 115.519 222.444 116.114 222.804 116.625C223.162 117.131 223.667 117.482 224.169 117.737C225.189 118.232 226.223 118.486 227.227 118.821C228.234 119.144 229.22 119.507 230.178 119.941L230.18 119.942C230.319 120.005 230.483 119.946 230.55 119.808C230.618 119.668 230.559 119.499 230.419 119.431Z" fill="#141414"/>
<path fill-rule="evenodd" clip-rule="evenodd" d="M206.453 98.3474C206.12 98.3438 205.846 98.6111 205.842 98.9449C205.795 103.171 205.787 107.397 205.808 111.622L205.814 113.207C205.811 113.724 205.829 114.296 205.803 114.739C205.771 115.202 205.662 115.624 205.44 115.942C205.226 116.266 204.873 116.503 204.442 116.686C203.569 117.043 202.512 117.229 201.48 117.465C200.441 117.698 199.394 117.979 198.383 118.359C198.187 118.433 198.077 118.648 198.137 118.852C198.201 119.067 198.426 119.189 198.64 119.126C199.634 118.834 200.646 118.625 201.678 118.442C202.194 118.348 202.715 118.263 203.245 118.159C203.774 118.055 204.316 117.938 204.865 117.722C205.139 117.612 205.415 117.477 205.679 117.297C205.943 117.118 206.188 116.883 206.383 116.614C206.781 116.068 206.939 115.426 206.995 114.844C207.026 114.547 207.025 114.254 207.028 114L207.033 113.208L207.043 111.623C207.078 107.398 207.084 103.173 207.051 98.9476C207.048 98.6196 206.783 98.3511 206.453 98.3474Z" fill="#141414"/>
<path fill-rule="evenodd" clip-rule="evenodd" d="M224.978 134.205C224.978 132.863 223.89 131.774 222.548 131.774C221.206 131.774 220.117 132.863 220.117 134.205C220.117 135.338 220.894 136.287 221.944 136.556V147.161C221.944 147.495 222.214 147.766 222.548 147.766C222.882 147.766 223.152 147.495 223.152 147.161V136.556C224.201 136.287 224.978 135.338 224.978 134.205Z" fill="white"/>
<path fill-rule="evenodd" clip-rule="evenodd" d="M210.075 133.915C210.075 132.573 208.987 131.485 207.645 131.485C206.303 131.485 205.215 132.573 205.215 133.915C205.215 135.048 205.991 135.998 207.041 136.267V154.437C207.041 154.771 207.311 155.041 207.645 155.041C207.979 155.041 208.249 154.771 208.249 154.437V136.267C209.298 135.998 210.075 135.048 210.075 133.915Z" fill="white"/>
<path fill-rule="evenodd" clip-rule="evenodd" d="M217.728 74.4718C210.479 73.8677 202.324 76.5862 198.699 80.2108C196.651 82.2587 193.431 86.6842 192.96 90.4807C192.597 93.4038 192.658 95.0115 194.772 98.3341C198.043 103.473 207.066 116.026 219.496 113.006C231.925 109.987 231.925 101.657 231.019 90.4807C230.113 79.3047 224.978 75.0759 217.728 74.4718Z" fill="white"/>
<path fill-rule="evenodd" clip-rule="evenodd" d="M192.37 89.4442C194.077 71.7121 205.11 65.6296 213.345 66.7463C214.496 66.9025 215.537 67.6936 216.085 67.9678C220.857 67.8316 226.384 69.6929 229.944 77.1759C233.404 84.447 232.09 99.7073 232.279 113.834C232.547 125.8 234.452 136.853 234.452 136.853H221.517L221.051 113.739C220.604 113.849 220.621 113.812 220.147 113.879C218.559 114.103 217.04 114.215 215.595 114.215C212.979 114.215 211.385 114.041 208.969 113.437C209.41 120.111 209.051 130.592 208.48 136.853H191.147L192.09 97.4268C192.084 96.4264 192.094 95.3898 192.118 94.3238C191.906 93.7037 191.775 93.0132 191.741 92.249C191.695 91.222 191.925 90.2419 192.37 89.4442ZM217.971 75.9215C215.139 80.8531 206.752 89.2554 199.09 89.4892C199.084 89.4892 199.078 89.4895 199.072 89.4895C199.044 89.4895 199.017 89.4874 198.989 89.4837C198.331 89.3931 197.746 89.243 197.238 89.034C197.203 89.027 197.168 89.0213 197.134 89.0083C196.601 88.8041 196.1 88.7023 195.642 88.7023C195.089 88.7023 194.599 88.8506 194.189 89.1466C193.366 89.7405 192.89 90.9085 192.948 92.1947C193.04 94.242 193.941 96.6823 197.71 96.6823C198.03 96.6823 198.294 96.9318 198.313 97.2513C198.419 99.0585 199.153 105.275 204.165 109.38C207.991 112.512 213.311 113.623 219.979 112.682C223.116 112.24 225.59 110.736 227.331 108.213C230.354 103.834 231.059 96.4802 229.307 87.9194C229.288 87.8825 229.268 87.8451 229.257 87.804C227.823 82.5748 223.699 76.7081 217.971 75.9215ZM195.574 90.9571C196.106 90.851 196.963 91.109 196.898 92.3586C196.832 93.6082 195.684 93.8142 194.961 93.288C194.238 92.7621 194.979 91.0755 195.574 90.9571Z" fill="#141414"/>
<path fill-rule="evenodd" clip-rule="evenodd" d="M217.526 102.093C218.356 102.061 221.284 101.4 221.706 102.122C222.711 104.235 220.826 106.622 218.932 107.479C215.948 108.85 210.093 107.537 210.722 103.38C210.711 103.247 210.897 103.028 211.051 103.03C213.171 102.712 215.402 102.369 217.526 102.093ZM215.542 91.3096C215.55 90.7829 216.366 90.7765 216.393 91.2936C216.533 92.8057 216.566 94.364 216.886 95.8402C220.184 97.2205 219.039 100.773 215.593 100.502C214.81 100.496 214.807 99.3059 215.587 99.2941C216.24 99.2781 217.219 99.193 217.506 98.6242C217.854 97.7476 216.973 97.1659 216.204 96.8599C215.871 96.7049 215.757 96.2745 215.708 96.0196C215.455 94.4498 215.503 92.8837 215.542 91.3096ZM206.298 92.9123C206.965 91.9965 208.089 91.3444 209.276 91.4564C209.884 91.5081 210.505 91.7754 210.957 92.2394C211.576 92.8782 210.607 93.8227 209.984 93.1893C209.777 92.9492 209.485 92.7873 209.139 92.7359C207.946 92.5698 206.975 93.6279 206.59 94.6875C206.489 94.9742 206.168 95.1219 205.885 95.0077C205.081 94.5921 205.99 93.4491 206.298 92.9123ZM218.541 91.2439C219.532 89.5871 221.788 88.8667 223.548 89.7176C224.099 89.9248 225.691 91.2016 224.701 91.8127C224.434 91.9274 224.16 91.7939 224.016 91.5674C223.22 90.638 221.564 90.4314 220.476 91.0192C220.084 91.2294 219.733 91.5293 219.402 91.8788C219.204 92.1156 218.844 92.1413 218.619 91.9271C218.428 91.7456 218.4 91.4562 218.541 91.2439ZM206.241 87.5205C206.812 87.4601 209.091 87.3804 208.855 88.308C208.618 88.8142 207.875 88.5221 207.436 88.6641C206.422 88.7529 205.458 89.1858 204.46 89.3289C204.154 89.3685 203.874 89.1528 203.834 88.8469C203.861 87.9183 205.517 87.632 206.241 87.5205ZM220.876 85.9889C221.651 85.8079 224.448 86.2459 223.721 87.4623C223.326 87.8616 222.733 87.5248 222.256 87.4599C221.369 87.2107 220.47 87.1747 219.572 87.4034C219.34 87.4484 219.115 87.2971 219.07 87.0651C219.021 86.3873 220.345 86.0883 220.876 85.9889Z" fill="#141414"/>
<path fill-rule="evenodd" clip-rule="evenodd" d="M209.184 98.9906C209.923 98.6462 210.456 99.7925 209.719 100.137C208.98 100.481 208.447 99.3346 209.184 98.9906ZM206.33 100.083C205.154 99.8837 206.451 98.3646 206.857 99.3339C207.111 99.7175 206.813 100.26 206.33 100.083ZM222.086 96.4391C222.832 96.4327 222.843 97.5917 222.096 97.598C221.35 97.6041 221.339 96.4454 222.086 96.4391ZM207.914 96.8384C208.361 96.63 208.684 97.3238 208.237 97.5323C207.79 97.7407 207.467 97.0466 207.914 96.8384ZM210.132 96.0724C210.742 95.7882 211.182 96.7345 210.574 97.0184C209.964 97.303 209.523 96.3563 210.132 96.0724ZM224.147 95.8048C224.1 94.8428 225.773 95.588 224.879 96.2165C224.549 96.5542 224.089 96.2223 224.147 95.8048ZM220.15 94.3984C220.766 94.393 220.775 95.3499 220.158 95.3553C219.543 95.3608 219.533 94.4039 220.15 94.3984ZM222.288 94.1568C222.74 94.1529 222.747 94.8549 222.294 94.8585C221.842 94.8624 221.836 94.1608 222.288 94.1568Z" fill="#FF4B33"/>
</svg>
