<svg id="Layer_1" data-name="Layer 1" xmlns="http://www.w3.org/2000/svg" viewBox="0 0 51.84 49.79"><defs><style>.cls-1{fill:#000000;fill-opacity:0.12}.cls-2{fill:none;}</style></defs><title>Untitled-1</title><path class="cls-1" d="M47.81,44.46A17.62,17.62,0,1,1,30.21,26a17.44,17.44,0,0,1,8.18,2L29.75,44.46Z" transform="translate(-12.58 -11.46)"/><path class="cls-2" d="M47.83,43.62c0,.28,0,.56,0,.84H29.75L38.39,28A17.6,17.6,0,0,1,47.83,43.62Z" transform="translate(-12.58 -11.46)"/><path class="cls-1" d="M47.81,44.46c0-.28,0-.56,0-.84A17.6,17.6,0,0,0,38.39,28l8.69-16.56,17.34,33Z" transform="translate(-12.58 -11.46)"/></svg>