<svg width="477" height="449" viewBox="0 0 477 449" fill="none" xmlns="http://www.w3.org/2000/svg">
<path fill-rule="evenodd" clip-rule="evenodd" d="M163.177 270.11C172.073 270.026 171.489 258.152 163.252 257.962C155.708 257.896 155.266 270.346 163.177 270.11ZM231.446 240.426C231 252.094 249.071 251.864 248.872 240.069C249.013 228.692 231.166 229.056 231.446 240.426ZM155.767 301.145C136.739 300.976 138.659 329.632 156.549 328.853C174.055 329.458 174.211 300.143 155.767 301.145ZM294.259 195.342C294.906 172.422 260.937 174.3 260.276 194.687C259.103 217.629 295.159 216.995 294.259 195.342ZM184.923 239.766C207.534 242.553 211.495 202.521 186.054 202.666C160.432 201.639 162.22 241.401 184.923 239.766ZM384.874 265.748C386.287 283.483 378.644 273.756 367.845 268.702C358.61 263.839 349.87 258.184 340.301 254.221C331.893 251.55 347.258 246.268 343.733 238.562C342.939 226.582 326.853 223.246 319.882 232.597C314.608 236.484 321.498 244.486 314.782 243.853C315.104 243.185 317.464 242.476 315.548 241.96C283.877 238.91 252.785 258.176 231.762 280.503C226.774 289.182 222.003 269.319 210.366 271.501C201.886 271.009 192.596 277.486 190.124 285.299C183.009 300.527 204.787 308.22 196.236 312.845C187.524 318.948 181.674 328.376 172.764 333.904C159.181 334.506 131.742 326.374 155.061 347.573C160.271 357.324 135.493 344.996 141.239 333.26C142.634 328.226 137.403 328.394 134.483 326.671C126.608 324.574 122.436 309.537 115.458 311.879C110.036 313.266 101.337 329.793 102.727 314.661C103.997 307.061 119.229 307.845 114.858 301.224C109.816 273.407 128.416 293.801 136.11 274.904C140.854 260.025 129.906 259.577 126.774 252.312C128.971 244.892 132.738 239.273 122.032 245.176C120.988 250.836 127.284 253.105 122.9 259.679C114.338 253.753 110.281 239.021 124.242 236.957C130.37 236.426 133.306 239.395 135.082 231.362C136.774 223.379 142.864 216.602 147.118 209.478C150.974 203.838 155.247 185.356 162.125 177.988C163.202 178.503 164.109 179.032 165.063 177.539C168.811 173.047 175.353 172.674 180.889 171.494C187.752 166.486 198.476 168.907 206.899 166.563C216.746 163.221 203.394 191.921 230.267 187.451C266.004 164.305 199.115 162.03 291.936 154.871C309.496 156.117 330.481 154.582 344.184 166.766C335.891 171.918 333.94 181.714 336.83 188.846C359.691 220.231 363.188 168.651 378.38 232.728C380.404 236.61 381.837 243.455 376.105 244.125C369.382 246.905 371.359 256.457 378.845 255.972C385.943 254.017 381.123 263.196 384.874 265.748Z" fill="#32BEF4"/>
<path fill-rule="evenodd" clip-rule="evenodd" d="M82.2223 244.851C94.6898 245.672 101.897 227.899 90.9047 224.398C88.5075 225.18 89.8844 227.418 90.1875 229.072C93.9232 245.424 65.653 235.593 82.2223 244.851ZM66.5519 353.877C65.2901 368.186 94.4089 368.476 74.1619 357.387C71.375 352.666 74.8714 349.739 80.1154 350.098C77.6171 341.875 65.8338 346.313 66.5519 353.877ZM106.51 343.099C105.55 360.12 131.426 353.833 118.604 349.456C111.425 349.336 108.938 336.769 117.209 336.959C119.718 337.408 119.792 336.223 118.015 334.938C111.854 332.061 106.148 335.215 106.51 343.099ZM52.2404 371.997C52.5725 366.644 45.2747 359.637 40.1634 362.987C41.8942 367.778 50.0665 371.084 43.3123 376.708C25.0513 387.67 54.5534 387.386 52.2404 371.997ZM69.2985 389.17C62.2966 388.206 52.8516 396.36 58.6977 401.56C64.0962 402.059 65.6036 388.977 72.872 397.685C85.3359 416.451 82.5426 388.267 69.2985 389.17ZM116.371 381.035C111.186 380.531 99.8355 388.147 105.85 394.163C110.784 393.568 108.599 385.567 118.712 387.199C122.305 387.24 123.308 389.766 124.056 392.783C131.519 402.38 131.823 378.619 116.371 381.035ZM85.402 268.539C86.5021 256.198 74.1705 275.739 86.6408 282.898C92.9626 286.051 102.931 280.024 105.084 273.807C103.857 262.915 89.5849 289.587 85.402 268.539ZM66.6312 317.536C65.5982 327.359 75.1428 335.786 81.8548 330.191C80.6546 325.981 70.3474 324.278 72.7166 317.085C73.7111 311.665 79.0271 313.504 82.6858 314.717C92.9327 308.746 63.828 302.206 66.6312 317.536ZM31.9236 319.197C29.9613 320.095 24.9199 320.623 25.3929 324.702C29.2754 325.561 32.3681 323.462 36.0186 325.538C49.5228 331.532 35.841 339.453 37.1808 342.933C54.8886 346.594 50.2314 317.431 31.9236 319.197ZM56.8654 282.272C54.1483 287.701 47.1731 284.204 43.4229 286.396C44.5669 293.781 59.9351 293.123 62.5888 286.826C67.5659 277.692 54.4165 262.07 46.2787 271.863C51.3772 274.105 56.9719 274.857 56.8654 282.272ZM135.622 227.401C135.113 236.675 132.352 237.733 124.239 236.956C110.579 238.996 113.914 253.698 122.982 259.611C122.781 264.826 113.394 276.638 120.377 278.723C125.287 279.036 129.75 275.607 130.77 270.53C133.685 263.603 122.731 261.814 123.483 257.518C128.004 251.172 114.301 244.351 128.437 242.768C132.949 243.921 120.935 254.861 130.537 256.441C143.721 264.957 135.01 287.899 119.57 284.649C115.84 283.743 115.428 286.252 115.148 287.816C111.434 296.901 119.626 305.399 112.431 306.435C102.93 307.571 98.0154 326.129 107.302 319.209C108.71 315.133 112.379 313.882 115.456 311.883C122.186 308.98 128.292 327.858 138.849 328.338C141.106 329.253 141.722 330.612 141.236 333.26C138.762 343.085 148.229 353.858 157.059 349.674C152.12 346.898 139.179 331.853 151.723 332.308C173.261 335.818 178.326 330.204 159.761 349.652C144.252 371.983 143.339 385.358 161.069 406.441C153.2 419.839 168.215 427.807 143.224 427.631C136.366 428.209 139.315 418.809 143.661 417.297C146.993 416.384 144.988 413.865 143.045 413.032C134.987 412.682 130.917 421.178 132.004 428.245C129.741 431.339 124.162 426.755 121.818 428.695C118.452 431.25 117.793 426.37 115.462 427.095C107.637 432.317 100.037 428.522 108.865 420.7C111.449 419.1 110.925 417.384 108.406 416.141C101.66 414.339 97.5927 424.362 98.565 430.093C94.5262 428.453 90.3334 429.476 86.1442 429.665C83.0501 429.5 85.8021 426.083 81.2636 427.606C68.8713 427.001 56.0526 422.598 45.5275 416.331C44.9126 416.007 43.8955 415.19 43.9825 414.978C45.8827 410.771 41.341 415.488 37.8323 410.67C23.552 392.323 10.2961 369.27 5.52379 347.076C0.305623 338.039 13.7994 340.845 15.9506 333.908C11.3695 323.146 1.1692 348.854 0.889648 316.372C4.07256 262.458 10.0397 298.282 30.8457 279.994C36.4092 268.004 21.142 288.02 12.3486 276.988C12.895 266.553 66.8555 217.532 47.0163 246.51C43.1261 247.879 45.7531 253.255 49.3483 251.941C58.8554 249.012 61.191 238.672 55.556 231.513C76.7046 210.829 115.097 203.749 135.622 227.401Z" fill="#0341A7"/>
<path fill-rule="evenodd" clip-rule="evenodd" d="M362.309 347.871C361.155 345.322 360.28 347.63 358.927 348.652C359.174 350.514 361.14 348.262 362.309 347.871ZM345.826 361.942C339.033 364.859 339.033 364.859 341.041 370.223C342.521 367.662 343.929 365.226 345.826 361.942ZM419.261 405.198C416.23 407.941 413.225 408.541 412.174 411.861C416.664 413.868 418.505 409.62 419.261 405.198ZM221.883 324.925C225.042 331.815 224.676 342.844 234.008 334.912C238.231 329.777 230.252 321.526 229.201 315.575C225.728 314.516 224.228 322.648 221.883 324.925ZM238.696 368.922C257.468 362.344 246.82 357.823 241.654 344.779C237.804 337.032 237.763 337.027 230.48 341.766C227.347 349.412 237.08 360.441 238.696 368.922ZM336.739 330.789C338.983 337.855 335.162 355.714 341.431 358.574C348.853 355.127 356.677 350.011 356.615 341.539C351.895 338.282 338.323 316.834 336.739 330.789ZM387.246 302.765C373.893 307.156 360.498 315.99 347.131 321.857C343.908 325.998 355.035 331.115 357.221 335.157C362.405 344.2 380.384 306.927 387.246 302.765ZM203.452 384.739C207.433 392.561 223.152 375.126 230.958 373.237C233.341 371.897 234.257 370.544 233.168 367.873C229.216 362.796 228.425 345.235 221.499 346.529C204.093 350.958 205.493 370.039 203.452 384.739ZM258.808 415.649C263.798 410.84 274.076 406.293 274.924 399.546C268.292 389.5 261.538 379.539 254.885 369.51C253.308 366.544 250.926 368.804 248.811 369.766C240.894 373.887 240.805 373.924 244.218 382.233C249.147 393.332 253.018 404.997 258.808 415.649ZM335.384 379.784C334.403 375.879 336.68 366.121 331.117 369.753C315.544 378.928 300.304 388.586 285.776 399.348C280.979 405.162 305.495 422.444 309.335 429.413C310.957 431.154 311.722 430.413 312.394 428.523C318.146 411.581 328.126 396.027 335.384 379.784ZM298.417 292.256C256.611 269.665 262.858 266.868 233.714 306.168C230.88 309.037 239.084 331.774 242.833 329.802C262.238 318.412 280.991 306.637 298.417 292.256ZM333.585 361.985C331.606 356.211 334.557 326.609 327.815 331.384C305.831 341.962 283.858 352.557 261.899 363.181C253.668 365.974 275.485 387.402 277.587 393.553C280.42 397.663 280.551 397.482 284.596 394.659C300.329 382.982 317.482 372.912 333.585 361.985ZM331.3 320.419C330.191 314.923 304.502 292.883 299.977 297.393C282.899 310.837 264.431 322.237 245.799 333.365C243.762 334.601 243 335.626 244.246 337.965C249.284 343.509 250.598 359.535 258.626 358.961C281.257 344.967 313.582 338.613 331.3 320.419ZM438.127 332.923C447.843 317.889 362.3 348.509 372.674 352.435C385.457 368.499 397.272 385.172 407.437 403.02C428.523 410.267 435.931 348.185 438.127 332.923ZM341.331 379.28C344.177 386.994 346.16 445.034 354.169 438.427C370.302 429.96 388.903 425.081 402.113 412.027C411.385 404.375 376.34 366.497 370.195 356.785C358.118 343.693 346.031 369.968 341.331 379.28ZM212.573 345.662C220.344 342.897 224.575 340.913 219.472 332.527C215.274 333.419 215.102 342.347 212.443 346.02C212.486 345.9 212.529 345.781 212.573 345.662ZM147.536 375.552C169.977 355.838 211.596 366.127 214.801 318.926C206.504 300.733 210.961 287.864 218.074 314.431C219.969 319.178 222.863 310.461 224.639 308.772C227.317 302.943 222.577 295.894 222.202 289.682C227.004 279.425 227.475 293.411 228.941 298.362C230.974 303.5 248.597 275.859 253.805 273.009C257.357 266.787 239.589 272.397 249.994 264.545C265.764 272.37 279.97 242.256 305.55 241.32C307.487 240.329 319.147 240.879 314.781 243.854C296.44 245.478 281.286 256.442 267.571 267.741C264.374 272.91 294.658 283.209 299.773 288.05C307.352 289.344 312.962 276.941 318.913 272.602C325.431 266.661 327.164 258.265 329.664 250.518C341.138 259.443 316.739 282.984 308.949 289.939C307.82 290.9 305.754 291.762 308.286 293.621C346.364 326.074 322.406 296.744 334.042 257.114C344.451 234.478 332.75 305.657 335.923 312.005C339.91 335.569 397.06 275.109 410.285 294.252C418.175 304.576 402.888 288.594 399.862 295.799C386.664 308.91 375.542 323.812 365.194 339.217C357.517 355.904 424.254 320.218 435.94 323.178C439.543 322.748 438.035 319.977 437.196 317.717C440.982 319.815 445.84 320.577 447.17 325.73C445.038 326.226 442.841 326.14 442.589 329.48C442.955 348.743 432.646 373.766 430.627 391.014C443.564 382.624 457.091 375.362 471.556 369.984C477.232 367.646 472.513 360.888 472.877 356.482C477.517 362.793 477.2 374.727 472.815 381.113C475.051 366.411 425.767 396.746 423.825 405.947C425.226 413.128 448.447 400.244 456.584 400.497C459.42 399.844 459.61 395.161 463.353 396.765C463.878 392.579 466.831 389.325 469.881 386.548C464.87 409.725 441.415 408.1 422.903 414.887C412.537 418.033 420.382 438.734 426.536 442.343C420.206 444.218 413.935 445.434 407.325 444.418C410.829 443.25 417.251 443.888 418.623 440.024C417.151 437.31 417.295 429.732 413.653 430.205C409.995 435.647 410.238 446.532 401.788 444.325C437.29 388.449 364.025 445.363 381.058 445.393C374.059 449.187 364.906 443.346 357.384 448.266C355.238 449.233 353.217 449.413 351.106 447.769C346.927 443.054 342.753 450.181 339.871 447.635C337.862 446.591 333.258 449.953 332.144 446.24C336.325 446.482 344.976 446.309 344.349 440.308C341.556 423.274 339.095 406.186 336.526 389.116C330.504 403.881 314.259 421.9 317.684 436.777C326.163 443.42 333.889 446.772 318.447 446.107C315.766 440.368 312.762 438.906 311.499 445.333C300.851 448.512 311.222 439.667 307.166 434.947C299.141 429.377 284.354 404.074 276.083 406.805C256.173 422.115 260.843 420.454 269.676 441.667C264.433 444.302 242.778 436.005 261.026 439.392C266.228 438.837 258.287 429.769 257.855 426.33C254.073 422.687 249.69 434.743 246.244 437.045C236.017 434.785 250.961 426.693 253.387 421.334C252.827 407.089 241.909 393.003 237.64 378.979C232.933 373.354 214.204 391.587 206.816 393.573C199.81 402.063 214.403 432.587 228.012 430.824C219.061 434.742 212.263 423.658 204.009 427.557C201.597 428.663 198.265 428.342 198.092 424.699C200.397 423.683 208.421 426.792 206.195 422.83C203.755 416.059 201.269 409.3 199.089 402.445C196.901 393.306 175.281 423.318 171.676 418.863C173.431 408.773 186.109 402.983 195.081 395.075C200.427 385.384 196.168 371.534 200.78 360.624C200.282 350.897 159.079 376.298 147.536 375.552Z" fill="#95E4FC"/>
<path fill-rule="evenodd" clip-rule="evenodd" d="M154.48 181.277C152.575 180.704 151.275 178.84 149.754 179.993C151.538 180.795 152.389 182.957 154.48 181.277ZM124.285 74.6074C126.636 73.9038 126.84 70.0091 124.652 69.4079C121.07 70.6402 122.576 72.5341 124.285 74.6074ZM147.484 127.837C147.914 124.296 145.26 127.351 144.855 125.906C140.968 126.018 146.393 128.899 147.484 127.837ZM148.127 175.553C147.346 179.493 153.636 176.332 153.246 174.415C151.126 172.357 149.352 174.026 148.127 175.553ZM129.154 14.3849C133.527 10.6891 130.931 8.02949 125.916 8.1346C126.869 10.2559 127.495 12.6985 129.154 14.3849ZM148.966 182.952C145.42 178.283 140.282 184.435 145.389 187.83C145.948 185.742 147.728 184.565 148.966 182.952ZM133.321 102.27C129.345 104.543 129.939 107.263 134.557 106.796C137.291 105.017 136.234 103.42 133.321 102.27ZM143.914 5.05363C139.851 3.74422 139.102 8.42186 136.445 10.0801C135.594 11.6229 138.945 12.5939 136.915 13.8675C143.257 26.3789 154.401 2.32154 143.914 5.05363ZM118.019 37.4156C116.849 49.3598 125.495 36.0767 131.676 42.269C137.269 36.9716 135.464 52.5527 139.292 36.6893C142.753 26.9054 112.973 28.0191 118.019 37.4156ZM164.261 5.04231C153.267 3.29567 152.216 7.80567 150.105 17.3009C145.783 34.6346 140.692 52.0099 140.974 70.054C143.381 76.7374 158.234 60.2198 166.932 72.3157C176.97 82.2863 188.4 62.5251 199.834 73.2491C206.837 79.9611 206.089 44.6677 211.322 39.5705C231.435 -11.4522 233.732 9.21294 164.261 5.04231ZM130.29 170.59C128.283 178.197 138.379 187.536 143.424 178.697C135.34 180.48 143.15 169.736 143.261 166.481C140.326 165.363 140.692 156.553 137.587 160.128C139.867 161.764 138.414 163.675 138.203 165.585C139.586 167.429 140.855 171.127 138.509 173.09C135.385 172.013 138.154 166.774 134.208 166.207C133.398 163.398 138.188 164.862 135.291 162.038C127.008 156.074 129.646 165.156 130.29 170.59ZM113.055 4.2698C109.117 3.30881 107.559 7.91169 111.66 9.0965C113.722 9.52738 113.013 11.0298 113.281 12.1888C114.116 18.0884 107.356 20.173 108.315 13.5848C110.011 10.7815 105.002 11.0049 104.183 11.5463C99.2068 17.1306 102.349 29.3407 111.249 25.4732C112.01 23.5657 110.117 21.1816 111.908 19.3715C113.221 20.2378 118.09 19.6466 115.993 22.0955C111.313 25.5376 122.152 26.7564 120.878 23.0284C118.529 18.0118 120.531 19.7625 124.078 19.2814C121.408 27.6548 130.018 25.0396 135.585 24.7283C136.563 24.3962 138.589 22.2667 137.902 20.7879C135.613 21.9514 133.468 18.1392 131.121 20.6062C129.093 22.9332 127.902 19.9093 127.807 17.972C128.997 19.4255 130.926 20.473 131.986 18.2855C129.398 17.0064 127.504 13.3904 125.711 17.6824C123.648 16.1777 121.776 14.4279 118.937 14.2879C116.425 13.0016 114.731 10.6954 118.647 9.64791C118.924 4.56838 111.124 9.23333 113.055 4.2698ZM249.661 23.6998C259.267 25.8447 276.152 24.1615 288.531 24.3899C303.563 22.2726 324.715 28.064 336.833 21.8164C341.632 -3.00899 332.561 8.78251 308.918 6.26971C300.363 8.04127 243.284 1.90606 245.179 8.6117C243.91 10.3289 244.388 6.78668 243.815 6.33042C234.611 1.29304 226.637 17.5692 226.698 24.6368C234.21 24.4805 242.901 25.9603 249.661 23.6998ZM132.148 223.703C120.399 212.587 128.025 187.68 122.774 171.751C120.821 142.065 116.42 112.538 114.788 82.8178C111.722 72.9025 113.822 33.3718 107.011 31.1128C100.29 31.7756 95.6506 30.7544 95.589 22.9024C96.6156 15.6395 90.3744 0.891152 101.773 1.37052C122.11 1.3533 142.431 0.560401 162.768 0.494704C221.645 0.0108105 280.57 -0.304536 339.433 0.458457C347.595 1.79596 343.951 19.9057 344.015 26.3604C342.471 33.9509 329.018 25.1755 328.614 32.7393C326.244 69.3875 324.409 106.116 319.757 142.561C319.751 148.531 320.513 160.134 311.427 155.934C314.051 128.249 314.805 100.446 317.855 72.8019C317.651 27.1315 339.042 27.9276 289.508 31.1205C226.078 37.0364 220.911 9.64337 211.606 74.7266C210.895 82.1984 203.342 83.3193 196.929 81.2025C195.527 79.6158 194.934 75.9028 191.633 79.2425C184.529 76.9386 172.5 85.5866 167.632 81.4091C164.566 79.2108 158.834 71.222 158.308 78.3884C153.669 78.4963 150.296 78.8365 145.616 79.3712C145.596 80.7608 148.047 81.976 148.781 81.7974C154.076 79.9239 149.347 93.1857 146.628 86.4184C147.53 85.5553 147.789 84.5164 146.229 84.5712C140.855 87.8171 139.017 83.3669 144.711 80.8197C140.693 78.0142 137.906 80.8056 133.847 78.426C133.294 74.7837 134.017 70.0481 133.339 66.0038C133.994 63.8435 135.585 58.3349 131.584 58.064C128.824 57.5665 127.281 56.2725 126.47 53.1054C129.19 53.5409 130.116 56.4433 132.804 53.6351C136.675 55.0252 137.588 48.3757 135.633 46.0976C133.282 46.0536 128.225 48.783 127.542 45.8547C129.601 41.1862 121.995 42.9736 121.235 44.3872C117.692 50.2111 120.398 56.6626 120.811 63.2613C118 65.8353 121.095 66.1293 123.568 66.6146C127.237 63.9115 121.097 62.1449 123.746 61.2011C131.885 59.8985 130.118 70.184 128.881 75.355C126.878 74.1435 126.689 75.862 126.163 77.0382C121.704 75.8516 121.634 75.9037 122.076 80.1795C123.913 84.259 120.109 96.4443 127.1 94.6605C131.381 92.6302 122.923 93.0724 125.354 89.8583C131.056 93.5744 139.397 86.8824 139.381 96.6269C136.452 96.7501 132.274 96.2717 132.04 100.242C134.831 102.024 142.127 92.1214 141.221 101.363C139.514 106.302 144.422 104.883 145.428 108.367C139.385 108.002 146.329 114.325 141.604 114.712C141.568 115.091 141.388 115.738 141.519 115.809C143.017 117.454 147.663 116.923 146.515 119.71C146.405 120.092 146.727 120.738 147.047 121.073C151.428 123.361 148.346 126.383 151.382 127.526C151.66 128.98 151.647 131.257 152.409 132.37C154.566 132.732 154.087 134.2 153.689 135.436C152.444 138.431 150.054 134.429 147.512 136.739C145.102 128.423 133.427 139.626 139.579 128.87C136.679 125.415 139.279 131.382 135.938 130.147C132.831 132.667 131.766 128.104 130.029 125.693C129.859 122.575 134.565 125.045 134.295 121.618C126.182 121.138 135.999 118.846 126.389 116.621C127.229 112.457 132.877 117.025 132.972 112.815C132.116 109.091 125.515 115.605 127.148 108.398C121.085 93.2509 127.696 120.724 126.267 126.618C125.803 131.905 128.493 130.339 131.615 132.672C131.244 136.03 125.684 131.908 126.645 135.768C128.521 140.803 127.213 146.746 128.842 151.686C133.368 150.305 129.577 158.517 135.241 157.538C146.389 158.537 139.613 149.88 144.928 152.249C147.882 155.847 143.985 160.712 148.551 163.632C151.228 164.923 156.741 162.122 159.457 165.141C163.383 166.72 164.291 169.247 166.987 171.407C168.086 163.634 166.131 153.015 164.243 144.997C165.517 142.621 163.681 141.607 162.582 139.896C161.78 138.649 165.216 136.665 164.014 134.221C161.883 131.906 164.253 128.519 161.383 126.66C161.722 125.887 161.909 124.072 161.927 123.073C161.296 124.107 160.742 125.083 159.399 125.18C159.494 123.663 155.266 124.692 157.482 121.926C156.867 121.58 156.251 121.234 155.635 120.889C154.98 123.751 152.611 122.439 150.937 122.816C151.997 120.602 155.613 120.013 154.859 116.646C158.301 121.54 164.461 118.343 160.662 113.596C156.946 111.732 163.416 108.324 160.315 102.52C159.661 96.375 156.817 105.117 155.449 100.408C157.16 97.1447 155.116 97.1964 152.954 99.3146C150.226 97.2693 150.514 95.7592 147.902 98.2149C144.958 89.0255 150.041 92.5672 155.917 90.4853C158.699 92.2791 158.486 89.0744 158.733 87.1379C161.596 84.4031 165.972 82.994 166.594 88.301C171.275 104.833 171.134 120.001 173.774 137.198C175.087 151.391 185.422 174.151 163.971 175.341C159.81 173.94 162.185 176.754 162.127 177.989C154.633 177.666 157.06 181.76 156.333 188.288C151.606 185.929 148.061 189.174 143.291 188.783C143.35 186.25 142.229 185.903 139.93 186.539C137.058 187.259 133.974 186.646 131.58 184.79C131.184 190.997 132.63 196.712 132.788 202.816C133.131 204.476 134.005 206.231 133.932 207.808C131.45 209.176 134.505 210.468 133.841 212.245C131.144 215.068 137.043 220.882 132.148 223.703Z" fill="#111010"/>
<path fill-rule="evenodd" clip-rule="evenodd" d="M384.874 265.748C377.222 255.549 408.371 250.061 414.642 243.938C429.921 234.495 445.569 224.749 457.074 210.687C488.49 169.346 421.71 177.335 400.945 190.822C355.459 220.142 367.386 205.989 389.921 171.914C407.584 144.552 431.43 121.542 445.773 92.1288C454.915 77.1476 452.478 48.1303 428.67 55.7153C381.089 69.0854 354.126 118.977 334.617 160.968C323.732 150.636 377.167 79.8588 391.349 70.2997C416.298 45.9183 469.33 36.7053 453.134 88.3704C442.322 119.044 417.396 141.73 399.823 168.488C369.706 209.396 397.233 181.908 421.285 176.933C442.886 168.068 484.497 172.654 469.367 205.559C450.679 235.86 416.342 251.944 384.874 265.748Z" fill="#111010"/>
<path fill-rule="evenodd" clip-rule="evenodd" d="M400.396 288.555C390.144 291.489 336.178 330.885 335.922 312.01C339.687 245.946 325.008 243.443 384.577 278.293C389.643 281.895 395.166 285.474 400.396 288.555Z" fill="#0E8ADF"/>
<path fill-rule="evenodd" clip-rule="evenodd" d="M228.012 430.824C214.365 432.555 199.848 402.126 206.814 393.575C213.892 391.594 233.359 373.347 237.637 378.976C241.912 392.996 252.824 407.094 253.391 421.334C241.33 435.513 244.919 435.723 228.012 430.824Z" fill="#0E8ADF"/>
<path fill-rule="evenodd" clip-rule="evenodd" d="M68.5258 222.086C58.1347 238.076 37.0061 169.418 30.0907 159.578C-19.7481 41.0174 76.8 112.413 100.509 169.995C120.569 202.796 125.515 244.559 100.717 181.815C82.7934 150.743 62.69 102.951 22.1427 100.156C16.0632 136.402 52.0245 188.828 68.5258 222.086Z" fill="#111010"/>
<path fill-rule="evenodd" clip-rule="evenodd" d="M437.197 317.717C437.991 319.971 439.593 322.756 435.94 323.173C424.593 320.226 357.111 355.876 365.193 339.223C375.541 323.813 386.665 308.91 399.86 295.799C409.076 289.203 428.99 311.861 437.197 317.717Z" fill="#0E8ADF"/>
<path fill-rule="evenodd" clip-rule="evenodd" d="M472.877 356.482C472.583 360.915 477.137 367.606 471.556 369.984C457.091 375.362 443.564 382.624 430.63 391.014C432.727 373.752 442.854 348.743 442.586 329.479C442.837 326.165 445.106 326.119 447.239 325.766C455.92 334.687 465.622 345.502 472.877 356.482Z" fill="#0E8ADF"/>
<path fill-rule="evenodd" clip-rule="evenodd" d="M269.033 439.756C267.668 433.078 258.803 424.83 262.456 418.617C268.311 415.933 274.914 402.341 281.256 407.372C313.022 438.946 323.87 451.985 269.033 439.756Z" fill="#0E8ADF"/>
<path fill-rule="evenodd" clip-rule="evenodd" d="M329.471 445.734C325.606 441.17 314.827 438.62 316.168 431.724C321.85 417.127 328.484 402.981 336.526 389.116C339.095 406.185 341.556 423.274 344.349 440.307C344.694 447.221 334.155 446.721 329.471 445.734Z" fill="#0E8ADF"/>
<path fill-rule="evenodd" clip-rule="evenodd" d="M426.536 442.343C420.355 438.755 412.57 418.013 422.902 414.888C434.28 412.386 445.615 406.302 457.198 406.384C449.009 426.751 450.623 437.105 426.536 442.343Z" fill="#0E8ADF"/>
<path fill-rule="evenodd" clip-rule="evenodd" d="M469.881 386.548C466.836 389.324 463.874 392.58 463.352 396.765C452.454 401.963 438.795 405.148 425.978 408.479C410.999 402.952 489.753 357.796 469.881 386.548Z" fill="#0E8ADF"/>
<path fill-rule="evenodd" clip-rule="evenodd" d="M386.366 445.876C386.169 445.537 386.025 445.524 385.77 445.821C386.014 446.015 386.223 446.274 386.366 445.876ZM381.06 445.394C368.438 443.085 402.411 419.81 409.34 419.772C413.202 418.674 411.588 424.36 410.836 426.184C406.276 440.462 396.707 450.18 381.06 445.394Z" fill="#0E8ADF"/>
<path fill-rule="evenodd" clip-rule="evenodd" d="M177.844 418.255C178.508 410.537 190.906 406.813 195.918 400.948C201.103 398.619 203.064 418.623 206.197 422.827C211.386 428.667 178.426 419.691 177.844 418.255Z" fill="#0E8ADF"/>
<path fill-rule="evenodd" clip-rule="evenodd" d="M38.0061 410.89C41.5121 415.427 45.8775 410.739 43.9827 414.977C49.654 419.139 56.4076 423.279 64.0013 423.957C69.7297 424.659 75.043 428.989 81.2638 427.604C82.7418 427.554 84.7118 426.258 84.5872 429.32C88.9934 430.34 94.1391 427.989 98.5639 430.093C84.2768 436.124 50.5973 425.326 38.0061 410.89Z" fill="#0E8ADF"/>
<path fill-rule="evenodd" clip-rule="evenodd" d="M132.003 428.245C129.801 420.813 139.38 407.094 145.97 415.889C137.725 419.098 136.298 429.308 147.166 428.091C142.903 429.111 133.844 433.735 132.003 428.245Z" fill="#32BEF4"/>
<path fill-rule="evenodd" clip-rule="evenodd" d="M55.5563 231.512C68.577 247.437 38.736 259.475 47.0102 246.507C55.5821 242.825 47.2028 235.275 55.5563 231.512Z" fill="#32BEF4"/>
<path fill-rule="evenodd" clip-rule="evenodd" d="M0.99866 319.691C2.68232 323.456 0.0344976 333.341 5.47966 333.25C11.9846 330.769 21.1763 330.093 12.3022 338.187C-1.45887 342.04 7.29698 343.333 6.09449 351.801C1.63434 342.992 0.449522 329.71 0.99866 319.691Z" fill="#32BEF4"/>
<path fill-rule="evenodd" clip-rule="evenodd" d="M246.245 437.047C255.918 425.08 256.398 419.844 262.791 437.476C264.769 441.903 248.898 436.975 246.228 437.04L246.245 437.047Z" fill="#0E8ADF"/>
<path fill-rule="evenodd" clip-rule="evenodd" d="M12.3479 276.99C18.4686 281.815 23.2831 281.778 29.2062 276.863C30.0177 275.913 32.3964 274.399 32.1794 276.713C30.7055 288.495 2.0937 289.409 12.3479 276.99Z" fill="#32BEF4"/>
<path fill-rule="evenodd" clip-rule="evenodd" d="M269.032 439.756C279.959 442.873 291.225 442.635 302.197 445.066C298.604 445.472 295.119 447.906 291.334 445.355C287.652 445.269 283.349 449.31 280.069 444.83C275.626 442.982 270.034 446.987 269.032 439.756Z" fill="#32BEF4"/>
<path fill-rule="evenodd" clip-rule="evenodd" d="M160.199 423.289C153.487 415.476 164.761 395.729 164.533 414.169C165.992 422.985 175.648 417.028 160.199 423.289Z" fill="#32BEF4"/>
<path fill-rule="evenodd" clip-rule="evenodd" d="M99.6853 430.467C92.5275 418.107 115.961 410.728 108.865 420.704C100.39 425.668 111.588 432.918 99.6853 430.467Z" fill="#32BEF4"/>
<path fill-rule="evenodd" clip-rule="evenodd" d="M132.003 428.245C131.527 435.523 112.151 430.395 115.461 427.095C117.792 426.37 118.452 431.25 121.818 428.695C124.165 426.768 129.738 431.321 132.003 428.245Z" fill="#0E8ADF"/>
<path fill-rule="evenodd" clip-rule="evenodd" d="M430.85 441.228C433.902 439.007 437.018 440.111 438.938 437.853C448.669 429.945 437.182 448.125 430.85 441.228Z" fill="#95E4FC"/>
<path fill-rule="evenodd" clip-rule="evenodd" d="M311.338 446.216C311.749 444.276 312.536 442.192 313.613 440.594C318.735 442.258 319.576 450.298 311.338 446.216Z" fill="#0E8ADF"/>
<path fill-rule="evenodd" clip-rule="evenodd" d="M228.725 431.207C232.348 430.846 235.561 431.604 237.957 434.591C233.678 437.971 230.963 434.615 228.725 431.207Z" fill="#95E4FC"/>
<path fill-rule="evenodd" clip-rule="evenodd" d="M183.949 420.546C187.227 421.446 191.689 420.238 193.787 423.396C190.247 423.236 184.277 426.132 183.949 420.546Z" fill="#95E4FC"/>
<path fill-rule="evenodd" clip-rule="evenodd" d="M32.4158 403.783C35.6277 404.973 37.2814 407.389 37.8324 410.67C35.4655 408.815 33.389 406.733 32.4158 403.783Z" fill="#0E8ADF"/>
<path fill-rule="evenodd" clip-rule="evenodd" d="M106.417 430.926C107.531 429.026 111.324 429.171 113.428 428.087C111.965 432.801 110.665 431.435 106.417 430.926Z" fill="#0E8ADF"/>
<path fill-rule="evenodd" clip-rule="evenodd" d="M6.85012 353.809C9.2261 354.595 8.69055 356.532 8.61806 358.283C6.14694 357.533 6.49491 355.673 6.85012 353.809Z" fill="#32BEF4"/>
<path fill-rule="evenodd" clip-rule="evenodd" d="M1.07557 304.442C3.54533 306.104 1.4113 307.605 0.910645 309.159C0.965468 307.584 1.02074 306.013 1.07557 304.442Z" fill="#32BEF4"/>
<path fill-rule="evenodd" clip-rule="evenodd" d="M178.126 419.159C179.733 419.59 181.341 420.02 182.949 420.45C181.103 420.909 179.12 421.886 178.126 419.159Z" fill="#95E4FC"/>
<path fill-rule="evenodd" clip-rule="evenodd" d="M451.49 329.55C450.205 329.496 448.931 329.426 449.014 327.618C450.389 327.559 451.799 327.453 451.49 329.55Z" fill="#95E4FC"/>
<path fill-rule="evenodd" clip-rule="evenodd" d="M314.887 447.259C315.51 447.231 316.133 447.203 316.756 447.176C316.133 447.203 315.51 447.231 314.887 447.259Z" fill="#95E4FC"/>
<path fill-rule="evenodd" clip-rule="evenodd" d="M238.789 434.376C239.52 433.221 240.075 433.359 240.479 434.607C239.916 434.53 239.352 434.453 238.789 434.376Z" fill="#95E4FC"/>
<path fill-rule="evenodd" clip-rule="evenodd" d="M427.864 442.158C428.473 441.883 429.082 441.608 429.69 441.333C429.081 441.607 428.472 441.882 427.864 442.158Z" fill="#95E4FC"/>
<path fill-rule="evenodd" clip-rule="evenodd" d="M169.838 419.66C169.485 418.71 171.071 419.11 171.675 418.863C172.556 419.585 170.38 419.402 169.838 419.66Z" fill="#95E4FC"/>
<path fill-rule="evenodd" clip-rule="evenodd" d="M448.271 327.147C447.927 326.686 447.583 326.226 447.239 325.766C447.583 326.226 447.927 326.687 448.271 327.147Z" fill="#95E4FC"/>
<path fill-rule="evenodd" clip-rule="evenodd" d="M304.069 444.951C304.929 444.664 305.789 443.844 305.805 445.219C305.226 445.129 304.648 445.04 304.069 444.951Z" fill="#32BEF4"/>
<path fill-rule="evenodd" clip-rule="evenodd" d="M311.329 446.208C312 446.418 312.672 446.628 313.344 446.837C312.672 446.627 312.001 446.417 311.329 446.208Z" fill="#95E4FC"/>
<path fill-rule="evenodd" clip-rule="evenodd" d="M400.189 288.189C399.645 287.997 399.101 287.804 398.556 287.612C399.101 287.805 399.645 287.997 400.189 288.189Z" fill="#95E4FC"/>
<path fill-rule="evenodd" clip-rule="evenodd" d="M32.153 402.914C32.3768 403.049 32.4334 403.234 32.3229 403.466C32.0565 403.338 31.9976 403.168 32.153 402.914Z" fill="#0E8ADF"/>
<path fill-rule="evenodd" clip-rule="evenodd" d="M472.622 356.267C472.299 356.089 471.976 355.911 471.653 355.733C471.976 355.912 472.299 356.089 472.622 356.267Z" fill="#95E4FC"/>
<path fill-rule="evenodd" clip-rule="evenodd" d="M246.228 437.04C246.505 437.119 246.781 437.199 247.057 437.279C246.781 437.2 246.505 437.12 246.228 437.04Z" fill="#95E4FC"/>
<path fill-rule="evenodd" clip-rule="evenodd" d="M250.561 437.796C250.949 437.821 251.337 437.846 251.726 437.871C251.338 437.846 250.949 437.821 250.561 437.796Z" fill="#95E4FC"/>
<path fill-rule="evenodd" clip-rule="evenodd" d="M253.343 439.871L253.151 440.232C253.201 440.108 253.39 439.98 253.343 439.871Z" fill="#95E4FC"/>
<mask id="mask0" mask-type="alpha" maskUnits="userSpaceOnUse" x="0" y="315" width="2" height="2">
<path d="M0.768311 315.92H1.16944V316.373H0.768311V315.92Z" fill="white"/>
</mask>
<g mask="url(#mask0)">
<path fill-rule="evenodd" clip-rule="evenodd" d="M0.957848 315.921C1.19119 316.136 1.16853 316.239 0.889432 316.372C0.709558 316.173 0.728134 316.056 0.957848 315.921Z" fill="#32BEF4"/>
</g>
<path fill-rule="evenodd" clip-rule="evenodd" d="M384.834 278.575C384.834 278.575 384.577 278.291 384.577 278.293C384.864 277.844 385.322 278.338 384.834 278.575Z" fill="#32BEF4"/>
<path fill-rule="evenodd" clip-rule="evenodd" d="M336.656 252.483C329.413 263.525 331.501 281.274 330.343 294.8C329.36 298.087 332.807 310.068 328.186 308.522C294.282 284.794 311.059 296.339 327.49 269.069C329.438 264.131 337.764 253.252 329.668 250.519C329.184 250.629 328.587 251.569 328.564 252.162C327.657 267.874 313.829 277.177 304.042 287.72C292.314 288.168 279.847 274.987 267.981 270.868C268.558 259.003 314.978 234.698 327.668 247.897C329.973 248.59 335.78 250.182 336.656 252.483Z" fill="#0E8ADF"/>
<path fill-rule="evenodd" clip-rule="evenodd" d="M208.983 300.412C229.281 348.219 185.162 360.824 148.214 372.001C159.69 341.191 187.607 322.233 208.983 300.412Z" fill="#0E8ADF"/>
<path fill-rule="evenodd" clip-rule="evenodd" d="M269.105 156.713C269.873 122.993 270.862 89.2825 273.245 55.6324C285.973 35.298 279.293 86.3433 279.835 92.1854C276.524 104.272 284.555 164.184 269.105 156.713Z" fill="#111010"/>
<path fill-rule="evenodd" clip-rule="evenodd" d="M197.209 222.08C197.856 205.864 171.845 206.277 173.095 221.751C172.735 237.795 197.019 237.79 197.209 222.08ZM184.923 239.767C162.22 241.396 160.432 201.636 186.058 202.666C211.495 202.525 207.534 242.56 184.923 239.767Z" fill="#0341A7"/>
<path fill-rule="evenodd" clip-rule="evenodd" d="M276.929 206.204C292.477 206.373 291.608 183.032 276.755 182.843C262.005 183.076 262.147 205.938 276.929 206.204ZM294.259 195.342C295.155 216.995 259.1 217.629 260.277 194.683C260.944 174.3 294.908 172.421 294.259 195.342Z" fill="#0341A7"/>
<path fill-rule="evenodd" clip-rule="evenodd" d="M155.231 307.691C146.552 307.295 145.785 321.897 154.632 322.04C163.763 322.191 164.5 307.802 155.231 307.691ZM155.767 301.145C174.211 300.145 174.055 329.461 156.547 328.855C138.659 329.631 136.74 300.974 155.767 301.145Z" fill="#0341A7"/>
<path fill-rule="evenodd" clip-rule="evenodd" d="M205.265 304.124C196.238 317.195 185.492 293.777 190.125 285.301C195.211 269.196 220.721 266.163 227.205 283.138C221.677 294.662 218.358 273.433 207.356 277.237C192.796 278.301 190.805 298.931 205.265 304.124Z" fill="#0341A7"/>
<path fill-rule="evenodd" clip-rule="evenodd" d="M378.384 232.725C396.779 222.347 414.722 203.95 435.265 200.472C427.745 208.764 416.465 213.224 407.537 220.047C398.94 222.753 381.676 244.99 378.384 232.725Z" fill="#111010"/>
<path fill-rule="evenodd" clip-rule="evenodd" d="M226.129 285.198C233.966 279.978 240.64 264.208 253.174 270.301C257.604 273.275 242.363 283.261 240.431 287.599C229.671 301.191 229.445 304.693 226.129 285.198Z" fill="#0E8ADF"/>
<path fill-rule="evenodd" clip-rule="evenodd" d="M232.629 162.138C247.069 163.439 242.68 185.479 230.266 187.45C217.814 191.434 207.108 178.151 211.831 166.461C221.696 159.967 215.199 171.278 217.597 176.079C219.94 182.925 230.449 183.801 233.885 177.373C240.262 171.31 227.553 165.103 232.629 162.138Z" fill="#0341A7"/>
<path fill-rule="evenodd" clip-rule="evenodd" d="M336.672 239.561C336.624 232.194 324.207 230.7 324.171 239.509C324.095 247.654 336.824 248.005 336.672 239.561ZM326.798 247.042C308.696 243.901 321.165 223.593 334.42 227.469C351.846 232.472 342.242 260.716 326.798 247.042Z" fill="#0341A7"/>
<path fill-rule="evenodd" clip-rule="evenodd" d="M344.184 166.768C347.558 168.096 346.557 169.717 344.601 172.07C334.611 183.973 347.954 200.016 361.825 192.283C369.427 204.965 337.616 200.339 336.832 188.846C333.926 181.718 335.912 171.913 344.184 166.768Z" fill="#0341A7"/>
<path fill-rule="evenodd" clip-rule="evenodd" d="M293.074 244.132C282.052 249.242 272.146 256.068 263.141 264.148C229.699 273.783 281.568 240.684 293.074 244.132Z" fill="#0E8ADF"/>
<path fill-rule="evenodd" clip-rule="evenodd" d="M147.866 197.897C146.541 195.831 145.945 194.902 145.35 193.973C143.521 195.902 145.018 199.668 147.866 197.897ZM155.387 191.695C153.304 197.05 147.997 202.051 149.195 207.989C147.395 206.938 147.776 208.933 147.117 209.481C146.032 208.417 144.164 207.804 144.774 205.723C145.367 202.573 142.23 202.947 142.396 206.123C136.868 207.809 140.812 204.689 140.383 202.697C139.803 208.109 132.669 200.188 135.273 197.713C137.747 195.167 138.957 193.896 135.003 191.753C139.098 194.583 139.643 187.398 142.535 192.904C144.265 192.943 149.792 187.816 147.384 192.97C150.03 196.519 152.754 188.46 155.387 191.695Z" fill="#111010"/>
<path fill-rule="evenodd" clip-rule="evenodd" d="M243.448 239.819C243.405 235.919 236.348 235.989 237.012 240.235C236.907 244.61 243.984 244.371 243.448 239.819ZM231.446 240.426C231.167 229.056 249.015 228.692 248.872 240.07C249.07 251.864 230.999 252.094 231.446 240.426Z" fill="#0341A7"/>
<path fill-rule="evenodd" clip-rule="evenodd" d="M163.178 270.11C155.267 270.345 155.708 257.895 163.253 257.962C171.489 258.154 172.073 270.027 163.178 270.11Z" fill="#0341A7"/>
<path fill-rule="evenodd" clip-rule="evenodd" d="M142.395 206.123C142.228 202.953 145.37 202.57 144.774 205.723C144.164 207.804 146.032 208.417 147.117 209.481C143.078 210.235 141.72 215.321 139.735 212.058C131.169 212.683 143.964 223.921 135.62 227.399C134.112 226.498 134.965 223.377 132.148 223.702C133.514 222.426 134.855 221.27 133.866 218.978C133.56 215.187 135.775 214.748 133.847 211.052C136.537 210.036 134.945 208.915 133.932 207.808C137.489 203.429 140.566 209.716 142.395 206.123Z" fill="#95E4FC"/>
<path fill-rule="evenodd" clip-rule="evenodd" d="M379.097 243.314C380.051 247.438 381.005 251.562 381.96 255.682C371.277 259.023 367.941 244.438 379.097 243.314Z" fill="#0341A7"/>
<path fill-rule="evenodd" clip-rule="evenodd" d="M191.067 166.326C190.097 159.89 192.553 158.53 198.356 160.192C198.475 164.505 201.769 164.143 204.187 163.531C208.801 162.165 207.551 168.263 204.433 165.645C205.989 167.613 192.74 169.851 191.067 166.326Z" fill="#95E4FC"/>
<path fill-rule="evenodd" clip-rule="evenodd" d="M191.067 166.326C197.099 171.29 183.097 166.187 181.788 171.177C179.633 171.991 176.963 172.078 174.665 172.617C180.891 157.992 179.988 169.468 191.067 166.326Z" fill="#0341A7"/>
<path fill-rule="evenodd" clip-rule="evenodd" d="M139.373 220.768C136.144 219.063 135.06 211.292 139.735 212.056C141.508 214.418 142.039 213.031 143.12 211.392C150.526 207.152 141.249 218.068 139.373 220.768Z" fill="#0341A7"/>
<path fill-rule="evenodd" clip-rule="evenodd" d="M155.386 191.695C152.754 188.46 150.03 196.52 147.384 192.97C148.995 189.528 147.179 190.729 145.568 191.586C135.184 192.033 160.007 181.519 155.386 191.695Z" fill="#95E4FC"/>
<path fill-rule="evenodd" clip-rule="evenodd" d="M162.127 177.989C162.185 176.754 159.809 173.94 163.971 175.342C166.787 174.544 170.398 172.983 173.539 172.447C171.034 175.233 166.814 173.962 165.063 177.539C164.11 179.032 163.203 178.504 162.127 177.989Z" fill="#0341A7"/>
<path fill-rule="evenodd" clip-rule="evenodd" d="M215.655 164.198C213.74 165.212 212.091 166.969 209.796 166.233C209.966 161.016 220.876 161.936 215.655 164.198Z" fill="#95E4FC"/>
<path fill-rule="evenodd" clip-rule="evenodd" d="M156.556 180.515C157.184 177.906 157.549 177.027 159.898 178.929C159.78 182.535 159.383 182.885 156.556 180.515Z" fill="#0341A7"/>
<path fill-rule="evenodd" clip-rule="evenodd" d="M156.556 180.515C159.829 182.207 159.414 183.139 156.779 185.36C156.318 183.614 156.443 182.372 156.556 180.515Z" fill="#95E4FC"/>
<path fill-rule="evenodd" clip-rule="evenodd" d="M149.174 208.013C149.354 208.189 149.475 208.681 149.692 208.358C149.508 208.256 149.35 208.034 149.174 208.013Z" fill="#111010"/>
<path fill-rule="evenodd" clip-rule="evenodd" d="M207.953 166.71C208.313 166.634 208.672 166.557 209.032 166.48C208.672 166.557 208.313 166.634 207.953 166.71Z" fill="#95E4FC"/>
<path fill-rule="evenodd" clip-rule="evenodd" d="M164.778 409.271C155.375 399.016 133.287 373.857 160.987 371.854C169.916 370.964 200.542 351.407 200.779 360.618C196.167 371.534 200.427 385.384 195.084 395.077C187.25 401.135 179.579 407.402 171.851 413.594C169.071 412.152 168.408 408.181 164.778 409.271Z" fill="#0E8ADF"/>
<path fill-rule="evenodd" clip-rule="evenodd" d="M86.2548 213.464C75.8438 195.36 66.0264 176.934 52.9237 160.574C52.0329 159.309 49.5903 157.922 51.5454 156.065C64.5176 158.507 80.198 188.366 87.8234 200.358C92.9428 208.583 100.383 213.532 86.2548 213.464Z" fill="#111010"/>
<path fill-rule="evenodd" clip-rule="evenodd" d="M56.8656 282.271C56.9699 274.858 51.3792 274.105 46.2793 271.865C54.4158 262.072 67.5679 277.692 62.5881 286.824C59.9425 293.13 44.564 293.775 43.4231 286.399C47.1615 284.207 54.1603 287.698 56.8656 282.271Z" fill="#32BEF4"/>
<path fill-rule="evenodd" clip-rule="evenodd" d="M31.9235 319.197C50.2394 317.438 54.8831 346.593 37.1815 342.936C35.811 339.532 49.5263 331.487 36.018 325.537C32.3653 323.464 29.2788 325.56 25.3918 324.703C24.9243 320.631 29.9562 320.084 31.9235 319.197Z" fill="#32BEF4"/>
<path fill-rule="evenodd" clip-rule="evenodd" d="M66.6309 317.536C63.844 302.197 92.9256 308.753 82.6877 314.718C79.0286 313.505 73.709 311.665 72.7144 317.087C70.3552 324.285 80.647 325.971 81.8559 330.188C75.1371 335.781 65.6046 327.362 66.6309 317.536Z" fill="#32BEF4"/>
<path fill-rule="evenodd" clip-rule="evenodd" d="M85.4018 268.539C89.6209 289.605 103.806 262.911 105.085 273.805C102.93 280.026 92.9637 286.048 86.6387 282.898C74.154 275.686 86.5204 256.218 85.4018 268.539Z" fill="#32BEF4"/>
<path fill-rule="evenodd" clip-rule="evenodd" d="M116.371 381.035C131.837 378.63 131.509 402.376 124.055 392.785C123.308 389.766 122.305 387.24 118.711 387.197C108.555 385.588 110.828 393.534 105.851 394.165C99.8391 388.145 111.183 380.533 116.371 381.035Z" fill="#32BEF4"/>
<path fill-rule="evenodd" clip-rule="evenodd" d="M69.2983 389.17C82.5479 388.277 85.3325 416.446 72.87 397.684C65.5794 388.982 64.1227 402.047 58.6998 401.561C52.8505 396.356 62.2977 388.213 69.2983 389.17Z" fill="#32BEF4"/>
<path fill-rule="evenodd" clip-rule="evenodd" d="M52.2402 371.997C54.5459 387.392 25.0551 387.666 43.3121 376.707C50.0654 371.077 41.8949 367.784 40.1623 362.988C45.2772 359.64 52.5695 366.641 52.2402 371.997Z" fill="#32BEF4"/>
<path fill-rule="evenodd" clip-rule="evenodd" d="M122.899 259.68C140.782 263.715 123.507 287.67 117.72 275.654C119.252 270.402 121.455 264.569 122.899 259.68Z" fill="#32BEF4"/>
<path fill-rule="evenodd" clip-rule="evenodd" d="M106.51 343.099C105.512 334.459 115.196 330.558 119.594 336.943C109.843 334.75 109.728 348.636 118.603 349.458C131.432 353.847 105.532 360.102 106.51 343.099Z" fill="#32BEF4"/>
<path fill-rule="evenodd" clip-rule="evenodd" d="M66.5519 353.877C65.8356 346.315 77.6167 341.872 80.115 350.098C74.8678 349.744 71.3764 352.664 74.1619 357.388C94.4134 368.479 65.2837 368.182 66.5519 353.877Z" fill="#32BEF4"/>
<path fill-rule="evenodd" clip-rule="evenodd" d="M82.2222 244.851C65.6529 235.599 93.9276 245.417 90.1865 229.072C89.8843 227.417 88.5073 225.18 90.9042 224.4C101.895 227.902 94.6906 245.669 82.2222 244.851Z" fill="#32BEF4"/>
<path fill-rule="evenodd" clip-rule="evenodd" d="M341.331 379.28C345.991 369.933 358.146 343.723 370.193 356.785C376.374 366.522 411.301 404.268 402.117 412.025C388.904 425.082 370.302 429.959 354.172 438.426C346.247 445.432 344.128 386.747 341.331 379.28Z" fill="#0E8ADF"/>
<path fill-rule="evenodd" clip-rule="evenodd" d="M438.127 332.923C435.965 348.075 428.503 410.302 407.439 403.022C397.272 385.171 385.457 368.499 372.676 352.438C362.197 348.53 447.795 317.911 438.127 332.923Z" fill="#0E8ADF"/>
<path fill-rule="evenodd" clip-rule="evenodd" d="M331.3 320.419C313.576 338.618 281.264 344.959 258.631 358.962C250.553 359.566 249.331 343.481 244.244 337.967C243 335.626 243.762 334.601 245.799 333.365C264.43 322.237 282.899 310.836 299.975 297.395C304.669 292.888 329.98 314.851 331.3 320.419Z" fill="#0E8ADF"/>
<path fill-rule="evenodd" clip-rule="evenodd" d="M333.585 361.985C317.48 372.913 300.33 382.981 284.596 394.66C280.551 397.481 280.421 397.662 277.59 393.553C275.419 387.372 253.759 366.028 261.896 363.181C283.858 352.557 305.831 341.962 327.813 331.384C334.573 326.437 331.59 356.343 333.585 361.985Z" fill="#0E8ADF"/>
<path fill-rule="evenodd" clip-rule="evenodd" d="M298.417 292.256C280.995 306.635 262.234 318.414 242.835 329.8C239.018 331.948 230.969 308.889 233.711 306.166C262.871 266.826 256.651 269.699 298.417 292.256Z" fill="#0E8ADF"/>
<path fill-rule="evenodd" clip-rule="evenodd" d="M335.384 379.784C328.125 396.03 318.147 411.577 312.394 428.522C311.722 430.413 310.957 431.154 309.339 429.412C305.451 422.436 281.056 405.198 285.773 399.348C300.304 388.587 315.544 378.928 331.117 369.754C336.721 366.074 334.357 375.927 335.384 379.784Z" fill="#0E8ADF"/>
<path fill-rule="evenodd" clip-rule="evenodd" d="M258.808 415.649C253.018 404.998 249.147 393.332 244.218 382.234C240.804 373.924 240.894 373.887 248.811 369.765C250.928 368.813 253.305 366.534 254.885 369.51C261.538 379.539 268.292 389.5 274.921 399.545C274.083 406.306 263.793 410.824 258.808 415.649Z" fill="#0E8ADF"/>
<path fill-rule="evenodd" clip-rule="evenodd" d="M203.452 384.738C205.492 370.043 204.094 350.953 221.497 346.532C228.434 345.205 229.206 362.816 233.17 367.871C234.256 370.544 233.342 371.896 230.958 373.233C223.161 375.153 207.435 392.53 203.452 384.738Z" fill="#0E8ADF"/>
<path fill-rule="evenodd" clip-rule="evenodd" d="M205.265 304.124C190.806 298.932 192.795 278.3 207.357 277.234C233.584 281.002 217.616 294.197 205.265 304.124Z" fill="#32BEF4"/>
<path fill-rule="evenodd" clip-rule="evenodd" d="M387.246 302.765C380.333 306.973 362.491 344.115 357.225 335.159C355.006 331.136 343.94 325.982 347.128 321.859C360.493 315.992 373.898 307.154 387.246 302.765Z" fill="#0E8ADF"/>
<path fill-rule="evenodd" clip-rule="evenodd" d="M336.739 330.789C338.343 316.828 351.865 338.284 356.613 341.537C356.671 350.021 348.858 355.111 341.435 358.572C335.306 356.4 338.893 337.399 336.739 330.789Z" fill="#0E8ADF"/>
<path fill-rule="evenodd" clip-rule="evenodd" d="M238.696 368.922C237.077 360.444 227.35 349.411 230.476 341.766C237.763 337.027 237.804 337.031 241.655 344.78C246.825 357.832 257.464 362.343 238.696 368.922Z" fill="#0E8ADF"/>
<path fill-rule="evenodd" clip-rule="evenodd" d="M212.578 297.714C222.111 286.306 223.226 291.901 225.389 303.738C226.766 306.892 220.118 319.028 218.073 314.431C216.21 308.868 214.402 303.288 212.578 297.714Z" fill="#0E8ADF"/>
<path fill-rule="evenodd" clip-rule="evenodd" d="M221.883 324.925C224.22 322.637 225.734 314.529 229.198 315.573C230.253 321.521 238.228 329.778 234.011 334.913C224.68 342.845 225.037 331.813 221.883 324.925Z" fill="#0E8ADF"/>
<path fill-rule="evenodd" clip-rule="evenodd" d="M407.326 444.418C410.187 440.478 410.744 431.008 415.406 430.194C420.278 440.801 418.974 443.143 407.326 444.418Z" fill="#0E8ADF"/>
<path fill-rule="evenodd" clip-rule="evenodd" d="M212.624 345.712C215.089 342.078 215.381 333.342 219.473 332.526C224.708 341.071 220.068 342.825 212.624 345.712Z" fill="#0E8ADF"/>
<path fill-rule="evenodd" clip-rule="evenodd" d="M164.777 409.271C168.409 408.184 169.07 412.15 171.851 413.594C177.511 422.342 160.523 420.947 164.777 409.271Z" fill="#0341A7"/>
<path fill-rule="evenodd" clip-rule="evenodd" d="M419.261 405.198C418.507 409.618 416.662 413.87 412.174 411.861C413.224 408.542 416.23 407.94 419.261 405.198Z" fill="#0E8ADF"/>
<path fill-rule="evenodd" clip-rule="evenodd" d="M345.826 361.942C343.929 365.226 342.521 367.662 341.041 370.223C339.033 364.859 339.033 364.859 345.826 361.942Z" fill="#0E8ADF"/>
<path fill-rule="evenodd" clip-rule="evenodd" d="M362.309 347.871C361.141 348.262 359.173 350.514 358.927 348.652C360.281 347.63 361.155 345.322 362.309 347.871Z" fill="#32BEF4"/>
<path fill-rule="evenodd" clip-rule="evenodd" d="M212.573 345.662C212.529 345.781 212.486 345.9 212.443 346.02C212.478 345.902 212.681 345.759 212.573 345.662Z" fill="#0E8ADF"/>
<path fill-rule="evenodd" clip-rule="evenodd" d="M137.343 141.782C132.517 141.43 135.893 143.944 138.441 144.573C139.407 144.792 140.682 144.187 139.294 142.779C146.523 142.101 141.217 138.457 137.343 141.782ZM144.929 152.251C143.063 147.013 128.002 146.816 134.691 140.379C135.246 134.974 125.831 142.096 126.646 135.768C125.922 132.618 129.056 134.733 130.721 133.984C133.954 130.409 124.698 133.056 126.267 126.618C126.498 126.812 126.784 126.945 127.034 127.119C124.705 124.496 129.779 123.142 130.379 121.138C135.66 120.766 134.949 123.941 130.829 124.004C128.558 125.729 132.06 127.912 132.471 129.76C133.481 132.539 134.792 130.091 135.938 130.148C140.538 130.73 137.769 136.055 133.531 135.837C135.476 135.768 136.292 139.275 138.605 137.456C139.315 138.545 140.14 138.87 140.609 137.509C140.344 127.436 148.676 136.5 150.655 141.596C147.679 141.031 141.887 144.849 147.84 143.729C151.475 141.862 153.949 148.395 149.351 148.466C146.722 148.377 146.448 151.042 144.929 152.251Z" fill="#95E4FC"/>
<path fill-rule="evenodd" clip-rule="evenodd" d="M120.401 37.2943C119.764 36.9069 119.312 36.4239 118.646 37.032C119.356 37.5172 119.654 38.4021 120.401 37.2943ZM128.678 36.0266C129.03 38.8402 132.971 39.383 132.099 35.9088C131.769 34.7004 132.768 33.5908 133.201 32.5197C130.19 32.3004 129.119 32.4128 128.678 36.0266ZM118.019 37.4153C112.968 28.0192 142.746 26.9047 139.292 36.6876C135.346 52.4405 137.229 36.9482 131.677 42.2687C125.491 36.0755 116.853 49.3613 118.019 37.4153Z" fill="#95E4FC"/>
<path fill-rule="evenodd" clip-rule="evenodd" d="M129.955 64.8382C128.439 61.619 125.848 61.3812 122.965 60.0015C121.301 69.7165 114.656 42.3013 124.963 42.8555C126.487 42.85 128.82 43.0462 127.543 45.8558C125.48 46.0873 123.76 46.4838 125.225 49.2308C126.3 50.7545 124.24 53.1128 126.579 53.1713C126.068 58.9563 136.57 56.4792 133.6 62.1836C130.618 61.6625 130.618 61.6625 129.955 64.8382Z" fill="#95E4FC"/>
<path fill-rule="evenodd" clip-rule="evenodd" d="M196.929 81.2032C190.104 81.5902 198.811 87.9225 192.79 86.0771C187.141 86.1405 196.923 90.3179 195.299 93.1882C193.647 93.7668 190.361 95.4527 190.037 92.6146C191.847 86.8858 183.148 85.1858 185.889 79.9523C185.146 77.241 190.121 79.6732 191.633 79.2418C194.934 75.9026 195.527 79.6156 196.929 81.2032Z" fill="#95E4FC"/>
<path fill-rule="evenodd" clip-rule="evenodd" d="M268.851 31.3494C263.474 33.9904 268.364 45.0303 259.215 42.3648C250.407 29.7641 256.632 31.276 268.851 31.3494Z" fill="#95E4FC"/>
<path fill-rule="evenodd" clip-rule="evenodd" d="M150.937 122.816C150.942 126.117 146.754 121.211 146.514 119.711C147.67 116.92 143.008 117.461 141.52 115.808C141.389 115.738 141.568 115.091 141.603 114.711C146.337 114.312 139.373 108.019 145.428 108.369C144.945 109.992 142.797 112.661 145.221 113.52C149.495 111.421 151.819 115.157 154.866 116.65C155.613 120.013 151.997 120.602 150.937 122.816Z" fill="#95E4FC"/>
<path fill-rule="evenodd" clip-rule="evenodd" d="M175.647 117.766C179.117 114.181 178.978 123.033 176.959 124.144C171.803 125.197 176.179 128.377 177.136 131.047C177.727 132.518 177.948 132.612 178.232 130.979C179.894 127.004 185.327 134.485 182.786 136.469C177.295 135.778 179.068 132.899 173.776 137.206C173.084 131.898 172.159 126.605 172.084 121.247C175.663 122.535 174.631 119.105 175.647 117.766Z" fill="#95E4FC"/>
<path fill-rule="evenodd" clip-rule="evenodd" d="M138.284 79.9832C137.519 80.908 138.063 84.3568 135.283 81.3855C134.283 80.3176 132.646 79.8849 131.526 81.6728C130.919 80.2958 129.945 79.251 128.598 80.5958C127.749 81.4444 127.621 82.7805 129.354 83.3804C131.075 86.2815 125.838 84.6101 126.391 81.9469C131.373 77.9162 126.485 66.122 133.339 66.002C135.024 73.0157 130.292 78.8976 138.284 79.9832Z" fill="#95E4FC"/>
<path fill-rule="evenodd" clip-rule="evenodd" d="M175.647 117.766C172.662 127.506 170.857 115.12 169.947 111.165C172.908 109.783 169.347 107.454 170.729 105.863C175.07 104.248 177.383 107.685 177.859 111.6C175.456 112.391 171.016 115.936 175.647 117.766Z" fill="#0341A7"/>
<path fill-rule="evenodd" clip-rule="evenodd" d="M163.921 161.098C169.061 157.548 166.542 167.693 167.657 170.993C167.056 171.494 163.858 169.508 163.561 167.784C163.454 166.769 160.899 166.013 159.463 165.142C160.943 164.697 162.762 163.374 160.142 163.657C157.629 166.673 152.508 159.513 157.46 161.476C159.166 162.33 159.913 161.388 160.467 159.988C161.723 160.732 162.945 163.346 163.921 161.098Z" fill="#95E4FC"/>
<path fill-rule="evenodd" clip-rule="evenodd" d="M232.369 34.8602C221.768 29.3276 241.924 31.7067 246.128 31.5699C238.554 35.0627 244.889 41.5703 232.968 34.5267C232.768 34.6377 232.568 34.7492 232.369 34.8602Z" fill="#95E4FC"/>
<path fill-rule="evenodd" clip-rule="evenodd" d="M128.882 75.3555C130.867 79.8424 123.602 81.2062 123.946 84.7702C124.893 85.8879 127.733 86.172 129.299 86.7016C126.753 88.6023 122.484 91.4568 127.298 92.8337C128.679 93.5885 128.53 94.0783 127.101 94.6601C120.407 96.5784 123.74 85.3324 122.3 81.4527C123.236 80.6158 123.299 78.4551 125.41 79.407C126.262 77.8488 126.032 73.7792 128.882 75.3555Z" fill="#0341A7"/>
<path fill-rule="evenodd" clip-rule="evenodd" d="M175.334 147.101C172.212 132.475 182.603 151.584 182.788 136.469C187.28 135.17 185.731 140.352 186.446 143.623C182.96 143.62 180.29 144.014 182.586 147.694C178.306 149.397 180.87 142.039 175.334 147.101Z" fill="#0341A7"/>
<path fill-rule="evenodd" clip-rule="evenodd" d="M147.902 98.2141C146.518 98.109 144.796 100.524 143.802 97.896C143.077 95.9799 140.2 94.1472 143.24 91.7205C144.519 88.978 141.337 84.8653 146.23 84.5713C150.251 86.0923 142.066 86.052 145.434 89.2467C150.611 89.2693 145.477 95.1739 147.902 98.2141Z" fill="#0341A7"/>
<path fill-rule="evenodd" clip-rule="evenodd" d="M136.376 167.213C129.401 172.361 129.929 168.579 129.21 161.752C128.416 158.494 134.533 160.9 135.291 162.037C138.763 164.705 130.005 164.84 136.376 167.213Z" fill="#95E4FC"/>
<path fill-rule="evenodd" clip-rule="evenodd" d="M116.514 12.3322C112.373 13.1201 114.402 10.5615 111.661 9.09487C107.405 7.7107 109.273 3.49068 113.139 4.17755C112.727 5.93235 112.394 7.51814 115.232 6.85256C117.291 5.95274 120.326 9.57967 117.597 10.219C115.524 10.0894 116.604 11.498 116.514 12.3322Z" fill="#95E4FC"/>
<path fill-rule="evenodd" clip-rule="evenodd" d="M165.579 152.699C163.361 151.213 161.279 150.045 158.45 149.782C156.37 147.77 160.067 145.753 161.314 144.258C164.87 143.684 166.481 149.616 165.579 152.699Z" fill="#95E4FC"/>
<path fill-rule="evenodd" clip-rule="evenodd" d="M231.473 24.6368C234.369 24.1543 247.335 24.6794 243.744 20.1554C242.52 18.0291 248.122 16.3454 247.776 20.2016C247.851 21.5504 246.525 23.0062 248.21 24.1973C242.626 25.1407 237.164 25.1443 231.473 24.6368Z" fill="#95E4FC"/>
<path fill-rule="evenodd" clip-rule="evenodd" d="M178.269 85.6676C174.308 89.8323 177.488 81.1621 172.946 84.8516C172.35 85.4805 172.578 87.2901 171.077 86.4079C157.672 83.64 187.812 76.1492 178.269 85.6676Z" fill="#0341A7"/>
<path fill-rule="evenodd" clip-rule="evenodd" d="M133.59 53.4285C128.756 54.1752 129.724 50.5977 128.229 47.3685C133.388 44.945 137.947 48.3689 133.59 53.4285Z" fill="#0341A7"/>
<path fill-rule="evenodd" clip-rule="evenodd" d="M153.523 152.622C150.076 158.319 148.542 157.903 144.948 152.328C148.9 153.921 152.489 145.239 153.523 152.622Z" fill="#95E4FC"/>
<path fill-rule="evenodd" clip-rule="evenodd" d="M160.845 105.485C146.173 103.545 157.836 92.9917 155.451 100.407C157.443 104.954 160.088 95.2463 160.845 105.485Z" fill="#95E4FC"/>
<path fill-rule="evenodd" clip-rule="evenodd" d="M132.339 191.983C137.005 191.104 139.441 194.783 135.271 197.712C133.231 203.359 130.62 194.624 132.339 191.983Z" fill="#95E4FC"/>
<path fill-rule="evenodd" clip-rule="evenodd" d="M130.379 121.138C129.318 123.197 126.319 123.99 126.266 126.618C126.518 124.567 126.477 122.458 126.941 120.441C126.324 122.016 125.677 116.63 126.389 116.621C129.012 118.257 132.842 117.026 130.379 121.138Z" fill="#0341A7"/>
<path fill-rule="evenodd" clip-rule="evenodd" d="M141.53 171.104C135.945 164.193 140.725 163.964 137.589 160.128C140.696 156.549 140.319 165.367 143.26 166.48C143.674 166.823 142.156 169.503 141.53 171.104Z" fill="#95E4FC"/>
<path fill-rule="evenodd" clip-rule="evenodd" d="M148.147 91.2639C148.176 89.2554 146.751 89.554 145.433 89.2472C144.53 88.1934 144.021 85.7435 146.627 86.4213C148.157 89.0755 149.199 88.9505 150.983 85.8962C153.727 84.4069 156.915 87.0194 152.514 87.26C155.458 87.5459 151.593 90.3401 153.848 90.8801C152.062 92.7083 150.03 90.8783 148.147 91.2639Z" fill="#95E4FC"/>
<path fill-rule="evenodd" clip-rule="evenodd" d="M126.39 116.621C126.238 116.554 126.098 116.601 126.019 116.747C125.675 114.158 122.916 107.915 127.147 108.399C126.743 112.054 126.783 112.075 130.565 111.911C131.442 111.873 132.813 110.423 132.971 112.814C132.883 117.022 127.221 112.462 126.39 116.621Z" fill="#95E4FC"/>
<path fill-rule="evenodd" clip-rule="evenodd" d="M153.848 90.8799C151.593 90.3398 155.458 87.5457 152.514 87.2598C157.137 84.4081 161.937 91.3489 155.917 90.4876C155.426 90.2316 154.548 90.7272 153.848 90.8799Z" fill="#0341A7"/>
<path fill-rule="evenodd" clip-rule="evenodd" d="M128.285 20.3842C121.772 24.3405 124.674 17.6498 127.37 15.3169C128.695 16.4487 133.608 17.8746 130.839 19.5242C128.491 20.077 127.304 16.0799 128.285 20.3842Z" fill="#95E4FC"/>
<path fill-rule="evenodd" clip-rule="evenodd" d="M148.966 182.953C147.728 184.565 145.948 185.743 145.388 187.831C140.282 184.43 145.421 178.286 148.966 182.953Z" fill="#95E4FC"/>
<path fill-rule="evenodd" clip-rule="evenodd" d="M129.154 14.385C127.495 12.6982 126.869 10.2561 125.916 8.13428C130.934 8.03052 133.525 10.691 129.154 14.385Z" fill="#95E4FC"/>
<path fill-rule="evenodd" clip-rule="evenodd" d="M139.332 96.5703C138.172 99.523 134.391 98.6952 132.835 101.077C129.87 97.2186 136.954 96.438 139.332 96.5703Z" fill="#95E4FC"/>
<path fill-rule="evenodd" clip-rule="evenodd" d="M120.811 63.2609C123.313 59.9425 126.235 64.9713 123.568 66.6146C121.126 66.1421 117.956 65.8163 120.811 63.2609Z" fill="#0341A7"/>
<path fill-rule="evenodd" clip-rule="evenodd" d="M175.334 147.101C184.398 141.501 177.179 150.716 176.167 154.199C175.888 151.829 175.611 149.465 175.334 147.101Z" fill="#95E4FC"/>
<path fill-rule="evenodd" clip-rule="evenodd" d="M168.515 95.9445C170.353 95.1258 172.183 94.2876 174.047 93.5332C175.434 95.0818 167.468 102.879 168.515 95.9445Z" fill="#95E4FC"/>
<path fill-rule="evenodd" clip-rule="evenodd" d="M112.088 18.1692C112.001 20.7078 109.853 22.1532 108.41 23.9755C106.973 21.4554 108.817 15.7298 112.088 18.1692Z" fill="#95E4FC"/>
<path fill-rule="evenodd" clip-rule="evenodd" d="M148.127 175.553C149.355 174.026 151.124 172.356 153.245 174.415C153.637 176.331 147.344 179.494 148.127 175.553Z" fill="#95E4FC"/>
<path fill-rule="evenodd" clip-rule="evenodd" d="M127.147 108.398C123.781 109.509 124.666 105.113 123.732 102.918C126.303 101.618 126.023 106.72 127.147 108.398Z" fill="#0341A7"/>
<path fill-rule="evenodd" clip-rule="evenodd" d="M147.484 127.836C146.395 128.9 140.966 126.016 144.855 125.907C145.26 127.351 147.914 124.296 147.484 127.836Z" fill="#95E4FC"/>
<path fill-rule="evenodd" clip-rule="evenodd" d="M250.265 22.6012C253.526 21.107 255.792 23.1966 258.185 24.7996C255.356 24.3778 251.742 25.8603 250.265 22.6012Z" fill="#95E4FC"/>
<path fill-rule="evenodd" clip-rule="evenodd" d="M133.59 53.4283C135.92 51.3441 135.238 48.8947 134.437 46.4358C138.041 44.4726 136.87 55.8581 133.59 53.4283Z" fill="#95E4FC"/>
<path fill-rule="evenodd" clip-rule="evenodd" d="M124.284 74.6073C122.576 72.534 121.07 70.6387 124.652 69.4077C126.839 70.0117 126.636 73.9028 124.284 74.6073Z" fill="#95E4FC"/>
<path fill-rule="evenodd" clip-rule="evenodd" d="M150.003 150.451C148.586 151.798 147.146 153.082 144.948 152.328C146.071 150.744 149.198 145.856 150.003 150.451Z" fill="#0341A7"/>
<path fill-rule="evenodd" clip-rule="evenodd" d="M140.32 152.995C143.958 153.049 142.748 157.344 139.556 157.083C137.954 155.331 138.752 154.395 140.32 152.995Z" fill="#95E4FC"/>
<path fill-rule="evenodd" clip-rule="evenodd" d="M126.163 77.0383C125.905 79.8614 123.171 78.9362 122.302 81.4522C121.721 77.3645 120.903 75.1874 126.163 77.0383Z" fill="#95E4FC"/>
<path fill-rule="evenodd" clip-rule="evenodd" d="M126.737 52.053C135.176 51.7657 131.698 57.8053 127.877 53.2147C127.007 52.8527 126.293 53.5282 126.737 52.053Z" fill="#95E4FC"/>
<path fill-rule="evenodd" clip-rule="evenodd" d="M140.488 134.199C140.459 135.784 141.246 137.561 139.693 138.657C137.992 137.052 137.004 133.325 140.488 134.199Z" fill="#0341A7"/>
<path fill-rule="evenodd" clip-rule="evenodd" d="M119.808 20.5682C116.506 20.9085 119.494 17.7777 120.641 17.5366C120.345 18.537 120.063 19.5542 119.808 20.5682Z" fill="#0E8ADF"/>
<path fill-rule="evenodd" clip-rule="evenodd" d="M154.48 181.277C152.392 182.958 151.535 180.794 149.754 179.994C151.274 178.84 152.576 180.704 154.48 181.277Z" fill="#0341A7"/>
<path fill-rule="evenodd" clip-rule="evenodd" d="M137.691 130.194C137.919 129.476 137.905 128.314 138.055 127.442C139.85 128.716 139.441 129.187 137.691 130.194Z" fill="#0341A7"/>
<path fill-rule="evenodd" clip-rule="evenodd" d="M158.629 164.489C159.603 163.697 160.584 163.443 161.803 163.794C160.804 164.454 159.642 165.782 158.629 164.489Z" fill="#0341A7"/>
<path fill-rule="evenodd" clip-rule="evenodd" d="M152.952 129.475C151.373 132.092 151.618 128.84 151.458 127.544C151.957 128.187 152.454 128.831 152.952 129.475Z" fill="#95E4FC"/>
<path fill-rule="evenodd" clip-rule="evenodd" d="M114.296 20.0236C114.622 20.0019 114.927 19.9529 115.089 20.3068C114.821 20.2125 114.558 20.1178 114.296 20.0236Z" fill="#0E8ADF"/>
<path fill-rule="evenodd" clip-rule="evenodd" d="M123.747 61.2008C123.487 60.8012 123.226 60.4011 122.965 60.0015C123.299 60.2896 124.864 61.3961 123.747 61.2008Z" fill="#0341A7"/>
<path fill-rule="evenodd" clip-rule="evenodd" d="M150.827 97.4907C149.729 97.4359 149.195 97.3748 149.688 96.1899C150.068 96.6235 150.447 97.0571 150.827 97.4907Z" fill="#95E4FC"/>
<path fill-rule="evenodd" clip-rule="evenodd" d="M226.701 24.6382C227.199 24.6545 227.697 24.6704 228.188 24.6858C227.687 24.6699 227.194 24.654 226.701 24.6382Z" fill="#95E4FC"/>
<path fill-rule="evenodd" clip-rule="evenodd" d="M156.421 182.878C156.491 183.014 156.559 183.15 156.629 183.287C156.291 183.514 155.875 182.783 156.421 182.878Z" fill="#0341A7"/>
<path fill-rule="evenodd" clip-rule="evenodd" d="M174.578 136.628C174.281 136.866 174.065 137.652 173.672 137.431C173.8 137.036 174.277 136.898 174.578 136.628Z" fill="#0341A7"/>
<path fill-rule="evenodd" clip-rule="evenodd" d="M132.579 201.6C132.734 202.006 133.056 202.388 132.79 202.82C132.718 202.41 132.649 202.005 132.579 201.6Z" fill="#95E4FC"/>
<path fill-rule="evenodd" clip-rule="evenodd" d="M152.863 99.2053C152.543 98.9797 152.224 98.7545 151.905 98.5298C152.224 98.755 152.543 98.9801 152.863 99.2053Z" fill="#95E4FC"/>
<path fill-rule="evenodd" clip-rule="evenodd" d="M124.976 112.394C124.976 112.394 124.997 112.471 124.998 112.471C124.998 112.47 124.976 112.394 124.976 112.394Z" fill="#0341A7"/>
<path fill-rule="evenodd" clip-rule="evenodd" d="M181.443 80.4652C181.413 80.7715 181.321 80.8979 181.009 80.7815C181.046 80.5205 181.181 80.4109 181.443 80.4652Z" fill="#0341A7"/>
<path fill-rule="evenodd" clip-rule="evenodd" d="M134.014 64.7686L133.82 64.4981C134.062 63.9526 134.6 64.8588 134.014 64.7686Z" fill="#95E4FC"/>
<path fill-rule="evenodd" clip-rule="evenodd" d="M128.228 47.3685C128.44 47.4555 129.075 47.1003 129.449 47.0332C129.042 47.1447 128.635 47.2566 128.228 47.3685Z" fill="#95E4FC"/>
<path fill-rule="evenodd" clip-rule="evenodd" d="M249.318 24.0181C249.279 23.7032 249.341 23.6099 249.661 23.6959C249.697 24.0009 249.616 24.0725 249.318 24.0181Z" fill="#95E4FC"/>
<path fill-rule="evenodd" clip-rule="evenodd" d="M113.055 4.26988L113.025 4.11719C113.114 4.18062 113.154 4.18606 113.055 4.26988Z" fill="#95E4FC"/>
<path fill-rule="evenodd" clip-rule="evenodd" d="M232.128 162.677C224.109 166.136 221.053 162.462 222.449 154.399C221.791 142.004 220.731 126.876 221.804 115.108C222.593 107.288 216.19 45.7004 225.744 50.5697C233.463 59.413 228.773 74.145 230.622 85.295C229.94 110.968 232.235 136.566 232.623 162.167C232.309 162.158 232.159 162.391 232.128 162.677Z" fill="#111010"/>
<path fill-rule="evenodd" clip-rule="evenodd" d="M222.46 163.576C231.082 161.565 238.96 170.206 233.885 177.374C226.714 188.462 211.846 176.64 218.207 166.261C213.52 162.851 218.862 162.787 222.46 163.576Z" fill="#32BEF4"/>
<path fill-rule="evenodd" clip-rule="evenodd" d="M217.869 111.309C212.813 113.997 207.384 107.146 211.948 116.708C212.339 112.776 216.249 116.599 213.65 118.345C210.745 121.388 212.461 125.285 207.378 122.598C205.749 128.102 206.278 116.787 202.826 121.525C199.008 119.881 206.18 117.683 206.767 116.395C205.616 114.341 206.76 113.029 207.648 111.573C206.027 105.867 215.652 110.445 217.869 111.309Z" fill="#95E4FC"/>
<path fill-rule="evenodd" clip-rule="evenodd" d="M186.446 143.622C186.459 145.168 190.212 140.888 188.646 145.029C188.567 145.241 189.358 146.117 189.737 146.113C192.441 146.083 192.785 147.962 193.047 149.959C191.039 152.317 189.417 148.544 187.067 149.757C183.066 151.128 187.268 157.125 183.59 157.505C182.248 155.43 180.793 155.411 179.237 157.266C176.333 149.451 176.41 151.827 183.236 153.388C183.746 148.473 178.567 142.731 186.446 143.622Z" fill="#111010"/>
<path fill-rule="evenodd" clip-rule="evenodd" d="M205.947 113.869C206.483 115.17 207.528 117.05 205.511 117.552C203.771 117.376 200 121.088 202.825 121.524C204.74 119.674 205.437 120.237 205.859 122.694C206.689 125.931 206.22 121.712 211.255 123.82C208.236 128.62 206.404 126.874 203.348 124.34C201.123 126.354 199.669 120.097 197.358 123.788C197.385 117.897 198.24 116.287 200.424 120.498C202.726 118.044 202.101 113.218 205.947 113.869Z" fill="#0341A7"/>
<path fill-rule="evenodd" clip-rule="evenodd" d="M221.621 134.77C225.505 150.237 211.893 141.616 220.359 137.685C217.17 133.784 214.115 133.176 219.779 129.242C222.536 126.237 221.106 130.596 221.38 132.65C220.581 133.053 218.798 131.47 218.978 133.848C219.155 136.186 220.809 134.266 221.621 134.77Z" fill="#95E4FC"/>
<path fill-rule="evenodd" clip-rule="evenodd" d="M175.867 106.347C166.591 103.815 176.179 96.401 181.648 96.9102C181.202 102.102 180.988 102.278 176.544 103.629C176.085 103.769 176.081 105.405 175.867 106.347Z" fill="#95E4FC"/>
<path fill-rule="evenodd" clip-rule="evenodd" d="M181.648 96.9095C179.878 96.3246 177.209 90.2569 180.798 91.8432C182.598 94.5295 193.718 100.996 187.235 102.972C188.34 99.8401 187.448 98.3345 184.534 98.4156C183.92 97.2471 183.359 95.9748 181.648 96.9095Z" fill="#0341A7"/>
<path fill-rule="evenodd" clip-rule="evenodd" d="M232.359 148.624C232.797 146.191 230.473 137.345 233.193 139.646C234.156 139.411 235.336 137.672 235.718 139.93C235.842 140.665 237.569 142.847 234.676 142.859C234.43 142.861 234.186 143.145 233.94 143.298C236.449 145.975 232.254 146.661 232.359 148.624Z" fill="#95E4FC"/>
<path fill-rule="evenodd" clip-rule="evenodd" d="M179.237 157.266C183.147 153.086 184.018 159.543 183.552 162.401C180.759 162.393 178.367 160.21 179.237 157.266Z" fill="#95E4FC"/>
<path fill-rule="evenodd" clip-rule="evenodd" d="M243.63 94.4671C246.678 93.681 249.333 92.5035 251.607 90.6748C251.523 94.603 246.963 99.1194 243.63 94.4671Z" fill="#95E4FC"/>
<path fill-rule="evenodd" clip-rule="evenodd" d="M198.943 90.9381C203.978 86.747 199.588 93.9175 203.078 92.4514C207.261 92.9493 202.553 99.9345 198.943 90.9381Z" fill="#95E4FC"/>
<path fill-rule="evenodd" clip-rule="evenodd" d="M181.211 128.254C185.104 128.093 186.262 129.53 185.472 133.543C182.993 133.786 180.064 130.702 181.211 128.254Z" fill="#111010"/>
<path fill-rule="evenodd" clip-rule="evenodd" d="M185.216 155.987C184.72 152.888 185.304 148.612 189.693 149.693C187.641 151.64 187.958 154.623 185.216 155.987Z" fill="#0341A7"/>
<path fill-rule="evenodd" clip-rule="evenodd" d="M255.673 50.1317C253.646 51.9444 251.076 51.6508 251.208 48.6967C253.411 45.9864 254.715 46.4517 255.673 50.1317Z" fill="#95E4FC"/>
<path fill-rule="evenodd" clip-rule="evenodd" d="M197.569 118.572C197.446 121.467 196.683 123.98 199.565 125.569C195.396 127.008 192.97 119.094 197.569 118.572Z" fill="#95E4FC"/>
<path fill-rule="evenodd" clip-rule="evenodd" d="M177.86 111.6C176.52 107.527 176.071 106.35 180.456 108.607C179.92 109.89 180.44 112.088 177.86 111.6Z" fill="#95E4FC"/>
<path fill-rule="evenodd" clip-rule="evenodd" d="M247.189 82.0693C249.315 82.1989 250.901 82.0163 252.206 83.5251C251.65 86.9105 248.318 84.1789 247.189 82.0693Z" fill="#95E4FC"/>
<path fill-rule="evenodd" clip-rule="evenodd" d="M258.643 53.7168C253.524 56.9146 255.156 51.7268 259.444 51.7916C260.758 52.3761 260.007 55.8254 258.643 53.7168Z" fill="#95E4FC"/>
<path fill-rule="evenodd" clip-rule="evenodd" d="M216 147.914C214.076 148.955 213.252 149.106 211.87 147.53C213.741 146.319 214.389 145.253 216 147.914Z" fill="#0341A7"/>
<path fill-rule="evenodd" clip-rule="evenodd" d="M215.748 136.576C213.975 138.623 212.683 138.511 210.574 137.196C212.74 135.633 213.477 133.094 215.748 136.576Z" fill="#95E4FC"/>
<path fill-rule="evenodd" clip-rule="evenodd" d="M217.869 111.309C216.287 109.993 217.537 105.93 219.979 109.16C223.368 110.989 220.25 111.81 217.869 111.309Z" fill="#0341A7"/>
<path fill-rule="evenodd" clip-rule="evenodd" d="M185.426 89.0057C187.185 94.3009 178.488 89.3151 182.522 86.0557C183.485 87.037 184.455 88.0216 185.426 89.0057Z" fill="#0341A7"/>
<path fill-rule="evenodd" clip-rule="evenodd" d="M238.802 70.6109C236.166 71.702 236.112 70.055 234.756 68.5304C237.054 67.2287 237.318 68.6989 238.802 70.6109Z" fill="#95E4FC"/>
<path fill-rule="evenodd" clip-rule="evenodd" d="M209.302 86.3765C208.189 86.7304 206.383 88.5681 205.845 86.7349C206.398 84.3109 210.139 83.0577 209.302 86.3765Z" fill="#95E4FC"/>
<path fill-rule="evenodd" clip-rule="evenodd" d="M246.451 61.6401C243.85 63.5349 243.443 62.8104 242.467 60.3012C243.552 58.3421 244.864 60.7407 246.451 61.6401Z" fill="#95E4FC"/>
<path fill-rule="evenodd" clip-rule="evenodd" d="M237.329 52.2283C234.693 50.1432 237.451 49.2828 238.793 47.6187C240.071 48.8189 237.709 50.7119 237.329 52.2283Z" fill="#95E4FC"/>
<path fill-rule="evenodd" clip-rule="evenodd" d="M184.534 98.4159C187.507 98.2999 188.278 99.9559 187.26 102.95C184.426 103.417 184.46 100.496 184.534 98.4159Z" fill="#95E4FC"/>
<path fill-rule="evenodd" clip-rule="evenodd" d="M209.352 100.832C206.533 104.357 207.068 100.36 207.271 97.9048C207.914 98.8091 208.557 99.7135 209.352 100.832Z" fill="#95E4FC"/>
<path fill-rule="evenodd" clip-rule="evenodd" d="M195.273 147C193.168 143.981 193.18 143.957 197.149 143.271C196.496 144.499 198.794 147.213 195.273 147Z" fill="#0341A7"/>
<path fill-rule="evenodd" clip-rule="evenodd" d="M202.597 147.32C202.84 145.102 205.532 145.383 206.354 147.002C205.132 147.314 203.798 148.015 202.597 147.32Z" fill="#95E4FC"/>
<path fill-rule="evenodd" clip-rule="evenodd" d="M232.493 156.953C232.311 155.009 232.129 153.064 231.946 151.122C232.127 153.067 232.31 155.01 232.493 156.953Z" fill="#95E4FC"/>
<path fill-rule="evenodd" clip-rule="evenodd" d="M185.426 89.0058C184.455 88.0217 183.485 87.0372 182.522 86.0558C185.457 86.0087 185.457 86.0087 185.426 89.0058Z" fill="#95E4FC"/>
<path fill-rule="evenodd" clip-rule="evenodd" d="M175.769 86.1919C176.766 87.5724 175.646 88.8556 174.55 89.7513C173.419 88.0187 174.407 87.2245 175.769 86.1919Z" fill="#95E4FC"/>
<path fill-rule="evenodd" clip-rule="evenodd" d="M183.818 159.679C182.163 159.127 183.49 158.246 183.584 157.503C185.407 157.104 184.039 158.655 183.818 159.679Z" fill="#0341A7"/>
<path fill-rule="evenodd" clip-rule="evenodd" d="M233.417 44.9837C233.827 43.9986 233.242 40.6834 234.637 41.5189C234.243 42.6448 233.878 43.9819 233.417 44.9837Z" fill="#95E4FC"/>
<path fill-rule="evenodd" clip-rule="evenodd" d="M221.137 115.807C221.822 116.883 220.91 117.272 220.134 117.92C220.468 117.216 220.803 116.512 221.137 115.807Z" fill="#0341A7"/>
<path fill-rule="evenodd" clip-rule="evenodd" d="M222.34 153.895C222.54 154.023 222.584 154.202 222.449 154.399C220.121 155.542 219.776 153.988 222.34 153.895Z" fill="#95E4FC"/>
<path fill-rule="evenodd" clip-rule="evenodd" d="M184.515 98.4561C184.575 99.6835 184.634 100.911 184.694 102.139C184.141 100.936 182.838 99.7686 184.515 98.4561Z" fill="#0341A7"/>
<path fill-rule="evenodd" clip-rule="evenodd" d="M233.445 45.0078C233.506 45.943 232.772 46.3802 232.169 46.9457C232.441 46.2049 232.575 45.2126 233.445 45.0078Z" fill="#95E4FC"/>
<path fill-rule="evenodd" clip-rule="evenodd" d="M211.668 114.708C211.838 114.071 212.007 113.434 212.177 112.797C212.274 113.697 213.137 115.15 211.668 114.708Z" fill="#95E4FC"/>
<path fill-rule="evenodd" clip-rule="evenodd" d="M200.425 120.496C199.403 120.936 199.369 120.625 199.533 119.638C199.832 119.926 200.128 120.211 200.425 120.496Z" fill="#95E4FC"/>
<path fill-rule="evenodd" clip-rule="evenodd" d="M238.176 144.062C238.115 144.455 237.95 144.364 237.674 144.252C237.735 143.85 237.897 143.947 238.176 144.062Z" fill="#95E4FC"/>
<path fill-rule="evenodd" clip-rule="evenodd" d="M221.821 148.406C221.967 148.878 222.113 149.35 222.259 149.818C222.113 149.345 221.967 148.876 221.821 148.406Z" fill="#95E4FC"/>
<path fill-rule="evenodd" clip-rule="evenodd" d="M178.269 85.6679C178.057 85.5084 177.845 85.3485 177.633 85.189C178.334 85.1374 179.03 84.8365 178.269 85.6679Z" fill="#95E4FC"/>
<path fill-rule="evenodd" clip-rule="evenodd" d="M186.484 103.014C186.75 103.088 187.009 103.067 187.26 102.95C187.001 102.971 186.743 102.993 186.484 103.014Z" fill="#0341A7"/>
<path fill-rule="evenodd" clip-rule="evenodd" d="M221.494 115.205C221.598 115.172 221.701 115.14 221.805 115.108C221.699 115.117 221.594 115.126 221.489 115.135C221.489 115.135 221.494 115.205 221.494 115.205Z" fill="#0341A7"/>
<path fill-rule="evenodd" clip-rule="evenodd" d="M202.692 147.413C202.55 147.524 202.408 147.635 202.266 147.746C202.415 147.626 202.529 147.206 202.692 147.413Z" fill="#95E4FC"/>
<path fill-rule="evenodd" clip-rule="evenodd" d="M232.128 162.677C232.139 162.339 232.37 162.204 232.63 162.138C232.459 162.314 232.292 162.494 232.128 162.677Z" fill="#95E4FC"/>
<path fill-rule="evenodd" clip-rule="evenodd" d="M353.103 175.247C360.164 161.827 395.62 90.1042 409.669 98.4278C395.239 108.333 387.357 129.107 376.687 143.934C369.248 150.339 359.628 190.286 353.103 175.247Z" fill="#111010"/>
<path fill-rule="evenodd" clip-rule="evenodd" d="M353.103 175.247C366.804 188.767 358.273 203.023 343.396 188.797C337.176 180.941 346.188 160.125 353.103 175.247Z" fill="#32BEF4"/>
<path fill-rule="evenodd" clip-rule="evenodd" d="M326.798 247.042C327.088 247.327 327.378 247.612 327.668 247.897C327.378 247.612 327.088 247.327 326.798 247.042Z" fill="#95E4FC"/>
<path fill-rule="evenodd" clip-rule="evenodd" d="M327.604 247.829C327.937 247.851 328.27 247.873 328.604 247.896C328.271 247.874 327.937 247.851 327.604 247.829Z" fill="#95E4FC"/>
<path fill-rule="evenodd" clip-rule="evenodd" d="M197.209 222.08C197.017 237.79 172.733 237.795 173.095 221.749C171.848 206.277 197.858 205.863 197.209 222.08Z" fill="#32BEF4"/>
<path fill-rule="evenodd" clip-rule="evenodd" d="M276.929 206.204C262.147 205.935 262.005 183.073 276.758 182.843C291.608 183.035 292.477 206.374 276.929 206.204Z" fill="#32BEF4"/>
<path fill-rule="evenodd" clip-rule="evenodd" d="M155.231 307.691C164.499 307.803 163.763 322.192 154.63 322.039C145.785 321.895 146.552 307.294 155.231 307.691Z" fill="#32BEF4"/>
<path fill-rule="evenodd" clip-rule="evenodd" d="M336.672 239.561C336.823 248.004 324.094 247.654 324.171 239.508C324.208 230.7 336.625 232.194 336.672 239.561Z" fill="#32BEF4"/>
<path fill-rule="evenodd" clip-rule="evenodd" d="M142.395 206.123C141.355 207.71 140.895 208.733 139.613 206.744C140.541 206.542 141.468 206.332 142.395 206.123Z" fill="#0341A7"/>
<path fill-rule="evenodd" clip-rule="evenodd" d="M147.865 197.898C145.018 199.669 143.521 195.903 145.349 193.973C145.945 194.902 146.541 195.831 147.865 197.898Z" fill="#95E4FC"/>
<path fill-rule="evenodd" clip-rule="evenodd" d="M137.703 206.176C135.753 204.434 138.813 204.467 140.151 204.394C139.375 205.044 138.563 205.641 137.703 206.176Z" fill="#0341A7"/>
<path fill-rule="evenodd" clip-rule="evenodd" d="M140.095 204.35C140.301 203.838 140.098 202.264 140.811 202.952C140.577 203.364 140.405 204.157 140.095 204.35Z" fill="#0341A7"/>
<path fill-rule="evenodd" clip-rule="evenodd" d="M243.448 239.819C243.984 244.371 236.906 244.61 237.012 240.235C236.348 235.99 243.405 235.919 243.448 239.819Z" fill="#32BEF4"/>
<path fill-rule="evenodd" clip-rule="evenodd" d="M164.136 20.2026C169.941 22.4286 201.27 18.6708 195.868 26.8625C190.854 29.0215 145.164 26.2463 164.136 20.2026Z" fill="#111010"/>
<path fill-rule="evenodd" clip-rule="evenodd" d="M172.199 34.7773C207.55 42.6356 167.1 40.6285 157.799 41.2284C151.543 35.5725 170.34 37.4157 172.199 34.7773Z" fill="#111010"/>
<path fill-rule="evenodd" clip-rule="evenodd" d="M250.544 14.945C246.125 16.0152 249.558 12.0276 246.285 11.1617C247.548 6.01472 253.895 11 250.544 14.945Z" fill="#95E4FC"/>
<path fill-rule="evenodd" clip-rule="evenodd" d="M253.102 13.7474C255.546 12.9364 258.834 13.2032 260.396 15.3459C258.149 16.7771 254.259 16.3082 253.102 13.7474Z" fill="#0341A7"/>
<path fill-rule="evenodd" clip-rule="evenodd" d="M253.102 13.7473C255.33 15.1537 253.392 20.7696 251.513 17.5129C250.325 15.7585 250.301 11.9594 253.102 13.7473Z" fill="#111010"/>
<path fill-rule="evenodd" clip-rule="evenodd" d="M253.862 17.5592C253.592 17.2166 253.323 16.8736 253.052 16.5307C254.112 16.4292 254.351 16.5515 253.862 17.5592Z" fill="#0341A7"/>
<path fill-rule="evenodd" clip-rule="evenodd" d="M145.943 106.039C150.262 102.505 150.108 107.254 153.769 106.923C151.171 111.077 148.574 107.34 145.943 106.039Z" fill="#111010"/>
<path fill-rule="evenodd" clip-rule="evenodd" d="M129.888 84.8522C129.72 82.8899 126.661 82.377 128.599 80.5955C131.122 77.8017 138.639 89.475 129.888 84.8522Z" fill="#111010"/>
<path fill-rule="evenodd" clip-rule="evenodd" d="M152.583 100.03C150.206 101.227 150.493 101.168 149.525 99.6392C150.101 98.0946 151.1 99.4579 152.583 100.03Z" fill="#95E4FC"/>
<path fill-rule="evenodd" clip-rule="evenodd" d="M133.524 149.906C134.801 147.299 138.03 147.333 140.343 148.396C139.701 150.843 135.519 150.888 133.524 149.906Z" fill="#32BEF4"/>
<path fill-rule="evenodd" clip-rule="evenodd" d="M137.343 141.783C138.968 140.168 141.344 140.691 143.424 140.347C142.655 143.257 139.269 143.117 137.343 141.783Z" fill="#0341A7"/>
<path fill-rule="evenodd" clip-rule="evenodd" d="M147.814 141.907C148.371 144.189 146.614 144.262 144.811 143.823C145.491 142.682 146.629 142.308 147.814 141.907Z" fill="#0341A7"/>
<path fill-rule="evenodd" clip-rule="evenodd" d="M126.453 126.588L127.034 127.119C126.871 126.947 126.123 126.719 126.453 126.588Z" fill="#0341A7"/>
<path fill-rule="evenodd" clip-rule="evenodd" d="M155.132 147.001C154.818 145.878 152.489 144.181 153.938 143.447C154.29 144.585 156.522 146.177 155.132 147.001Z" fill="#95E4FC"/>
<path fill-rule="evenodd" clip-rule="evenodd" d="M153.637 129.39C154.833 130.026 155.786 130.346 154.772 131.699C154.394 130.929 154.015 130.159 153.637 129.39Z" fill="#95E4FC"/>
<path fill-rule="evenodd" clip-rule="evenodd" d="M128.678 36.0267C129.119 32.4147 130.191 32.2982 133.202 32.5202C132.768 33.59 131.768 34.7014 132.098 35.9093C132.972 39.3826 129.028 38.8408 128.678 36.0267Z" fill="#111010"/>
<path fill-rule="evenodd" clip-rule="evenodd" d="M120.401 37.2945C119.654 38.4027 119.356 37.5174 118.646 37.0321C119.313 36.4241 119.764 36.9071 120.401 37.2945Z" fill="#111010"/>
<path fill-rule="evenodd" clip-rule="evenodd" d="M126.737 52.0531C126.786 53.3892 126.199 53.1187 125.175 52.768C125.439 51.7898 125.823 51.6466 126.737 52.0531Z" fill="#111010"/>
<path fill-rule="evenodd" clip-rule="evenodd" d="M163.921 161.098C162.944 163.347 161.724 160.732 160.467 159.989C161.871 158.831 163.048 159.209 163.921 161.098Z" fill="#0341A7"/>
<path fill-rule="evenodd" clip-rule="evenodd" d="M179.44 136.311C177.138 140.134 178 138.517 176.174 136.229C177.592 133.672 178.828 132.926 179.44 136.311Z" fill="#0341A7"/>
<path fill-rule="evenodd" clip-rule="evenodd" d="M182.585 147.694C183.279 151.436 184.264 154.492 179.425 152.682C180.513 151.335 182.516 150.091 179.972 148.285C180.726 147.933 181.743 147.926 182.585 147.694Z" fill="#95E4FC"/>
<path fill-rule="evenodd" clip-rule="evenodd" d="M126.497 120.993C126.645 120.809 126.793 120.625 126.941 120.441C126.793 120.757 126.878 121.557 126.497 120.993Z" fill="#111010"/>
<path fill-rule="evenodd" clip-rule="evenodd" d="M179.972 148.285C182.516 150.091 180.513 151.335 179.425 152.683C176.763 150.621 177.233 149.854 179.972 148.285Z" fill="#0341A7"/>
<path fill-rule="evenodd" clip-rule="evenodd" d="M139.816 152.429C139.544 152.549 139.509 152.504 139.539 152.223C139.783 152.156 139.859 152.145 139.816 152.429Z" fill="#95E4FC"/>
</svg>
