<svg width="287" height="223" viewBox="0 0 287 223" fill="none" xmlns="http://www.w3.org/2000/svg">
<g clip-path="url(#clip0)">
<path opacity="0.1" d="M266.147 182.983C265.251 183.914 264.336 184.818 263.4 185.696L262.92 186.144C259.583 189.204 256.078 192.001 252.431 194.518L251.749 194.988C251.585 195.105 251.418 195.217 251.249 195.324C247.438 197.924 243.484 200.318 239.483 202.585L239.441 202.612L239.138 202.78C235.912 204.608 232.636 206.357 229.313 208.028L229.233 208.063C227.735 208.809 226.236 209.535 224.738 210.242C224.126 210.537 223.511 210.811 222.897 211.092L219.413 212.621L219.268 212.686L219.018 212.789L218.706 212.925C215.657 214.212 212.568 215.4 209.437 216.49L209.382 216.508C207.2 217.26 205.003 217.955 202.791 218.595L202.489 218.683C199.242 219.61 195.943 220.407 192.624 221.045L191.86 221.189C189.432 221.64 186.988 222.008 184.527 222.293C170.693 223.872 156.694 222.588 142.945 220.386C115.182 215.935 87.7861 207.591 62.8005 194.512C58.0051 192.003 53.3031 189.317 48.6942 186.454C48.6568 186.431 48.6243 186.407 48.5868 186.386C45.8278 184.672 43.1063 182.887 40.4223 181.029L38.0771 179.391C37.1213 178.71 36.1698 178.021 35.2224 177.325L31.476 174.494L30.8916 174.034L30.6668 173.854L29.7227 173.098C17.9842 163.653 7.51688 152.206 2.5717 137.882C-3.14272 121.353 0.513712 100.396 14.6674 90.6261C19.5327 87.2612 25.1871 85.4341 30.9016 83.9258L31.486 83.7723L34.3807 83.0374L44.4908 80.4193C46.2391 79.9322 47.9699 79.4216 49.6907 78.8697L50.3951 78.6394C54.5451 77.3236 58.6039 75.6343 62.5357 73.5862H62.5607C62.9828 73.3648 63.3999 73.1346 63.8095 72.8985L64.6037 72.441C68.8496 69.9439 73.3452 66.4816 76.8043 62.3552C77.0815 62.0246 77.3513 61.6881 77.6135 61.3516L78.2079 60.5576C80.6331 57.2164 82.3114 53.5061 82.6311 49.5686C82.7388 48.2455 82.6883 46.9111 82.4813 45.6046C82.0891 43.1281 81.7095 40.7048 81.4298 38.3406C80.9078 33.8983 80.7305 29.6509 81.4548 25.557C82.1915 21.3833 83.8624 17.3661 87.0518 13.47C87.533 12.8796 88.0517 12.2893 88.6078 11.699C91.1871 9.02466 94.1057 6.8454 97.2569 5.24077C97.6465 5.04399 98.0386 4.84722 98.4332 4.65044C107.195 0.459098 117.722 -0.41459 127.557 0.163933C136.746 0.722792 145.877 2.22394 154.846 4.65044L156.976 5.24077C164.606 7.42502 172.113 10.1685 179.454 13.4552C198.531 21.9353 216.536 33.7094 233.357 46.7026L233.856 47.0863C234.559 47.6274 235.257 48.1705 235.952 48.7156C237.295 49.7684 238.627 50.828 239.948 51.8945L240.839 52.6118C241.279 52.966 241.716 53.3212 242.151 53.6773L243.489 54.7724C243.552 54.8172 243.612 54.8675 243.669 54.9229L244.808 55.8557L246.779 57.4938L248.187 58.6745L249.066 59.4183L250.565 60.7111L250.899 61.0063C250.97 61.0647 251.039 61.1257 251.107 61.1893L251.149 61.2217C255.21 64.7431 259.174 68.3943 262.888 72.2639L263.367 72.7656L263.417 72.8188L264.624 74.1086C269.474 79.3272 273.82 84.9353 277.371 91.1338C293.685 119.765 288.842 159.408 266.147 182.983Z" fill="#F1C40F"/>
<path d="M276.838 100.563C276.998 100.049 275.804 97.1978 275.804 97.0561C275.804 96.9144 274.555 95.3294 274.555 94.438C274.555 93.5466 272.924 91.6339 272.924 91.6339C272.924 91.6339 270.731 90.5566 270.491 88.2218C270.252 85.887 267.954 85.8369 267.864 85.8339C267.864 85.8339 267.864 85.6214 267.879 85.2967C267.879 84.5706 267.861 83.2748 267.584 82.5635C267.301 81.9178 266.815 81.4292 266.231 81.2028C266.231 81.2028 265.981 79.3816 265.511 78.8208C265.244 78.4903 265.054 78.0847 264.956 77.6425C264.859 77.2004 264.86 76.7363 264.957 76.2942C265.089 75.7983 264.974 74.8803 264.645 74.1129C264.395 73.5019 263.99 72.9795 263.481 72.8349H263.438C262.294 72.5072 261.013 72.0054 261.013 72.0054C261.013 72.0054 260.883 72.035 260.691 72.0674L260.531 72.0054C260.255 72.0661 259.977 72.1075 259.697 72.1294C259.452 72.1391 259.212 72.046 259.02 71.8667C258.62 71.3502 255.394 70.3702 254.797 70.3702C254.2 70.3702 252.484 69.4346 252.484 69.4346L250.773 67.8908C250.294 67.4599 249.404 65.7066 249.275 65.4469L249.255 65.4144C249.13 65.0799 249.025 64.7357 248.94 64.3843C248.922 64.3194 248.91 64.2544 248.892 64.1836C249.24 63.7535 249.558 63.2916 249.844 62.8022V62.7874C249.921 62.6605 249.994 62.5218 250.066 62.389C250.171 62.1922 250.271 61.9885 250.366 61.778L250.483 61.5035C250.568 61.4993 250.652 61.4825 250.733 61.4533L250.841 61.4061C250.939 61.3524 251.031 61.2839 251.115 61.2024L251.195 61.1168C251.42 60.8658 251.591 60.5553 251.695 60.2107C251.722 60.1103 251.747 60.007 251.767 59.9155C251.767 59.8801 251.782 59.8417 251.79 59.8092C251.797 59.7768 251.817 59.6676 251.827 59.5938L251.842 59.4757C251.842 59.4019 251.862 59.334 251.872 59.2661C251.882 59.1982 251.872 59.1835 251.872 59.1451C251.872 59.0595 251.892 58.968 251.899 58.8795C251.934 58.5459 251.964 58.2183 252.024 57.8936C252.026 57.8888 252.026 57.8837 252.024 57.8789C252.155 57.2534 252.353 56.6502 252.614 56.0843C252.864 55.5146 253.138 54.9538 253.363 54.3664C253.428 54.1981 253.49 54.027 253.545 53.8558C253.6 53.6846 253.655 53.478 253.705 53.2861C253.705 53.23 253.728 53.171 253.74 53.1119C253.773 52.973 253.8 52.8321 253.82 52.6899C253.833 52.6289 253.843 52.5669 253.85 52.5039C253.88 52.3091 253.9 52.1143 253.915 51.9136C253.996 50.7958 253.855 49.6712 253.505 48.6284C253.208 47.7429 252.756 46.9607 252.459 46.0841C252.002 44.7529 251.882 43.2475 251.323 41.9783C250.386 39.8531 248.176 38.7905 246.36 39.5904C245.496 39.9683 244.744 40.7091 243.862 41.0427C242.688 41.4884 241.427 41.1519 240.208 40.9512C238.99 40.7504 237.641 40.7357 236.662 41.6743C235.535 42.7576 235.226 44.7942 234.164 45.9808C233.907 46.2559 233.628 46.5029 233.333 46.7187C233.118 46.8928 232.901 47.064 232.698 47.2618C232.368 47.5708 232.114 47.9784 231.961 48.4424C231.951 48.4753 231.942 48.5088 231.934 48.5428C231.923 48.5823 231.913 48.6228 231.906 48.6638C231.906 48.7081 231.894 48.7553 231.889 48.8025C231.884 48.8498 231.889 48.8675 231.889 48.8999C231.885 48.9707 231.885 49.0417 231.889 49.1125V49.1479C231.889 49.2246 231.909 49.3043 231.921 49.384V49.449C231.921 49.4726 231.951 49.5818 231.971 49.6438C231.973 49.6565 231.973 49.6694 231.971 49.6821C231.992 49.7545 232.017 49.8254 232.044 49.8946C232.044 49.9271 232.066 49.9655 232.079 50.0009C232.093 50.0287 232.105 50.0584 232.114 50.0895C232.269 50.4343 232.393 50.7974 232.483 51.1727C232.532 51.4118 232.519 51.6627 232.446 51.8929C232.407 52.0076 232.353 52.1143 232.286 52.2087C232.199 52.3375 232.106 52.4598 232.006 52.5747C231.213 53.5498 230.6 54.7086 230.206 55.978C230.161 56.1226 230.118 56.2732 230.078 56.4178L230.131 56.4355L230.183 56.4503C230.28 56.485 230.38 56.5097 230.48 56.524C230.547 56.5373 230.613 56.5461 230.68 56.5506C230.953 56.5677 231.227 56.5419 231.494 56.4739C231.539 56.4649 231.583 56.4531 231.627 56.4385C231.641 56.4358 231.654 56.4309 231.667 56.4237H231.692C231.916 56.355 232.134 56.2652 232.346 56.1551C232.396 56.1285 232.448 56.1049 232.498 56.0754V56.3706V56.53V56.9048V57.1734C232.592 59.0318 233.079 60.8326 233.915 62.4103C234.751 63.988 235.91 65.292 237.284 66.2025C237.426 66.2999 237.566 66.3914 237.711 66.477L237.746 66.7722L237.773 67.026L237.663 66.905C237.57 66.857 237.468 66.8328 237.366 66.8342C237.2 66.8327 237.036 66.8826 236.892 66.9788C236.637 67.1522 236.423 67.3989 236.27 67.696C235.595 68.9151 234.317 69.467 234.317 69.467C234.317 69.467 227.074 70.8218 226.789 71.9435L223.402 72.1796C223.402 72.1796 222.206 72.3656 222.089 75.3113V75.3438V75.3792C222.071 75.7304 222.049 76.0433 222.021 76.3237V76.365C221.811 78.3279 221.337 78.5374 221.337 78.5374C221.337 78.5374 219.941 81.436 220.061 82.9324C220.062 82.9442 220.062 82.9561 220.061 82.9679V82.9679C220.077 83.1703 220.066 83.3745 220.028 83.573V83.573C219.87 84.2446 219.495 84.816 218.984 85.1639L218.827 87.8204C218.827 87.8204 217.513 87.5872 217.153 89.4113C216.794 91.2354 216.154 92.0678 216.154 92.0678C216.154 92.0678 213.964 94.2195 213.844 96.0407L212.488 97.0236C212.488 97.0236 209.344 96.1824 208.624 94.6859C208.624 94.6859 208.539 94.5856 208.404 94.4409L208.384 94.4055C208.384 94.4114 208.384 94.4173 208.384 94.4232C207.915 93.8978 206.913 92.7998 207.068 93.0507C207.161 93.2868 207.184 93.553 207.133 93.8063L206.898 93.5112L206.272 92.6847C206.272 92.6847 205.375 91.6929 204.114 90.5093C203.826 90.2378 203.522 89.9603 203.202 89.677C201.589 88.2631 199.648 86.8286 198.207 86.6131C198.177 86.5423 198.057 86.0081 197.775 86.0081C197.656 86.02 197.546 86.0843 197.465 86.1881C197.044 86.6456 196.707 87.201 196.476 87.8194C196.245 88.4378 196.124 89.106 196.122 89.782C196.119 90.4581 196.235 91.1275 196.461 91.7484C196.688 92.3692 197.02 92.9282 197.438 93.3901L197.765 93.7502L198.779 94.8719L202.201 98.65C202.243 98.6854 202.283 98.7238 202.325 98.7562L202.528 99.0514L202.685 99.2905L202.957 99.7008L203.349 100.291C203.329 100.353 203.307 100.412 203.289 100.471C203.142 100.896 203.015 101.309 202.91 101.687V101.729L202.837 102C202.837 102.03 202.82 102.062 202.812 102.092C202.787 102.18 202.767 102.269 202.745 102.348C202.722 102.428 202.72 102.452 202.71 102.502C202.7 102.552 202.693 102.564 202.685 102.593C202.603 102.934 202.53 103.278 202.465 103.624L202.201 103.526L202.45 103.659C202.451 103.676 202.451 103.692 202.45 103.709L202.435 103.804C202.513 103.848 202.595 103.889 202.685 103.93L202.742 103.96L203.722 104.471L204.363 104.807L204.993 105.135C207.55 106.481 211.134 108.414 211.389 108.801C211.786 109.412 214.416 111.186 216.809 109.686C219.201 108.187 219.713 105.896 219.713 105.896C219.713 105.896 222.026 102.112 222.106 101.551C222.166 101.121 223.235 100.633 223.729 100.43L223.777 100.412L223.977 100.335V100.657V100.672V101.05C223.977 102.366 223.962 105.229 223.612 107.31C223.611 107.316 223.611 107.322 223.612 107.328C223.533 107.866 223.4 108.391 223.215 108.892C222.298 111.183 220.588 121.33 220.588 121.33H220.628C220.726 121.309 220.827 121.303 220.927 121.313C220.892 121.502 220.87 121.649 220.852 121.75L220.827 121.9H220.857C220.953 121.879 221.05 121.872 221.147 121.879C221.18 121.881 221.212 121.886 221.244 121.894C221.244 121.953 221.229 122.024 221.219 122.107V122.151V122.181C221.219 122.192 221.204 122.272 221.199 122.322L220.393 128.406C220.393 128.406 220.143 130.835 219.753 131.676C219.586 132.033 219.484 133.022 219.419 134.037C219.419 134.185 219.401 134.332 219.391 134.486C219.326 135.737 219.316 136.909 219.316 136.909L219.299 136.986L218.712 140.132C218.721 140.162 218.732 140.19 218.744 140.218V140.218C218.787 140.312 218.854 140.475 218.952 140.676L218.982 140.752C219.335 141.603 219.802 142.38 220.365 143.055C220.496 143.208 220.636 143.349 220.785 143.477V143.477C220.785 143.512 220.772 143.55 220.767 143.58C220.762 143.609 220.752 143.692 220.745 143.745C220.694 144.152 220.599 144.548 220.463 144.926C220.306 145.333 220.209 145.768 220.175 146.213V146.213C220.145 146.53 220.137 146.85 220.15 147.169L220.118 147.343C220.031 147.824 219.781 149.235 219.646 150.384C219.613 150.633 219.587 150.884 219.566 151.136C219.549 151.355 219.549 151.575 219.566 151.794C219.581 152.163 219.565 152.533 219.516 152.898C219.516 153.005 219.496 153.114 219.484 153.223C219.349 154.262 219.126 155.351 219.126 155.351L218.41 163.483V163.628V163.796V163.964C218.41 164.026 218.41 164.097 218.395 164.177C218.395 164.368 218.37 164.596 218.352 164.861C218.352 164.956 218.347 165.054 218.337 165.157C218.337 165.245 218.337 165.34 218.322 165.437V165.59C218.322 165.644 218.322 165.744 218.31 165.824C218.297 165.903 218.31 165.974 218.31 166.048V166.257L218.245 167.636V167.866V168.09C218.245 168.241 218.245 168.386 218.227 168.545V168.84V169.253V169.354V169.614V170.189V170.44C218.227 170.708 218.227 170.961 218.227 171.201V171.55C218.233 171.864 218.253 172.177 218.287 172.488C218.316 172.727 218.335 172.968 218.345 173.209V173.551C218.347 173.608 218.347 173.665 218.345 173.722V173.896V174.132V174.498V174.643V174.903V175.045C218.282 176.06 218.165 176.883 218.147 177.013V177.09V177.161V177.241V177.291C218.147 177.365 218.162 177.459 218.17 177.562V177.71C218.17 177.763 218.17 177.822 218.185 177.881C218.2 177.94 218.185 177.937 218.185 177.97C218.185 178.076 218.2 178.185 218.21 178.3L218.24 178.663L218.255 178.896C218.255 179.009 218.275 179.127 218.282 179.242V179.36C218.282 179.44 218.297 179.516 218.302 179.599L218.325 179.962C218.325 180.042 218.34 180.124 218.345 180.204C218.35 180.284 218.345 180.287 218.345 180.328L218.377 180.806C218.377 180.886 218.377 180.963 218.39 181.042C218.39 181.166 218.405 181.293 218.415 181.411C218.425 181.529 218.415 181.683 218.432 181.807C218.45 181.931 218.445 182.055 218.447 182.167C218.476 182.5 218.476 182.835 218.447 183.167C218.382 183.504 218.172 184.446 218.053 185.467C218.053 185.558 218.03 185.65 218.023 185.744C218.015 185.839 218.023 185.853 218.023 185.91L218.008 186.131C218.008 186.308 217.99 186.488 217.99 186.662C217.979 187.06 218.017 187.458 218.102 187.843C218.16 188.099 218.201 188.359 218.227 188.622C218.227 188.663 218.227 188.708 218.24 188.752C218.24 188.846 218.257 188.944 218.265 189.047C218.272 189.15 218.277 189.248 218.282 189.342C218.282 189.549 218.297 189.761 218.305 189.977V190.405C218.315 191.331 218.299 192.257 218.257 193.182V193.206V193.259C218.257 193.259 218.507 198.498 218.774 200.178C218.809 200.399 218.834 200.624 218.852 200.854C218.852 200.939 218.852 201.025 218.864 201.111C218.899 202.083 218.842 203.057 218.694 204.015C218.694 204.015 218.415 207.613 218.297 207.613C218.24 207.613 217.98 208.168 217.94 209.006V209.03C217.905 209.965 218.147 211.252 219.251 212.525L219.371 212.663L219.516 212.598L223 211.069L224.841 210.219C226.353 209.513 227.851 208.787 229.337 208.041C229.302 208.019 229.271 207.989 229.246 207.952C229.222 207.916 229.204 207.874 229.194 207.828C228.964 207.105 229.307 204.877 229.376 204.534C229.446 204.192 230.093 196.91 230.093 196.91C230.093 196.91 229.844 194.623 230.173 193.643C230.503 192.663 229.774 188.87 229.774 188.87C229.774 188.87 229.524 188.404 229.973 187.843C230.423 187.282 230.253 182.279 230.253 182.279L230.213 179.097C230.213 178.442 230.693 176.057 231.127 175.26C231.562 174.463 231.29 171.984 231.29 171.984L231.315 171.795C231.315 171.724 231.335 171.635 231.35 171.532L231.387 171.281C231.576 169.911 231.835 168.556 232.161 167.223C232.681 165.26 233.278 161.8 233.278 161.8L236.762 150.758L236.877 150.416L236.919 150.28C236.919 150.28 238.63 154.023 238.63 157.482C238.63 157.482 239.07 161.644 238.952 162.766C238.835 163.887 239.309 169.171 239.309 169.171L239.824 177.072C239.824 177.397 240.463 183.227 240.863 184.112C241.262 184.997 240.463 187.713 240.226 187.993C239.989 188.274 240.306 195.148 240.306 195.148L239.587 201.692L239.492 202.578C243.488 200.311 247.446 197.917 251.258 195.316L251.757 194.98L251.785 188.271C251.785 188.271 252.064 185.139 251.745 183.873C251.425 182.607 251.108 180.183 251.547 179.528C251.987 178.873 251.587 175.836 251.587 175.836C251.587 175.836 251.587 169.428 252.184 167.84C252.781 166.252 252.584 156.198 252.584 156.198L252.741 149.604C252.741 149.604 254.012 148.182 253.74 140.811V140.56C255.129 140.457 256.695 140.398 256.932 140.628C257.312 140.988 259.45 142.624 261.106 142.216C261.379 142.155 261.639 142.027 261.87 141.841C262.229 141.653 263.868 140.017 263.868 140.017L263.233 127.405L263.166 126.003C263.286 126.218 263.391 126.41 263.481 126.593C263.614 126.831 263.743 127.072 263.868 127.316C263.868 125.354 268.571 118.996 268.571 118.996C268.571 118.996 272.954 112.31 273.908 111.513C274.862 110.716 276.738 106.51 276.738 106.51C277.014 105.708 277.334 104.927 277.694 104.173C278.119 103.322 276.678 101.076 276.838 100.563V100.563ZM262.814 109.539C262.727 110.003 262.545 110.436 262.284 110.799L262.224 109.934V109.857C261.945 105.743 261.645 100.766 261.782 100.279C261.895 99.8897 261.935 98.8566 261.947 97.8648C261.965 96.7344 261.947 95.657 261.947 95.657L261.992 95.5832C262.796 98.5349 265.291 101.976 265.291 101.976C265.291 101.976 265.731 103.473 266.248 103.52C266.765 103.567 266.565 105.483 266.565 105.483C266.325 105.529 266.094 105.629 265.886 105.778C265.64 105.946 265.405 106.134 265.182 106.342V106.342C264.038 107.369 262.841 109.06 262.814 109.539V109.539Z" fill="url(#paint0_linear)"/>
<path d="M202.692 104.418C202.692 104.418 204.146 95.415 208.816 95.3678L212.233 103.674L209.935 105.518C209.935 105.518 205 105.704 202.692 104.418V104.418Z" fill="#65617D"/>
<path opacity="0.1" d="M212.223 103.662L209.935 105.518C209.935 105.518 206.454 105.648 203.966 104.928C203.528 104.808 203.102 104.637 202.692 104.418C202.692 104.418 202.692 104.367 202.717 104.273C202.716 104.261 202.716 104.249 202.717 104.237C202.932 103.108 203.228 102.002 203.601 100.932L204.084 99.6949C204.768 98.1394 205.729 96.6134 207.046 95.8577C207.532 95.5761 208.061 95.4125 208.602 95.3766H208.741H208.809L208.886 95.5596L210.04 98.3666L212.223 103.662Z" fill="black"/>
<path d="M251.015 141.062C251.015 141.062 255.923 140.507 256.355 140.924C256.787 141.34 259.574 143.477 261.225 142.131C262.876 140.785 261.774 136.098 261.774 135.912C261.774 135.726 261.617 129.09 261.617 129.09L258.672 124.403L254.981 116.192L247.443 115.306L247.638 128.347L247.601 135.029L251.015 141.062Z" fill="#65617D"/>
<path opacity="0.1" d="M251.015 141.062C251.015 141.062 255.923 140.507 256.355 140.924C256.787 141.34 259.574 143.477 261.225 142.131C262.876 140.785 261.774 136.098 261.774 135.912C261.774 135.726 261.617 129.09 261.617 129.09L258.672 124.403L254.981 116.192L247.443 115.306L247.638 128.347L247.601 135.029L251.015 141.062Z" fill="black"/>
<path d="M207.825 95.1257C207.825 95.1257 207.438 100.787 204.441 100.876C204.441 100.876 203.597 100.285 202.458 99.2669C199.835 96.9499 195.677 92.4929 196.826 88.3458C198.474 82.4071 206.484 93.3636 206.484 93.3636L207.101 94.1783L207.825 95.1257Z" fill="#A5636D"/>
<path opacity="0.1" d="M207.825 95.1257C207.825 95.1257 207.437 100.787 204.44 100.876C204.44 100.876 203.596 100.285 202.457 99.2669L202.208 98.8802C202.714 99.1939 203.272 99.3723 203.843 99.4027C204.593 99.4204 205.437 99.1075 205.979 97.8117C206.292 97.0831 206.568 96.3331 206.806 95.5655C206.947 95.115 207.047 94.648 207.105 94.1723L207.825 95.1257Z" fill="black"/>
<path d="M206.528 105.38L205.857 104.358L203.609 100.92L202.442 99.1636C202.948 99.4759 203.506 99.6533 204.076 99.6831C204.825 99.7037 205.669 99.3879 206.211 98.0921C206.525 97.3641 206.802 96.614 207.038 95.8459C207.41 94.5944 207.403 93.951 207.27 93.7325C207.138 93.5141 208.104 94.5738 208.569 95.0962L208.586 95.1139L208.801 95.3559L208.884 95.5449L210.02 98.2338V98.346C210.125 99.199 210.507 104.612 206.528 105.38V105.38Z" fill="#E7EFFD"/>
<path d="M229.321 208.02C229.25 207.948 229.171 207.887 229.087 207.837H229.067C228.597 207.604 229.027 204.726 229.107 204.354C229.186 203.983 229.813 196.804 229.813 196.804C229.813 196.804 229.579 194.534 229.893 193.557C230.208 192.58 229.499 188.835 229.499 188.835C229.499 188.835 229.264 188.371 229.696 187.813C230.128 187.256 229.971 182.291 229.971 182.291L229.933 179.136C229.933 178.483 230.403 176.122 230.835 175.331C231.267 174.54 230.992 172.084 230.992 172.084L231.015 171.895C231.027 171.827 231.037 171.739 231.05 171.635L231.087 171.387C231.087 171.328 231.105 171.266 231.115 171.199L231.19 170.714C231.204 170.608 231.222 170.496 231.242 170.384L231.439 169.242L231.512 168.867L231.604 168.418L231.664 168.147C231.721 167.875 231.784 167.612 231.851 167.361C232.351 165.41 232.953 161.978 232.953 161.978L236.602 150.649L236.644 150.513L236.759 150.776C237.139 151.682 238.33 154.767 238.33 157.656C238.33 157.656 238.765 161.789 238.645 162.899C238.525 164.008 238.999 169.256 238.999 169.256L239.499 177.096C239.499 177.421 240.128 183.224 240.52 184.103C240.913 184.983 240.128 187.678 239.891 187.94C239.654 188.203 239.971 195.042 239.971 195.042L239.262 201.536L239.134 202.793L239.436 202.625L239.479 202.598C243.475 200.331 247.434 197.938 251.245 195.337L251.277 188.221C251.277 188.221 251.552 185.11 251.24 183.858C250.928 182.607 250.611 180.192 251.04 179.54C251.47 178.888 251.083 175.877 251.083 175.877C251.083 175.877 251.083 169.519 251.67 167.943C252.256 166.367 252.064 156.387 252.064 156.387L252.219 149.846C252.219 149.846 253.5 148.403 253.198 140.87C253.162 139.995 253.111 139.12 253.046 138.246L252.409 130.602L252.356 130.038L252.291 129.306L252.154 127.857L252.114 127.455C252.049 126.794 251.988 126.184 251.932 125.625L251.867 124.988L251.777 124.123C251.777 124.058 251.762 123.993 251.754 123.928C251.754 123.81 251.732 123.698 251.719 123.588L251.512 121.726H251.477L247.529 121.767L238.909 121.865H238.657L234.162 121.915H233.887L231.729 121.941H231.362L226.866 121.992H226.594L224.748 130.982L220.979 141.192C220.979 141.192 220.922 142.311 220.79 143.403V143.468C220.79 143.506 220.79 143.542 220.775 143.574C220.76 143.607 220.76 143.686 220.752 143.739C220.7 144.235 220.593 144.72 220.435 145.183C220.31 145.506 220.226 145.849 220.185 146.201V146.201C220.136 146.575 220.117 146.953 220.128 147.332V147.332V147.394C220.128 147.394 219.828 149.002 219.653 150.372C219.621 150.622 219.594 150.873 219.573 151.124C219.539 151.411 219.528 151.7 219.538 151.989C219.552 152.285 219.543 152.581 219.511 152.875C219.511 152.981 219.491 153.09 219.478 153.199C219.356 154.286 219.109 155.502 219.109 155.502L218.399 163.577C218.4 163.586 218.4 163.595 218.399 163.604V163.772V163.94C218.399 164.002 218.399 164.073 218.385 164.153C218.385 164.345 218.36 164.572 218.342 164.838C218.342 164.932 218.337 165.031 218.327 165.133C218.327 165.221 218.327 165.316 218.312 165.413V165.567C218.312 165.62 218.312 165.72 218.3 165.8C218.287 165.88 218.3 165.951 218.3 166.024V166.234L218.237 167.612V167.843V168.067C218.237 168.217 218.237 168.362 218.22 168.521V168.817V169.23V169.354V169.614V170.189V170.44C218.22 170.708 218.22 170.961 218.22 171.202V171.55C218.223 171.88 218.243 172.209 218.28 172.536C218.305 172.754 218.325 172.978 218.337 173.209V173.551V173.896V174.133V174.499V174.643V174.903V175.045C218.275 176.06 218.157 176.883 218.14 177.013V177.09V177.161V177.241V177.291C218.14 177.365 218.155 177.459 218.162 177.562V177.71C218.162 177.763 218.162 177.822 218.177 177.881C218.192 177.94 218.177 177.937 218.177 177.97C218.177 178.076 218.192 178.185 218.202 178.3L218.232 178.663L218.247 178.896C218.247 179.009 218.267 179.127 218.275 179.242V179.36C218.275 179.44 218.29 179.516 218.295 179.599L218.317 179.962C218.317 180.042 218.332 180.124 218.337 180.204V180.328L218.37 180.806C218.37 180.886 218.37 180.963 218.382 181.042C218.382 181.166 218.397 181.293 218.407 181.411C218.417 181.529 218.407 181.683 218.424 181.807C218.442 181.931 218.437 182.055 218.439 182.167C218.465 182.489 218.465 182.813 218.439 183.135C218.275 183.904 218.145 184.682 218.05 185.467C218.05 185.558 218.027 185.65 218.02 185.744C218.012 185.839 218.02 185.853 218.02 185.91L218.005 186.131C218.005 186.308 217.987 186.488 217.987 186.662C217.981 187.038 218.019 187.412 218.1 187.775C218.167 188.097 218.213 188.425 218.237 188.755C218.257 188.944 218.27 189.145 218.28 189.345C218.29 189.546 218.295 189.764 218.302 189.98V190.408C218.317 191.81 218.252 193.15 218.252 193.15C218.252 193.162 218.252 193.174 218.252 193.185V193.209C218.277 193.799 218.502 198.454 218.752 200.018C218.795 200.296 218.824 200.575 218.839 200.857C218.839 200.942 218.839 201.028 218.852 201.114C218.87 202.022 218.81 202.931 218.674 203.826C218.674 203.826 218.307 207.43 218.19 207.43C218.13 207.43 217.83 208.085 217.838 209.045V209.068C217.838 209.971 218.132 211.134 219.134 212.315L219.414 212.646L222.898 211.117L224.738 210.267C226.25 209.56 227.749 208.834 229.234 208.088L229.321 208.02Z" fill="#3F3D56"/>
<path d="M249.916 68.5816L244.104 75.9164C244.104 75.9164 236.646 72.3744 237.431 71.1938C237.735 70.7274 237.68 69.2545 237.511 67.6282C237.236 65.0573 236.646 62.0968 236.646 62.0968C236.646 62.0968 249.681 59.5909 248.58 62.1913C248.18 63.1387 248.248 64.2574 248.497 65.2728C248.818 66.458 249.297 67.575 249.916 68.5816V68.5816Z" fill="#A5636D"/>
<path opacity="0.1" d="M248.58 62.1794C248.18 63.1269 247.988 63.2184 248.238 64.2456C246.534 66.4062 244.366 68.7705 241.672 68.7705C240.228 68.7736 238.803 68.3795 237.511 67.6193C237.236 65.0484 236.646 62.0879 236.646 62.0879C236.646 62.0879 249.681 59.579 248.58 62.1794Z" fill="black"/>
<path d="M251.017 57.445C251.017 63.5449 246.833 68.4901 241.672 68.4901C236.51 68.4901 232.326 63.5449 232.326 57.445V57.2856C232.438 51.2501 236.629 46.4389 241.737 46.4825C246.845 46.5262 250.977 51.4083 251.015 57.445H251.017Z" fill="#A5636D"/>
<path opacity="0.1" d="M252.369 130.303L242.403 130.442H242.346L240.825 130.472H240.777C235.315 130.575 229.933 129.315 227.773 129.554C223.177 130.064 229.421 124.536 229.421 124.536C232.844 125.517 236.365 125.939 239.886 125.787L241.207 125.705C245.38 125.427 249.576 124.964 251.769 124.185L252.369 130.303V130.303Z" fill="black"/>
<path d="M252.369 130.026L242.403 130.165H242.346L240.825 130.194H240.777C235.315 130.298 229.933 129.037 227.773 129.276C223.177 129.784 229.421 124.259 229.421 124.259C232.844 125.24 236.366 125.66 239.886 125.507L241.207 125.427C245.38 125.15 249.576 124.684 251.769 123.907L252.369 130.026V130.026Z" fill="#5F5D7E"/>
<path opacity="0.1" d="M239.157 71.6542L231.931 75.6449L226.359 126.584C226.359 126.584 229.656 124.813 231.542 125.935C233.427 127.057 239.237 126.029 239.237 126.029C239.237 126.029 243.483 125.734 244.105 126.307C244.726 126.88 252.117 123.987 252.117 123.987C252.117 123.987 253.45 120.46 252.429 119.905C251.407 119.35 252.744 113.863 252.744 113.863L252.117 77.1118L250.868 72.3892L247.491 69.9777L244.037 73.2245L242.389 73.5049L239.157 71.6542Z" fill="black"/>
<path d="M239.157 71.0875L231.934 75.0781L226.359 126.029C226.359 126.029 229.656 124.259 231.542 125.38C233.427 126.502 239.237 125.472 239.237 125.472C239.237 125.472 243.483 125.194 244.105 125.749C244.726 126.304 252.117 123.429 252.117 123.429C252.117 123.429 253.45 119.905 252.429 119.347C251.407 118.789 252.744 113.314 252.744 113.314L252.117 76.5628L250.868 71.8402L247.491 69.4257L244.037 72.6725L242.389 72.95L239.157 71.0875Z" fill="#E7EFFD"/>
<path opacity="0.1" d="M239.039 73.4547C239.039 73.4547 241.122 76.3769 241.082 76.9819L240.965 79.0215L239.406 82.7819C239.406 82.7819 238.542 87.4692 238.542 88.4432C238.542 89.4172 237.168 97.8619 237.168 97.8619L235.52 110.849L233.437 127.88L235.557 132.195L238.07 129.69L241.404 99.3466L242.111 93.3606L242.86 81.4832C242.86 80.3704 242.428 77.4454 242.428 77.4454C242.428 77.4454 242.94 74.6619 245.061 74.0126C247.181 73.3632 244.903 73.8709 244.903 73.8709L243.687 72.7109L242.626 73.2215C242.626 73.2215 239.668 72.156 239.039 73.4547V73.4547Z" fill="black"/>
<path d="M238.805 73.1773C238.805 73.1773 240.885 76.0994 240.848 76.7015L240.728 78.7441L239.157 82.5045C239.157 82.5045 238.293 87.1887 238.293 88.1628C238.293 89.1368 236.919 97.5844 236.919 97.5844L235.268 110.572L233.188 127.6L235.308 131.915L237.82 129.409L241.155 99.0691L241.862 93.0832L242.611 81.2028C242.611 80.0871 242.179 77.1679 242.179 77.1679C242.179 77.1679 242.678 74.3815 244.809 73.7322C246.939 73.0828 244.654 73.5935 244.654 73.5935L243.435 72.4335L242.376 72.9441C242.376 72.9441 239.434 71.8756 238.805 73.1773V73.1773Z" fill="#F39C12"/>
<path opacity="0.1" d="M237.431 68.3041C237.431 68.3041 237.116 68.5815 237.039 70.4381C236.961 72.2947 235.86 76.4713 235.86 76.4713C235.86 76.4713 239.943 73.13 241.986 73.5019L237.431 68.3041Z" fill="black"/>
<path d="M237.431 67.7462C237.431 67.7462 237.116 68.0266 237.039 69.8803C236.961 71.7339 235.86 75.9135 235.86 75.9135C235.86 75.9135 239.943 72.5722 241.986 72.9441L237.431 67.7462Z" fill="#E7EFFD"/>
<path opacity="0.1" d="M248.583 66.8194L242.154 73.502C242.154 73.502 247.574 77.3066 248.28 78.2246C248.987 79.1425 249.694 69.1306 249.694 69.1306L248.583 66.8194Z" fill="black"/>
<path d="M248.817 66.2616L242.378 72.9441C242.378 72.9441 247.796 76.7488 248.503 77.6667C249.209 78.5847 249.916 68.5698 249.916 68.5698L248.817 66.2616Z" fill="#E7EFFD"/>
<path opacity="0.1" d="M237.658 68.3041C237.658 68.3041 236.951 67.885 236.284 69.0922C235.618 70.2994 234.361 70.8632 234.361 70.8632C234.361 70.8632 227.213 72.2091 226.938 73.3219L223.602 73.5521C223.602 73.5521 222.423 73.7204 222.313 76.672C222.203 79.6237 221.564 79.8716 221.564 79.8716C221.564 79.8716 220.188 82.7495 220.315 84.2342C220.442 85.7188 219.253 86.4627 219.253 86.4627L224.171 101.528C224.171 101.528 224.329 107.747 223.422 110.02C222.515 112.293 220.829 122.364 220.829 122.364C220.829 122.364 221.536 122.178 221.496 122.735C221.456 123.293 220.632 129.371 220.632 129.371C220.632 129.371 220.397 131.782 220.005 132.618C219.613 133.453 219.573 137.815 219.573 137.815L218.926 140.971C218.926 140.971 220.425 144.914 222.698 144.356C224.97 143.798 229.096 133.267 229.096 133.267L231.726 121.9L233.769 110.669L234.359 103.06L235.3 86.2147L236.674 75.0781C236.674 75.0781 238.215 69.0922 237.658 68.3041V68.3041Z" fill="black"/>
<path d="M237.431 67.7463C237.431 67.7463 236.724 67.3301 236.057 68.5373C235.39 69.7445 234.132 70.3083 234.132 70.3083C234.132 70.3083 226.986 71.6542 226.711 72.767L223.375 73.0002C223.375 73.0002 222.196 73.1861 222.078 76.1083C221.961 79.0304 221.329 79.3108 221.329 79.3108C221.329 79.3108 219.955 82.1887 220.08 83.6734C220.205 85.158 219.021 85.8989 219.021 85.8989L223.922 100.97C223.922 100.97 224.079 107.189 223.172 109.462C222.266 111.735 220.582 121.806 220.582 121.806C220.582 121.806 221.289 121.62 221.249 122.178C221.209 122.735 220.385 128.813 220.385 128.813C220.385 128.813 220.15 131.224 219.758 132.06C219.366 132.895 219.326 137.258 219.326 137.258L218.702 140.428C218.702 140.428 220.2 144.371 222.47 143.816C224.741 143.261 228.872 132.724 228.872 132.724L231.502 121.357L233.545 110.141L234.132 102.531L235.076 85.6893L236.449 74.5528C236.449 74.5528 237.98 68.5373 237.431 67.7463V67.7463Z" fill="#65617D"/>
<path opacity="0.1" d="M212.223 103.662L209.935 105.518C209.935 105.518 206.453 105.648 203.966 104.928L202.697 104.264L202.447 104.131L202.71 104.229C204.023 104.689 205.05 104.68 205.851 104.361C209.076 103.08 208.719 96.7905 208.599 95.3678C208.599 95.2261 208.579 95.1346 208.574 95.0992C208.573 95.0933 208.573 95.0873 208.574 95.0815L208.594 95.1169C208.637 95.2035 208.686 95.2855 208.741 95.3619C208.786 95.4254 208.835 95.4856 208.886 95.5419L210.022 98.2309V98.343L212.223 103.662Z" fill="black"/>
<path d="M220.115 85.527L219.016 85.8989L218.859 88.5553C218.859 88.5553 217.563 88.3251 217.21 90.1345C216.858 91.9438 216.229 92.791 216.229 92.791C216.229 92.791 214.069 94.925 213.951 96.7344L212.615 97.7084C212.615 97.7084 209.513 96.8731 208.806 95.3884C208.806 95.3884 210.22 107.36 202.682 104.438C202.682 104.438 211.124 108.801 211.516 109.403C211.908 110.005 214.501 111.764 216.856 110.288C219.211 108.813 219.723 106.484 219.723 106.484C219.723 106.484 222.001 102.726 222.078 102.168C222.156 101.61 223.924 100.961 223.924 100.961L227.301 91.3122L220.115 85.527Z" fill="#65617D"/>
<path opacity="0.1" d="M247.679 72.3862L248.818 66.2616C248.818 66.2616 249.317 68.2569 249.839 68.7203L251.527 70.2522C251.527 70.2522 253.216 71.182 253.803 71.182C254.39 71.182 257.574 72.156 257.966 72.6578C258.358 73.1596 259.929 72.7965 259.929 72.7965C259.929 72.7965 261.225 73.3072 262.364 73.6318C263.503 73.9565 264.053 76.185 263.815 77.0646C263.721 77.5032 263.721 77.9629 263.817 78.4011C263.914 78.8392 264.102 79.2415 264.365 79.5705C264.837 80.1284 265.072 81.9319 265.072 81.9319C265.65 82.1544 266.13 82.6382 266.408 83.2778C266.8 84.2991 266.683 86.5246 266.683 86.5246L260.833 96.2651C260.833 96.2651 260.911 100.023 260.676 100.858C260.441 101.693 261.5 115.894 261.5 115.894L262.716 140.301C262.716 140.301 261.108 141.924 260.753 142.11C260.399 142.296 260.047 133.479 260.047 133.155C260.047 132.83 250.978 117.098 250.978 117.098C250.978 117.098 249.759 114.778 249.759 114.267C249.759 113.757 248.62 109.072 248.62 109.072L246.899 100.043L247.679 72.3862Z" fill="black"/>
<path d="M267.169 86.0081L267.154 86.5394L261.308 96.2798C261.308 96.2798 261.388 100.04 261.153 100.876C261.015 101.36 261.315 106.354 261.592 110.454L261.977 115.908L262.491 126.263L263.191 140.318C263.191 140.318 261.582 141.942 261.23 142.128C260.878 142.314 260.523 133.497 260.523 133.169C260.523 132.842 251.447 117.11 251.447 117.11C251.447 117.11 250.231 114.787 250.231 114.276C250.231 113.765 249.092 109.078 249.092 109.078L247.366 100.031L248.15 72.3744L248.817 66.2497C248.817 66.2497 249.799 68.248 250.316 68.7084L252.002 70.2404C252.002 70.2404 253.69 71.1701 254.279 71.1701C254.869 71.1701 258.048 72.1442 258.443 72.6459C258.838 73.1477 260.406 72.7847 260.406 72.7847C260.406 72.7847 261.7 73.2953 262.839 73.62C263.977 73.9447 264.527 76.1732 264.292 77.0528C264.197 77.4913 264.197 77.9512 264.293 78.3895C264.389 78.8278 264.578 79.2301 264.842 79.5587C265.311 80.1136 265.548 81.92 265.548 81.92C266.126 82.1434 266.606 82.627 266.885 83.266C267.152 83.998 267.177 85.2849 267.169 86.0081V86.0081Z" fill="#65617D"/>
<path opacity="0.1" d="M224.738 210.243L222.898 211.093C220.972 210.429 219.174 209.647 219.174 209.647C221.036 209.726 222.894 209.925 224.738 210.243V210.243ZM243.32 185.47C243.32 185.47 247.993 186.769 248.268 187.651L243.32 185.47ZM225.298 189.46C225.298 189.46 222.863 190.296 225.22 191.966C227.578 193.637 225.298 189.46 225.298 189.46ZM236.095 144.855C236.37 144.855 240.65 143.184 242.141 143.928C243.632 144.672 245.481 144.669 245.481 144.669L236.095 144.855ZM236.659 150.168L236.617 150.629L232.955 161.945C232.955 161.945 232.366 165.378 231.854 167.326C231.533 168.65 231.278 169.996 231.09 171.355L234.337 147.606L236.659 150.168Z" fill="black"/>
<path d="M242.346 130.165L240.825 130.194H240.777L239.886 125.516L241.207 125.433L242.346 130.165Z" fill="#3F3D56"/>
<path d="M260.87 124.489L259.894 125.442L256.639 128.621C256.639 128.621 247.805 134.191 245.373 128.898C243.227 124.238 253.243 120.911 255.655 120.185L256.17 120.038L260.87 124.489Z" fill="#A5636D"/>
<path opacity="0.1" d="M223.14 78.8828C223.14 78.8828 224.865 79.8126 225.257 81.1113C225.65 82.41 223.14 78.8828 223.14 78.8828ZM217.797 92.8057C217.797 92.8057 215.285 96.4245 216.299 97.8235C217.313 99.2226 217.797 92.8057 217.797 92.8057ZM262.716 80.9254C262.716 80.9254 260.361 81.2028 260.281 83.6173L262.716 80.9254ZM240.885 118.975C241.134 118.698 246.539 109.235 247.795 110.067L240.885 118.975ZM251.017 57.445C251.019 59.2639 250.638 61.0548 249.911 62.6576H249.841C249.249 62.51 248.942 61.6954 248.49 61.1818C248.211 60.8692 247.857 60.6673 247.477 60.6043C247.097 60.5413 246.71 60.6204 246.369 60.8305C246.025 61.0734 245.745 61.4251 245.561 61.846C245.377 62.2669 245.296 62.7402 245.328 63.2125C245.028 61.7367 245.123 60.1457 244.828 58.6581C244.534 57.1705 243.657 55.6622 242.453 55.6356C241.934 55.6356 241.329 55.8629 240.955 55.4024C240.727 55.125 240.682 54.6881 240.513 54.3517C239.651 52.7076 237.033 53.54 235.965 54.3841C234.896 55.2283 233.654 56.5743 232.326 57.2974C232.437 51.2619 236.629 46.4507 241.737 46.4944C246.845 46.5381 250.977 51.4201 251.015 57.4568L251.017 57.445Z" fill="black"/>
<path d="M240.515 54.0624C240.685 54.3989 240.73 54.8357 240.957 55.1132C241.332 55.5707 241.936 55.3346 242.456 55.3464C243.66 55.37 244.539 56.8783 244.831 58.3659C245.123 59.8535 245.028 61.4356 245.331 62.9203C245.299 62.4485 245.381 61.9758 245.565 61.5555C245.749 61.1351 246.028 60.7839 246.372 60.5413C246.712 60.331 247.099 60.2517 247.479 60.3147C247.859 60.3777 248.212 60.5798 248.49 60.8925C248.942 61.4002 249.239 62.2149 249.844 62.3684C250.448 62.5218 251.008 61.843 251.222 61.105C251.437 60.3671 251.42 59.5584 251.559 58.7939C251.827 57.3446 252.626 56.1581 253.058 54.7826C253.585 53.1079 253.57 51.2626 253.018 49.5995C252.723 48.714 252.286 47.9436 251.987 47.0729C251.537 45.7506 251.417 44.26 250.868 42.9996C249.944 40.8892 247.766 39.8355 245.977 40.6383C245.123 41.0191 244.381 41.754 243.515 42.0817C242.356 42.5215 241.115 42.1909 239.913 41.9931C238.712 41.7954 237.383 41.7776 236.417 42.7104C235.305 43.7848 235.001 45.8037 233.957 46.9844C233.517 47.4802 232.973 47.7961 232.511 48.2536C232.048 48.7111 231.649 49.3929 231.701 50.1367C231.771 51.099 232.568 51.9726 232.273 52.8611C232.167 53.1196 232.019 53.3504 231.836 53.54C230.962 54.6245 230.312 55.9325 229.936 57.3624C232.038 58.1386 234.311 55.3995 235.957 54.1155C237.039 53.2507 239.656 52.4154 240.515 54.0624V54.0624Z" fill="#4C3E42"/>
<path opacity="0.1" d="M260.87 124.489L259.894 125.442C259.032 123.745 255.493 120.356 255.493 120.356L255.646 120.182L256.16 120.035L260.87 124.489Z" fill="black"/>
<path d="M261.815 122.78L261.1 124.707C260.738 125.602 260.351 126.41 260.321 125.752C260.281 124.45 255.728 120.088 255.728 120.088L256.345 119.379L257.062 118.556L261.815 122.78Z" fill="#E7EFFD"/>
<path opacity="0.1" d="M261.972 115.911L262.487 126.266C261.268 124.025 257.919 118.278 255.766 118.464L260.988 111.38C261.206 111.095 261.407 110.791 261.587 110.471L261.972 115.911Z" fill="black"/>
<path opacity="0.1" d="M261.815 122.78L261.1 124.707C259.732 122.488 257.854 119.869 256.355 119.379L257.072 118.556L261.815 122.78Z" fill="black"/>
<path d="M265.741 85.2318L267.155 86.5305C267.155 86.5305 269.51 86.5777 269.745 88.8918C269.979 91.2059 272.14 92.2803 272.14 92.2803C272.14 92.2803 273.751 94.1812 273.751 95.0637C273.751 95.9463 274.967 97.5225 274.967 97.6612C274.967 97.7999 276.146 100.631 275.988 101.141C275.831 101.652 277.237 103.88 276.813 104.716C276.458 105.465 276.143 106.24 275.871 107.036C275.871 107.036 274.025 111.212 273.081 112C272.137 112.788 267.821 119.424 267.821 119.424C267.821 119.424 263.188 125.734 263.188 127.688C263.188 127.688 258.673 118.777 256.003 119.01L261.225 111.912C261.225 111.912 262.127 110.752 262.167 110.055C262.207 109.359 264.679 106.156 265.858 106.017C265.858 106.017 266.053 104.113 265.544 104.069C265.034 104.025 264.602 102.537 264.602 102.537C264.602 102.537 261.145 97.7114 261.105 94.6476C261.065 91.5837 265.741 85.2318 265.741 85.2318V85.2318Z" fill="#65617D"/>
<path opacity="0.1" d="M267.821 89.6593C267.821 89.6593 264.522 92.5342 265.229 93.464C265.935 94.3937 267.821 89.6593 267.821 89.6593ZM267.978 101.528C267.978 101.528 274.102 99.2079 274.722 101.528H267.978ZM224.768 89.0926C224.768 89.0926 224.768 99.6713 224.001 100.716C223.235 101.761 224.768 89.0926 224.768 89.0926ZM260.164 92.5017L261.302 96.2828C261.302 96.2828 261.754 92.5726 260.164 92.5017Z" fill="black"/>
<path opacity="0.1" d="M232.413 51.9431C232.7 51.0724 231.948 50.2194 231.848 49.2866C231.75 49.5499 231.707 49.8376 231.724 50.1249C231.774 50.8304 232.223 51.4856 232.33 52.1379C232.363 52.0761 232.391 52.0109 232.413 51.9431V51.9431ZM245.433 61.9374C245.15 60.4616 245.233 58.9238 244.948 57.4627C244.663 56.0016 243.777 54.4638 242.573 54.4402C242.053 54.4402 241.449 54.6645 241.074 54.207C240.847 53.9296 240.802 53.4927 240.632 53.1562C239.773 51.5122 237.156 52.3445 236.084 53.1887C234.478 54.4491 232.273 57.0878 230.213 56.4916C230.115 56.772 230.023 57.0554 229.945 57.3476C232.048 58.1239 234.321 55.3847 235.967 54.1008C237.038 53.2596 239.653 52.4242 240.515 54.0713C240.685 54.4077 240.73 54.8446 240.957 55.122C241.332 55.5796 241.936 55.3434 242.456 55.3552C243.659 55.3788 244.539 56.8871 244.831 58.3748C245.123 59.8624 245.028 61.4445 245.33 62.9292C245.308 62.5938 245.343 62.2566 245.433 61.9374V61.9374ZM251.337 60.1959C251.122 60.9338 250.563 61.6098 249.958 61.4592C249.354 61.3087 249.059 60.497 248.607 59.9834C248.328 59.6717 247.974 59.4706 247.594 59.4082C247.214 59.3457 246.827 59.4251 246.487 59.6351C246.159 59.8656 245.89 60.1955 245.707 60.5905C245.524 60.9854 245.433 61.4311 245.445 61.8813C245.603 61.3145 245.932 60.8363 246.369 60.5383C246.709 60.328 247.096 60.2488 247.476 60.3118C247.856 60.3748 248.209 60.5768 248.487 60.8896C248.939 61.3973 249.236 62.2119 249.841 62.3654C250.445 62.5189 251.005 61.84 251.22 61.1021C251.33 60.6675 251.402 60.2203 251.434 59.7679C251.408 59.9126 251.376 60.0554 251.337 60.1959V60.1959ZM253.183 53.8765C252.741 55.2519 251.934 56.4385 251.684 57.8848C251.629 58.18 251.599 58.4751 251.569 58.7703C251.836 57.3299 252.633 56.1463 253.068 54.7738C253.265 54.1557 253.387 53.5077 253.43 52.8493C253.371 53.1989 253.288 53.5423 253.183 53.8765V53.8765Z" fill="black"/>
<path d="M196.44 87.474C196.493 87.474 196.536 87.4227 196.536 87.3594C196.536 87.2961 196.493 87.2448 196.44 87.2448C196.387 87.2448 196.343 87.2961 196.343 87.3594C196.343 87.4227 196.387 87.474 196.44 87.474Z" fill="#E6E8EC"/>
<path d="M76.7649 129.084C76.1777 129.37 75.5677 129.586 74.9442 129.728C73.8545 129.969 72.7485 130.092 71.6399 130.097L71.7223 131.056L71.8172 132.411L70.6458 132.316L60.9853 131.537L55.3358 130.548C55.6085 130.981 55.9046 131.392 56.2224 131.779C56.5515 132.191 56.9323 132.54 57.3513 132.815C57.3513 132.815 62.4488 137.694 63.3305 137.739C63.4554 137.739 63.4953 137.886 63.4753 138.119C65.6207 138.119 72.2917 138.488 70.441 142.877C70.1349 143.66 69.595 144.281 68.925 144.622C66.7846 145.693 63.5553 143.766 61.8919 142.582L61.4373 143.604L60.9578 144.648L60.7905 144.507L52.2188 137.293L50.3407 135.41C49.789 135.38 49.2427 135.268 48.7147 135.076V135.076L48.465 134.982C48.4541 135.008 48.445 135.034 48.4375 135.062C48.3691 135.292 48.3181 135.529 48.2852 135.77V135.876C48.2501 136.151 48.2268 136.428 48.2152 136.706C48.2152 136.894 48.2027 137.095 48.2027 137.296C48.1878 141.316 49.5514 147.777 49.5514 147.777C49.5514 147.777 53.0855 158.43 51.8317 160.888C51.7671 161.013 51.6822 161.122 51.5819 161.207C51.1399 161.585 50.8751 162.258 50.7378 163.058C50.2707 165.667 51.0899 169.649 51.0899 169.649C51.0899 169.649 51.015 169.797 50.8876 170.027C50.612 170.547 50.3013 171.041 49.9585 171.503C49.9061 171.573 49.8511 171.647 49.7937 171.715C49.639 171.907 49.472 172.085 49.2942 172.246L49.3966 172.606C49.4402 172.772 49.4786 172.939 49.5115 173.108C49.7896 174.559 49.6805 176.076 49.1993 177.45C48.8719 178.452 48.6602 179.501 48.5699 180.57V180.57C48.4075 182.527 48.4503 184.5 48.6973 186.444C48.6598 186.42 48.6273 186.397 48.5899 186.376C45.8276 184.67 43.1044 182.888 40.4203 181.03L38.0751 179.392C37.1194 178.711 36.1678 178.023 35.2204 177.326L31.4741 174.496L30.8896 174.035L30.6649 173.855L29.7208 173.099C28.4295 171.127 27.2498 169.057 26.1892 166.901C26.0119 166.526 25.8521 166.169 25.7197 165.841V165.824L25.6348 165.608L25.2826 165.461L24.2012 164.994C24.5066 163.677 24.6529 162.316 24.6357 160.95C24.6158 158.294 23.9939 154.752 21.4314 151.912C17.6451 147.683 17.1231 143.506 17.0681 141.903V141.608C17.0669 141.473 17.0719 141.338 17.0831 141.204L17.3728 140.876C16.6385 140.702 15.9492 140.622 15.9492 140.622C15.9492 140.622 18.4618 129.878 22.6926 126.292C24.7906 124.521 26.5364 121.57 27.7702 119.037C30.0209 114.46 32.5484 110.081 35.3328 105.935L36.0946 104.798L36.3168 104.465L36.3643 104.397L36.4242 104.302C36.321 104.117 36.2161 103.934 36.1095 103.753L36.0396 103.632C35.7074 103.042 35.4227 102.452 35.4677 101.746V101.726V101.575C35.4783 101.457 35.4966 101.341 35.5226 101.227C35.5311 101.246 35.5412 101.263 35.5526 101.28C35.9097 100.052 37.2859 99.5089 38.2999 98.83C40.6901 97.2421 41.7091 93.768 42.2211 90.5359C42.6182 88.0211 42.9479 85.2023 44.5963 83.5877C45.6602 82.5487 47.0938 82.2064 48.1703 81.1762C48.7931 80.5258 49.308 79.7441 49.6888 78.871C49.9385 78.3692 50.1533 77.8497 50.3856 77.3479C51.4496 75.0752 52.8482 72.9618 54.6989 71.6011C56.5496 70.2404 58.8973 69.712 60.9253 70.627C61.7071 70.9783 62.4239 71.5125 63.1731 71.9051C63.6358 72.1281 64.1137 72.3039 64.6017 72.4305C66.1278 72.8526 67.7337 72.9618 69.1673 73.7145C71.4975 74.9364 73.0135 77.6402 74.3972 80.2081C75.114 81.5363 76.2404 83.4785 76.8798 85.4325V85.2288C77.1881 86.0893 77.3575 87.0103 77.3793 87.9444C77.3918 88.342 77.3556 88.7396 77.2719 89.125C77.0421 90.1286 76.4552 90.7632 75.7184 91.2295L75.601 91.2974C75.4435 91.3931 75.2817 91.4788 75.1165 91.5542C75.0915 91.7166 75.064 91.8819 75.0341 92.0412C75.0211 92.1105 75.0069 92.1793 74.9916 92.2479C74.9591 92.4132 74.9217 92.5755 74.8817 92.7378C74.3478 94.8475 73.3066 96.7282 71.8846 98.1512C70.8999 99.1468 69.7618 99.9084 68.5329 100.394C68.4455 100.43 68.3531 100.456 68.2657 100.489C68.1914 100.736 68.0852 100.968 67.951 101.177C67.8537 101.324 67.7393 101.454 67.6113 101.563C67.5315 101.627 67.4481 101.684 67.3615 101.734C67.3404 101.75 67.3177 101.763 67.2941 101.773C66.395 102.251 65.1637 101.876 64.297 101.162C64.2521 101.126 64.2096 101.085 64.1672 101.047C64.1672 101.215 64.1447 101.392 64.1197 101.575C64.0998 101.725 64.0765 101.875 64.0498 102.024C64.0223 102.177 64.0123 102.251 63.9948 102.36L63.9499 102.629L63.9199 102.779C63.4251 105.628 62.4813 108.342 61.1376 110.778C60.9428 111.127 60.7318 111.463 60.5057 111.785L59.8863 112.901V113.051C60.0037 115.619 59.2894 118.013 58.2804 120.073C57.9425 120.756 57.5714 121.415 57.169 122.048L57.3089 122.145C58.7075 123.087 61.4648 124.76 63.2081 124.619C63.2081 124.619 69.8017 125.625 70.5659 125.12C70.6708 125.05 70.7732 125.147 70.8681 125.356C71.9346 124.589 74.3872 122.963 76.3228 122.747C77.6765 122.594 78.7779 123.128 78.9827 125.109C79.1875 127.089 78.1785 128.367 76.7649 129.084V129.084Z" fill="url(#paint1_linear)"/>
<path d="M40.6727 169.673C41.0949 170.524 41.3467 171.478 41.4091 172.461C41.4714 173.445 41.3426 174.433 41.0324 175.349C40.4255 177.146 40.358 179.386 40.4205 181.031L38.0753 179.392C37.1195 178.712 36.168 178.023 35.2206 177.326L31.4742 174.496L30.8898 174.035L30.665 173.855C30.6454 173.812 30.621 173.772 30.5926 173.737C30.2579 173.318 28.3073 170.012 27.1484 167.503C26.9386 167.043 26.7563 166.618 26.6115 166.228V166.207C26.3617 165.552 26.2443 165.027 26.3192 164.788C26.41 164.411 26.5641 164.061 26.7722 163.756C26.9804 163.452 27.2383 163.2 27.5306 163.017C28.9692 162.131 31.2769 162.949 33.5597 164.25C35.5237 165.424 37.4061 166.779 39.1892 168.303L39.3915 168.477L39.4115 168.495C40.1607 169.124 40.5953 169.54 40.5953 169.54C40.5953 169.54 40.6278 169.587 40.6727 169.673V169.673Z" fill="#FBBEBE"/>
<path opacity="0.05" d="M40.2935 169.28C40.7165 170.132 40.9688 171.087 41.0311 172.072C41.0935 173.057 40.9642 174.045 40.6532 174.962C40.0463 176.759 39.9789 179 40.0413 180.647C39.2554 180.106 38.4737 179.559 37.6961 179.006C36.7387 178.325 35.7871 177.636 34.8414 176.94L31.1075 174.106L30.5231 173.645L30.2983 173.465C30.278 173.423 30.2537 173.383 30.2259 173.347C29.8912 172.931 27.9406 169.625 26.7817 167.113C26.5719 166.653 26.3896 166.228 26.2447 165.838V165.821C25.995 165.162 25.8776 164.64 25.9525 164.398C26.0437 164.022 26.198 163.671 26.406 163.367C26.6141 163.063 26.8718 162.811 27.1639 162.627C28.6025 161.741 30.9102 162.559 33.193 163.861C35.157 165.034 37.0394 166.389 38.8225 167.913L39.0248 168.088L39.0448 168.105C39.794 168.734 40.2286 169.15 40.2286 169.15C40.2286 169.15 40.2486 169.194 40.2935 169.28V169.28Z" fill="black"/>
<path d="M49.4895 176.438C49.4168 176.943 49.2988 177.438 49.1373 177.914C48.8607 178.77 48.6704 179.661 48.5704 180.57V180.57C48.3737 182.499 48.3804 184.449 48.5903 186.376C45.828 184.67 43.1049 182.888 40.4208 181.031L38.0756 179.392C37.9008 177.822 37.651 176.441 37.3688 176.101C36.9991 175.641 34.8887 172.075 33.5775 169.262C33.4076 168.908 33.2603 168.566 33.1229 168.241V168.226L32.9731 167.848C32.6359 166.992 32.4561 166.325 32.546 166.004C32.7212 165.304 33.0819 164.689 33.575 164.25C35.7903 162.338 40.3958 164.926 43.9324 167.497L44.0198 167.559C44.6891 168.052 45.3235 168.539 45.893 168.994L46.2251 169.259C47.6887 170.44 48.6603 171.358 48.6603 171.358C48.9016 171.798 49.0955 172.272 49.2372 172.769C49.3206 173.049 49.3899 173.335 49.4445 173.625C49.6173 174.55 49.6326 175.506 49.4895 176.438V176.438Z" fill="#FBBEBE"/>
<path opacity="0.1" d="M27.1609 167.503C28.9767 168.253 31.6566 169.248 33.1151 169.274C33.2662 169.28 33.4173 169.271 33.5672 169.248V169.248C34.5937 169.082 37.7581 169.348 40.6628 169.658L43.8746 170.018L46.2024 170.313V169.25C45.5555 168.725 44.8037 168.141 43.9995 167.55C40.4505 164.959 35.7875 162.311 33.5547 164.239C30.4103 162.444 27.2184 161.582 26.3118 164.776C26.2069 165.192 26.589 166.249 27.1609 167.503V167.503Z" fill="black"/>
<path d="M18.437 142.765C18.487 144.356 18.9915 148.486 22.6054 152.656C27.2159 157.969 25.2504 165.608 25.2504 165.608C25.2504 165.608 30.745 168.158 33.1152 168.226C33.2662 168.232 33.4174 168.223 33.5672 168.2C34.9884 167.967 40.6379 168.583 43.8847 168.97L46.2124 169.265V146.679L20.7522 139.371L18.447 142.086C18.4314 142.312 18.4281 142.539 18.437 142.765V142.765Z" fill="#5C5C8E"/>
<path opacity="0.1" d="M45.7955 168.985L46.2126 169.035V169.277L43.8849 168.982C41.5547 168.704 37.9931 168.309 35.6429 168.194C37.2689 168.023 42.6511 168.61 45.7955 168.985ZM18.4472 142.101L20.7525 139.386L22.291 139.825L20.3703 142.101C20.3581 142.327 20.3581 142.554 20.3703 142.78C20.4203 144.371 20.9248 148.497 24.5388 152.671C29.1493 157.984 27.1837 165.62 27.1837 165.62C27.1837 165.62 31.7293 167.73 34.3342 168.164C34.0838 168.163 33.8336 168.18 33.5849 168.214C33.4351 168.238 33.2839 168.246 33.1329 168.241C30.7627 168.17 25.2681 165.62 25.2681 165.62C25.2681 165.62 27.2336 157.984 22.6231 152.671C18.9917 148.497 18.4872 144.371 18.4372 142.789C18.428 142.56 18.4313 142.33 18.4472 142.101V142.101Z" fill="black"/>
<path d="M69.3223 126.815C69.3223 126.815 77.0223 120.504 77.5842 126.183C78.1462 131.862 69.3223 131.065 69.3223 131.065V126.815Z" fill="#FBBEBE"/>
<path d="M56.0452 122.629C56.0452 122.629 60.2087 125.876 62.5139 125.684C62.5139 125.684 68.8078 126.682 69.5396 126.183C70.2714 125.684 70.7209 133.391 70.7209 133.391L60.3785 132.526L53.745 131.331C53.745 131.331 50.4282 128.94 50.4282 126.88C50.4282 124.819 56.0452 122.629 56.0452 122.629V122.629Z" fill="#F7CDDD"/>
<path d="M56.0452 122.629C56.0452 122.629 60.2087 125.876 62.5139 125.684C62.5139 125.684 68.8078 126.682 69.5396 126.183C70.2714 125.684 70.7209 133.391 70.7209 133.391L60.3785 132.526L53.745 131.331C53.745 131.331 50.4282 128.94 50.4282 126.88C50.4282 124.819 56.0452 122.629 56.0452 122.629V122.629Z" fill="#F39C12"/>
<path d="M62.1492 139.052C62.1492 139.052 71.5126 138.595 69.4146 143.748C67.3167 148.902 60.2236 142.644 60.2236 142.644L62.1492 139.052Z" fill="#FBBEBE"/>
<path d="M52.7334 128.075C52.7334 128.075 60.321 121.366 59.2545 113.196C58.1881 105.026 52.7334 119.441 52.7334 119.441V128.075Z" fill="#5C5C8E"/>
<path d="M54.8364 91.0348C54.8379 93.9737 55.805 96.7972 57.5338 98.9097C58.4662 100.047 59.589 100.943 60.8306 101.54C61.2309 101.738 61.6434 101.899 62.0644 102.024C62.5116 102.16 62.9665 102.259 63.4256 102.319L64.4246 102.378C65.4978 102.375 66.5629 102.157 67.574 101.732C72.1888 99.8372 74.8612 94.1464 73.78 88.5161C72.6988 82.8858 68.2094 79.116 63.3549 79.7615C58.5004 80.407 54.8322 85.2616 54.8364 91.0348V91.0348Z" fill="#FBBEBE"/>
<path opacity="0.1" d="M18.437 142.765C19.2962 142.951 20.3576 143.294 20.3576 143.819C20.3576 144.705 32.3459 149.489 32.3459 149.489C32.3459 149.489 31.8964 150.726 33.0952 152.854C34.294 154.982 44.042 167.202 44.042 167.202L44.0096 167.562L43.8847 168.97L43.2903 175.703C43.2903 175.703 47.0366 174.109 48.2354 174.286C48.6226 174.342 49.0447 174.05 49.4318 173.625C49.2893 172.82 49.0244 172.053 48.65 171.361C48.65 171.361 47.6785 170.458 46.2124 169.262V146.679L20.7522 139.371L18.447 142.086C18.4314 142.312 18.4281 142.539 18.437 142.765V142.765Z" fill="black"/>
<path d="M17.3579 141.517C17.3579 141.517 20.355 141.868 20.355 142.756C20.355 143.645 32.3433 148.427 32.3433 148.427C32.3433 148.427 31.8937 149.663 33.0926 151.791C34.2914 153.92 44.0394 166.139 44.0394 166.139L43.2901 174.64C43.2901 174.64 47.0365 173.046 48.2353 173.223C48.7723 173.303 49.3642 172.716 49.8537 172.043C50.2598 171.475 50.6217 170.866 50.9351 170.222C50.9351 170.222 49.584 163.486 51.3847 161.892C53.1855 160.298 49.4366 148.61 49.4366 148.61C49.4366 148.61 47.7408 140.298 48.2403 136.732C48.2721 136.495 48.3205 136.261 48.3851 136.033C48.3851 136.006 48.3976 135.979 48.4076 135.953C49.4766 132.547 60.9753 103.972 60.9753 103.972C60.968 103.161 60.9196 102.352 60.8305 101.549C60.808 101.324 60.778 101.091 60.7406 100.858C60.6825 100.433 60.605 100.012 60.5083 99.5975C60.4434 99.3259 60.3734 99.0662 60.291 98.8183C59.9364 97.7379 59.3919 96.9085 58.5777 96.8879C58.5777 96.8879 57.6786 95.7072 55.5806 95.3943C54.0321 95.1553 51.8343 95.3943 48.8372 96.8879C41.7941 100.43 40.1457 100.607 40.1457 100.607L36.6041 106.088L35.8748 107.216C33.2094 111.325 30.7964 115.654 28.6544 120.17C27.4755 122.673 25.8072 125.593 23.8066 127.346C19.7581 130.891 17.3579 141.517 17.3579 141.517V141.517Z" fill="#F39C12"/>
<path opacity="0.1" d="M43.6276 121.035C43.6276 121.035 33.6224 123.957 29.7437 131.331L43.6276 121.035ZM40.5356 133.987C40.5356 133.987 38.645 148.999 39.1695 150.13C39.6939 151.26 40.5356 133.987 40.5356 133.987ZM41.2125 141.694C41.9417 142.821 44.8964 151.526 44.8964 151.526L44.0422 166.139L43.2929 174.64C43.2929 174.64 47.0393 173.046 48.2406 173.223C48.7751 173.303 49.3695 172.719 49.859 172.043C49.0798 167.063 47.4164 156.647 47.1117 156.446C46.7146 156.181 44.6916 147.81 44.5842 145.484C44.4768 143.158 41.6595 137.916 41.6595 137.916C41.6595 137.916 40.4807 140.566 41.2125 141.694ZM44.0422 127.346C44.2245 128.01 44.5142 131.862 44.5142 131.862C44.719 135.259 46.8919 136.369 48.2406 136.723C48.2724 136.486 48.3208 136.252 48.3855 136.024C49.2846 133.016 60.9757 103.963 60.9757 103.963C60.9636 102.488 60.8068 101.021 60.5086 99.5886C57.9636 98.7031 53.9325 100.067 53.9325 100.067C52.7687 99.8867 48.9699 108.815 48.9699 108.815L46.1601 116.584C45.8829 117.514 46.1601 119.046 46.0477 119.577C45.9354 120.108 44.7515 120.569 44.5842 121.304C44.4168 122.039 44.5267 123.491 44.4143 123.757C44.3019 124.022 43.8474 126.682 44.0422 127.346V127.346Z" fill="black"/>
<path d="M44.9407 126.815C45.1255 127.479 45.4127 131.331 45.4127 131.331C45.5826 134.158 47.1211 135.401 48.4098 135.944C48.9886 136.188 49.5943 136.332 50.2081 136.369L52.0163 138.223L60.3606 145.499C60.3606 145.499 63.4726 138.71 62.6284 138.666C61.7843 138.621 56.9165 133.795 56.9165 133.795C55.418 132.857 53.9344 129.716 53.2426 128.105C53.2834 127.91 53.3135 127.713 53.3325 127.514C53.6347 124.506 59.9286 112.992 59.9286 112.992C59.9286 112.992 62.3612 109.607 63.3103 103.334C63.3377 103.193 63.3552 103.039 63.3777 102.894C63.4046 102.699 63.4213 102.502 63.4277 102.304C63.54 99.8927 62.0565 99.016 60.2932 98.8065C59.3771 98.7223 58.4559 98.7559 57.5459 98.9068C56.6356 99.0412 55.7343 99.2503 54.8485 99.5326C54.0993 99.4174 52.2361 103.122 51.0173 105.746L49.8884 108.281L47.0586 116.053C46.7739 116.983 47.0586 118.512 46.9462 119.046C46.8339 119.58 45.65 120.038 45.4852 120.773C45.3203 121.508 45.4252 122.96 45.3128 123.225C45.2004 123.491 44.7509 126.151 44.9407 126.815V126.815Z" fill="#F39C12"/>
<path opacity="0.1" d="M35.2583 111.502C36.8418 113.426 39.4242 113.432 41.4872 112.455C43.5502 111.478 45.301 109.695 47.2166 108.323C48.4654 107.437 49.7741 106.69 50.9979 105.766C51.1749 105.63 51.3498 105.491 51.5224 105.347C52.9361 104.167 54.1574 102.652 55.6184 101.569C56.5977 100.804 57.7368 100.373 58.9102 100.324C59.4516 100.317 59.9877 100.45 60.4812 100.713C60.5674 100.757 60.6508 100.809 60.731 100.867C61.2112 101.195 61.6557 101.592 62.0547 102.047C62.4668 102.487 62.8639 102.956 63.3034 103.364C63.3309 103.222 63.3484 103.069 63.3709 102.924C63.3978 102.729 63.4145 102.531 63.4208 102.334C63.7505 102.372 64.0827 102.393 64.4198 102.393C65.4955 102.386 66.5623 102.162 67.5743 101.732C67.5743 101.684 67.5893 101.634 67.5968 101.587C67.9564 99.3555 68.5958 96.9912 70.1243 95.7367C71.0059 95.0077 72.4146 94.7125 73.6334 94.1576C74.795 89.3768 73.183 84.2595 69.6592 81.5396C66.1354 78.8196 61.5227 79.1334 58.2856 82.3123C55.0485 85.4912 53.9436 90.7933 55.561 95.3855C54.0125 95.1464 51.8147 95.3855 48.8176 96.879C41.7744 100.421 40.1261 100.598 40.1261 100.598L36.6045 106.088C36.9866 106.779 37.4187 107.461 37.4587 108.266C37.5386 109.76 36.3198 110.79 35.2583 111.502V111.502Z" fill="black"/>
<path d="M70.1362 94.6771C68.6152 95.9345 67.9683 98.2958 67.6087 100.524C67.4963 101.221 67.3889 101.956 67.0293 102.508C66.2225 103.745 64.5991 103.393 63.5452 102.508C62.4912 101.622 61.662 100.276 60.4856 99.6477C58.9222 98.8153 57.0865 99.4233 55.6254 100.507C54.1643 101.59 52.9405 103.104 51.5269 104.282C50.1607 105.421 48.6372 106.233 47.2136 107.257C45.3005 108.635 43.5522 110.415 41.4867 111.389C39.4212 112.363 36.8412 112.363 35.2603 110.439C36.3217 109.742 37.5405 108.712 37.4581 107.222C37.3757 105.731 35.9046 104.612 36.0045 103.089C36.1044 101.566 37.6254 100.958 38.7169 100.208C41.0022 98.6382 41.9637 95.1907 42.4632 92.0029C42.8429 89.5146 43.1551 86.7312 44.731 85.1344C45.745 84.1043 47.1212 83.7678 48.1427 82.7495C49.1117 81.7813 49.6412 80.3143 50.2606 78.9654C51.2771 76.7133 52.6108 74.6236 54.3766 73.2776C56.1424 71.9317 58.3877 71.4122 60.3258 72.3183C61.0751 72.6637 61.7444 73.2038 62.4787 73.5787C64.3019 74.5114 66.3924 74.3874 68.2006 75.3674C70.4259 76.5776 71.872 79.2518 73.1957 81.7902C74.3271 83.9596 76.54 87.7997 75.9206 90.6038C75.2887 93.4639 71.7871 93.3105 70.1362 94.6771V94.6771Z" fill="#7C5C5C"/>
<path opacity="0.1" d="M36.0048 102.903C36.0129 102.787 36.0304 102.671 36.0572 102.558C36.4593 103.308 36.9613 104.034 37.0088 104.919C37.0202 105.122 37.0059 105.326 36.9663 105.524C36.5192 104.674 35.9423 103.88 36.0048 102.903V102.903ZM41.0373 109.084C43.1028 108.104 44.8511 106.324 46.7643 104.952C48.1879 103.928 49.7114 103.116 51.0775 101.977C52.4912 100.796 53.715 99.2817 55.176 98.2014C56.6371 97.1211 58.4728 96.5101 60.0363 97.3424C61.2126 97.9711 62.0343 99.3023 63.0958 100.203C64.1573 101.103 65.7732 101.454 66.5799 100.217C66.942 99.6654 67.0469 98.9334 67.1593 98.2368C67.519 96.0053 68.1584 93.644 69.6869 92.3866C71.3403 91.0229 74.8393 91.1764 75.4737 88.2986C75.5794 87.788 75.6073 87.2593 75.5561 86.7371C75.9632 88.0152 76.1705 89.3021 75.9258 90.4238C75.2889 93.3016 71.7898 93.1481 70.1364 94.5118C68.6179 95.7692 67.9686 98.1305 67.6089 100.362C67.4965 101.059 67.3916 101.794 67.032 102.343C66.2228 103.579 64.5993 103.228 63.5354 102.328C62.4714 101.428 61.6522 100.096 60.4759 99.4676C58.9124 98.6352 57.0767 99.2462 55.6156 100.327C54.1545 101.407 52.9307 102.924 51.5171 104.102C50.1509 105.244 48.6274 106.053 47.2038 107.077C45.2907 108.458 43.5424 110.235 41.4769 111.209C39.4114 112.183 36.8314 112.18 35.2505 110.256C35.659 109.994 36.0468 109.69 36.4094 109.347C37.8529 109.97 39.5763 109.775 41.0373 109.084Z" fill="black"/>
<path d="M203.691 80.1078L193.451 67.9381C192.949 67.3315 192.351 66.8483 191.69 66.5166C191.029 66.1849 190.319 66.0111 189.601 66.0054C188.883 65.9996 188.171 66.1619 187.507 66.483C186.842 66.8041 186.238 67.2776 185.729 67.8761L121.427 143.226L94.2381 110.843C92.1359 108.323 88.7033 108.294 86.5706 110.778L76.2207 122.88C74.0923 125.392 74.0688 129.461 76.1682 132.007L117.458 181.187C119.583 183.703 123.025 183.732 125.18 181.252L203.634 89.2313C204.147 88.6385 204.556 87.9314 204.837 87.1509C205.118 86.3704 205.265 85.5318 205.271 84.6837C205.276 83.8355 205.139 82.9945 204.868 82.2091C204.597 81.4238 204.197 80.7096 203.691 80.1078V80.1078Z" fill="#F1C40F"/>
</g>
<defs>
<linearGradient id="paint0_linear" x1="236.959" y1="212.687" x2="236.959" y2="39.3041" gradientUnits="userSpaceOnUse">
<stop stop-color="#808080" stop-opacity="0.25"/>
<stop offset="0.54" stop-color="#808080" stop-opacity="0.12"/>
<stop offset="1" stop-color="#808080" stop-opacity="0.1"/>
</linearGradient>
<linearGradient id="paint1_linear" x1="13608.5" y1="81922.1" x2="13608.5" y2="36111.5" gradientUnits="userSpaceOnUse">
<stop stop-color="#808080" stop-opacity="0.25"/>
<stop offset="0.54" stop-color="#808080" stop-opacity="0.12"/>
<stop offset="1" stop-color="#808080" stop-opacity="0.1"/>
</linearGradient>
<clipPath id="clip0">
<rect width="287" height="223" fill="white"/>
</clipPath>
</defs>
</svg>
